<svg id="Layer_1" data-name="Layer 1" xmlns="http://www.w3.org/2000/svg" viewBox="0 0 325.23 112.75"><defs><style>.cls-1,.cls-12,.cls-13,.cls-15,.cls-17,.cls-3,.cls-4,.cls-5,.cls-6,.cls-7,.cls-9{fill:none;}.cls-1{stroke:#999;}.cls-1,.cls-12,.cls-13,.cls-3,.cls-4,.cls-5,.cls-6,.cls-7,.cls-9{stroke-linejoin:round;}.cls-1,.cls-4,.cls-5{stroke-width:2px;}.cls-2{fill:#231f20;}.cls-3{stroke:#262626;stroke-linecap:square;}.cls-12,.cls-13,.cls-3{stroke-width:0.5px;}.cls-4,.cls-6{stroke:#000;}.cls-5{stroke:#a7a9ac;}.cls-7{stroke:#4d4d4d;}.cls-7,.cls-9{stroke-width:1.5px;}.cls-8{fill:#4d4d4d;}.cls-9{stroke:#00a79c;}.cls-10{fill:#00a79c;}.cls-11{fill:#404040;}.cls-12,.cls-13{stroke:#231f20;}.cls-13{stroke-dasharray:1.96 1.96;}.cls-14{fill:#221f1f;}.cls-15,.cls-17{stroke:#221f1f;stroke-miterlimit:10;}.cls-15{stroke-width:0.75px;}.cls-16{fill:#fff;}.cls-18{fill:#cfd2d3;}</style></defs><line class="cls-1" x1="202.02" y1="58.54" x2="218.35" y2="58.77"/><path class="cls-2" d="M279.81,106.31V111h-.61v-4.7Z"/><path class="cls-2" d="M280.91,108.55c0-.35,0-.63,0-.91h.54l0,.55h0a1.25,1.25,0,0,1,1.12-.63c.47,0,1.19.28,1.19,1.44v2h-.61v-1.94c0-.55-.21-1-.78-1a.87.87,0,0,0-.83.63,1.11,1.11,0,0,0,0,.28v2h-.61Z"/><path class="cls-2" d="M287.18,110.88a2.13,2.13,0,0,1-1,.2,1.61,1.61,0,0,1-1.68-1.72,1.71,1.71,0,0,1,1.82-1.79,2.14,2.14,0,0,1,.85.17l-.14.48a1.36,1.36,0,0,0-.71-.17,1.18,1.18,0,0,0-1.2,1.28,1.16,1.16,0,0,0,1.17,1.26,1.74,1.74,0,0,0,.76-.17Z"/><path class="cls-2" d="M290.92,109.3a1.65,1.65,0,0,1-1.68,1.79,1.61,1.61,0,0,1-1.62-1.74,1.65,1.65,0,0,1,1.67-1.79A1.6,1.6,0,0,1,290.92,109.3Zm-2.68,0c0,.74.43,1.3,1,1.3s1-.55,1-1.31c0-.58-.28-1.3-1-1.3S288.24,108.69,288.24,109.33Z"/><path class="cls-2" d="M291.69,108.69c0-.4,0-.74,0-1h.53l0,.66h0a1,1,0,0,1,.94-.74l.17,0v.58a.68.68,0,0,0-.21,0,.86.86,0,0,0-.82.79,1.2,1.2,0,0,0,0,.28V111h-.61Z"/><path class="cls-2" d="M294,108.69c0-.4,0-.74,0-1h.53l0,.66h0a1,1,0,0,1,.94-.74l.17,0v.58a.65.65,0,0,0-.21,0,.86.86,0,0,0-.82.79,2.19,2.19,0,0,0,0,.28V111H294Z"/><path class="cls-2" d="M296.55,109.43a1.09,1.09,0,0,0,1.16,1.18,2.11,2.11,0,0,0,.93-.18l.11.44a2.72,2.72,0,0,1-1.12.21,1.56,1.56,0,0,1-1.66-1.7,1.64,1.64,0,0,1,1.58-1.82,1.43,1.43,0,0,1,1.39,1.59,1.8,1.8,0,0,1,0,.28Zm1.8-.43a.87.87,0,0,0-.85-1,1,1,0,0,0-.94,1Z"/><path class="cls-2" d="M302.11,110.88a2.17,2.17,0,0,1-1,.2,1.6,1.6,0,0,1-1.68-1.72,1.71,1.71,0,0,1,1.81-1.79,2.06,2.06,0,0,1,.85.17l-.14.48a1.31,1.31,0,0,0-.71-.17,1.17,1.17,0,0,0-1.19,1.28,1.15,1.15,0,0,0,1.17,1.26,1.74,1.74,0,0,0,.76-.17Z"/><path class="cls-2" d="M303.65,106.67v1h.88v.46h-.88v1.82c0,.42.12.66.46.66a1.49,1.49,0,0,0,.36,0l0,.46a1.42,1.42,0,0,1-.54.08.82.82,0,0,1-.66-.26,1.22,1.22,0,0,1-.24-.88V108.1h-.52v-.46h.52v-.81Z"/><path class="cls-2" d="M309.1,110.88a2.13,2.13,0,0,1-1,.2,1.61,1.61,0,0,1-1.68-1.72,1.72,1.72,0,0,1,1.82-1.79,2.14,2.14,0,0,1,.85.17l-.14.48a1.36,1.36,0,0,0-.71-.17,1.18,1.18,0,0,0-1.2,1.28,1.16,1.16,0,0,0,1.18,1.26,1.73,1.73,0,0,0,.75-.17Z"/><path class="cls-2" d="M309.82,106.06h.61v2.11h0a1.16,1.16,0,0,1,.44-.44,1.31,1.31,0,0,1,.62-.17c.46,0,1.18.28,1.18,1.44v2h-.61v-1.94c0-.54-.2-1-.78-1a.88.88,0,0,0-.82.61.68.68,0,0,0-.05.29v2h-.61Z"/><path class="cls-2" d="M316.75,109.3a1.66,1.66,0,0,1-1.69,1.79,1.6,1.6,0,0,1-1.61-1.74,1.65,1.65,0,0,1,1.67-1.79A1.6,1.6,0,0,1,316.75,109.3Zm-2.68,0c0,.74.42,1.3,1,1.3s1-.55,1-1.31c0-.58-.29-1.3-1-1.3S314.07,108.69,314.07,109.33Z"/><path class="cls-2" d="M318.2,106.69a.38.38,0,0,1-.76,0,.38.38,0,0,1,.38-.39A.37.37,0,0,1,318.2,106.69Zm-.68,4.32v-3.37h.61V111Z"/><path class="cls-2" d="M321.56,110.88a2.17,2.17,0,0,1-1,.2,1.6,1.6,0,0,1-1.68-1.72,1.71,1.71,0,0,1,1.81-1.79,2.14,2.14,0,0,1,.85.17l-.14.48a1.36,1.36,0,0,0-.71-.17,1.17,1.17,0,0,0-1.19,1.28,1.15,1.15,0,0,0,1.17,1.26,1.66,1.66,0,0,0,.75-.17Z"/><path class="cls-2" d="M322.58,109.43a1.08,1.08,0,0,0,1.16,1.18,2.15,2.15,0,0,0,.93-.18l.11.44a2.74,2.74,0,0,1-1.13.21,1.57,1.57,0,0,1-1.66-1.7,1.64,1.64,0,0,1,1.59-1.82,1.43,1.43,0,0,1,1.39,1.59,1.8,1.8,0,0,1,0,.28Zm1.8-.43a.87.87,0,0,0-.85-1,1,1,0,0,0-.94,1Z"/><path class="cls-2" d="M287.2,12.54a3,3,0,0,1-1.24.22,2.19,2.19,0,0,1-2.32-2.37,2.34,2.34,0,0,1,2.46-2.47,2.41,2.41,0,0,1,1.11.21l-.15.49a2.2,2.2,0,0,0-.94-.19,1.75,1.75,0,0,0-1.84,1.94,1.71,1.71,0,0,0,1.81,1.89,2.42,2.42,0,0,0,1-.2Z"/><path class="cls-2" d="M290.93,11a1.65,1.65,0,0,1-1.68,1.79A1.6,1.6,0,0,1,287.63,11a1.65,1.65,0,0,1,1.67-1.8A1.61,1.61,0,0,1,290.93,11Zm-2.68,0c0,.74.42,1.3,1,1.3s1-.55,1-1.31c0-.57-.29-1.3-1-1.3S288.25,10.37,288.25,11Z"/><path class="cls-2" d="M291.7,10.37q0-.58,0-1h.54l0,.66h0a1,1,0,0,1,.93-.74l.18,0v.58l-.21,0a.88.88,0,0,0-.83.79,2.33,2.33,0,0,0,0,.29v1.8h-.61Z"/><path class="cls-2" d="M294,10.37q0-.58,0-1h.54l0,.66h0a1,1,0,0,1,.93-.74l.18,0v.58l-.21,0a.86.86,0,0,0-.82.79,1.23,1.23,0,0,0,0,.29v1.8H294Z"/><path class="cls-2" d="M296.56,11.12a1.08,1.08,0,0,0,1.16,1.17,2.33,2.33,0,0,0,.93-.17l.11.44a3,3,0,0,1-1.13.2,1.57,1.57,0,0,1-1.66-1.7,1.64,1.64,0,0,1,1.59-1.82A1.43,1.43,0,0,1,299,10.83a1.85,1.85,0,0,1,0,.29Zm1.8-.44a.87.87,0,0,0-.85-1,1,1,0,0,0-.94,1Z"/><path class="cls-2" d="M302.12,12.57a2.35,2.35,0,0,1-1,.19A1.6,1.6,0,0,1,299.47,11a1.71,1.71,0,0,1,1.81-1.79,2.14,2.14,0,0,1,.85.17L302,9.9a1.45,1.45,0,0,0-.71-.16A1.17,1.17,0,0,0,300.09,11a1.16,1.16,0,0,0,1.17,1.27,1.66,1.66,0,0,0,.75-.17Z"/><path class="cls-2" d="M303.66,8.35v1h.88v.47h-.88v1.82c0,.42.12.65.46.65a1.33,1.33,0,0,0,.35,0l0,.46a1.46,1.46,0,0,1-.54.08.85.85,0,0,1-.66-.25,1.22,1.22,0,0,1-.24-.88V9.79h-.52V9.32h.52V8.51Z"/><path class="cls-2" d="M309.11,12.57a2.35,2.35,0,0,1-1,.19A1.6,1.6,0,0,1,306.46,11a1.71,1.71,0,0,1,1.81-1.79,2.06,2.06,0,0,1,.85.17L309,9.9a1.42,1.42,0,0,0-.71-.16A1.17,1.17,0,0,0,307.08,11a1.16,1.16,0,0,0,1.17,1.27,1.74,1.74,0,0,0,.76-.17Z"/><path class="cls-2" d="M309.83,7.74h.61V9.85h0a1.07,1.07,0,0,1,.44-.43,1.18,1.18,0,0,1,.62-.18c.46,0,1.18.28,1.18,1.45v2h-.61V10.76c0-.55-.2-1-.78-1a.9.9,0,0,0-.83.62.81.81,0,0,0,0,.29v2h-.61Z"/><path class="cls-2" d="M316.75,11a1.64,1.64,0,0,1-1.68,1.79A1.61,1.61,0,0,1,313.45,11a1.66,1.66,0,0,1,1.68-1.8A1.6,1.6,0,0,1,316.75,11Zm-2.68,0c0,.74.43,1.3,1,1.3s1-.55,1-1.31c0-.57-.28-1.3-1-1.3S314.07,10.37,314.07,11Z"/><path class="cls-2" d="M318.21,8.37a.38.38,0,1,1-.76,0,.37.37,0,0,1,.38-.38A.37.37,0,0,1,318.21,8.37Zm-.68,4.33V9.32h.61V12.7Z"/><path class="cls-2" d="M321.56,12.57a2.31,2.31,0,0,1-1,.19A1.61,1.61,0,0,1,318.91,11a1.71,1.71,0,0,1,1.82-1.79,2.14,2.14,0,0,1,.85.17l-.14.48a1.48,1.48,0,0,0-.71-.16,1.17,1.17,0,0,0-1.2,1.27,1.16,1.16,0,0,0,1.18,1.27,1.73,1.73,0,0,0,.75-.17Z"/><path class="cls-2" d="M322.59,11.12a1.07,1.07,0,0,0,1.15,1.17,2.39,2.39,0,0,0,.94-.17l.1.44a2.85,2.85,0,0,1-1.12.2,1.56,1.56,0,0,1-1.66-1.7,1.64,1.64,0,0,1,1.58-1.82,1.43,1.43,0,0,1,1.4,1.59c0,.13,0,.23,0,.29Zm1.8-.44a.88.88,0,0,0-.85-1,1,1,0,0,0-1,1Z"/><line class="cls-3" x1="201.48" y1="101.62" x2="201.48" y2="17.93"/><line class="cls-3" x1="201.48" y1="101.62" x2="202.57" y2="101.62"/><line class="cls-3" x1="201.48" y1="59.77" x2="202.57" y2="59.77"/><line class="cls-3" x1="201.48" y1="17.93" x2="202.57" y2="17.93"/><line class="cls-4" x1="201.48" y1="17.93" x2="310.86" y2="17.93"/><line class="cls-4" x1="201.48" y1="101.62" x2="310.86" y2="101.62"/><polyline class="cls-5" points="218.35 59.77 219.92 54.61 221.48 50.73 223.04 51.16 224.61 49.09 226.17 51.55 227.74 47 229.3 50.96 230.87 54.6 232.43 57.15 234 68.63 235.56 61.77 237.12 59.58 238.69 61.9 240.25 55.33 241.82 61.65 243.38 61.24 244.95 61.42 246.51 59.24 248.07 57.1 249.64 59.88 251.2 59.17 252.77 59.02 254.33 55.56 255.9 50.15 257.46 44.67 259.03 47.45 260.59 46.29 262.15 50.53 263.72 54.35 265.28 53.54 266.85 46.29 268.41 48.68 269.98 46.29 271.54 46.39 273.11 40.88 274.67 44.6 276.23 43.63 277.8 40.48 279.36 35.04 280.93 27.74 282.49 26.54 284.06 31.95 285.62 34.22 287.18 37.82 288.75 27.15 290.31 28.89 291.88 24.92 293.44 24.89 295.01 20.33 296.57 22.7 298.13 27.73 299.7 32.84 301.26 29.96 302.83 29.87 304.39 29.85 305.96 23.08 307.52 21.02 309.08 19.35 309.38 17.92"/><line class="cls-6" x1="201.48" y1="59.77" x2="310.26" y2="59.77"/><path d="M306.84,62.17a.25.25,0,0,1,.08-.34l3.22-2.06-3.22-2.05a.25.25,0,1,1,.27-.42l3.55,2.26a.25.25,0,0,1,.12.21.25.25,0,0,1-.12.22l-3.55,2.26a.25.25,0,0,1-.14,0,.25.25,0,0,1-.21-.12"/><line class="cls-7" x1="219.61" y1="59.15" x2="262.97" y2="17.68"/><path class="cls-8" d="M262.24,21.36a.22.22,0,0,1-.16-.27l.82-3.34-3.38.67a.23.23,0,0,1-.26-.18.21.21,0,0,1,.17-.26l3.73-.74a.22.22,0,0,1,.26.27l-.91,3.69a.24.24,0,0,1-.06.11.22.22,0,0,1-.21.05"/><line class="cls-9" x1="219.7" y1="59.15" x2="273.97" y2="17.63"/><path class="cls-10" d="M272.83,21.22a.24.24,0,0,1-.13-.29l1.18-3.24-3.43.3a.22.22,0,0,1-.24-.2.23.23,0,0,1,.2-.25l3.79-.32a.2.2,0,0,1,.19.08.25.25,0,0,1,0,.22l-1.31,3.56a.18.18,0,0,1-.07.1.24.24,0,0,1-.22,0"/><path class="cls-2" d="M198.23,101.35c0,1.88-.7,2.92-1.92,2.92s-1.82-1-1.83-2.84.8-2.88,1.92-2.88S198.23,99.59,198.23,101.35Zm-3,.09c0,1.44.44,2.25,1.12,2.25s1.13-.89,1.13-2.3-.35-2.26-1.12-2.26S195.23,99.93,195.23,101.44Z"/><path class="cls-2" d="M190,62.54l-.06-.52h0a1.52,1.52,0,0,1-1.26.62,1.18,1.18,0,0,1-1.26-1.19c0-1,.89-1.54,2.48-1.53v-.08a.85.85,0,0,0-.94-1,2,2,0,0,0-1.07.31l-.17-.5a2.55,2.55,0,0,1,1.35-.36c1.26,0,1.57.86,1.57,1.68v1.54a5.9,5.9,0,0,0,.07,1Zm-.11-2.1c-.82,0-1.75.13-1.75.93a.66.66,0,0,0,.71.71,1,1,0,0,0,1-.69.64.64,0,0,0,.05-.24Z"/><path class="cls-2" d="M191.16,62.88l2.38-6.17h.58l-2.39,6.17Z"/><path class="cls-2" d="M194.48,62.54v-.46l.58-.57c1.42-1.34,2.06-2.06,2.06-2.89A1,1,0,0,0,196,57.54a1.91,1.91,0,0,0-1.18.46l-.24-.52a2.42,2.42,0,0,1,1.57-.57,1.56,1.56,0,0,1,1.69,1.61c0,1-.74,1.85-1.9,3l-.45.4v0H198v.62Z"/><path class="cls-2" d="M197.07,20.91l-.06-.52h0a1.54,1.54,0,0,1-1.26.61,1.17,1.17,0,0,1-1.26-1.18c0-1,.88-1.54,2.48-1.54V18.2a.86.86,0,0,0-.94-1,2,2,0,0,0-1.07.31l-.17-.49a2.55,2.55,0,0,1,1.35-.37c1.26,0,1.57.86,1.57,1.69v1.54a6,6,0,0,0,.06,1ZM197,18.8c-.81,0-1.74.13-1.74.93a.66.66,0,0,0,.7.72,1,1,0,0,0,1-.69.71.71,0,0,0,0-.24Z"/><path class="cls-2" d="M175.58,88.3a9.76,9.76,0,0,1-.11-1.42,2.93,2.93,0,0,1,.65-2.1,2.37,2.37,0,0,1,1.85-.73,2.73,2.73,0,0,1,2,.75,3.19,3.19,0,0,1,.74,2.28,10.55,10.55,0,0,1-.06,1.22Zm4.57-.67a4.27,4.27,0,0,0,0-.68,2,2,0,0,0-2.19-2.2,1.85,1.85,0,0,0-2,2.1,3.7,3.7,0,0,0,.07.78Z"/><path class="cls-2" d="M179,82.84a1.2,1.2,0,0,0,1.29-1.28,2.62,2.62,0,0,0-.19-1l.48-.11a3,3,0,0,1,.23,1.23,1.72,1.72,0,0,1-1.87,1.83,1.81,1.81,0,0,1-2-1.74,1.58,1.58,0,0,1,1.75-1.54,2,2,0,0,1,.32,0Zm-.48-2a1,1,0,0,0-1.1.93,1.12,1.12,0,0,0,1.1,1Z"/><path class="cls-2" d="M180.55,76.72a2.56,2.56,0,0,1,.21,1.07,1.77,1.77,0,0,1-1.9,1.85,1.89,1.89,0,0,1-2-2,2.24,2.24,0,0,1,.19-.93l.53.15a1.46,1.46,0,0,0-.18.78,1.29,1.29,0,0,0,1.4,1.32,1.28,1.28,0,0,0,1.39-1.29,2,2,0,0,0-.18-.83Z"/><path class="cls-2" d="M175.92,75.18a.4.4,0,0,1,.42.43.4.4,0,0,1-.42.41.42.42,0,0,1-.42-.42A.4.4,0,0,1,175.92,75.18Zm4.76.75H177v-.67h3.71Z"/><path class="cls-2" d="M180,74.23a1.77,1.77,0,0,0,.27-.89c0-.49-.24-.72-.55-.72s-.5.19-.68.69c-.24.67-.61,1-1.06,1A1.15,1.15,0,0,1,176.88,73a1.84,1.84,0,0,1,.23-.91l.5.17a1.34,1.34,0,0,0-.22.76c0,.39.23.62.51.62s.44-.23.63-.71c.24-.64.56-1,1.12-1s1.11.5,1.11,1.39a2.16,2.16,0,0,1-.25,1Z"/><path class="cls-2" d="M175.92,70.35a.4.4,0,0,1,.42.43.4.4,0,0,1-.42.41.42.42,0,0,1-.42-.43A.4.4,0,0,1,175.92,70.35Zm4.76.75H177v-.67h3.71Z"/><path class="cls-2" d="M178.8,66a1.81,1.81,0,0,1,2,1.85,1.77,1.77,0,0,1-1.91,1.78,1.82,1.82,0,0,1-2-1.85A1.76,1.76,0,0,1,178.8,66Zm0,2.94c.82,0,1.43-.47,1.43-1.13s-.6-1.12-1.44-1.12c-.63,0-1.43.31-1.43,1.11S178.13,68.89,178.83,68.89Z"/><path class="cls-2" d="M178,65.1c-.38,0-.69,0-1,0v-.6l.61,0h0a1.39,1.39,0,0,1-.7-1.23c0-.52.31-1.32,1.59-1.32h2.21v.68h-2.14c-.6,0-1.1.22-1.1.86a1,1,0,0,0,.7.91.93.93,0,0,0,.31,0h2.23v.68Z"/><path class="cls-2" d="M177,59l2.09-.73c.33-.12.64-.22.95-.3v0c-.31-.08-.62-.19-.95-.31L177,56.87v-.71l3.71,1.46v.64L177,59.67Z"/><path class="cls-2" d="M180.68,53.47l-.46.05v0a1.36,1.36,0,0,1,.55,1.13,1.06,1.06,0,0,1-1.07,1.14c-.9,0-1.39-.8-1.38-2.24h-.08a.77.77,0,0,0-.86.85,1.89,1.89,0,0,0,.28,1l-.45.15a2.3,2.3,0,0,1-.33-1.22c0-1.14.78-1.41,1.52-1.41h1.39a4.73,4.73,0,0,0,.89-.07Zm-1.89.1c0,.74.11,1.57.83,1.57a.6.6,0,0,0,.65-.63.92.92,0,0,0-.62-.9.57.57,0,0,0-.22,0Z"/><path class="cls-2" d="M178.13,51.83c-.44,0-.82,0-1.16,0v-.59l.73,0v0a1.13,1.13,0,0,1-.82-1,.64.64,0,0,1,0-.2h.63a1.52,1.52,0,0,0,0,.23,1,1,0,0,0,.87.91,1.48,1.48,0,0,0,.31,0h2v.67Z"/><path class="cls-2" d="M175.92,48.57a.4.4,0,0,1,.42.43.4.4,0,0,1-.42.41.42.42,0,0,1-.42-.43A.4.4,0,0,1,175.92,48.57Zm4.76.75H177v-.67h3.71Z"/><path class="cls-2" d="M180.68,45.47l-.46.05v0a1.36,1.36,0,0,1,.55,1.13,1.06,1.06,0,0,1-1.07,1.14c-.9,0-1.39-.8-1.38-2.23h-.08a.77.77,0,0,0-.86.84,1.89,1.89,0,0,0,.28,1l-.45.15a2.3,2.3,0,0,1-.33-1.22c0-1.14.78-1.41,1.52-1.41h1.39a5.84,5.84,0,0,0,.89-.06Zm-1.89.1c0,.74.11,1.57.83,1.57a.6.6,0,0,0,.65-.63.93.93,0,0,0-.62-.9.85.85,0,0,0-.22,0Z"/><path class="cls-2" d="M180.68,43.86c-.25,0-.63,0-1,0h-4.49v-.67h2.34a1.38,1.38,0,0,1-.69-1.27c0-.92.77-1.57,1.9-1.57a1.77,1.77,0,0,1,2,1.67,1.31,1.31,0,0,1-.7,1.24v0l.61,0Zm-1.49-.7a1,1,0,0,0,.25,0,1,1,0,0,0,.79-1c0-.71-.57-1.13-1.43-1.13s-1.38.38-1.38,1.1a1.07,1.07,0,0,0,.83,1,1.11,1.11,0,0,0,.28,0Z"/><path class="cls-2" d="M175.23,39.47v-.68h5.45v.68Z"/><path class="cls-2" d="M179,37.28A1.19,1.19,0,0,0,180.24,36a2.54,2.54,0,0,0-.19-1l.48-.12a3,3,0,0,1,.23,1.24,1.72,1.72,0,0,1-1.87,1.82,1.81,1.81,0,0,1-2-1.74,1.57,1.57,0,0,1,1.75-1.53l.32,0Zm-.48-2a1,1,0,0,0-1.1.94,1.11,1.11,0,0,0,1.1,1Z"/><path class="cls-2" d="M289,50.47H287.4v-.58h3.86v.58h-1.59v4.65H289Z"/><path class="cls-2" d="M292.49,50.31a.4.4,0,0,1-.43.42.41.41,0,0,1-.41-.42.42.42,0,0,1,.43-.43A.4.4,0,0,1,292.49,50.31Zm-.76,4.81V51.36h.69v3.76Z"/><path class="cls-2" d="M293.55,52.38c0-.39,0-.71,0-1h.59l0,.61h0a1.29,1.29,0,0,1,1.18-.69,1.11,1.11,0,0,1,1.06.75h0a1.72,1.72,0,0,1,.42-.49,1.29,1.29,0,0,1,.83-.26c.5,0,1.23.33,1.23,1.63v2.21h-.66V53c0-.72-.27-1.15-.82-1.15a.87.87,0,0,0-.8.62,1.09,1.09,0,0,0-.06.34v2.32h-.66V52.87c0-.6-.27-1-.79-1a.93.93,0,0,0-.84.68.92.92,0,0,0-.06.33v2.27h-.66Z"/><path class="cls-2" d="M300.39,53.36a1.2,1.2,0,0,0,1.28,1.31,2.41,2.41,0,0,0,1-.2l.12.49a3,3,0,0,1-1.25.23,1.74,1.74,0,0,1-1.84-1.89,1.82,1.82,0,0,1,1.76-2,1.59,1.59,0,0,1,1.55,1.77,1.89,1.89,0,0,1,0,.31Zm2-.48a1,1,0,0,0-.95-1.11,1.12,1.12,0,0,0-1,1.11Z"/><path class="cls-11" d="M280.63,41.25a7.31,7.31,0,0,1,1.11-.08,2.31,2.31,0,0,1,1.64.5,1.86,1.86,0,0,1,.57,1.45,2.12,2.12,0,0,1-.58,1.57,2.49,2.49,0,0,1-1.79.59,8.52,8.52,0,0,1-.95-.05Zm.53,3.58a3.74,3.74,0,0,0,.52,0,1.56,1.56,0,0,0,1.72-1.72,1.44,1.44,0,0,0-1.63-1.56,2.8,2.8,0,0,0-.61.06Z"/><path class="cls-11" d="M284.63,41.25a5.78,5.78,0,0,1,1-.08,1.64,1.64,0,0,1,1.17.33,1,1,0,0,1,.32.76,1.08,1.08,0,0,1-.76,1h0a1,1,0,0,1,.59.82,7,7,0,0,0,.31,1.11h-.54a6.23,6.23,0,0,1-.27-1c-.12-.55-.33-.76-.81-.78h-.49v1.75h-.52Zm.52,1.84h.53c.56,0,.92-.3.92-.77s-.38-.74-.93-.75a1.92,1.92,0,0,0-.52,0Z"/><path class="cls-11" d="M289.07,46.08c0,.77-.29,1.2-.79,1.2s-.75-.42-.75-1.17.33-1.18.79-1.18S289.07,45.35,289.07,46.08Zm-1.24,0c0,.59.19.93.47.93s.46-.37.46-.95-.14-.92-.46-.92S287.83,45.49,287.83,46.11Z"/><path class="cls-2" d="M291.17,42.05v1.41h1.36v.36h-1.36v1.42h-.38V43.82h-1.35v-.36h1.35V42.05Z"/><path class="cls-10" d="M293.23,41.25a7.22,7.22,0,0,1,1.11-.08,2.29,2.29,0,0,1,1.63.5,1.86,1.86,0,0,1,.57,1.45,2.12,2.12,0,0,1-.58,1.57,2.48,2.48,0,0,1-1.78.59,8.25,8.25,0,0,1-.95-.05Zm.52,3.58a3.79,3.79,0,0,0,.53,0A1.56,1.56,0,0,0,296,43.14a1.45,1.45,0,0,0-1.64-1.56,2.88,2.88,0,0,0-.61.06Z"/><path class="cls-10" d="M297.22,41.25a6,6,0,0,1,1-.08,1.67,1.67,0,0,1,1.17.33,1,1,0,0,1,.31.76,1.07,1.07,0,0,1-.76,1h0a1,1,0,0,1,.59.82,6.63,6.63,0,0,0,.32,1.11h-.54a4.5,4.5,0,0,1-.27-1c-.12-.55-.34-.76-.81-.78h-.49v1.75h-.53Zm.53,1.84h.53c.56,0,.91-.3.91-.77s-.38-.74-.93-.75a1.78,1.78,0,0,0-.51,0Z"/><path class="cls-10" d="M300.24,47.24c0-.12,0-.29,0-.44v-2h.3v1.06h0a.64.64,0,0,1,.58-.31.75.75,0,0,1,.71.86.8.8,0,0,1-.76.91.6.6,0,0,1-.56-.32h0l0,.28Zm.31-.68a.36.36,0,0,0,0,.11A.48.48,0,0,0,301,47c.32,0,.51-.26.51-.65s-.17-.63-.5-.63a.51.51,0,0,0-.47.38s0,.08,0,.13Z"/><path class="cls-10" d="M302.58,45.07a.17.17,0,0,1-.19.19.18.18,0,0,1-.19-.19.19.19,0,0,1,.2-.19A.18.18,0,0,1,302.58,45.07Zm-.34,2.17V45.55h.31v1.69Z"/><path class="cls-10" d="M304,47.24l0-.22h0a.6.6,0,0,1-.52.26.48.48,0,0,1-.51-.49c0-.41.36-.63,1-.63v0a.34.34,0,0,0-.38-.39.81.81,0,0,0-.44.12l-.07-.2a1,1,0,0,1,.55-.15.6.6,0,0,1,.65.69v.63a1.76,1.76,0,0,0,0,.41Zm-.05-.87c-.33,0-.72.06-.72.39a.28.28,0,0,0,.29.29.42.42,0,0,0,.41-.28.44.44,0,0,0,0-.1Z"/><path class="cls-10" d="M304.7,46.92a.83.83,0,0,0,.41.13c.22,0,.33-.12.33-.26s-.09-.22-.32-.31-.44-.27-.44-.48a.52.52,0,0,1,.58-.49,1,1,0,0,1,.42.1l-.08.23a.61.61,0,0,0-.35-.1c-.18,0-.28.1-.28.23s.1.2.32.29.45.25.45.51-.24.5-.64.5a1,1,0,0,1-.47-.11Z"/><path class="cls-8" d="M232.27,22.32a7,7,0,0,1,1.11-.09,2.29,2.29,0,0,1,1.63.51,1.86,1.86,0,0,1,.57,1.45,2.12,2.12,0,0,1-.58,1.57,2.48,2.48,0,0,1-1.79.58,8.2,8.2,0,0,1-.94-.05Zm.52,3.57a2.7,2.7,0,0,0,.53,0A1.55,1.55,0,0,0,235,24.21a1.45,1.45,0,0,0-1.64-1.56,3,3,0,0,0-.61.05Z"/><path class="cls-8" d="M236.26,22.32a5,5,0,0,1,1-.09,1.69,1.69,0,0,1,1.17.33,1,1,0,0,1,.32.77,1,1,0,0,1-.76,1v0a1,1,0,0,1,.59.82,6.63,6.63,0,0,0,.32,1.11h-.54a4.93,4.93,0,0,1-.27-1c-.12-.56-.34-.77-.81-.79h-.49v1.76h-.53Zm.53,1.84h.53c.56,0,.91-.31.91-.77s-.38-.75-.93-.75a2.47,2.47,0,0,0-.51,0Z"/><path class="cls-8" d="M240.7,27.14c0,.78-.28,1.2-.79,1.2s-.74-.41-.75-1.16S239.49,26,240,26,240.7,26.42,240.7,27.14Zm-1.23,0c0,.59.18.92.46.92s.46-.36.46-.94-.14-.93-.46-.93S239.47,26.56,239.47,27.18Z"/><path class="cls-10" d="M178.37,8.2a9.66,9.66,0,0,1,1.29-.09,2.75,2.75,0,0,1,1.92.58,2.18,2.18,0,0,1,.66,1.7,2.48,2.48,0,0,1-.68,1.83,2.92,2.92,0,0,1-2.09.68c-.43,0-.79,0-1.1-.05Zm.61,4.18a3.64,3.64,0,0,0,.61,0,1.81,1.81,0,0,0,2-2,1.68,1.68,0,0,0-1.91-1.82,3.89,3.89,0,0,0-.71.06Z"/><path class="cls-10" d="M183,8.2a6.71,6.71,0,0,1,1.17-.09,1.94,1.94,0,0,1,1.37.38,1.2,1.2,0,0,1,.37.9,1.25,1.25,0,0,1-.89,1.2v0a1.18,1.18,0,0,1,.69,1,6.82,6.82,0,0,0,.37,1.3h-.64a6.56,6.56,0,0,1-.31-1.13c-.14-.65-.39-.89-.95-.91h-.57v2H183Zm.61,2.15h.62c.65,0,1.07-.35,1.07-.89s-.44-.88-1.09-.89a2.36,2.36,0,0,0-.6.06Z"/><path class="cls-10" d="M186.54,15.19c0-.13,0-.33,0-.51V12.3h.36v1.24h0a.75.75,0,0,1,.68-.37c.48,0,.83.41.83,1a.94.94,0,0,1-.89,1.06.71.71,0,0,1-.66-.37h0l0,.32Zm.38-.79a.53.53,0,0,0,0,.13.56.56,0,0,0,.54.42c.37,0,.6-.3.6-.76s-.2-.73-.59-.73a.57.57,0,0,0-.54.44.61.61,0,0,0,0,.15Z"/><path class="cls-10" d="M189.28,12.67a.21.21,0,0,1-.23.22.21.21,0,0,1-.21-.22.22.22,0,0,1,.22-.23A.21.21,0,0,1,189.28,12.67Zm-.4,2.52v-2h.36v2Z"/><path class="cls-10" d="M190.93,15.19l0-.25h0a.72.72,0,0,1-.6.3.57.57,0,0,1-.61-.57c0-.48.43-.74,1.19-.73v0a.41.41,0,0,0-.45-.46,1,1,0,0,0-.51.15l-.08-.24a1.18,1.18,0,0,1,.64-.18c.61,0,.75.42.75.81v.74a2.23,2.23,0,0,0,0,.47Zm-.05-1c-.39,0-.84.06-.84.44a.32.32,0,0,0,.34.34.49.49,0,0,0,.48-.33.52.52,0,0,0,0-.11Z"/><path class="cls-10" d="M191.76,14.82a.9.9,0,0,0,.47.15c.26,0,.38-.13.38-.3s-.1-.26-.36-.36-.53-.32-.53-.56a.62.62,0,0,1,.68-.58,1,1,0,0,1,.49.13l-.09.26a.76.76,0,0,0-.4-.12c-.22,0-.33.13-.33.27s.11.24.37.34.52.3.52.59-.27.59-.74.59a1.12,1.12,0,0,1-.55-.13Z"/><path class="cls-10" d="M194.27,10.5v-.42h3.61v.42Zm0,1.37v-.42h3.61v.42Z"/><path class="cls-10" d="M203.48,12.71a3.13,3.13,0,0,1-1.25.22,2.2,2.2,0,0,1-2.33-2.39,2.35,2.35,0,0,1,2.46-2.48,2.58,2.58,0,0,1,1.12.21l-.14.5a2.25,2.25,0,0,0-1-.2,1.76,1.76,0,0,0-1.84,1.95,1.72,1.72,0,0,0,1.82,1.9,2.38,2.38,0,0,0,1-.2Z"/><path class="cls-10" d="M204.24,8.2a6.94,6.94,0,0,1,1.17-.09,1.89,1.89,0,0,1,1.32.39,1.24,1.24,0,0,1,.41,1,1.37,1.37,0,0,1-.36,1,1.93,1.93,0,0,1-1.44.52,2.43,2.43,0,0,1-.49,0v1.89h-.61Zm.61,2.27a1.79,1.79,0,0,0,.5,0c.74,0,1.18-.36,1.18-1s-.44-.92-1.11-.92a2.39,2.39,0,0,0-.57.05Z"/><path class="cls-10" d="M211.84,12.73a2.17,2.17,0,0,1-1,.2,1.61,1.61,0,0,1-1.69-1.73A1.72,1.72,0,0,1,211,9.4a1.92,1.92,0,0,1,.85.18l-.14.47a1.42,1.42,0,0,0-.71-.16,1.18,1.18,0,0,0-1.2,1.28A1.16,1.16,0,0,0,211,12.44a1.74,1.74,0,0,0,.76-.17Z"/><path class="cls-10" d="M215.59,11.14a1.66,1.66,0,0,1-1.69,1.8,1.61,1.61,0,0,1-1.63-1.75A1.66,1.66,0,0,1,214,9.39,1.61,1.61,0,0,1,215.59,11.14Zm-2.69,0c0,.75.42,1.31,1,1.31s1-.56,1-1.32c0-.58-.29-1.3-1-1.3S212.9,10.53,212.9,11.17Z"/><path class="cls-10" d="M216.71,11.28a1.08,1.08,0,0,0,1.16,1.17,2.22,2.22,0,0,0,.94-.17l.1.44a2.74,2.74,0,0,1-1.13.21,1.57,1.57,0,0,1-1.66-1.71,1.65,1.65,0,0,1,1.59-1.83,1.44,1.44,0,0,1,1.4,1.6c0,.13,0,.22,0,.29Zm1.8-.44a.87.87,0,0,0-.85-1,1,1,0,0,0-.95,1Z"/><path class="cls-10" d="M222,12.86V9.94h-1.42v2.92h-.61V9.94h-.47V9.47h.47V9.36a1.6,1.6,0,0,1,.38-1.16,1.19,1.19,0,0,1,.85-.31,1.07,1.07,0,0,1,.49.12l-.13.45a.91.91,0,0,0-.36-.08c-.49,0-.62.41-.62.94v.15H222V9.31a1.61,1.61,0,0,1,.4-1.18,1.15,1.15,0,0,1,.82-.32,1.38,1.38,0,0,1,.53.1l-.08.47a1,1,0,0,0-.4-.07c-.52,0-.66.46-.66,1v.18h.82v.47h-.81v2.92Z"/><path class="cls-10" d="M223.69,14.82a1,1,0,0,0,.48.15c.26,0,.38-.13.38-.3s-.1-.26-.37-.36-.52-.32-.52-.56a.62.62,0,0,1,.68-.58,1,1,0,0,1,.49.13l-.09.26a.77.77,0,0,0-.41-.12.29.29,0,0,0-.33.27c0,.17.12.24.38.34s.51.3.51.59-.26.59-.73.59a1.16,1.16,0,0,1-.56-.13Z"/><path class="cls-10" d="M225.76,12.67a.22.22,0,0,1-.23.22.22.22,0,0,1-.22-.22.23.23,0,0,1,.23-.23A.22.22,0,0,1,225.76,12.67Zm-.4,2.52v-2h.36v2Z"/><path class="cls-10" d="M226.6,9.18l1.5,1.53,1.5-1.53.31.3L228.4,11l1.51,1.53-.31.31-1.5-1.53-1.5,1.53-.3-.31L227.79,11,226.3,9.48Z"/><path class="cls-10" d="M233,12.34h0a1.23,1.23,0,0,1-1.11.6,1.55,1.55,0,0,1-1.44-1.72A1.63,1.63,0,0,1,232,9.39a1.12,1.12,0,0,1,1,.59h0l0-.51h.58c0,.29,0,.58,0,.93v3.85H233Zm0-1.5a1.15,1.15,0,0,0,0-.26.91.91,0,0,0-.88-.7c-.64,0-1,.54-1,1.31s.32,1.26,1,1.26a.92.92,0,0,0,.88-.67,1,1,0,0,0,0-.3Z"/><path class="cls-10" d="M234.38,10.16a.9.9,0,0,0,.47.15c.26,0,.38-.14.38-.3s-.1-.26-.36-.36-.53-.32-.53-.56a.61.61,0,0,1,.68-.58,1.07,1.07,0,0,1,.49.12l-.09.27a.76.76,0,0,0-.4-.12c-.22,0-.33.12-.33.27s.11.24.37.33.52.31.52.6-.27.59-.74.59a1.12,1.12,0,0,1-.55-.13Z"/><path class="cls-10" d="M236.44,8c0,.13-.08.22-.23.22A.21.21,0,0,1,236,8a.22.22,0,0,1,.22-.22A.21.21,0,0,1,236.44,8Zm-.4,2.53v-2h.36v2Z"/><path class="cls-10" d="M240.5,9.13v1.65h1.58v.42H240.5v1.66h-.45V11.2h-1.59v-.42h1.59V9.13Z"/><path class="cls-10" d="M247.67,12.71a3.06,3.06,0,0,1-1.25.22,2.2,2.2,0,0,1-2.33-2.39,2.35,2.35,0,0,1,2.47-2.48,2.62,2.62,0,0,1,1.12.21l-.15.5a2.24,2.24,0,0,0-.95-.2,1.75,1.75,0,0,0-1.84,1.95,1.71,1.71,0,0,0,1.81,1.9,2.38,2.38,0,0,0,1-.2Z"/><path class="cls-10" d="M248.43,8.2a7,7,0,0,1,1.17-.09,1.89,1.89,0,0,1,1.32.39,1.25,1.25,0,0,1,.42,1,1.38,1.38,0,0,1-.37,1,1.91,1.91,0,0,1-1.44.52,2.43,2.43,0,0,1-.49,0v1.89h-.61Zm.61,2.27a1.79,1.79,0,0,0,.5,0c.74,0,1.19-.36,1.19-1s-.44-.92-1.11-.92a2.49,2.49,0,0,0-.58.05Z"/><path class="cls-10" d="M256,12.73a2.13,2.13,0,0,1-1,.2,1.61,1.61,0,0,1-1.69-1.73,1.73,1.73,0,0,1,1.82-1.8,2,2,0,0,1,.86.18l-.14.47a1.5,1.5,0,0,0-.72-.16A1.17,1.17,0,0,0,254,11.17a1.16,1.16,0,0,0,1.17,1.27,1.74,1.74,0,0,0,.76-.17Z"/><path class="cls-10" d="M259.79,11.14a1.66,1.66,0,0,1-1.69,1.8,1.61,1.61,0,0,1-1.63-1.75,1.66,1.66,0,0,1,1.69-1.8A1.61,1.61,0,0,1,259.79,11.14Zm-2.69,0c0,.75.42,1.31,1,1.31s1-.56,1-1.32c0-.58-.29-1.3-1-1.3S257.1,10.53,257.1,11.17Z"/><path class="cls-10" d="M260.91,11.28a1.08,1.08,0,0,0,1.16,1.17,2.22,2.22,0,0,0,.94-.17l.1.44a2.74,2.74,0,0,1-1.13.21,1.57,1.57,0,0,1-1.66-1.71,1.65,1.65,0,0,1,1.59-1.83,1.44,1.44,0,0,1,1.4,1.6c0,.13,0,.22,0,.29Zm1.8-.44a.87.87,0,0,0-.85-1,1,1,0,0,0-.95,1Z"/><path class="cls-10" d="M266.16,12.86V9.94h-1.42v2.92h-.61V9.94h-.47V9.47h.47V9.36a1.6,1.6,0,0,1,.38-1.16,1.19,1.19,0,0,1,.85-.31,1.07,1.07,0,0,1,.49.12l-.13.45a.91.91,0,0,0-.36-.08c-.49,0-.62.41-.62.94v.15h1.42V9.31a1.61,1.61,0,0,1,.4-1.18,1.15,1.15,0,0,1,.82-.32,1.38,1.38,0,0,1,.53.1l-.08.47a1,1,0,0,0-.4-.07c-.52,0-.66.46-.66,1v.18h.82v.47h-.81v2.92Z"/><path class="cls-10" d="M268,15.19v-1.7h-.27v-.27H268v-.09a.92.92,0,0,1,.28-.68.93.93,0,0,1,.63-.2,1.26,1.26,0,0,1,.59.13v2.81h-.35V12.58a.71.71,0,0,0-.3-.05c-.37,0-.49.27-.49.59v.1h.46v.27h-.46v1.7Z"/><path class="cls-10" d="M270.38,9.18l1.5,1.53,1.5-1.53.31.3L272.18,11l1.51,1.53-.31.31-1.5-1.53-1.5,1.53-.31-.31,1.5-1.53-1.5-1.54Z"/><path class="cls-10" d="M276.79,12.34h0a1.21,1.21,0,0,1-1.1.6,1.55,1.55,0,0,1-1.44-1.72,1.62,1.62,0,0,1,1.53-1.83,1.12,1.12,0,0,1,1.05.59h0l0-.51h.58c0,.29,0,.58,0,.93v3.85h-.61Zm0-1.5a1.15,1.15,0,0,0,0-.26.91.91,0,0,0-.88-.7c-.64,0-1,.54-1,1.31s.33,1.26,1,1.26a.93.93,0,0,0,.88-.67,1,1,0,0,0,.05-.3Z"/><path class="cls-10" d="M278.24,10.53V8.83H278V8.56h.28V8.47a.87.87,0,0,1,.28-.68.93.93,0,0,1,.63-.2,1.29,1.29,0,0,1,.59.13v2.81h-.36V7.92a.65.65,0,0,0-.29,0c-.37,0-.5.27-.5.59v.1h.46v.27h-.46v1.7Z"/><line class="cls-12" x1="201.98" y1="67.31" x2="207.64" y2="67.31"/><polygon class="cls-2" points="206.65 68.16 207.49 67.31 206.65 66.46 207.37 66.46 208.21 67.31 207.37 68.16 206.65 68.16"/><path class="cls-2" d="M211.53,69a.69.69,0,0,1-.28,0c-.45,0-.65-.28-.65-.87V66.54h-.31a2.33,2.33,0,0,0-.57,0l-.07-.3a1.37,1.37,0,0,1,.77-.15h1.63l-.07.4h-.87v1.6c0,.38.15.48.33.48h.12Z"/><line class="cls-12" x1="219.58" y1="67.31" x2="213.91" y2="67.31"/><polygon class="cls-2" points="214.91 66.46 214.06 67.31 214.91 68.16 214.19 68.16 213.34 67.31 214.19 66.46 214.91 66.46"/><line class="cls-12" x1="219.7" y1="18.84" x2="219.7" y2="19.84"/><line class="cls-13" x1="219.7" y1="21.8" x2="219.7" y2="99.02"/><line class="cls-12" x1="219.7" y1="100" x2="219.7" y2="101"/><line class="cls-12" x1="201.41" y1="91.2" x2="234.02" y2="91.2"/><polygon class="cls-2" points="233.02 92.05 233.87 91.2 233.02 90.35 233.74 90.35 234.59 91.2 233.74 92.05 233.02 92.05"/><path class="cls-2" d="M237,89.53a5.42,5.42,0,0,1,1-.08,1.64,1.64,0,0,1,1.14.32,1,1,0,0,1,.31.75,1,1,0,0,1-.74,1v0a1,1,0,0,1,.57.79,6.29,6.29,0,0,0,.31,1.08H239a5.47,5.47,0,0,1-.26-.94c-.12-.54-.33-.75-.79-.76h-.47v1.7H237Zm.51,1.79H238c.55,0,.89-.3.89-.74s-.37-.73-.9-.74a1.7,1.7,0,0,0-.5,0Z"/><path class="cls-2" d="M240.91,89.91h-1.2v-.43h2.91v.43h-1.2v3.5h-.51Z"/><line class="cls-12" x1="310.86" y1="91.2" x2="246.34" y2="91.2"/><polygon class="cls-2" points="247.34 90.35 246.49 91.2 247.34 92.05 246.62 92.05 245.77 91.2 246.62 90.35 247.34 90.35"/><line class="cls-12" x1="310.86" y1="17.93" x2="310.86" y2="18.93"/><line class="cls-13" x1="310.86" y1="20.88" x2="310.86" y2="98.11"/><line class="cls-12" x1="310.86" y1="99.09" x2="310.86" y2="100.09"/><path class="cls-10" d="M246.64,76.48a1.35,1.35,0,0,0,.7.21c.38,0,.56-.19.56-.43s-.15-.39-.54-.53-.76-.47-.76-.82a.89.89,0,0,1,1-.86,1.39,1.39,0,0,1,.71.19l-.13.38a1.12,1.12,0,0,0-.59-.17c-.32,0-.49.18-.49.4s.17.34.55.49.76.44.76.87-.39.87-1.08.87a1.68,1.68,0,0,1-.82-.19Z"/><path class="cls-10" d="M249.68,73.31a.33.33,0,0,1-.65,0,.33.33,0,1,1,.65,0ZM249.09,77v-2.9h.53V77Z"/><path class="cls-10" d="M250.37,74.6a.36.36,0,0,1,.36-.38.35.35,0,0,1,.35.38.36.36,0,1,1-.71,0Zm0,2.12a.36.36,0,0,1,.36-.38.35.35,0,0,1,.35.38.36.36,0,1,1-.71,0Z"/><path class="cls-10" d="M252.94,76.48a1.28,1.28,0,0,0,.69.21c.39,0,.57-.19.57-.43s-.15-.39-.54-.53-.77-.47-.77-.82a.9.9,0,0,1,1-.86,1.43,1.43,0,0,1,.72.19l-.14.38a1.12,1.12,0,0,0-.59-.17c-.31,0-.49.18-.49.4s.18.34.56.49.76.44.76.87-.4.87-1.09.87a1.62,1.62,0,0,1-.81-.19Z"/><path class="cls-10" d="M256,73.31a.3.3,0,0,1-.33.32.31.31,0,0,1-.32-.32.32.32,0,0,1,.33-.33A.31.31,0,0,1,256,73.31ZM255.39,77v-2.9h.52V77Z"/><path class="cls-10" d="M256.79,74.91c0-.3,0-.55,0-.79h.46l0,.47h0a1,1,0,0,1,.91-.54.86.86,0,0,1,.82.59h0a1.13,1.13,0,0,1,.33-.38,1,1,0,0,1,.64-.21c.38,0,.95.26.95,1.26V77h-.51V75.38c0-.56-.21-.89-.63-.89a.69.69,0,0,0-.63.48,1,1,0,0,0,0,.26V77h-.51V75.28c0-.46-.21-.79-.61-.79a.71.71,0,0,0-.65.52.75.75,0,0,0-.05.26V77h-.51Z"/><path class="cls-10" d="M264.42,75.55A1.42,1.42,0,0,1,263,77.09a1.39,1.39,0,0,1-1.4-1.49A1.43,1.43,0,0,1,263,74.05,1.38,1.38,0,0,1,264.42,75.55Zm-2.3,0c0,.63.36,1.11.88,1.11s.88-.47.88-1.12c0-.5-.25-1.12-.87-1.12S262.12,75,262.12,75.58Z"/><path class="cls-10" d="M265.09,74.91c0-.3,0-.55,0-.79h.47l0,.48h0a1.09,1.09,0,0,1,1-.55c.41,0,1,.25,1,1.24V77H267V75.35c0-.47-.17-.86-.67-.86a.76.76,0,0,0-.71.54,1,1,0,0,0,0,.25V77h-.53Z"/><path class="cls-10" d="M272.32,75.55a1.42,1.42,0,0,1-1.45,1.54,1.38,1.38,0,0,1-1.39-1.49,1.43,1.43,0,0,1,1.44-1.55A1.38,1.38,0,0,1,272.32,75.55Zm-2.31,0c0,.63.37,1.11.89,1.11s.88-.47.88-1.12c0-.5-.25-1.12-.87-1.12S270,75,270,75.58Z"/><path class="cls-10" d="M273,75c0-.35,0-.64,0-.91h.46l0,.57h0a.88.88,0,0,1,.81-.64l.15,0v.5l-.18,0a.75.75,0,0,0-.71.68,1.81,1.81,0,0,0,0,.25V77H273Z"/><path class="cls-10" d="M276.22,74.91c0-.3,0-.55,0-.79h.47l0,.48h0a1.09,1.09,0,0,1,1-.55c.41,0,1,.25,1,1.24V77h-.53V75.35c0-.47-.17-.86-.67-.86a.76.76,0,0,0-.71.54,1,1,0,0,0,0,.25V77h-.53Z"/><path class="cls-10" d="M282.17,75.55a1.42,1.42,0,0,1-1.44,1.54,1.38,1.38,0,0,1-1.39-1.49,1.42,1.42,0,0,1,1.44-1.55A1.38,1.38,0,0,1,282.17,75.55Zm-2.3,0c0,.63.37,1.11.88,1.11s.88-.47.88-1.12c0-.5-.24-1.12-.87-1.12S279.87,75,279.87,75.58Z"/><path class="cls-10" d="M282.84,74.91c0-.3,0-.55,0-.79h.47l0,.48h0a1.08,1.08,0,0,1,1-.55c.4,0,1,.25,1,1.24V77h-.53V75.35c0-.47-.17-.86-.67-.86a.77.77,0,0,0-.71.54,1,1,0,0,0,0,.25V77h-.53Z"/><path class="cls-10" d="M287.39,75.21v.39h-1.48v-.39Z"/><path class="cls-10" d="M287.94,76.48a1.32,1.32,0,0,0,.7.21c.38,0,.56-.19.56-.43s-.15-.39-.54-.53-.77-.47-.77-.82a.9.9,0,0,1,1-.86,1.4,1.4,0,0,1,.72.19l-.13.38a1.19,1.19,0,0,0-.6-.17c-.31,0-.48.18-.48.4s.17.34.55.49.76.44.76.87-.4.87-1.09.87a1.64,1.64,0,0,1-.81-.19Z"/><path class="cls-10" d="M291,73.31a.33.33,0,0,1-.66,0,.32.32,0,0,1,.33-.33A.31.31,0,0,1,291,73.31ZM290.39,77v-2.9h.53V77Z"/><path class="cls-10" d="M291.79,74.91c0-.3,0-.55,0-.79h.46l0,.47h0a1,1,0,0,1,.91-.54.88.88,0,0,1,.83.59h0a1.11,1.11,0,0,1,.32-.38,1,1,0,0,1,.64-.21c.39,0,1,.26,1,1.26V77h-.52V75.38c0-.56-.2-.89-.63-.89a.72.72,0,0,0-.66.74V77h-.52V75.28c0-.46-.2-.79-.61-.79a.71.71,0,0,0-.65.52.75.75,0,0,0,0,.26V77h-.52Z"/><path class="cls-10" d="M299.42,75.55A1.42,1.42,0,0,1,298,77.09a1.38,1.38,0,0,1-1.39-1.49A1.42,1.42,0,0,1,298,74.05,1.38,1.38,0,0,1,299.42,75.55Zm-2.3,0c0,.63.37,1.11.88,1.11s.88-.47.88-1.12c0-.5-.24-1.12-.87-1.12S297.12,75,297.12,75.58Z"/><path class="cls-10" d="M300.09,74.91c0-.3,0-.55,0-.79h.47l0,.48h0a1.08,1.08,0,0,1,1-.55c.4,0,1,.25,1,1.24V77H302V75.35c0-.47-.17-.86-.67-.86a.77.77,0,0,0-.71.54,1,1,0,0,0,0,.25V77h-.53Z"/><path class="cls-10" d="M246.77,84.22v-2.5h-.41v-.4h.41V81.2a1.32,1.32,0,0,1,.41-1,1.4,1.4,0,0,1,.93-.29,1.9,1.9,0,0,1,.87.19v4.13h-.52V80.39a.93.93,0,0,0-.44-.08c-.55,0-.73.4-.73.87v.14H248v.4h-.68v2.5Z"/><path class="cls-10" d="M249.73,81.8a.36.36,0,0,1,.36-.38.38.38,0,1,1-.36.38Zm0,2.12a.36.36,0,0,1,.36-.38.38.38,0,1,1-.36.38Z"/><path class="cls-10" d="M252.42,84.22v-2.5H252v-.4h.41V81.2a1.32,1.32,0,0,1,.41-1,1.4,1.4,0,0,1,.93-.29,1.9,1.9,0,0,1,.87.19v4.13h-.52V80.39a.93.93,0,0,0-.44-.08c-.55,0-.73.4-.73.87v.14h.68v.4h-.68v2.5Z"/><path class="cls-10" d="M257.11,84.22l0-.36h0a1.06,1.06,0,0,1-.88.43.83.83,0,0,1-.89-.83c0-.7.62-1.09,1.74-1.08v-.06a.59.59,0,0,0-.66-.67,1.43,1.43,0,0,0-.75.21l-.12-.35a1.86,1.86,0,0,1,.95-.25c.89,0,1.1.6,1.1,1.18v1.09a4.65,4.65,0,0,0,0,.69ZM257,82.74c-.58,0-1.23.09-1.23.66a.46.46,0,0,0,.49.5.71.71,0,0,0,.7-.49.47.47,0,0,0,0-.16Z"/><path class="cls-10" d="M258.4,82.11c0-.3,0-.55,0-.79h.47l0,.48h0a1.08,1.08,0,0,1,1-.54c.41,0,1,.24,1,1.23v1.73h-.53V82.55c0-.47-.17-.86-.67-.86a.76.76,0,0,0-.71.54,1,1,0,0,0,0,.25v1.74h-.53Z"/><path class="cls-10" d="M262.25,82.65h0c.07-.1.18-.23.26-.33l.85-1H264l-1.13,1.19,1.28,1.71h-.64l-1-1.39-.27.3v1.09h-.52V80h.52Z"/><path class="cls-10" d="M264.83,82.87a.94.94,0,0,0,1,1,1.92,1.92,0,0,0,.8-.15l.09.37a2.21,2.21,0,0,1-1,.18,1.35,1.35,0,0,1-1.43-1.46,1.41,1.41,0,0,1,1.36-1.56,1.22,1.22,0,0,1,1.2,1.36,1.47,1.47,0,0,1,0,.25Zm1.55-.38a.75.75,0,0,0-.73-.86.88.88,0,0,0-.81.86Z"/><path class="cls-10" d="M267.55,82.23c0-.35,0-.64,0-.91H268v.57h0a.86.86,0,0,1,.8-.63H269v.5l-.18,0a.76.76,0,0,0-.71.68,1.81,1.81,0,0,0,0,.25v1.54h-.52Z"/><path class="cls-10" d="M273.41,82.75A1.42,1.42,0,0,1,272,84.29a1.38,1.38,0,0,1-1.39-1.49A1.42,1.42,0,0,1,272,81.26,1.37,1.37,0,0,1,273.41,82.75Zm-2.3,0c0,.63.36,1.11.88,1.11s.88-.47.88-1.12c0-.5-.25-1.12-.87-1.12S271.11,82.23,271.11,82.78Z"/><path class="cls-10" d="M274.08,82.23c0-.35,0-.64,0-.91h.46l0,.57h0a.85.85,0,0,1,.8-.63h.15v.5l-.18,0a.75.75,0,0,0-.71.68,1.81,1.81,0,0,0,0,.25v1.54h-.52Z"/><path class="cls-10" d="M277.31,82.11c0-.3,0-.55,0-.79h.46l0,.48h0a1.07,1.07,0,0,1,.95-.54c.41,0,1,.24,1,1.23v1.73h-.53V82.55c0-.47-.17-.86-.67-.86a.76.76,0,0,0-.71.54,1,1,0,0,0,0,.25v1.74h-.53Z"/><path class="cls-10" d="M283.27,82.75a1.42,1.42,0,0,1-1.45,1.54,1.38,1.38,0,0,1-1.39-1.49,1.42,1.42,0,0,1,1.44-1.54A1.37,1.37,0,0,1,283.27,82.75Zm-2.31,0c0,.63.37,1.11.89,1.11s.88-.47.88-1.12c0-.5-.25-1.12-.87-1.12S281,82.23,281,82.78Z"/><path class="cls-10" d="M283.93,82.11c0-.3,0-.55,0-.79h.47l0,.48h0a1.07,1.07,0,0,1,1-.54c.4,0,1,.24,1,1.23v1.73h-.52V82.55c0-.47-.18-.86-.67-.86a.76.76,0,0,0-.71.54.66.66,0,0,0,0,.25v1.74h-.53Z"/><path class="cls-10" d="M288.49,82.41v.39H287v-.39Z"/><path class="cls-10" d="M289.16,84.22v-2.5h-.41v-.4h.41V81.2a1.32,1.32,0,0,1,.41-1,1.36,1.36,0,0,1,.93-.29,1.9,1.9,0,0,1,.87.19v4.13h-.53V80.39a.88.88,0,0,0-.43-.08c-.55,0-.73.4-.73.87v.14h.68v.4h-.68v2.5Z"/><path class="cls-10" d="M293.85,84.22l0-.36h0a1.07,1.07,0,0,1-.89.43.82.82,0,0,1-.88-.83c0-.7.62-1.09,1.74-1.08v-.06a.6.6,0,0,0-.66-.67,1.43,1.43,0,0,0-.75.21l-.12-.35a1.8,1.8,0,0,1,.95-.25c.89,0,1.1.6,1.1,1.18v1.09a3.6,3.6,0,0,0,.05.69Zm-.08-1.48c-.57,0-1.23.09-1.23.66a.47.47,0,0,0,.5.5.71.71,0,0,0,.7-.49.45.45,0,0,0,0-.16Z"/><path class="cls-10" d="M295.13,82.11c0-.3,0-.55,0-.79h.47l0,.48h0a1.07,1.07,0,0,1,1-.54c.4,0,1,.24,1,1.23v1.73h-.53V82.55c0-.47-.18-.86-.67-.86a.76.76,0,0,0-.71.54.66.66,0,0,0,0,.25v1.74h-.53Z"/><path class="cls-10" d="M299,82.65h0a3.75,3.75,0,0,1,.26-.33l.85-1h.63l-1.12,1.19,1.28,1.71h-.64l-1-1.39-.27.3v1.09h-.53V80H299Z"/><path class="cls-10" d="M301.57,82.87a.94.94,0,0,0,1,1,2,2,0,0,0,.8-.15l.09.37a2.21,2.21,0,0,1-1,.18,1.34,1.34,0,0,1-1.43-1.46,1.4,1.4,0,0,1,1.36-1.56,1.22,1.22,0,0,1,1.2,1.36,1.47,1.47,0,0,1,0,.25Zm1.55-.38a.75.75,0,0,0-.73-.86.88.88,0,0,0-.81.86Z"/><path class="cls-10" d="M304.29,82.23c0-.35,0-.64,0-.91h.46l0,.57h0a.85.85,0,0,1,.8-.63h.15v.5l-.18,0a.75.75,0,0,0-.71.68,1.81,1.81,0,0,0,0,.25v1.54h-.52Z"/><polygon class="cls-14" points="161.98 14.74 161.57 14.3 163.74 12.29 161.57 10.28 161.98 9.84 164.62 12.29 161.98 14.74"/><polygon class="cls-14" points="161.98 46.94 161.57 46.5 163.74 44.49 161.57 42.47 161.98 42.03 164.62 44.49 161.98 46.94"/><polygon class="cls-14" points="161.98 63.39 161.57 62.95 163.74 60.94 161.57 58.92 161.98 58.48 164.62 60.94 161.98 63.39"/><path class="cls-2" d="M1.55,101a10.17,10.17,0,0,1-.13-1.66,3.45,3.45,0,0,1,.76-2.46,2.78,2.78,0,0,1,2.18-.86,3.17,3.17,0,0,1,2.35.88,3.71,3.71,0,0,1,.88,2.68A14,14,0,0,1,7.52,101Zm5.36-.78a4.49,4.49,0,0,0,0-.79,2.34,2.34,0,0,0-2.58-2.59A2.16,2.16,0,0,0,2,99.33a4.86,4.86,0,0,0,.08.92Z"/><path class="cls-2" d="M7.53,92.65,7,92.72v0a1.61,1.61,0,0,1,.65,1.33,1.24,1.24,0,0,1-1.25,1.34c-1,0-1.63-.94-1.62-2.62H4.67a.9.9,0,0,0-1,1A2.14,2.14,0,0,0,4,94.91l-.53.18a2.73,2.73,0,0,1-.38-1.43C3.08,92.33,4,92,4.86,92H6.49a5.49,5.49,0,0,0,1-.07Zm-2.22.12c0,.86.13,1.84,1,1.84a.7.7,0,0,0,.76-.74,1.09,1.09,0,0,0-.73-1.06,1.09,1.09,0,0,0-.25,0Z"/><path class="cls-2" d="M1.92,89.8H3.18V88.67h.6V89.8H6.13c.54,0,.84-.15.84-.59a1.62,1.62,0,0,0,0-.46l.6,0a2,2,0,0,1,.1.7,1.09,1.09,0,0,1-.33.86,1.63,1.63,0,0,1-1.13.3H3.78v.68h-.6v-.68H2.13Z"/><path class="cls-2" d="M7.53,85.36,7,85.42v0a1.6,1.6,0,0,1,.65,1.33,1.24,1.24,0,0,1-1.25,1.34c-1,0-1.63-.94-1.62-2.62H4.67a.9.9,0,0,0-1,1A2.14,2.14,0,0,0,4,87.62l-.53.18a2.73,2.73,0,0,1-.38-1.43c0-1.33.91-1.66,1.78-1.66H6.49a5.49,5.49,0,0,0,1-.07Zm-2.22.12c0,.86.13,1.84,1,1.84a.7.7,0,0,0,.76-.74,1.09,1.09,0,0,0-.73-1.06,1.09,1.09,0,0,0-.25,0Z"/><path class="cls-2" d="M5.87,63.36c-.85,0-1.86.1-2.62.09v0c.71.2,1.47.45,2.3.76l3,1.07v.6l-2.89,1c-.86.29-1.64.53-2.36.7v0c.76,0,1.77.06,2.68.11l2.6.17v.74l-6.06-.42v-1l2.93-1c.75-.26,1.41-.46,2-.62v0c-.61-.16-1.27-.37-2-.64L2.47,63.82v-1l6.06-.38v.77Z"/><path class="cls-2" d="M6.32,57.27a2.12,2.12,0,0,1,2.31,2.17,2.07,2.07,0,0,1-2.24,2.08,2.12,2.12,0,0,1-2.31-2.16A2.06,2.06,0,0,1,6.32,57.27Zm0,3.45c1,0,1.68-.55,1.68-1.32s-.71-1.32-1.69-1.32c-.74,0-1.68.37-1.68,1.3S5.54,60.72,6.36,60.72Z"/><path class="cls-2" d="M2.14,52.51H7.41c.39,0,.83,0,1.12,0v.71l-.75,0h0a1.64,1.64,0,0,1,.85,1.49,2,2,0,0,1-2.21,1.86,2.08,2.08,0,0,1-2.34-1.95,1.43,1.43,0,0,1,.66-1.31v0H2.14ZM6,53.3a1.84,1.84,0,0,0-.33,0,1.17,1.17,0,0,0-.92,1.15c0,.82.72,1.3,1.68,1.3S8,55.35,8,54.49a1.19,1.19,0,0,0-.94-1.16,1.87,1.87,0,0,0-.34,0Z"/><path class="cls-2" d="M6.5,50.75A1.39,1.39,0,0,0,8,49.26a3,3,0,0,0-.22-1.21l.56-.13a3.39,3.39,0,0,1,.27,1.44,2,2,0,0,1-2.19,2.15,2.12,2.12,0,0,1-2.35-2,1.85,1.85,0,0,1,2.05-1.8,2.73,2.73,0,0,1,.37,0Zm-.57-2.32a1.13,1.13,0,0,0-1.28,1.1,1.3,1.3,0,0,0,1.28,1.21Z"/><path class="cls-2" d="M2.14,46.68v-.79H8.53v.79Z"/><path class="cls-2" d="M5.6,42.65c-.56,0-1,0-1.42,0V42l.74,0v0a1.7,1.7,0,0,1-.84-1.55,2,2,0,0,1,2.21-1.84,2.06,2.06,0,0,1,2.34,2A1.52,1.52,0,0,1,8,41.85v0h2.37v.78Zm1.16-.78a1.47,1.47,0,0,0,.32,0A1.22,1.22,0,0,0,8,40.64c0-.83-.68-1.32-1.68-1.32s-1.62.46-1.62,1.3a1.26,1.26,0,0,0,1,1.19,1.2,1.2,0,0,0,.32.06Z"/><path class="cls-2" d="M8.53,35.12,8,35.18v0a1.6,1.6,0,0,1,.65,1.33,1.24,1.24,0,0,1-1.25,1.33c-1,0-1.63-.93-1.62-2.62H5.67a.9.9,0,0,0-1,1A2.17,2.17,0,0,0,5,37.38l-.53.18a2.73,2.73,0,0,1-.38-1.43c0-1.34.91-1.66,1.78-1.66H7.49a6.46,6.46,0,0,0,1-.07Zm-2.22.12c0,.86.14,1.84,1,1.84a.7.7,0,0,0,.76-.75,1.09,1.09,0,0,0-.73-1,.73.73,0,0,0-.25,0Z"/><path class="cls-2" d="M5.54,33.19c-.52,0-1,0-1.36,0v-.69l.85,0v0a1.31,1.31,0,0,1-1-1.2,1.52,1.52,0,0,1,0-.23h.75a1.12,1.12,0,0,0,1,1.33,2.1,2.1,0,0,0,.37,0H8.53v.78Z"/><path class="cls-2" d="M8.53,27.88,8,28v0a1.61,1.61,0,0,1,.65,1.33,1.24,1.24,0,0,1-1.25,1.34c-1,0-1.63-.94-1.62-2.62H5.67a.9.9,0,0,0-1,1A2.14,2.14,0,0,0,5,30.14l-.53.18a2.73,2.73,0,0,1-.38-1.43c0-1.33.91-1.66,1.78-1.66H7.49a5.49,5.49,0,0,0,1-.07ZM6.31,28c0,.86.14,1.84,1,1.84a.7.7,0,0,0,.76-.74,1,1,0,0,0-1-1.1Z"/><path class="cls-2" d="M5.36,26c-.45,0-.82,0-1.18,0V25.3l.7,0v0a1.5,1.5,0,0,1-.8-1.37A1.29,1.29,0,0,1,5,22.63H5a2,2,0,0,1-.57-.49,1.53,1.53,0,0,1-.3-1c0-.58.38-1.43,1.89-1.43H8.53v.77H6.07c-.84,0-1.34.31-1.34.95a1,1,0,0,0,.72.93,1.14,1.14,0,0,0,.39.06H8.53v.78H5.92c-.69,0-1.19.3-1.19.91a1.08,1.08,0,0,0,.79,1,1.23,1.23,0,0,0,.39.06H8.53V26Z"/><path class="cls-2" d="M6.5,18A1.39,1.39,0,0,0,8,16.52a3,3,0,0,0-.22-1.21l.56-.14a3.48,3.48,0,0,1,.27,1.45,2,2,0,0,1-2.19,2.15,2.12,2.12,0,0,1-2.35-2.05,1.85,1.85,0,0,1,2.05-1.8,2.73,2.73,0,0,1,.37,0Zm-.57-2.32a1.12,1.12,0,0,0-1.28,1.1A1.3,1.3,0,0,0,5.93,18Z"/><path class="cls-2" d="M2.93,13H4.18V11.85h.6V13H7.13c.54,0,.85-.16.85-.6a1.65,1.65,0,0,0-.06-.46l.6,0a2,2,0,0,1,.1.7,1.09,1.09,0,0,1-.33.86,1.63,1.63,0,0,1-1.13.3H4.78v.68h-.6v-.68h-1Z"/><path class="cls-2" d="M6.5,10.57A1.4,1.4,0,0,0,8,9.07a2.94,2.94,0,0,0-.22-1.2l.56-.14a3.48,3.48,0,0,1,.27,1.45,2,2,0,0,1-2.19,2.14,2.11,2.11,0,0,1-2.35-2,1.85,1.85,0,0,1,2.05-1.8,2.73,2.73,0,0,1,.37,0ZM5.93,8.24a1.13,1.13,0,0,0-1.28,1.1,1.32,1.32,0,0,0,1.28,1.22Z"/><path class="cls-2" d="M5.54,6.5c-.52,0-1,0-1.36,0v-.7l.85,0v0a1.32,1.32,0,0,1-1-1.21,1.38,1.38,0,0,1,0-.22h.75a1.12,1.12,0,0,0,1,1.33,2.1,2.1,0,0,0,.37,0H8.53V6.5Z"/><path class="cls-2" d="M7.72,3.66a2,2,0,0,0,.32-1c0-.58-.29-.85-.65-.85s-.58.23-.8.81c-.28.79-.71,1.16-1.23,1.16A1.34,1.34,0,0,1,4.08,2.23a2.1,2.1,0,0,1,.27-1.07l.57.2a1.78,1.78,0,0,0-.25.89c0,.47.27.73.6.73s.52-.26.73-.83C6.29,1.4,6.67,1,7.32,1s1.3.59,1.3,1.63a2.44,2.44,0,0,1-.29,1.22Z"/><line class="cls-15" x1="16.35" y1="60.04" x2="55.78" y2="60.04"/><polygon class="cls-14" points="53.79 62.5 53.38 62.06 55.55 60.04 53.38 58.03 53.79 57.59 56.43 60.04 53.79 62.5"/><line class="cls-15" x1="15.35" y1="42.49" x2="33.02" y2="42.49"/><polygon class="cls-14" points="31.03 44.94 30.62 44.5 32.79 42.49 30.62 40.47 31.03 40.03 33.67 42.49 31.03 44.94"/><line class="cls-15" x1="16.35" y1="12.29" x2="47.61" y2="12.29"/><polygon class="cls-14" points="45.62 14.74 45.21 14.3 47.38 12.29 45.21 10.28 45.62 9.84 48.26 12.29 45.62 14.74"/><line class="cls-15" x1="65.3" y1="12.29" x2="119.99" y2="12.29"/><polygon class="cls-14" points="118 14.74 117.59 14.3 119.75 12.29 117.59 10.28 118 9.84 120.64 12.29 118 14.74"/><line class="cls-15" x1="52.43" y1="44.49" x2="105.61" y2="44.49"/><polygon class="cls-14" points="103.62 46.94 103.21 46.5 105.38 44.49 103.21 42.47 103.62 42.03 106.26 44.49 103.62 46.94"/><line class="cls-15" x1="72.15" y1="60.94" x2="128.04" y2="60.94"/><polygon class="cls-14" points="126.06 63.39 125.65 62.95 127.81 60.94 125.65 58.92 126.06 58.48 128.7 60.94 126.06 63.39"/><line class="cls-15" x1="136.85" y1="12.29" x2="163.97" y2="12.29"/><line class="cls-15" x1="125.89" y1="44.49" x2="163.97" y2="44.49"/><line class="cls-15" x1="145.25" y1="60.94" x2="163.97" y2="60.94"/><path class="cls-16" d="M51.38,43.4A8.36,8.36,0,1,1,43,35a8.35,8.35,0,0,1,8.35,8.36"/><circle class="cls-17" cx="43.03" cy="43.4" r="8.36" transform="translate(-13.33 19.77) rotate(-22.5)"/><path class="cls-18" d="M31.44,80.5a8.36,8.36,0,1,1-8.36-8.36,8.36,8.36,0,0,1,8.36,8.36"/><circle class="cls-17" cx="23.08" cy="80.5" r="8.36"/><path class="cls-18" d="M52.5,95.47a8.36,8.36,0,1,1-8.36-8.36,8.36,8.36,0,0,1,8.36,8.36"/><circle class="cls-17" cx="44.14" cy="95.47" r="8.36"/><path class="cls-18" d="M77.9,89.27a8.36,8.36,0,1,1-8.36-8.36,8.35,8.35,0,0,1,8.36,8.36"/><circle class="cls-17" cx="69.54" cy="89.27" r="8.36"/><line class="cls-15" x1="44.82" y1="85.36" x2="43.5" y2="53.47"/><polygon class="cls-14" points="46.03 55.36 45.61 55.78 43.51 53.7 41.58 55.95 41.13 55.56 43.47 52.82 46.03 55.36"/><path class="cls-16" d="M65.94,8.86A8.36,8.36,0,1,1,57.58.5a8.37,8.37,0,0,1,8.36,8.36"/><circle class="cls-17" cx="57.58" cy="8.86" r="8.36" transform="translate(0.99 22.71) rotate(-22.5)"/><path class="cls-14" d="M58.1,6.84H59A5.09,5.09,0,0,0,58.66,8a5.6,5.6,0,0,0-.15,1,4.52,4.52,0,0,0,.14.95A6.48,6.48,0,0,0,59,11h-.92a1.28,1.28,0,0,0-.07-.22c0-.15-.1-.31-.14-.47a1.59,1.59,0,0,1-2.69.1,2.67,2.67,0,0,1-.48-1.59,2.27,2.27,0,0,1,.48-1.46,1.6,1.6,0,0,1,1.33-.6,1.58,1.58,0,0,1,1.37.81A5.19,5.19,0,0,1,58.1,6.84ZM55.81,8.93a1.65,1.65,0,0,0,.24.93.76.76,0,0,0,.64.36.74.74,0,0,0,.61-.32,1.59,1.59,0,0,0,.24-1,1.59,1.59,0,0,0-.25-1,.74.74,0,0,0-1.24,0A1.67,1.67,0,0,0,55.81,8.93Z"/><path class="cls-14" d="M59.63,10.91v-.59h.64v.59Zm0,2.75V11.24h.64v2.42Z"/><path class="cls-16" d="M74,60.09a8.36,8.36,0,1,1-8.36-8.36A8.36,8.36,0,0,1,74,60.09"/><circle class="cls-17" cx="65.68" cy="60.09" r="8.36" transform="translate(-18 29.71) rotate(-22.5)"/><path class="cls-14" d="M63.63,63.16V61.07a1.55,1.55,0,0,1-1.23.6,1.44,1.44,0,0,1-1.16-.53,2.46,2.46,0,0,1-.54-1.68,2.27,2.27,0,0,1,.5-1.56,1.65,1.65,0,0,1,1.26-.56,1.47,1.47,0,0,1,.72.17,1.61,1.61,0,0,1,.53.54v-.62h1v5.73Zm0-3.7a1.42,1.42,0,0,0-.26-1,.8.8,0,0,0-.65-.31.83.83,0,0,0-.66.31,1.54,1.54,0,0,0-.27,1,1.51,1.51,0,0,0,.26,1,.78.78,0,0,0,.63.31.87.87,0,0,0,.67-.34A1.56,1.56,0,0,0,63.66,59.46Z"/><path class="cls-14" d="M65.28,56.5h.36v-.18a1.3,1.3,0,0,1,.06-.46.56.56,0,0,1,.24-.24.87.87,0,0,1,.44-.1,1.91,1.91,0,0,1,.54.08l-.09.45a1,1,0,0,0-.29,0,.24.24,0,0,0-.2.07.36.36,0,0,0-.06.25v.17h.48V57h-.48v1.92h-.64V57h-.36Z"/><path class="cls-14" d="M67.12,58.92V55.58h.64v3.34Z"/><path class="cls-14" d="M68.41,61.5v-.6h.64v.6Zm0,2.74V61.82h.64v2.42Z"/><path class="cls-14" d="M40.59,46.79V44.71a1.66,1.66,0,0,1-.54.44,1.59,1.59,0,0,1-.69.16,1.47,1.47,0,0,1-1.16-.53,2.5,2.5,0,0,1-.54-1.69,2.3,2.3,0,0,1,.5-1.56A1.65,1.65,0,0,1,39.42,41a1.4,1.4,0,0,1,.72.18,1.49,1.49,0,0,1,.53.53v-.61h1v5.72Zm0-3.7a1.42,1.42,0,0,0-.26-1,.8.8,0,0,0-.65-.31.83.83,0,0,0-.66.32,1.51,1.51,0,0,0-.27,1,1.47,1.47,0,0,0,.26,1,.8.8,0,0,0,.63.3.84.84,0,0,0,.67-.34A1.54,1.54,0,0,0,40.62,43.09Z"/><path class="cls-14" d="M42.3,41.86l.64-.1a.47.47,0,0,0,.17.29.58.58,0,0,0,.35.09.63.63,0,0,0,.37-.09.2.2,0,0,0,.09-.17.17.17,0,0,0-.05-.12.43.43,0,0,0-.21-.08,3.45,3.45,0,0,1-1-.32.61.61,0,0,1-.28-.54.66.66,0,0,1,.25-.53,1.16,1.16,0,0,1,.77-.21,1.3,1.3,0,0,1,.73.16.9.9,0,0,1,.34.48l-.61.11a.34.34,0,0,0-.14-.22.57.57,0,0,0-.31-.07.71.71,0,0,0-.37.07.16.16,0,0,0-.07.13.13.13,0,0,0,.07.11,1.72,1.72,0,0,0,.59.18,1.92,1.92,0,0,1,.72.29.59.59,0,0,1,.2.47.75.75,0,0,1-.28.58,1.23,1.23,0,0,1-.82.23,1.29,1.29,0,0,1-.78-.2A.88.88,0,0,1,42.3,41.86Z"/><path class="cls-14" d="M45.12,39.8v-.59h.64v.59Zm0,2.75V40.13h.64v2.42Z"/><path class="cls-14" d="M46.41,45.13v-.59h.64v.59Zm0,2.75V45.46h.64v2.42Z"/><line class="cls-15" x1="42.03" y1="32.45" x2="50.31" y2="18.36"/><polygon class="cls-14" points="51.42 21.32 50.83 21.45 50.19 18.56 47.36 19.41 47.19 18.83 50.64 17.8 51.42 21.32"/><line class="cls-15" x1="53.91" y1="19.72" x2="45.63" y2="33.81"/><polygon class="cls-14" points="44.52 30.85 45.11 30.72 45.74 33.61 48.58 32.76 48.75 33.34 45.3 34.37 44.52 30.85"/><line class="cls-15" x1="64.64" y1="51.21" x2="58.84" y2="20.75"/><polygon class="cls-14" points="61.62 22.24 61.27 22.73 58.88 20.98 57.31 23.48 56.8 23.16 58.72 20.11 61.62 22.24"/><line class="cls-15" x1="62.34" y1="19.74" x2="68.14" y2="50.2"/><polygon class="cls-14" points="65.36 48.7 65.71 48.22 68.1 49.97 69.67 47.47 70.18 47.79 68.26 50.84 65.36 48.7"/><line class="cls-15" x1="48.26" y1="86.41" x2="61.54" y2="68.74"/><polygon class="cls-14" points="62.3 71.8 61.71 71.86 61.4 68.92 58.48 69.44 58.38 68.85 61.93 68.22 62.3 71.8"/><line class="cls-15" x1="27.22" y1="71.77" x2="37.53" y2="50.69"/><polygon class="cls-14" points="38.86 53.55 38.28 53.73 37.42 50.9 34.66 51.96 34.45 51.4 37.81 50.11 38.86 53.55"/><line class="cls-15" x1="67.82" y1="79.65" x2="67.45" y2="68.31"/><polygon class="cls-14" points="69.97 70.22 69.54 70.64 67.46 68.54 65.52 70.77 65.06 70.38 67.43 67.66 69.97 70.22"/><path class="cls-14" d="M38.2,98V92.3h2.43a4.34,4.34,0,0,1,1.34.15,1.36,1.36,0,0,1,.66.55,1.63,1.63,0,0,1,.25.9A1.51,1.51,0,0,1,42.5,95a1.85,1.85,0,0,1-1.13.53A2.37,2.37,0,0,1,42,96a6.51,6.51,0,0,1,.66.93l.7,1.12H42l-.83-1.25a7.2,7.2,0,0,0-.61-.84.85.85,0,0,0-.35-.24,2,2,0,0,0-.58-.07h-.24V98Zm1.15-3.31h.86a4.3,4.3,0,0,0,1-.07.61.61,0,0,0,.32-.24.75.75,0,0,0,.12-.43.63.63,0,0,0-.59-.69,7.18,7.18,0,0,0-.84,0h-.91Z"/><path class="cls-14" d="M45.26,98V93.27h-1.7v-1h4.55v1H46.42V98Z"/><path class="cls-14" d="M48.61,97.94v-.59h.64v.59Zm0,2.75V98.27h.64v2.42Z"/><path class="cls-14" d="M17.51,80.8a2.29,2.29,0,0,1,.27-1.06,1.85,1.85,0,0,1,.76-.78,2.28,2.28,0,0,1,1.11-.27,2.1,2.1,0,0,1,1.54.61,2.13,2.13,0,0,1,.6,1.55,2.11,2.11,0,0,1-.61,1.56,2,2,0,0,1-1.53.62,2.39,2.39,0,0,1-1.08-.26,1.74,1.74,0,0,1-.79-.75A2.56,2.56,0,0,1,17.51,80.8Zm1.13.06a1.37,1.37,0,0,0,.29,1,1,1,0,0,0,1.44,0,1.38,1.38,0,0,0,.29-1,1.31,1.31,0,0,0-.29-.93,1,1,0,0,0-1.44,0A1.32,1.32,0,0,0,18.64,80.86Z"/><path class="cls-14" d="M22.19,79.58l.64-.1a.51.51,0,0,0,.16.29.62.62,0,0,0,.36.1.63.63,0,0,0,.37-.1.21.21,0,0,0,.08-.17.16.16,0,0,0,0-.12.48.48,0,0,0-.22-.08,4,4,0,0,1-1-.31.64.64,0,0,1-.29-.55.7.7,0,0,1,.25-.53,1.2,1.2,0,0,1,.77-.21A1.33,1.33,0,0,1,24,78a.84.84,0,0,1,.33.48l-.6.11a.38.38,0,0,0-.15-.22.53.53,0,0,0-.31-.07.7.7,0,0,0-.36.07.15.15,0,0,0-.07.13.16.16,0,0,0,.06.12,2.77,2.77,0,0,0,.6.18,1.67,1.67,0,0,1,.71.28.57.57,0,0,1,.21.48.75.75,0,0,1-.28.57,1.23,1.23,0,0,1-.82.24,1.4,1.4,0,0,1-.79-.2A1,1,0,0,1,22.19,79.58Z"/><path class="cls-14" d="M25,77.53v-.6h.64v.6Zm0,2.74V77.85h.64v2.42Z"/><path class="cls-14" d="M26.3,82.85v-.59h.64v.59Zm0,2.75V83.18h.64V85.6Z"/><path class="cls-14" d="M65.1,88.85a2.23,2.23,0,0,1,.27-1.06,1.87,1.87,0,0,1,.77-.78,2.24,2.24,0,0,1,1.1-.27,2,2,0,0,1,1.54.61,2.11,2.11,0,0,1,.6,1.54,2.14,2.14,0,0,1-.6,1.56,2,2,0,0,1-1.53.62,2.3,2.3,0,0,1-1.09-.26,1.74,1.74,0,0,1-.79-.75A2.52,2.52,0,0,1,65.1,88.85Zm1.13.05a1.4,1.4,0,0,0,.29.95.94.94,0,0,0,.72.33.91.91,0,0,0,.72-.33,1.37,1.37,0,0,0,.29-.95A1.34,1.34,0,0,0,68,88a.91.91,0,0,0-.72-.33.94.94,0,0,0-.72.33A1.39,1.39,0,0,0,66.23,88.9Z"/><path class="cls-14" d="M69.72,85.9h.36v-.19a1.28,1.28,0,0,1,.06-.45.64.64,0,0,1,.24-.25,1,1,0,0,1,.44-.09,2,2,0,0,1,.54.08l-.09.45a1,1,0,0,0-.29,0,.24.24,0,0,0-.2.07.36.36,0,0,0-.06.25v.17h.48v.5h-.48v1.91h-.64V86.4h-.36Z"/><path class="cls-14" d="M71.56,88.31V85h.64v3.33Z"/><path class="cls-14" d="M72.85,90.89V90.3h.64v.59Zm0,2.75V91.22h.64v2.42Z"/><path class="cls-16" d="M123.92,43.4A8.36,8.36,0,1,1,115.56,35a8.36,8.36,0,0,1,8.36,8.36"/><circle class="cls-17" cx="115.56" cy="43.4" r="8.36" transform="translate(-7.81 47.53) rotate(-22.5)"/><path class="cls-18" d="M104,80.5a8.36,8.36,0,1,1-8.36-8.36A8.37,8.37,0,0,1,104,80.5"/><circle class="cls-17" cx="95.62" cy="80.5" r="8.36"/><path class="cls-18" d="M125,95.47a8.36,8.36,0,1,1-8.36-8.36A8.36,8.36,0,0,1,125,95.47"/><circle class="cls-17" cx="116.68" cy="95.47" r="8.36"/><path class="cls-18" d="M150.44,89.27a8.36,8.36,0,1,1-8.36-8.36,8.35,8.35,0,0,1,8.36,8.36"/><circle class="cls-17" cx="142.08" cy="89.27" r="8.36"/><line class="cls-15" x1="117.36" y1="85.36" x2="116.03" y2="53.47"/><polygon class="cls-14" points="118.57 55.36 118.14 55.78 116.04 53.7 114.12 55.95 113.66 55.56 116 52.82 118.57 55.36"/><path class="cls-16" d="M138.47,8.86A8.36,8.36,0,1,1,130.11.5a8.36,8.36,0,0,1,8.36,8.36"/><circle class="cls-17" cx="130.11" cy="8.86" r="8.36" transform="translate(6.51 50.47) rotate(-22.5)"/><path class="cls-14" d="M127.63,6.84h.94A5.12,5.12,0,0,0,128.2,8a5.6,5.6,0,0,0-.15,1,4.4,4.4,0,0,0,.13.95,6.46,6.46,0,0,0,.35,1.05h-.92c0-.05,0-.12-.07-.22a2.54,2.54,0,0,1-.14-.47,1.54,1.54,0,0,1-1.38.79,1.52,1.52,0,0,1-1.32-.69,2.67,2.67,0,0,1-.48-1.59,2.27,2.27,0,0,1,.48-1.46,1.62,1.62,0,0,1,1.34-.6,1.57,1.57,0,0,1,1.36.81A7,7,0,0,1,127.63,6.84Zm-2.29,2.09a1.65,1.65,0,0,0,.25.93.73.73,0,0,0,.63.36.75.75,0,0,0,.62-.32,1.59,1.59,0,0,0,.24-1,1.59,1.59,0,0,0-.26-1,.73.73,0,0,0-1.23,0A1.67,1.67,0,0,0,125.34,8.93Z"/><path class="cls-14" d="M129.17,10.91v-.59h.64v.59Zm0,2.75V11.24h.64v2.42Z"/><path class="cls-14" d="M131.2,13.17v-.86h-.88v-.6h.88v-.87h.58v.87h.88v.6h-.88v.86Z"/><path class="cls-14" d="M134.69,13.66h-.64V11.24a2.23,2.23,0,0,1-.83.49v-.58a2.08,2.08,0,0,0,.55-.31,1.22,1.22,0,0,0,.4-.54h.52Z"/><path class="cls-16" d="M146.57,60.09a8.36,8.36,0,1,1-8.36-8.36,8.36,8.36,0,0,1,8.36,8.36"/><circle class="cls-17" cx="138.21" cy="60.09" r="8.36" transform="translate(-12.47 57.47) rotate(-22.5)"/><path class="cls-14" d="M134.16,63.16V61.07a1.52,1.52,0,0,1-1.22.6,1.46,1.46,0,0,1-1.17-.53,2.46,2.46,0,0,1-.54-1.68,2.22,2.22,0,0,1,.51-1.56,1.65,1.65,0,0,1,1.26-.56,1.46,1.46,0,0,1,.71.17,1.73,1.73,0,0,1,.54.54v-.62h1v5.73Zm0-3.7a1.48,1.48,0,0,0-.26-1,.8.8,0,0,0-.65-.31.84.84,0,0,0-.67.31,1.54,1.54,0,0,0-.27,1,1.51,1.51,0,0,0,.26,1,.79.79,0,0,0,.64.31.86.86,0,0,0,.66-.34A1.56,1.56,0,0,0,134.2,59.46Z"/><path class="cls-14" d="M135.82,56.5h.35v-.18a1.26,1.26,0,0,1,.07-.46.47.47,0,0,1,.24-.24.82.82,0,0,1,.44-.1,1.89,1.89,0,0,1,.53.08l-.08.45a1,1,0,0,0-.3,0,.22.22,0,0,0-.19.07s-.07.12-.07.25v.17h.48V57h-.48v1.92h-.64V57h-.35Z"/><path class="cls-14" d="M137.65,58.92V55.58h.64v3.34Z"/><path class="cls-14" d="M139,61.5v-.6h.64v.6Zm0,2.74V61.82h.64v2.42Z"/><path class="cls-14" d="M141,63.76v-.87h-.88V62.3H141v-.87h.58v.87h.88v.59h-.88v.87Z"/><path class="cls-14" d="M144.47,64.24h-.64V61.83a2.23,2.23,0,0,1-.83.49v-.58a1.89,1.89,0,0,0,.55-.32,1.19,1.19,0,0,0,.4-.53h.52Z"/><path class="cls-14" d="M111.12,45.79V43.71a1.62,1.62,0,0,1-.53.44,1.66,1.66,0,0,1-.69.16,1.49,1.49,0,0,1-1.17-.53,2.5,2.5,0,0,1-.54-1.69,2.26,2.26,0,0,1,.51-1.56A1.63,1.63,0,0,1,110,40a1.37,1.37,0,0,1,.72.18,1.6,1.6,0,0,1,.54.53v-.61h1v5.72Zm0-3.7a1.48,1.48,0,0,0-.26-1,.81.81,0,0,0-.65-.31.85.85,0,0,0-.67.32,2,2,0,0,0,0,2,.81.81,0,0,0,.64.3.83.83,0,0,0,.66-.34A1.54,1.54,0,0,0,111.16,42.09Z"/><path class="cls-14" d="M112.83,40.86l.65-.1a.46.46,0,0,0,.16.29.58.58,0,0,0,.35.09.67.67,0,0,0,.38-.09.21.21,0,0,0,.08-.17.17.17,0,0,0,0-.12.43.43,0,0,0-.21-.08,3.35,3.35,0,0,1-1-.32.62.62,0,0,1-.29-.54.66.66,0,0,1,.25-.53,1.18,1.18,0,0,1,.77-.21,1.33,1.33,0,0,1,.74.16.84.84,0,0,1,.33.48l-.6.11a.4.4,0,0,0-.15-.22.55.55,0,0,0-.31-.07.65.65,0,0,0-.36.07.14.14,0,0,0-.07.13.14.14,0,0,0,.06.11,1.92,1.92,0,0,0,.6.18,1.79,1.79,0,0,1,.71.29.56.56,0,0,1,.2.47.72.72,0,0,1-.28.58,1.22,1.22,0,0,1-.82.23,1.29,1.29,0,0,1-.78-.2A.92.92,0,0,1,112.83,40.86Z"/><path class="cls-14" d="M115.65,38.8v-.59h.64v.59Zm0,2.75V39.13h.64v2.42Z"/><path class="cls-14" d="M117,44.13v-.59h.64v.59Zm0,2.75V44.46h.64v2.42Z"/><path class="cls-14" d="M119,46.4v-.87h-.88v-.6H119v-.87h.58v.87h.88v.6h-.88v.87Z"/><path class="cls-14" d="M122.47,46.88h-.64V44.46A2.31,2.31,0,0,1,121,45v-.58a2.08,2.08,0,0,0,.55-.31,1.16,1.16,0,0,0,.4-.54h.52Z"/><line class="cls-15" x1="114.56" y1="32.45" x2="122.84" y2="18.36"/><polygon class="cls-14" points="123.95 21.32 123.37 21.45 122.73 18.56 119.89 19.41 119.72 18.83 123.17 17.8 123.95 21.32"/><line class="cls-15" x1="126.45" y1="19.72" x2="118.16" y2="33.81"/><polygon class="cls-14" points="117.06 30.85 117.64 30.72 118.28 33.61 121.11 32.76 121.28 33.34 117.83 34.37 117.06 30.85"/><line class="cls-15" x1="137.17" y1="51.21" x2="131.38" y2="20.75"/><polygon class="cls-14" points="134.16 22.24 133.8 22.73 131.42 20.98 129.84 23.48 129.34 23.16 131.25 20.11 134.16 22.24"/><line class="cls-15" x1="134.88" y1="19.74" x2="140.67" y2="50.2"/><polygon class="cls-14" points="137.89 48.7 138.25 48.22 140.63 49.97 142.2 47.47 142.71 47.79 140.79 50.84 137.89 48.7"/><line class="cls-15" x1="120.8" y1="86.41" x2="134.07" y2="68.74"/><polygon class="cls-14" points="134.84 71.8 134.24 71.86 133.93 68.92 131.02 69.44 130.91 68.85 134.46 68.22 134.84 71.8"/><line class="cls-15" x1="99.75" y1="71.77" x2="110.06" y2="50.69"/><polygon class="cls-14" points="111.39 53.55 110.82 53.73 109.96 50.9 107.2 51.96 106.98 51.4 110.35 50.11 111.39 53.55"/><line class="cls-15" x1="140.36" y1="79.65" x2="139.99" y2="68.31"/><polygon class="cls-14" points="142.5 70.22 142.08 70.64 140 68.54 138.05 70.77 137.6 70.38 139.97 67.66 142.5 70.22"/><path class="cls-14" d="M109.66,97V92h2.13a3.65,3.65,0,0,1,1.17.14,1.17,1.17,0,0,1,.58.48,1.4,1.4,0,0,1,.22.79,1.32,1.32,0,0,1-.33.93,1.54,1.54,0,0,1-1,.46,3,3,0,0,1,.54.42,6.54,6.54,0,0,1,.57.82l.62,1H113l-.74-1.09a6.61,6.61,0,0,0-.53-.74.91.91,0,0,0-.3-.21,1.6,1.6,0,0,0-.51-.06h-.21V97Zm1-2.9h.75a3.94,3.94,0,0,0,.91-.06.54.54,0,0,0,.28-.21.66.66,0,0,0,.11-.38.59.59,0,0,0-.14-.4.61.61,0,0,0-.38-.2c-.08,0-.33,0-.74,0h-.79Z"/><path class="cls-14" d="M115.84,97V92.86h-1.49V92h4v.85h-1.49V97Z"/><path class="cls-14" d="M117.77,97v-.51h.56V97Zm0,2.41V97.24h.56v2.12Z"/><path class="cls-14" d="M119.55,98.94v-.76h-.77v-.53h.77v-.76h.51v.76h.76v.53h-.76v.76Z"/><path class="cls-14" d="M122.6,99.36H122V97.25a1.93,1.93,0,0,1-.72.42v-.51a1.79,1.79,0,0,0,.47-.27,1.08,1.08,0,0,0,.36-.47h.45Z"/><path class="cls-14" d="M88.65,80.78a2.26,2.26,0,0,1,.27-1.06,1.85,1.85,0,0,1,.76-.78,2.27,2.27,0,0,1,1.1-.27,2.11,2.11,0,0,1,1.55.61,2.13,2.13,0,0,1,.6,1.55,2.11,2.11,0,0,1-.61,1.56,2,2,0,0,1-1.53.62,2.46,2.46,0,0,1-1.09-.26,1.77,1.77,0,0,1-.78-.75A2.56,2.56,0,0,1,88.65,80.78Zm1.12.06a1.37,1.37,0,0,0,.3,1,.9.9,0,0,0,.72.32.93.93,0,0,0,.72-.32,1.43,1.43,0,0,0,.29-1,1.36,1.36,0,0,0-.29-.93.94.94,0,0,0-.72-.33.91.91,0,0,0-.72.33A1.33,1.33,0,0,0,89.77,80.84Z"/><path class="cls-14" d="M93.32,79.56l.65-.1a.46.46,0,0,0,.16.29.58.58,0,0,0,.35.09.67.67,0,0,0,.38-.09.21.21,0,0,0,.08-.17.17.17,0,0,0,0-.12.43.43,0,0,0-.21-.08,3.35,3.35,0,0,1-1-.32.62.62,0,0,1-.29-.54.69.69,0,0,1,.25-.53,1.18,1.18,0,0,1,.77-.21,1.33,1.33,0,0,1,.74.16.84.84,0,0,1,.33.48l-.6.11a.44.44,0,0,0-.15-.22.53.53,0,0,0-.31-.07.65.65,0,0,0-.36.07.14.14,0,0,0-.07.13.14.14,0,0,0,.06.11,1.92,1.92,0,0,0,.6.18,1.79,1.79,0,0,1,.71.29.57.57,0,0,1,.2.48.72.72,0,0,1-.28.57,1.22,1.22,0,0,1-.82.24,1.36,1.36,0,0,1-.78-.2A1,1,0,0,1,93.32,79.56Z"/><path class="cls-14" d="M96.14,77.51v-.6h.64v.6Zm0,2.74V77.83h.64v2.42Z"/><path class="cls-14" d="M95.44,82.83v-.59h.64v.59Zm0,2.75V83.16h.64v2.42Z"/><path class="cls-14" d="M97.47,85.1v-.87h-.88v-.6h.88v-.87h.58v.87h.88v.6h-.88v.87Z"/><path class="cls-14" d="M101,85.58h-.64V83.17a2.29,2.29,0,0,1-.83.48v-.58a2.08,2.08,0,0,0,.55-.31,1.16,1.16,0,0,0,.4-.54H101Z"/><path class="cls-14" d="M134.64,88.85a2.23,2.23,0,0,1,.27-1.06,1.85,1.85,0,0,1,.76-.78,2.27,2.27,0,0,1,1.1-.27,2.07,2.07,0,0,1,1.55.61,2.29,2.29,0,0,1,0,3.1,2,2,0,0,1-1.53.62,2.33,2.33,0,0,1-1.09-.26,1.77,1.77,0,0,1-.78-.75A2.52,2.52,0,0,1,134.64,88.85Zm1.12.05a1.4,1.4,0,0,0,.29.95,1,1,0,0,0,1.45,0,1.42,1.42,0,0,0,.29-.95,1.39,1.39,0,0,0-.29-.94,1,1,0,0,0-1.45,0A1.39,1.39,0,0,0,135.76,88.9Z"/><path class="cls-14" d="M139.26,85.9h.35v-.19a1.06,1.06,0,0,1,.07-.45.52.52,0,0,1,.24-.25.93.93,0,0,1,.44-.09,1.89,1.89,0,0,1,.53.08l-.08.45a1,1,0,0,0-.3,0,.24.24,0,0,0-.2.07.36.36,0,0,0-.06.25v.17h.48v.5h-.48v1.91h-.64V86.4h-.35Z"/><path class="cls-14" d="M141.09,88.31V85h.64v3.33Z"/><path class="cls-14" d="M141.39,90.89V90.3H142v.59Zm0,2.75V91.22H142v2.42Z"/><path class="cls-14" d="M143.42,93.16v-.87h-.88v-.6h.88v-.86H144v.86h.88v.6H144v.87Z"/><path class="cls-14" d="M146.91,93.64h-.64V91.23a2.09,2.09,0,0,1-.83.48v-.58a1.83,1.83,0,0,0,.55-.31,1.19,1.19,0,0,0,.4-.53h.52Z"/></svg>