<svg id="Layer_1" data-name="Layer 1" xmlns="http://www.w3.org/2000/svg" viewBox="0 0 446.13 139.61"><defs><style>.cls-1,.cls-4,.cls-6{fill:none;stroke-miterlimit:10;}.cls-1,.cls-4{stroke:#231715;}.cls-1,.cls-6{stroke-width:0.5px;}.cls-2{fill:#010101;}.cls-3{fill:#fff;}.cls-5{fill:#231f20;}.cls-6{stroke:#221f1f;}.cls-7{fill:#eb2627;}.cls-8{fill:#221f1f;}</style></defs><line class="cls-1" x1="2.2" y1="115.34" x2="205.01" y2="115.34"/><line class="cls-1" x1="2.2" y1="107.47" x2="2.2" y2="115.34"/><line class="cls-1" x1="47.51" y1="107.47" x2="47.51" y2="115.34"/><line class="cls-1" x1="97.19" y1="107.47" x2="97.19" y2="115.34"/><line class="cls-1" x1="146" y1="107.47" x2="146" y2="115.34"/><line class="cls-1" x1="205.01" y1="107.47" x2="205.01" y2="115.34"/><path class="cls-2" d="M12.31,100.9h0l-.79.43-.12-.47,1-.53h.53v4.55h-.6Z"/><path class="cls-2" d="M14.61,104.51a.42.42,0,0,1,.42-.44.45.45,0,0,1,0,.89A.42.42,0,0,1,14.61,104.51Z"/><path class="cls-2" d="M18.73,100.84H17L16.82,102l.37,0a1.9,1.9,0,0,1,1,.24,1.29,1.29,0,0,1,.65,1.17A1.58,1.58,0,0,1,17.13,105a2.25,2.25,0,0,1-1.14-.28l.16-.47a2.06,2.06,0,0,0,1,.25,1,1,0,0,0,1.08-1c0-.59-.4-1-1.31-1a4.87,4.87,0,0,0-.63.05l.29-2.18h2.18Z"/><path class="cls-2" d="M22.71,102.76v.45H21v-.45Z"/><path class="cls-2" d="M26.06,100.9h0l-.79.43-.12-.47,1-.53h.53v4.55h-.6Z"/><path class="cls-2" d="M28.36,104.51a.42.42,0,0,1,.42-.44.45.45,0,0,1,0,.89A.42.42,0,0,1,28.36,104.51Z"/><path class="cls-2" d="M32.72,100.33v.4l-2,4.15H30.1l2-4H29.85v-.51Z"/><path class="cls-2" d="M36.07,100.84H34.34L34.16,102l.37,0a1.9,1.9,0,0,1,1,.24,1.29,1.29,0,0,1,.65,1.17A1.58,1.58,0,0,1,34.47,105a2.25,2.25,0,0,1-1.14-.28l.16-.47a2.06,2.06,0,0,0,1,.25,1,1,0,0,0,1.08-1c0-.59-.4-1-1.31-1a4.87,4.87,0,0,0-.63.05l.3-2.18h2.17Z"/><path class="cls-2" d="M37.06,104.25a1.58,1.58,0,0,0,.81.24c.45,0,.66-.22.66-.5s-.18-.46-.63-.62c-.61-.22-.9-.56-.9-1a1,1,0,0,1,1.17-1,1.72,1.72,0,0,1,.84.21l-.16.45a1.35,1.35,0,0,0-.69-.2c-.37,0-.57.21-.57.47s.2.4.65.57.88.52.88,1-.46,1-1.26,1a2,2,0,0,1-1-.23Z"/><path class="cls-2" d="M50.19,103.46c0-.35,0-.65,0-.92h.47l0,.58h0a.88.88,0,0,1,.82-.65.36.36,0,0,1,.15,0v.5h-.18a.76.76,0,0,0-.73.69,1.81,1.81,0,0,0,0,.25v1.58h-.53Z"/><path class="cls-2" d="M52.44,104.11a.94.94,0,0,0,1,1,2,2,0,0,0,.82-.15l.09.38a2.29,2.29,0,0,1-1,.19,1.38,1.38,0,0,1-1.46-1.49,1.44,1.44,0,0,1,1.39-1.6,1.25,1.25,0,0,1,1.22,1.39c0,.11,0,.2,0,.25Zm1.57-.38a.77.77,0,0,0-.74-.88.9.9,0,0,0-.83.88Z"/><path class="cls-2" d="M56.84,105.5l0-.38h0a1.07,1.07,0,0,1-.9.44.85.85,0,0,1-.91-.85c0-.71.64-1.1,1.78-1.1v-.06a.61.61,0,0,0-.67-.68,1.42,1.42,0,0,0-.77.22l-.12-.36a1.81,1.81,0,0,1,1-.26c.9,0,1.12.62,1.12,1.21v1.11a5.16,5.16,0,0,0,0,.71ZM56.76,104c-.58,0-1.25.09-1.25.66a.48.48,0,0,0,.51.52.73.73,0,0,0,.71-.5.51.51,0,0,0,0-.17Z"/><path class="cls-2" d="M60.27,105.39a2,2,0,0,1-.85.17,1.41,1.41,0,0,1-1.48-1.51,1.51,1.51,0,0,1,1.59-1.58,1.71,1.71,0,0,1,.75.16l-.12.41a1.3,1.3,0,0,0-.63-.14,1.12,1.12,0,0,0,0,2.23,1.53,1.53,0,0,0,.66-.15Z"/><path class="cls-2" d="M61.62,101.69v.85h.77V103h-.77v1.59c0,.37.11.58.41.58a1.11,1.11,0,0,0,.31,0l0,.4a1.14,1.14,0,0,1-.47.08.72.72,0,0,1-.58-.23,1.06,1.06,0,0,1-.21-.77V103h-.46v-.41h.46v-.71Z"/><path class="cls-2" d="M63.6,101.7a.33.33,0,1,1-.66,0,.32.32,0,0,1,.33-.33A.31.31,0,0,1,63.6,101.7Zm-.6,3.8v-3h.54v3Z"/><path class="cls-2" d="M67.12,104a1.44,1.44,0,0,1-1.48,1.57A1.4,1.4,0,0,1,64.22,104a1.45,1.45,0,0,1,1.47-1.57A1.41,1.41,0,0,1,67.12,104Zm-2.35,0c0,.65.37,1.14.9,1.14s.9-.48.9-1.15c0-.5-.26-1.14-.89-1.14S64.77,103.46,64.77,104Z"/><path class="cls-2" d="M67.8,103.34c0-.31,0-.56,0-.8h.47l0,.48h0a1.06,1.06,0,0,1,1-.55c.41,0,1,.24,1,1.26v1.77h-.54v-1.71c0-.48-.18-.87-.68-.87a.76.76,0,0,0-.72.55.6.6,0,0,0,0,.25v1.78H67.8Z"/><path class="cls-2" d="M73.15,101.69v.85h.77V103h-.77v1.59c0,.37.1.58.4.58a1.11,1.11,0,0,0,.31,0l0,.4a1.19,1.19,0,0,1-.48.08.74.74,0,0,1-.58-.23,1.11,1.11,0,0,1-.21-.77V103h-.46v-.41h.46v-.71Z"/><path class="cls-2" d="M75.13,101.7a.32.32,0,0,1-.35.33.31.31,0,0,1-.32-.33.34.34,0,0,1,.67,0Zm-.6,3.8v-3h.53v3Z"/><path class="cls-2" d="M76,103.34c0-.31,0-.56,0-.8h.47l0,.47h0a1,1,0,0,1,.93-.54.88.88,0,0,1,.84.59h0a1.24,1.24,0,0,1,.33-.38,1,1,0,0,1,.65-.21c.4,0,1,.26,1,1.28v1.75h-.53v-1.68c0-.57-.21-.91-.64-.91a.7.7,0,0,0-.64.49,1,1,0,0,0,0,.27v1.83h-.53v-1.78c0-.47-.2-.81-.61-.81a.73.73,0,0,0-.67.54.75.75,0,0,0,0,.26v1.79H76Z"/><path class="cls-2" d="M81.37,104.11a1,1,0,0,0,1,1,2,2,0,0,0,.82-.15l.1.38a2.34,2.34,0,0,1-1,.19,1.38,1.38,0,0,1-1.46-1.49,1.44,1.44,0,0,1,1.39-1.6,1.26,1.26,0,0,1,1.23,1.39,1.38,1.38,0,0,1,0,.25Zm1.58-.38a.78.78,0,0,0-.75-.88.91.91,0,0,0-.83.88Z"/><path class="cls-2" d="M86.6,101.25a4.09,4.09,0,0,0-.77,2.5,4.17,4.17,0,0,0,.77,2.49h-.42a4,4,0,0,1-.8-2.49,4.09,4.09,0,0,1,.8-2.5Z"/><path class="cls-2" d="M87.19,101.43a5.19,5.19,0,0,1,1-.09,1.69,1.69,0,0,1,1.19.34,1,1,0,0,1,.32.78,1.07,1.07,0,0,1-.77,1.05v0a1.05,1.05,0,0,1,.6.84,6.75,6.75,0,0,0,.32,1.13h-.55a5.33,5.33,0,0,1-.28-1c-.12-.57-.34-.78-.82-.8h-.5v1.79h-.54Zm.54,1.88h.54c.57,0,.93-.32.93-.79s-.38-.76-1-.77a2.38,2.38,0,0,0-.52,0Z"/><path class="cls-2" d="M91.32,101.83H90.07v-.46h3.05v.46H91.86v3.67h-.54Z"/><path class="cls-2" d="M93.61,106.24a4.18,4.18,0,0,0,.77-2.51,4.07,4.07,0,0,0-.77-2.48H94a3.91,3.91,0,0,1,.8,2.49,4,4,0,0,1-.8,2.5Z"/><path class="cls-2" d="M118.19,100.9h0l-.79.43-.12-.47,1-.53h.53v4.55h-.6Z"/><path class="cls-2" d="M120.56,104.25a1.58,1.58,0,0,0,.81.24c.45,0,.66-.22.66-.5s-.18-.46-.63-.62c-.61-.22-.9-.56-.9-1a1,1,0,0,1,1.17-1,1.71,1.71,0,0,1,.83.21l-.15.45a1.35,1.35,0,0,0-.69-.2c-.37,0-.57.21-.57.47s.2.4.64.57.89.52.89,1-.46,1-1.26,1a1.94,1.94,0,0,1-1-.23Z"/><path class="cls-2" d="M174,100.9h0l-.79.43-.12-.47,1-.53h.52v4.55H174Z"/><path class="cls-2" d="M176.34,104.25a1.65,1.65,0,0,0,.82.24c.44,0,.65-.22.65-.5s-.17-.46-.63-.62-.89-.56-.89-1a1,1,0,0,1,1.17-1,1.71,1.71,0,0,1,.83.21l-.15.45a1.39,1.39,0,0,0-.7-.2c-.36,0-.56.21-.56.47s.2.4.64.57c.59.22.89.52.89,1s-.46,1-1.27,1a1.93,1.93,0,0,1-.95-.23Z"/><path class="cls-2" d="M162.7,124.78v-2.92h-.48v-.47h.48v-.16a1.58,1.58,0,0,1,.39-1.18,1.16,1.16,0,0,1,.83-.32,1.41,1.41,0,0,1,.52.1l-.08.48a1,1,0,0,0-.39-.08c-.53,0-.66.46-.66,1v.18h.82v.47h-.82v2.92Z"/><path class="cls-2" d="M164.94,123.2a1.09,1.09,0,0,0,1.16,1.18,2.2,2.2,0,0,0,.94-.18l.11.44a2.74,2.74,0,0,1-1.13.21,1.57,1.57,0,0,1-1.67-1.71,1.64,1.64,0,0,1,1.59-1.82,1.43,1.43,0,0,1,1.4,1.59,1.85,1.85,0,0,1,0,.29Zm1.81-.44a.89.89,0,0,0-.86-1,1,1,0,0,0-.94,1Z"/><path class="cls-2" d="M168.45,123.2a1.08,1.08,0,0,0,1.16,1.18,2.2,2.2,0,0,0,.94-.18l.1.44a2.7,2.7,0,0,1-1.13.21,1.57,1.57,0,0,1-1.66-1.71,1.64,1.64,0,0,1,1.59-1.82,1.44,1.44,0,0,1,1.4,1.59c0,.13,0,.23,0,.29Zm1.8-.44a.87.87,0,0,0-.85-1,1,1,0,0,0-1,1Z"/><path class="cls-2" d="M174.54,119.81v4.1c0,.3,0,.64,0,.87H174l0-.59h0a1.25,1.25,0,0,1-1.15.67,1.54,1.54,0,0,1-1.45-1.72,1.62,1.62,0,0,1,1.52-1.82,1.15,1.15,0,0,1,1,.51h0v-2Zm-.62,3a.8.8,0,0,0,0-.26.9.9,0,0,0-.89-.71c-.63,0-1,.56-1,1.31s.34,1.25,1,1.25a.92.92,0,0,0,.9-.73.8.8,0,0,0,0-.27Z"/><path class="cls-2" d="M175.53,124.78c0-.23,0-.57,0-.87v-4.1h.61v2.13h0a1.26,1.26,0,0,1,1.16-.62c.84,0,1.43.7,1.43,1.73a1.61,1.61,0,0,1-1.52,1.81,1.22,1.22,0,0,1-1.14-.64h0l0,.56Zm.64-1.36a.85.85,0,0,0,0,.23.94.94,0,0,0,.92.72c.65,0,1-.53,1-1.3s-.35-1.26-1-1.26a1,1,0,0,0-.94.75,1.71,1.71,0,0,0,0,.25Z"/><path class="cls-2" d="M181.42,124.78l0-.42h0a1.28,1.28,0,0,1-1,.5,1,1,0,0,1-1-1c0-.82.73-1.27,2-1.26v-.07a.71.71,0,0,0-.78-.79,1.74,1.74,0,0,0-.88.25l-.14-.4a2.14,2.14,0,0,1,1.12-.3c1,0,1.28.7,1.28,1.38V124a4.87,4.87,0,0,0,.06.81Zm-.09-1.73c-.67,0-1.44.11-1.44.77a.54.54,0,0,0,.59.58.83.83,0,0,0,.81-.56.51.51,0,0,0,0-.2Z"/><path class="cls-2" d="M185.33,124.66a2.31,2.31,0,0,1-1,.19,1.61,1.61,0,0,1-1.69-1.73,1.73,1.73,0,0,1,1.82-1.8,2,2,0,0,1,.86.18l-.14.47a1.5,1.5,0,0,0-.72-.16,1.18,1.18,0,0,0-1.19,1.29,1.15,1.15,0,0,0,1.17,1.26,1.74,1.74,0,0,0,.76-.17Z"/><path class="cls-2" d="M186.66,123h0c.08-.12.2-.27.3-.39l1-1.17h.75l-1.31,1.4,1.49,2h-.75L187,123.16l-.32.35v1.27h-.61v-5h.61Z"/><path class="cls-2" d="M104.05,124.78c0-.23,0-.57,0-.87v-4.1h.61v2.13h0a1.26,1.26,0,0,1,1.15-.62c.85,0,1.44.7,1.43,1.73a1.61,1.61,0,0,1-1.52,1.81,1.2,1.2,0,0,1-1.13-.64h0l0,.56Zm.64-1.36a1.64,1.64,0,0,0,0,.23,1,1,0,0,0,.93.72c.64,0,1-.53,1-1.3s-.35-1.26-1-1.26a1,1,0,0,0-.94.75,1.71,1.71,0,0,0,0,.25Z"/><path class="cls-2" d="M108.06,119.81h.62v5h-.62Z"/><path class="cls-2" d="M111.59,124.78l0-.42h0a1.28,1.28,0,0,1-1,.5,1,1,0,0,1-1-1c0-.82.72-1.27,2-1.26v-.07a.7.7,0,0,0-.77-.79,1.74,1.74,0,0,0-.88.25l-.14-.4a2.13,2.13,0,0,1,1.11-.3c1,0,1.29.7,1.29,1.38V124a4.87,4.87,0,0,0,.06.81Zm-.09-1.73c-.67,0-1.44.11-1.44.77a.54.54,0,0,0,.58.58.85.85,0,0,0,.82-.56.79.79,0,0,0,0-.2Z"/><path class="cls-2" d="M113.09,122.31c0-.35,0-.64,0-.92h.54l0,.56h0a1.25,1.25,0,0,1,1.12-.63c.47,0,1.2.28,1.2,1.44v2h-.61v-2c0-.55-.21-1-.79-1a.88.88,0,0,0-.83.63,1.19,1.19,0,0,0,0,.29v2h-.61Z"/><path class="cls-2" d="M117.58,123h0c.08-.12.2-.27.3-.39l1-1.17h.74l-1.31,1.4,1.5,2h-.75l-1.17-1.62-.32.35v1.27H117v-5h.61Z"/><path class="cls-2" d="M121.66,124.15a1.58,1.58,0,0,0,.81.25c.45,0,.66-.23.66-.51s-.18-.45-.63-.62c-.61-.22-.9-.55-.9-1a1,1,0,0,1,1.17-1,1.61,1.61,0,0,1,.83.21l-.15.44a1.36,1.36,0,0,0-.69-.19c-.37,0-.57.21-.57.46s.2.41.64.57c.59.23.89.52.89,1s-.46,1-1.27,1a1.93,1.93,0,0,1-1-.23Z"/><path class="cls-2" d="M126.93,124.66a2.35,2.35,0,0,1-1,.19,1.61,1.61,0,0,1-1.69-1.73,1.72,1.72,0,0,1,1.82-1.8,2,2,0,0,1,.85.18l-.14.47a1.45,1.45,0,0,0-.71-.16,1.18,1.18,0,0,0-1.2,1.29,1.16,1.16,0,0,0,1.18,1.26,1.66,1.66,0,0,0,.75-.17Z"/><path class="cls-2" d="M127.65,122.45c0-.4,0-.74,0-1.06h.54l0,.67h0a1,1,0,0,1,.94-.74.44.44,0,0,1,.17,0v.58a.65.65,0,0,0-.21,0,.86.86,0,0,0-.82.79,1.23,1.23,0,0,0,0,.29v1.8h-.61Z"/><path class="cls-2" d="M130.21,123.2a1.09,1.09,0,0,0,1.16,1.18,2.16,2.16,0,0,0,.94-.18l.11.44a2.74,2.74,0,0,1-1.13.21,1.58,1.58,0,0,1-1.67-1.71,1.64,1.64,0,0,1,1.59-1.82,1.43,1.43,0,0,1,1.4,1.59,1.85,1.85,0,0,1,0,.29Zm1.81-.44a.88.88,0,0,0-.86-1,1,1,0,0,0-.94,1Z"/><path class="cls-2" d="M133.72,123.2a1.09,1.09,0,0,0,1.16,1.18,2.2,2.2,0,0,0,.94-.18l.11.44a2.74,2.74,0,0,1-1.13.21,1.57,1.57,0,0,1-1.67-1.71,1.64,1.64,0,0,1,1.59-1.82,1.43,1.43,0,0,1,1.4,1.59,1.85,1.85,0,0,1,0,.29Zm1.81-.44a.88.88,0,0,0-.86-1,1,1,0,0,0-.94,1Z"/><path class="cls-2" d="M136.88,122.31c0-.35,0-.64,0-.92h.54l0,.56h0a1.25,1.25,0,0,1,1.12-.63c.47,0,1.2.28,1.2,1.44v2h-.62v-2c0-.55-.2-1-.78-1a.87.87,0,0,0-.83.63.85.85,0,0,0,0,.29v2h-.62Z"/><path class="cls-2" d="M.48,124.78c0-.23,0-.57,0-.87v-4.1h.61v2.13h0a1.26,1.26,0,0,1,1.16-.62,1.52,1.52,0,0,1,1.43,1.73,1.61,1.61,0,0,1-1.52,1.81,1.22,1.22,0,0,1-1.14-.64H1l0,.56Zm.64-1.36a.85.85,0,0,0,0,.23.94.94,0,0,0,.92.72c.65,0,1-.53,1-1.3s-.35-1.26-1-1.26a1,1,0,0,0-.93.75.93.93,0,0,0,0,.25Z"/><path class="cls-2" d="M4.5,119.81h.61v5H4.5Z"/><path class="cls-2" d="M8,124.78l0-.42H8a1.25,1.25,0,0,1-1,.5,1,1,0,0,1-1-1c0-.82.73-1.27,2-1.26v-.07a.7.7,0,0,0-.77-.79,1.68,1.68,0,0,0-.88.25l-.14-.4a2.1,2.1,0,0,1,1.11-.3c1,0,1.29.7,1.29,1.38V124a5,5,0,0,0,.05.81Zm-.09-1.73c-.67,0-1.43.11-1.43.77a.54.54,0,0,0,.58.58.85.85,0,0,0,.82-.56.75.75,0,0,0,0-.2Z"/><path class="cls-2" d="M9.52,122.31a8.73,8.73,0,0,0,0-.92H10l0,.56h0a1.25,1.25,0,0,1,1.12-.63c.47,0,1.2.28,1.2,1.44v2h-.62v-2c0-.55-.2-1-.78-1a.87.87,0,0,0-.83.63.85.85,0,0,0,0,.29v2H9.52Z"/><path class="cls-2" d="M14,123h0l.3-.39,1-1.17h.74l-1.31,1.4,1.49,2H15.5l-1.17-1.62-.31.35v1.27h-.61v-5H14Z"/><path class="cls-2" d="M18.09,124.15a1.62,1.62,0,0,0,.81.25c.45,0,.66-.23.66-.51s-.17-.45-.63-.62-.89-.55-.89-1a1,1,0,0,1,1.17-1,1.61,1.61,0,0,1,.83.21l-.16.44a1.33,1.33,0,0,0-.69-.19c-.36,0-.57.21-.57.46s.21.41.65.57.89.52.89,1-.46,1-1.27,1a1.93,1.93,0,0,1-.95-.23Z"/><path class="cls-2" d="M23.36,124.66a2.31,2.31,0,0,1-1,.19,1.61,1.61,0,0,1-1.69-1.73,1.73,1.73,0,0,1,1.82-1.8,2,2,0,0,1,.86.18l-.14.47a1.5,1.5,0,0,0-.72-.16,1.18,1.18,0,0,0-1.19,1.29,1.15,1.15,0,0,0,1.17,1.26,1.74,1.74,0,0,0,.76-.17Z"/><path class="cls-2" d="M24.08,122.45c0-.4,0-.74,0-1.06h.54l0,.67h0a1,1,0,0,1,.93-.74.52.52,0,0,1,.18,0v.58a.68.68,0,0,0-.21,0,.87.87,0,0,0-.83.79,2.16,2.16,0,0,0,0,.29v1.8h-.61Z"/><path class="cls-2" d="M26.65,123.2a1.08,1.08,0,0,0,1.16,1.18,2.2,2.2,0,0,0,.94-.18l.1.44a2.68,2.68,0,0,1-1.12.21,1.57,1.57,0,0,1-1.67-1.71,1.64,1.64,0,0,1,1.59-1.82,1.44,1.44,0,0,1,1.4,1.59,1.85,1.85,0,0,1,0,.29Zm1.8-.44a.87.87,0,0,0-.85-1,1,1,0,0,0-1,1Z"/><path class="cls-2" d="M30.15,123.2a1.1,1.1,0,0,0,1.17,1.18,2.23,2.23,0,0,0,.94-.18l.1.44a2.74,2.74,0,0,1-1.13.21,1.57,1.57,0,0,1-1.66-1.71,1.64,1.64,0,0,1,1.59-1.82,1.44,1.44,0,0,1,1.4,1.59c0,.13,0,.23,0,.29Zm1.81-.44a.87.87,0,0,0-.85-1,1,1,0,0,0-.95,1Z"/><path class="cls-2" d="M33.32,122.31c0-.35,0-.64,0-.92h.55l0,.56h0a1.24,1.24,0,0,1,1.12-.63c.47,0,1.2.28,1.2,1.44v2h-.62v-2c0-.55-.2-1-.79-1a.86.86,0,0,0-.82.63.85.85,0,0,0,0,.29v2h-.62Z"/><path class="cls-2" d="M40,119.92a4.65,4.65,0,0,0-.89,2.87,4.71,4.71,0,0,0,.89,2.84h-.49a4.54,4.54,0,0,1-.91-2.84,4.61,4.61,0,0,1,.91-2.87Z"/><path class="cls-2" d="M41.31,120.06v4.72H40.7v-4.72Z"/><path class="cls-2" d="M43.27,120.58H41.83v-.52h3.5v.52H43.88v4.2h-.61Z"/><path class="cls-2" d="M46.46,120.06v4.72h-.61v-4.72Z"/><path class="cls-2" d="M47.13,125.63a4.7,4.7,0,0,0,.89-2.86,4.63,4.63,0,0,0-.89-2.85h.48a4.46,4.46,0,0,1,.92,2.85,4.51,4.51,0,0,1-.92,2.86Z"/><polygon class="cls-2" points="96.89 101.75 93.39 98.24 93.39 96.93 96.42 99.96 96.42 93.88 97.36 93.88 97.36 99.96 100.4 96.93 100.4 98.24 96.89 101.75"/><path class="cls-2" d="M75.49,91.18c0-.21,0-.51,0-.77V86.83h.53v1.86h0a1.1,1.1,0,0,1,1-.54,1.33,1.33,0,0,1,1.25,1.51A1.4,1.4,0,0,1,77,91.24a1,1,0,0,1-1-.55h0l0,.49ZM76.05,90a1.36,1.36,0,0,0,0,.2.84.84,0,0,0,.81.63c.56,0,.9-.46.9-1.14s-.31-1.1-.88-1.1a.86.86,0,0,0-.82.66,1.17,1.17,0,0,0,0,.22Z"/><path class="cls-2" d="M81.48,90.37c0,.3,0,.57,0,.81H81l0-.49h0a1.1,1.1,0,0,1-1,.55c-.47,0-1-.25-1-1.29V88.21h.54v1.64c0,.57.17,1,.66,1a.78.78,0,0,0,.71-.49.82.82,0,0,0,0-.28V88.21h.54Z"/><path class="cls-2" d="M83,87.36v.85h.77v.41H83v1.6c0,.37.1.58.4.58a1.11,1.11,0,0,0,.31,0l0,.4a1.19,1.19,0,0,1-.48.08.74.74,0,0,1-.58-.23,1.11,1.11,0,0,1-.21-.77V88.62H82v-.41h.46V87.5Z"/><path class="cls-2" d="M85.05,87.36v.85h.78v.41h-.78v1.6c0,.37.11.58.41.58a1.11,1.11,0,0,0,.31,0l0,.4a1.1,1.1,0,0,1-.47.08.72.72,0,0,1-.58-.23,1.06,1.06,0,0,1-.21-.77V88.62h-.46v-.41h.46V87.5Z"/><path class="cls-2" d="M89.08,89.67a1.44,1.44,0,0,1-1.47,1.57,1.4,1.4,0,0,1-1.42-1.52,1.45,1.45,0,0,1,1.47-1.57A1.4,1.4,0,0,1,89.08,89.67Zm-2.35,0c0,.65.38,1.14.9,1.14s.9-.48.9-1.15c0-.5-.25-1.14-.88-1.14S86.73,89.14,86.73,89.7Z"/><path class="cls-2" d="M89.77,89c0-.31,0-.56,0-.81h.48l0,.49h0a1.09,1.09,0,0,1,1-.55c.41,0,1.05.24,1.05,1.26v1.77h-.54V89.47c0-.48-.18-.88-.69-.88a.77.77,0,0,0-.72.56.82.82,0,0,0,0,.25v1.78h-.53Z"/><path class="cls-2" d="M94.46,89.18c0-.38,0-.68,0-1h.48l0,.51h0A1.16,1.16,0,0,1,96,88.15a1.34,1.34,0,0,1,1.26,1.5,1.4,1.4,0,0,1-1.35,1.59,1,1,0,0,1-.91-.46h0v1.61h-.54ZM95,90a1.5,1.5,0,0,0,0,.22.83.83,0,0,0,.81.63c.57,0,.9-.46.9-1.14s-.31-1.1-.88-1.1a.87.87,0,0,0-.82.66,1.66,1.66,0,0,0,0,.22Z"/><path class="cls-2" d="M98,89.14c0-.35,0-.65,0-.93h.47l0,.59h0a.88.88,0,0,1,.82-.65.36.36,0,0,1,.15,0v.5h-.18a.74.74,0,0,0-.72.69,1,1,0,0,0,0,.25v1.58H98Z"/><path class="cls-2" d="M100.2,89.79a1,1,0,0,0,1,1,2,2,0,0,0,.82-.15l.1.38a2.34,2.34,0,0,1-1,.19,1.38,1.38,0,0,1-1.46-1.5,1.44,1.44,0,0,1,1.39-1.59,1.26,1.26,0,0,1,1.23,1.39c0,.11,0,.2,0,.25Zm1.58-.38a.78.78,0,0,0-.75-.88.91.91,0,0,0-.83.88Z"/><path class="cls-2" d="M102.89,90.63a1.45,1.45,0,0,0,.71.21c.4,0,.58-.2.58-.44s-.15-.4-.55-.55-.78-.48-.78-.83a.91.91,0,0,1,1-.87,1.48,1.48,0,0,1,.73.18l-.14.39a1.2,1.2,0,0,0-.61-.17c-.31,0-.49.18-.49.41s.18.35.56.5.78.45.78.89-.4.89-1.11.89a1.72,1.72,0,0,1-.83-.2Z"/><path class="cls-2" d="M105.32,90.63a1.45,1.45,0,0,0,.71.21c.39,0,.57-.2.57-.44s-.15-.4-.55-.55-.78-.48-.78-.83a.91.91,0,0,1,1-.87,1.45,1.45,0,0,1,.73.18l-.13.39a1.2,1.2,0,0,0-.61-.17c-.32,0-.49.18-.49.41s.17.35.56.5.77.45.77.89-.4.89-1.1.89a1.67,1.67,0,0,1-.83-.2Z"/><path class="cls-2" d="M110.29,86.93a4,4,0,0,0-.77,2.5,4.12,4.12,0,0,0,.77,2.49h-.43a4,4,0,0,1-.8-2.49,4.09,4.09,0,0,1,.8-2.5Z"/><path class="cls-2" d="M110.88,87.11a5,5,0,0,1,1-.09,1.7,1.7,0,0,1,1.13.3.86.86,0,0,1,.34.73,1,1,0,0,1-.69.91h0a1.06,1.06,0,0,1,.85,1,1.1,1.1,0,0,1-.35.83,2.09,2.09,0,0,1-1.43.38,5.18,5.18,0,0,1-.82,0Zm.53,1.69h.48c.56,0,.9-.3.9-.7s-.37-.67-.91-.67a2,2,0,0,0-.47,0Zm0,2a2.51,2.51,0,0,0,.44,0c.56,0,1.06-.2,1.06-.8s-.48-.8-1.06-.8h-.44Z"/><path class="cls-2" d="M114.2,87.1a6.37,6.37,0,0,1,1-.08,1.68,1.68,0,0,1,1.15.34,1.12,1.12,0,0,1,.37.87,1.22,1.22,0,0,1-.32.88,1.7,1.7,0,0,1-1.26.45,1.85,1.85,0,0,1-.43,0v1.66h-.53Zm.53,2a1.83,1.83,0,0,0,.44,0c.64,0,1-.31,1-.88s-.38-.81-1-.81a1.85,1.85,0,0,0-.5,0Z"/><path class="cls-2" d="M117.11,91.92a4.12,4.12,0,0,0,.77-2.51,4.07,4.07,0,0,0-.77-2.48h.42a3.89,3.89,0,0,1,.8,2.49,4,4,0,0,1-.8,2.5Z"/><polygon class="cls-2" points="47.51 101.75 44.01 98.24 44.01 96.93 47.04 99.96 47.04 93.88 47.98 93.88 47.98 99.96 51.01 96.93 51.01 98.24 47.51 101.75"/><path class="cls-2" d="M29.28,90.63a1.45,1.45,0,0,0,.71.21c.39,0,.57-.2.57-.44s-.15-.4-.55-.55-.78-.48-.78-.83a.91.91,0,0,1,1-.87,1.45,1.45,0,0,1,.73.18l-.13.39a1.2,1.2,0,0,0-.61-.17c-.32,0-.5.18-.5.41s.18.35.57.5.77.45.77.89-.4.89-1.1.89a1.67,1.67,0,0,1-.83-.2Z"/><path class="cls-2" d="M32.43,87.36v.85h.77v.41h-.77v1.6c0,.37.1.58.4.58a1.05,1.05,0,0,0,.31,0l0,.4a1.19,1.19,0,0,1-.48.08.74.74,0,0,1-.58-.23,1.11,1.11,0,0,1-.21-.77V88.62h-.46v-.41h.46V87.5Z"/><path class="cls-2" d="M34.41,87.38a.32.32,0,0,1-.35.33.31.31,0,0,1-.32-.33.32.32,0,0,1,.34-.33A.31.31,0,0,1,34.41,87.38Zm-.6,3.8v-3h.54v3Z"/><path class="cls-2" d="M35.24,89c0-.31,0-.56,0-.81h.47l0,.48h0a1,1,0,0,1,.93-.54.88.88,0,0,1,.84.59h0a1.24,1.24,0,0,1,.33-.38,1,1,0,0,1,.66-.21c.39,0,1,.25,1,1.28v1.75h-.53V89.5c0-.57-.21-.91-.64-.91a.69.69,0,0,0-.64.49,1,1,0,0,0,0,.27v1.83h-.53V89.4c0-.47-.2-.81-.61-.81a.79.79,0,0,0-.71.8v1.79h-.53Z"/><path class="cls-2" d="M42.83,90.37c0,.3,0,.57,0,.81h-.47l0-.49h0a1.11,1.11,0,0,1-1,.55c-.46,0-1-.25-1-1.29V88.21h.54v1.64c0,.57.17,1,.66,1a.78.78,0,0,0,.71-.49.82.82,0,0,0,0-.28V88.21h.54Z"/><path class="cls-2" d="M43.73,86.83h.53v4.35h-.53Z"/><path class="cls-2" d="M47.65,90.37c0,.3,0,.57,0,.81H47.2l0-.49h0a1.11,1.11,0,0,1-1,.55c-.46,0-1-.25-1-1.29V88.21h.54v1.64c0,.57.17,1,.66,1a.78.78,0,0,0,.71-.49.82.82,0,0,0,0-.28V88.21h.54Z"/><path class="cls-2" d="M48.47,90.63a1.45,1.45,0,0,0,.71.21c.39,0,.58-.2.58-.44s-.16-.4-.55-.55-.79-.48-.79-.83a.92.92,0,0,1,1-.87,1.41,1.41,0,0,1,.72.18l-.13.39a1.2,1.2,0,0,0-.61-.17c-.31,0-.49.18-.49.41s.18.35.56.5.78.45.78.89-.41.89-1.11.89a1.72,1.72,0,0,1-.83-.2Z"/><path class="cls-2" d="M55,89.67a1.44,1.44,0,0,1-1.47,1.57,1.4,1.4,0,0,1-1.42-1.52,1.45,1.45,0,0,1,1.47-1.57A1.4,1.4,0,0,1,55,89.67Zm-2.35,0c0,.65.37,1.14.9,1.14s.9-.48.9-1.15c0-.5-.25-1.14-.89-1.14S52.6,89.14,52.6,89.7Z"/><path class="cls-2" d="M55.63,89c0-.31,0-.56,0-.81h.48l0,.49h0a1.09,1.09,0,0,1,1-.55c.41,0,1,.24,1,1.26v1.77h-.54V89.47c0-.48-.18-.88-.69-.88a.77.77,0,0,0-.72.56.82.82,0,0,0,0,.25v1.78h-.54Z"/><path class="cls-2" d="M59,90.63a1.45,1.45,0,0,0,.71.21c.39,0,.58-.2.58-.44s-.16-.4-.56-.55-.78-.48-.78-.83a.91.91,0,0,1,1-.87,1.45,1.45,0,0,1,.73.18l-.13.39a1.2,1.2,0,0,0-.61-.17c-.32,0-.49.18-.49.41s.17.35.56.5.78.45.78.89-.41.89-1.11.89a1.67,1.67,0,0,1-.83-.2Z"/><path class="cls-2" d="M61.76,89.79a1,1,0,0,0,1,1,2.1,2.1,0,0,0,.82-.15l.09.38a2.34,2.34,0,0,1-1,.19,1.37,1.37,0,0,1-1.45-1.5,1.43,1.43,0,0,1,1.38-1.59,1.26,1.26,0,0,1,1.23,1.39,1.38,1.38,0,0,1,0,.25Zm1.58-.38a.78.78,0,0,0-.75-.88.89.89,0,0,0-.82.88Z"/><path class="cls-2" d="M65.18,87.36v.85H66v.41h-.77v1.6c0,.37.1.58.4.58a1.05,1.05,0,0,0,.31,0l0,.4a1.19,1.19,0,0,1-.48.08.74.74,0,0,1-.58-.23,1.11,1.11,0,0,1-.21-.77V88.62h-.46v-.41h.46V87.5Z"/><path class="cls-3" d="M55.21,67.24H8.2a6,6,0,0,1-6-6V26.42a6,6,0,0,1,6-6h47a6,6,0,0,1,6,6V61.24a6,6,0,0,1-6,6"/><rect class="cls-4" x="2.2" y="20.42" width="59.01" height="46.82" rx="6"/><path class="cls-3" d="M100.52,71.11h-47a6,6,0,0,1-6-6V30.28a6,6,0,0,1,6-6h47a6,6,0,0,1,6,6V65.11a6,6,0,0,1-6,6"/><rect class="cls-4" x="47.51" y="24.28" width="59.01" height="46.82" rx="6"/><path class="cls-3" d="M150.2,75h-47a6,6,0,0,1-6-6V34.15a6,6,0,0,1,6-6h47a6,6,0,0,1,6,6V69a6,6,0,0,1-6,6"/><rect class="cls-4" x="97.19" y="28.15" width="59.01" height="46.82" rx="6"/><path class="cls-3" d="M199,78.84H152a6,6,0,0,1-6-6V38a6,6,0,0,1,6-6h47a6,6,0,0,1,6,6V72.84a6,6,0,0,1-6,6"/><rect class="cls-4" x="146" y="32.02" width="59.01" height="46.82" rx="6"/><path class="cls-5" d="M151.9,48.19a10.46,10.46,0,0,1,.82-2.08l.49-.06a13.06,13.06,0,0,0-.52,2.05Zm1.3,0a10.46,10.46,0,0,1,.82-2.08l.49-.06A12,12,0,0,0,154,48.1Z"/><path class="cls-5" d="M156.84,52.05v-2.5L155,46.15h.86l.84,1.63c.22.45.4.8.58,1.22h0c.17-.39.37-.77.6-1.22l.85-1.63h.86l-2,3.39v2.51Z"/><path class="cls-5" d="M163.41,49.9a2.07,2.07,0,0,1-2.11,2.25,2,2,0,0,1-2-2.18,2.06,2.06,0,0,1,2.1-2.25A2,2,0,0,1,163.41,49.9Zm-3.36,0c0,.93.53,1.63,1.28,1.63s1.29-.69,1.29-1.65c0-.71-.36-1.62-1.27-1.62S160.05,49.14,160.05,49.94Z"/><path class="cls-5" d="M167.92,50.9c0,.43,0,.82,0,1.15h-.68l-.05-.69h0a1.62,1.62,0,0,1-1.41.79c-.66,0-1.46-.37-1.46-1.86V47.81h.77v2.35c0,.81.25,1.35.95,1.35a1.11,1.11,0,0,0,1-.7,1,1,0,0,0,.07-.39V47.81h.77Z"/><path class="cls-5" d="M169.2,49.14c0-.5,0-.93,0-1.33h.68l0,.84h0a1.27,1.27,0,0,1,1.17-.93l.22,0v.73a1,1,0,0,0-.26,0,1.08,1.08,0,0,0-1,1,2,2,0,0,0,0,.36v2.26h-.76Z"/><path class="cls-5" d="M176.26,52.05l-.06-.53h0a1.61,1.61,0,0,1-1.3.63,1.21,1.21,0,0,1-1.3-1.22c0-1,.91-1.58,2.55-1.57v-.09a.87.87,0,0,0-1-1,2.08,2.08,0,0,0-1.1.31l-.18-.51a2.7,2.7,0,0,1,1.39-.37c1.3,0,1.61.88,1.61,1.73V51a6.16,6.16,0,0,0,.07,1Zm-.11-2.16c-.84,0-1.8.13-1.8,1a.69.69,0,0,0,.73.74,1.07,1.07,0,0,0,1-.71,1.09,1.09,0,0,0,0-.24Z"/><path class="cls-5" d="M178.13,49c0-.44,0-.8,0-1.15h.68l.05.7h0a1.56,1.56,0,0,1,1.41-.79c.58,0,1.49.35,1.49,1.8v2.53H181V49.61c0-.68-.25-1.25-1-1.25a1.09,1.09,0,0,0-1,.79.92.92,0,0,0-.05.35v2.55h-.78Z"/><path class="cls-5" d="M182.89,51.27a2.11,2.11,0,0,0,1,.3c.56,0,.83-.28.83-.63s-.22-.57-.79-.78c-.76-.27-1.12-.69-1.12-1.2a1.3,1.3,0,0,1,1.46-1.24,2.09,2.09,0,0,1,1,.26l-.19.56a1.71,1.71,0,0,0-.87-.24c-.45,0-.71.26-.71.57s.26.51.81.72c.73.28,1.11.65,1.11,1.28s-.58,1.27-1.58,1.27a2.39,2.39,0,0,1-1.2-.29Z"/><path class="cls-5" d="M186.76,47.81l.56,2.16c.13.47.24.91.32,1.35h0c.09-.43.23-.89.37-1.34l.69-2.17h.65l.66,2.12c.16.51.28,1,.38,1.39h0a12.94,12.94,0,0,1,.33-1.38l.6-2.13h.76l-1.36,4.24h-.7l-.65-2c-.15-.47-.27-.89-.38-1.39h0a11.44,11.44,0,0,1-.38,1.4l-.68,2h-.71L186,47.81Z"/><path class="cls-5" d="M193.25,50.07a1.36,1.36,0,0,0,1.45,1.48,2.83,2.83,0,0,0,1.18-.22l.13.55a3.5,3.5,0,0,1-1.41.26A2,2,0,0,1,192.51,50a2.06,2.06,0,0,1,2-2.28,1.79,1.79,0,0,1,1.75,2,2.8,2.8,0,0,1,0,.36Zm2.26-.55a1.09,1.09,0,0,0-1.07-1.25,1.27,1.27,0,0,0-1.18,1.25Z"/><path class="cls-5" d="M197.2,49.14c0-.5,0-.93,0-1.33h.67l0,.84h0a1.26,1.26,0,0,1,1.17-.93l.22,0v.73a1,1,0,0,0-.26,0,1.09,1.09,0,0,0-1,1,2,2,0,0,0,0,.36v2.26h-.77Z"/><path class="cls-5" d="M159.23,57.12a.48.48,0,1,1-.95,0,.47.47,0,0,1,.48-.48A.45.45,0,0,1,159.23,57.12Zm-.86,5.44V58.32h.78v4.24Z"/><path class="cls-5" d="M160.32,61.77a2,2,0,0,0,1,.3c.56,0,.83-.28.83-.63s-.22-.57-.79-.78c-.76-.27-1.12-.69-1.12-1.2a1.3,1.3,0,0,1,1.46-1.24,2.09,2.09,0,0,1,1,.26l-.19.56a1.71,1.71,0,0,0-.87-.24c-.45,0-.71.26-.71.58s.26.5.81.71c.73.28,1.11.65,1.11,1.28s-.58,1.27-1.58,1.27a2.39,2.39,0,0,1-1.2-.29Z"/><path class="cls-5" d="M168.76,62.4a2.89,2.89,0,0,1-1.21.24,2,2,0,0,1-2.11-2.16,2.15,2.15,0,0,1,2.27-2.25,2.49,2.49,0,0,1,1.07.22l-.17.59a1.9,1.9,0,0,0-.9-.2,1.6,1.6,0,0,0,0,3.19,2.14,2.14,0,0,0,.94-.21Z"/><path class="cls-5" d="M173.46,60.4a2.07,2.07,0,0,1-2.11,2.25,2,2,0,0,1-2-2.18,2.07,2.07,0,0,1,2.11-2.25A2,2,0,0,1,173.46,60.4Zm-3.37,0c0,.93.54,1.63,1.29,1.63s1.29-.69,1.29-1.64c0-.72-.36-1.63-1.27-1.63S170.09,59.64,170.09,60.44Z"/><path class="cls-5" d="M174.42,59.64c0-.5,0-.93,0-1.32h.67l0,.83h0a1.28,1.28,0,0,1,1.18-.93.73.73,0,0,1,.22,0V59l-.27,0a1.08,1.08,0,0,0-1,1,1.86,1.86,0,0,0,0,.36v2.26h-.77Z"/><path class="cls-5" d="M177.31,59.64c0-.5,0-.93,0-1.32H178l0,.83h0a1.28,1.28,0,0,1,1.18-.93.78.78,0,0,1,.22,0V59l-.27,0a1.08,1.08,0,0,0-1,1,1.79,1.79,0,0,0,0,.36v2.26h-.76Z"/><path class="cls-5" d="M180.52,60.58A1.35,1.35,0,0,0,182,62.05a2.82,2.82,0,0,0,1.17-.22l.14.55a3.54,3.54,0,0,1-1.41.26,2,2,0,0,1-2.09-2.13,2.06,2.06,0,0,1,2-2.29,1.8,1.8,0,0,1,1.75,2,2.7,2.7,0,0,1,0,.36Zm2.26-.56a1.11,1.11,0,0,0-1.07-1.25A1.29,1.29,0,0,0,180.52,60Z"/><path class="cls-5" d="M187.49,62.4a2.89,2.89,0,0,1-1.21.24,2,2,0,0,1-2.11-2.16,2.15,2.15,0,0,1,2.27-2.25,2.49,2.49,0,0,1,1.07.22l-.17.59a1.9,1.9,0,0,0-.9-.2,1.6,1.6,0,0,0,0,3.19,2.14,2.14,0,0,0,.94-.21Z"/><path class="cls-5" d="M189.43,57.1v1.22h1.1v.58h-1.1v2.29c0,.52.14.82.57.82a1.59,1.59,0,0,0,.45,0l0,.58a2,2,0,0,1-.69.1,1.06,1.06,0,0,1-.83-.32,1.57,1.57,0,0,1-.3-1.1V58.9H188v-.58h.65v-1Z"/><path class="cls-5" d="M192.54,56.56a11,11,0,0,1-.81,2.07l-.49.06a12.66,12.66,0,0,0,.51-2.06Zm1.3,0a10.34,10.34,0,0,1-.82,2.07l-.49.06a11.69,11.69,0,0,0,.52-2.06Z"/><path class="cls-2" d="M67.4,49.88a3.23,3.23,0,0,0,1.64.47c1.28,0,1.68-.82,1.67-1.43,0-1-.95-1.48-1.91-1.48h-.56v-.75h.56c.72,0,1.65-.38,1.65-1.26,0-.59-.38-1.11-1.3-1.11a2.71,2.71,0,0,0-1.48.49l-.26-.73a3.45,3.45,0,0,1,1.93-.57c1.46,0,2.12.87,2.12,1.76A1.85,1.85,0,0,1,70.09,47v0a1.92,1.92,0,0,1,1.65,1.9c0,1.18-.92,2.22-2.69,2.22a3.8,3.8,0,0,1-1.93-.5Z"/><path class="cls-2" d="M77.58,44.57h0l-1.29.69-.19-.76,1.61-.86h.86V51h-1Z"/><path class="cls-2" d="M85.83,44.57h0l-1.29.69-.19-.76,1.61-.86h.86V51h-1Z"/><rect class="cls-6" x="52.91" y="117.06" width="12.15" height="7.34" rx="1.5"/><path class="cls-2" d="M58.82,118.57h0l-.88.48-.14-.52,1.12-.6h.59v5.12h-.67Z"/><rect class="cls-6" x="81.64" y="117.06" width="12.15" height="7.34" rx="1.5"/><path class="cls-2" d="M86.22,122.25a2.27,2.27,0,0,0,1.13.32c.89,0,1.17-.56,1.16-1,0-.71-.65-1-1.32-1H86.8V120h.39c.5,0,1.14-.26,1.14-.87,0-.41-.26-.77-.9-.77a1.84,1.84,0,0,0-1,.34l-.18-.5a2.39,2.39,0,0,1,1.34-.4c1,0,1.46.6,1.46,1.22a1.27,1.27,0,0,1-.94,1.21h0a1.34,1.34,0,0,1,1.14,1.32c0,.82-.64,1.53-1.87,1.53a2.67,2.67,0,0,1-1.33-.34Z"/><rect class="cls-6" x="67.28" y="117.06" width="12.15" height="7.34" rx="1.5"/><path class="cls-2" d="M71.69,123.05v-.43l.54-.53c1.31-1.24,1.9-1.9,1.9-2.67a.91.91,0,0,0-1-1,1.73,1.73,0,0,0-1.09.43l-.22-.49a2.26,2.26,0,0,1,1.45-.52,1.45,1.45,0,0,1,1.57,1.49c0,.94-.69,1.71-1.77,2.75l-.41.38H75v.58Z"/><path class="cls-2" d="M92.35,139a5.32,5.32,0,0,1-2.27.47,5.27,5.27,0,0,1-2.47-.55v-2.19A30.16,30.16,0,0,1,85.7,132l1.23-2.23.08-3.57v-.74a3.65,3.65,0,0,1,.3-1.68.93.93,0,0,1,.88-.55.86.86,0,0,1,.8.5,3.33,3.33,0,0,1,.27,1.52v.61l.06,3.3h.6a1.33,1.33,0,0,1,1.41.85h.31A1.19,1.19,0,0,1,93,131.14a1.15,1.15,0,0,1,.24,0,.81.81,0,0,1,.83.58,7,7,0,0,1,.22,2.18c0,.28,0,.53,0,.77a5.22,5.22,0,0,1-.06.62,5.85,5.85,0,0,1-1.82,2.2Zm-.51-.4V137.2a6.46,6.46,0,0,0,1.9-2.06c0-.23,0-.47.05-.7s0-.46,0-.69a5.28,5.28,0,0,0-.18-1.69.65.65,0,0,0-.66-.46H92.5v-.21c0-.57-.36-.86-1.08-.86h-.5v-.18c0-.43-.36-.65-1.08-.65H88.78v-3.76a6.71,6.71,0,0,0-.16-1.66c-.1-.36-.25-.55-.45-.55s-.38.15-.48.45a4.28,4.28,0,0,0-.16,1.37V126l-.21,6.45-.42,0,0-1.58-.64,1.26a46.8,46.8,0,0,0,1.84,4.6l0,1.89a4.89,4.89,0,0,0,1.83.36,5.09,5.09,0,0,0,1.92-.34"/><rect class="cls-3" x="87.6" y="124.4" width="1.02" height="4.89"/><path class="cls-3" d="M295.82,67.24h-47a6,6,0,0,1-6-6V26.42a6,6,0,0,1,6-6h47a6,6,0,0,1,6,6V61.24a6,6,0,0,1-6,6"/><rect class="cls-4" x="242.81" y="20.42" width="59.01" height="46.82" rx="6"/><path class="cls-3" d="M341.13,71.11h-47a6,6,0,0,1-6-6V30.28a6,6,0,0,1,6-6h47a6,6,0,0,1,6,6V65.11a6,6,0,0,1-6,6"/><rect class="cls-4" x="288.12" y="24.28" width="59.01" height="46.82" rx="6"/><path class="cls-7" d="M309.61,43.83c0,.4-.05.84-.05,1.51v3.18a3.18,3.18,0,0,1-.78,2.51,2.89,2.89,0,0,1-2,.66,3.5,3.5,0,0,1-1.83-.46l.25-.76a3.06,3.06,0,0,0,1.61.43c1,0,1.77-.53,1.77-1.91v-.61h0a2,2,0,0,1-1.75.91,2.45,2.45,0,0,1-2.34-2.67A2.63,2.63,0,0,1,307,43.71a1.81,1.81,0,0,1,1.71.95h0l.05-.83Zm-1,2.17a1.35,1.35,0,0,0-.06-.46,1.43,1.43,0,0,0-1.39-1c-1,0-1.64.8-1.64,2.07,0,1.08.55,2,1.62,2a1.46,1.46,0,0,0,1.39-1,2,2,0,0,0,.08-.54Z"/><path class="cls-7" d="M311.15,45.54c0-.64,0-1.2,0-1.71H312l0,1.08h.05a1.65,1.65,0,0,1,1.52-1.21,1.18,1.18,0,0,1,.28,0v.94a1.72,1.72,0,0,0-.34,0,1.4,1.4,0,0,0-1.34,1.28,3,3,0,0,0,0,.46v2.93h-1Z"/><path class="cls-7" d="M315.3,46.76a1.76,1.76,0,0,0,1.88,1.9,3.76,3.76,0,0,0,1.52-.28l.17.71a4.42,4.42,0,0,1-1.83.34,2.54,2.54,0,0,1-2.69-2.77,2.66,2.66,0,0,1,2.57-3,2.33,2.33,0,0,1,2.27,2.59,4.13,4.13,0,0,1,0,.47Zm2.92-.72a1.42,1.42,0,0,0-1.38-1.62A1.65,1.65,0,0,0,315.31,46Z"/><path class="cls-7" d="M321,46.76a1.76,1.76,0,0,0,1.88,1.9,3.8,3.8,0,0,0,1.52-.28l.17.71a4.42,4.42,0,0,1-1.83.34,2.55,2.55,0,0,1-2.7-2.77,2.67,2.67,0,0,1,2.58-3,2.33,2.33,0,0,1,2.27,2.59,4.13,4.13,0,0,1,0,.47ZM323.9,46a1.42,1.42,0,0,0-1.38-1.62A1.65,1.65,0,0,0,321,46Z"/><path class="cls-7" d="M326.1,45.31c0-.56,0-1,0-1.48h.88l.06.91h0a2,2,0,0,1,1.81-1c.76,0,1.94.46,1.94,2.34v3.28h-1V46.15c0-.88-.33-1.62-1.27-1.62a1.42,1.42,0,0,0-1.33,1,1.37,1.37,0,0,0-.07.47v3.3h-1Z"/><path class="cls-3" d="M390.82,75h-47a6,6,0,0,1-6-6V34.15a6,6,0,0,1,6-6h47a6,6,0,0,1,6,6V69a6,6,0,0,1-6,6"/><rect class="cls-4" x="337.81" y="28.15" width="59.01" height="46.82" rx="6"/><path class="cls-3" d="M439.63,78.84h-47a6,6,0,0,1-6-6V38a6,6,0,0,1,6-6h47a6,6,0,0,1,6,6V72.84a6,6,0,0,1-6,6"/><rect class="cls-4" x="386.62" y="32.02" width="59.01" height="46.82" rx="6"/><path class="cls-8" d="M392.51,48.19a9.85,9.85,0,0,1,.83-2.08l.49-.06a12,12,0,0,0-.52,2.05Zm1.31,0a10.5,10.5,0,0,1,.81-2.08l.49-.06a13.06,13.06,0,0,0-.52,2.05Z"/><path class="cls-8" d="M397.45,52.05v-2.5l-1.87-3.4h.87l.83,1.63c.23.45.41.81.59,1.22h0c.16-.39.37-.77.59-1.22l.85-1.63h.87l-2,3.39v2.51Z"/><path class="cls-8" d="M404,49.9a2.07,2.07,0,0,1-2.11,2.25,2,2,0,0,1-2-2.18,2.07,2.07,0,0,1,2.1-2.25A2,2,0,0,1,404,49.9Zm-3.36,0c0,.93.53,1.63,1.29,1.63s1.29-.69,1.29-1.64c0-.72-.36-1.63-1.27-1.63S400.66,49.14,400.66,49.94Z"/><path class="cls-8" d="M408.54,50.9c0,.44,0,.82,0,1.15h-.68l0-.69h0a1.6,1.6,0,0,1-1.4.79c-.67,0-1.46-.37-1.46-1.86V47.81h.77v2.35c0,.81.24,1.35.94,1.35a1.12,1.12,0,0,0,1-.7,1.18,1.18,0,0,0,.07-.39V47.81h.77Z"/><path class="cls-8" d="M409.81,49.14c0-.5,0-.93,0-1.33h.67l0,.84h0a1.26,1.26,0,0,1,1.17-.93l.22,0v.73a1.06,1.06,0,0,0-.26,0,1.08,1.08,0,0,0-1,1,1.83,1.83,0,0,0,0,.35v2.26h-.77Z"/><path class="cls-8" d="M416.88,52.05l-.06-.53h0a1.58,1.58,0,0,1-1.3.63,1.21,1.21,0,0,1-1.29-1.22c0-1,.91-1.58,2.55-1.57v-.09a.88.88,0,0,0-1-1,2.14,2.14,0,0,0-1.1.31l-.17-.51a2.68,2.68,0,0,1,1.39-.37c1.29,0,1.61.88,1.61,1.73V51a6.16,6.16,0,0,0,.07,1Zm-.11-2.16c-.85,0-1.8.13-1.8,1a.68.68,0,0,0,.73.73,1,1,0,0,0,1-.71.69.69,0,0,0,0-.24Z"/><path class="cls-8" d="M418.75,49c0-.44,0-.79,0-1.15h.68l0,.71h0a1.55,1.55,0,0,1,1.4-.8c.59,0,1.5.35,1.5,1.8v2.53h-.77V49.61c0-.68-.26-1.25-1-1.25a1.1,1.1,0,0,0-1,.79,1.18,1.18,0,0,0-.05.35v2.55h-.77Z"/><path class="cls-8" d="M423.5,51.27a2.12,2.12,0,0,0,1,.3c.56,0,.82-.28.82-.63s-.22-.57-.79-.78c-.76-.27-1.12-.69-1.12-1.2a1.3,1.3,0,0,1,1.46-1.24,2.16,2.16,0,0,1,1.05.26l-.2.56a1.67,1.67,0,0,0-.86-.24c-.46,0-.71.26-.71.57s.25.51.8.72c.74.28,1.12.65,1.12,1.28s-.58,1.27-1.59,1.27a2.38,2.38,0,0,1-1.19-.29Z"/><path class="cls-8" d="M427.38,47.81l.56,2.16c.12.47.24.91.31,1.35h0c.1-.43.24-.89.38-1.34l.69-2.17H430l.65,2.12c.16.51.29,1,.38,1.39h0a12.76,12.76,0,0,1,.32-1.38l.61-2.13h.76l-1.37,4.24h-.7L430,50a12.32,12.32,0,0,1-.37-1.39h0a13.56,13.56,0,0,1-.39,1.4l-.68,2h-.7l-1.28-4.24Z"/><path class="cls-8" d="M433.86,50.07a1.37,1.37,0,0,0,1.46,1.48,2.82,2.82,0,0,0,1.17-.22l.13.55a3.46,3.46,0,0,1-1.41.26A2,2,0,0,1,433.13,50a2.06,2.06,0,0,1,2-2.28,1.8,1.8,0,0,1,1.75,2,2.38,2.38,0,0,1,0,.35Zm2.26-.55a1.09,1.09,0,0,0-1.06-1.25,1.28,1.28,0,0,0-1.19,1.25Z"/><path class="cls-8" d="M437.82,49.14c0-.5,0-.93,0-1.33h.68l0,.84h0a1.27,1.27,0,0,1,1.17-.93l.22,0v.73a1,1,0,0,0-.26,0,1.08,1.08,0,0,0-1,1,1.78,1.78,0,0,0,0,.35v2.26h-.76Z"/><path class="cls-8" d="M396.39,57.13a.48.48,0,0,1-.95,0,.47.47,0,0,1,.48-.49A.46.46,0,0,1,396.39,57.13Zm-.86,5.43V58.32h.77v4.24Z"/><path class="cls-8" d="M397.47,61.77a2,2,0,0,0,1,.3c.56,0,.82-.28.82-.63s-.22-.57-.79-.78c-.76-.27-1.12-.69-1.12-1.2a1.31,1.31,0,0,1,1.47-1.24,2.12,2.12,0,0,1,1,.26l-.19.56a1.74,1.74,0,0,0-.87-.24c-.46,0-.71.26-.71.58s.25.5.81.71c.73.29,1.11.65,1.11,1.28s-.58,1.27-1.59,1.27a2.38,2.38,0,0,1-1.19-.29Z"/><path class="cls-8" d="M403.76,57.13a.46.46,0,0,1-.49.47.46.46,0,0,1-.47-.47.48.48,0,0,1,.49-.49A.46.46,0,0,1,403.76,57.13Zm-.86,5.43V58.32h.77v4.24Z"/><path class="cls-8" d="M405,59.46c0-.43,0-.79,0-1.14h.69l0,.7h0a1.55,1.55,0,0,1,1.4-.8c.59,0,1.5.35,1.5,1.8v2.54h-.77V60.11c0-.68-.26-1.25-1-1.25a1.1,1.1,0,0,0-1,.79,1.25,1.25,0,0,0,0,.36v2.55H405Z"/><path class="cls-8" d="M412.83,62.4a2.94,2.94,0,0,1-1.22.24,2,2,0,0,1-2.11-2.16,2.15,2.15,0,0,1,2.28-2.25,2.47,2.47,0,0,1,1.06.22l-.17.59a1.85,1.85,0,0,0-.89-.2,1.6,1.6,0,0,0,0,3.19,2.07,2.07,0,0,0,.94-.21Z"/><path class="cls-8" d="M417.52,60.4a2.07,2.07,0,0,1-2.11,2.25,2,2,0,0,1-2-2.18,2.06,2.06,0,0,1,2.1-2.25A2,2,0,0,1,417.52,60.4Zm-3.37,0c0,.93.54,1.63,1.29,1.63s1.29-.69,1.29-1.64c0-.72-.36-1.63-1.27-1.63S414.15,59.64,414.15,60.44Z"/><path class="cls-8" d="M418.49,59.64c0-.5,0-.93,0-1.32h.68l0,.83h0a1.26,1.26,0,0,1,1.17-.93.73.73,0,0,1,.22,0V59l-.26,0a1.08,1.08,0,0,0-1,1,3.25,3.25,0,0,0,0,.36v2.26h-.76Z"/><path class="cls-8" d="M421.38,59.64c0-.5,0-.93,0-1.32H422l0,.83h0a1.28,1.28,0,0,1,1.18-.93.73.73,0,0,1,.22,0V59l-.27,0a1.08,1.08,0,0,0-1,1,1.86,1.86,0,0,0,0,.36v2.26h-.77Z"/><path class="cls-8" d="M424.6,60.58a1.35,1.35,0,0,0,1.45,1.47,2.78,2.78,0,0,0,1.17-.22l.13.55a3.46,3.46,0,0,1-1.41.26,2,2,0,0,1-2.08-2.13,2.06,2.06,0,0,1,2-2.29,1.8,1.8,0,0,1,1.75,2,2.55,2.55,0,0,1,0,.36Zm2.26-.56a1.11,1.11,0,0,0-1.07-1.25A1.29,1.29,0,0,0,424.6,60Z"/><path class="cls-8" d="M431.57,62.4a2.94,2.94,0,0,1-1.22.24,2,2,0,0,1-2.11-2.16,2.15,2.15,0,0,1,2.28-2.25,2.49,2.49,0,0,1,1.07.22l-.18.59a1.82,1.82,0,0,0-.89-.2,1.47,1.47,0,0,0-1.5,1.6A1.45,1.45,0,0,0,430.5,62a2.14,2.14,0,0,0,.94-.21Z"/><path class="cls-8" d="M433.51,57.1v1.22h1.11v.58h-1.11v2.29c0,.52.15.82.58.82a1.64,1.64,0,0,0,.45,0l0,.58a1.87,1.87,0,0,1-.68.1,1.06,1.06,0,0,1-.83-.32,1.57,1.57,0,0,1-.3-1.1V58.9h-.66v-.58h.66v-1Z"/><path class="cls-8" d="M436.62,56.56a11,11,0,0,1-.81,2.07l-.49.06a12.66,12.66,0,0,0,.51-2.06Zm1.3,0a10.34,10.34,0,0,1-.82,2.07l-.49.06a11.69,11.69,0,0,0,.52-2.06Z"/><line class="cls-1" x1="242.81" y1="115.34" x2="445.63" y2="115.34"/><line class="cls-1" x1="242.81" y1="107.47" x2="242.81" y2="115.34"/><line class="cls-1" x1="288.12" y1="107.47" x2="288.12" y2="115.34"/><line class="cls-1" x1="337.81" y1="107.47" x2="337.81" y2="115.34"/><line class="cls-1" x1="386.62" y1="107.47" x2="386.62" y2="115.34"/><line class="cls-1" x1="445.63" y1="107.47" x2="445.63" y2="115.34"/><path class="cls-2" d="M252.93,100.9h0l-.79.43-.12-.47,1-.53h.53v4.55h-.59Z"/><path class="cls-2" d="M255.23,104.51a.42.42,0,1,1,.41.45A.42.42,0,0,1,255.23,104.51Z"/><path class="cls-2" d="M259.35,100.84h-1.74l-.18,1.17.38,0a1.92,1.92,0,0,1,1,.24,1.31,1.31,0,0,1,.65,1.17,1.59,1.59,0,0,1-1.7,1.56,2.18,2.18,0,0,1-1.13-.28l.15-.47a2.06,2.06,0,0,0,1,.25,1,1,0,0,0,1.08-1c0-.59-.4-1-1.31-1a4.87,4.87,0,0,0-.63.05l.3-2.18h2.18Z"/><path class="cls-2" d="M263.33,102.76v.45H261.6v-.45Z"/><path class="cls-2" d="M266.68,100.9h0l-.79.43-.12-.47,1-.53h.53v4.55h-.59Z"/><path class="cls-2" d="M269,104.51a.42.42,0,1,1,.41.45A.42.42,0,0,1,269,104.51Z"/><path class="cls-2" d="M273.33,100.33v.4l-2,4.15h-.64l2-4h-2.23v-.51Z"/><path class="cls-2" d="M276.69,100.84H275l-.17,1.17.37,0a1.9,1.9,0,0,1,1,.24,1.31,1.31,0,0,1,.65,1.17,1.59,1.59,0,0,1-1.7,1.56,2.24,2.24,0,0,1-1.13-.28l.15-.47a2.07,2.07,0,0,0,1,.25,1,1,0,0,0,1.07-1c0-.59-.39-1-1.3-1a4.72,4.72,0,0,0-.63.05l.29-2.18h2.18Z"/><path class="cls-2" d="M277.67,104.25a1.65,1.65,0,0,0,.82.24c.44,0,.66-.22.66-.5s-.18-.46-.64-.62-.89-.56-.89-1a1,1,0,0,1,1.17-1,1.71,1.71,0,0,1,.83.21l-.15.45a1.39,1.39,0,0,0-.7-.2c-.36,0-.56.21-.56.47s.2.4.64.57.89.52.89,1-.46,1-1.27,1a1.93,1.93,0,0,1-1-.23Z"/><path class="cls-2" d="M290.8,107c0-.35,0-.65,0-.92h.47l0,.58h0a.89.89,0,0,1,.82-.65l.15,0v.51a.5.5,0,0,0-.18,0,.75.75,0,0,0-.72.69,1.71,1.71,0,0,0,0,.25V109h-.53Z"/><path class="cls-2" d="M293,107.62a1,1,0,0,0,1,1,1.9,1.9,0,0,0,.82-.15l.09.39a2.49,2.49,0,0,1-1,.18,1.37,1.37,0,0,1-1.46-1.49,1.44,1.44,0,0,1,1.39-1.6,1.25,1.25,0,0,1,1.22,1.39,1.51,1.51,0,0,1,0,.26Zm1.58-.39a.77.77,0,0,0-.74-.88.9.9,0,0,0-.83.88Z"/><path class="cls-2" d="M297.45,109l0-.37h0a1.09,1.09,0,0,1-.9.44.85.85,0,0,1-.91-.85c0-.72.64-1.11,1.78-1.11v-.06a.61.61,0,0,0-.67-.68,1.39,1.39,0,0,0-.77.22l-.13-.36a1.85,1.85,0,0,1,1-.26c.9,0,1.12.62,1.12,1.21v1.11a3.82,3.82,0,0,0,.05.71Zm-.08-1.51c-.58,0-1.25.09-1.25.66a.48.48,0,0,0,.51.52.73.73,0,0,0,.71-.5.47.47,0,0,0,0-.17Z"/><path class="cls-2" d="M300.88,108.89a2.07,2.07,0,0,1-.85.17,1.41,1.41,0,0,1-1.48-1.51,1.51,1.51,0,0,1,1.59-1.57,1.89,1.89,0,0,1,.75.15l-.12.41a1.3,1.3,0,0,0-.63-.14,1,1,0,0,0-1,1.12,1,1,0,0,0,1,1.11,1.46,1.46,0,0,0,.66-.15Z"/><path class="cls-2" d="M302.23,105.19V106H303v.41h-.77V108c0,.37.11.58.41.58a1.11,1.11,0,0,0,.31,0l0,.41a1.37,1.37,0,0,1-.47.07.75.75,0,0,1-.59-.23,1.11,1.11,0,0,1-.2-.77v-1.61h-.46V106h.46v-.71Z"/><path class="cls-2" d="M304.21,105.21a.32.32,0,0,1-.34.33.33.33,0,0,1-.33-.33.34.34,0,0,1,.34-.34A.32.32,0,0,1,304.21,105.21Zm-.6,3.79v-3h.54v3Z"/><path class="cls-2" d="M307.73,107.49a1.45,1.45,0,0,1-1.48,1.58,1.41,1.41,0,0,1-1.42-1.53A1.45,1.45,0,0,1,306.3,106,1.41,1.41,0,0,1,307.73,107.49Zm-2.35,0c0,.65.37,1.14.89,1.14s.9-.48.9-1.15c0-.5-.25-1.14-.88-1.14S305.38,107,305.38,107.52Z"/><path class="cls-2" d="M308.41,106.84c0-.31,0-.56,0-.8h.48l0,.49h0a1.1,1.1,0,0,1,1-.56c.41,0,1.05.24,1.05,1.26V109h-.54v-1.71c0-.48-.18-.87-.68-.87a.77.77,0,0,0-.73.55.9.9,0,0,0,0,.25V109h-.54Z"/><path class="cls-2" d="M313.76,105.19V106h.77v.41h-.77V108c0,.37.1.58.4.58a1.11,1.11,0,0,0,.31,0l0,.41a1.43,1.43,0,0,1-.48.07.72.72,0,0,1-.58-.23,1.06,1.06,0,0,1-.21-.77v-1.61h-.46V106h.46v-.71Z"/><path class="cls-2" d="M315.73,105.21a.31.31,0,0,1-.34.33.32.32,0,0,1-.32-.33.33.33,0,0,1,.33-.34A.32.32,0,0,1,315.73,105.21Zm-.6,3.79v-3h.54v3Z"/><path class="cls-2" d="M316.57,106.84c0-.31,0-.56,0-.8H317l0,.47h0A1,1,0,0,1,318,106a.88.88,0,0,1,.84.59h0a1.24,1.24,0,0,1,.33-.38,1,1,0,0,1,.65-.21c.4,0,1,.26,1,1.28V109h-.53v-1.68c0-.57-.21-.91-.64-.91a.7.7,0,0,0-.64.49,1,1,0,0,0,0,.27V109h-.53v-1.78c0-.47-.21-.81-.62-.81a.73.73,0,0,0-.66.54.75.75,0,0,0-.05.26V109h-.52Z"/><path class="cls-2" d="M322,107.62a.94.94,0,0,0,1,1,1.87,1.87,0,0,0,.82-.15l.09.39a2.45,2.45,0,0,1-1,.18,1.38,1.38,0,0,1-1.46-1.49,1.44,1.44,0,0,1,1.39-1.6,1.26,1.26,0,0,1,1.23,1.39c0,.12,0,.2,0,.26Zm1.58-.39a.78.78,0,0,0-.75-.88.91.91,0,0,0-.83.88Z"/><path class="cls-2" d="M327.21,104.75a4.09,4.09,0,0,0-.77,2.5,4.17,4.17,0,0,0,.77,2.49h-.42a4,4,0,0,1-.8-2.49,4.12,4.12,0,0,1,.8-2.5Z"/><path class="cls-2" d="M327.8,104.93a5.19,5.19,0,0,1,1-.09,1.71,1.71,0,0,1,1.19.34,1,1,0,0,1,.32.78,1.09,1.09,0,0,1-.77,1.06h0a1.05,1.05,0,0,1,.6.84,6.75,6.75,0,0,0,.32,1.13h-.55a5.33,5.33,0,0,1-.28-1c-.12-.57-.34-.78-.82-.8h-.5V109h-.54Zm.54,1.88h.54c.57,0,.93-.31.93-.79s-.38-.76-.95-.77a2.3,2.3,0,0,0-.52,0Z"/><path class="cls-2" d="M331.93,105.33h-1.25v-.46h3.05v.46h-1.26V109h-.54Z"/><path class="cls-2" d="M334.22,109.74a4.18,4.18,0,0,0,.77-2.5,4.08,4.08,0,0,0-.77-2.49h.41a3.91,3.91,0,0,1,.81,2.49,4,4,0,0,1-.81,2.5Z"/><path class="cls-2" d="M358.81,100.9h0l-.79.43-.12-.47,1-.53h.52v4.55h-.59Z"/><path class="cls-2" d="M361.17,104.25a1.62,1.62,0,0,0,.81.24c.45,0,.66-.22.66-.5s-.17-.46-.63-.62-.89-.56-.89-1a1,1,0,0,1,1.17-1,1.71,1.71,0,0,1,.83.21l-.16.45a1.31,1.31,0,0,0-.69-.2c-.36,0-.57.21-.57.47s.21.4.65.57.89.52.89,1-.46,1-1.27,1a1.93,1.93,0,0,1-1-.23Z"/><path class="cls-2" d="M414.59,100.9h0l-.79.43-.12-.47,1-.53h.53v4.55h-.6Z"/><path class="cls-2" d="M417,104.25a1.58,1.58,0,0,0,.81.24c.45,0,.66-.22.66-.5s-.18-.46-.63-.62c-.61-.22-.9-.56-.9-1a1,1,0,0,1,1.17-1,1.72,1.72,0,0,1,.84.21l-.16.45a1.35,1.35,0,0,0-.69-.2c-.37,0-.57.21-.57.47s.2.4.65.57.88.52.88,1-.46,1-1.26,1a1.9,1.9,0,0,1-.95-.23Z"/><path class="cls-2" d="M403.31,124.78v-2.92h-.47v-.47h.47v-.16a1.59,1.59,0,0,1,.4-1.18,1.14,1.14,0,0,1,.82-.32,1.42,1.42,0,0,1,.53.1l-.09.48a.91.91,0,0,0-.39-.08c-.52,0-.66.46-.66,1v.18h.82v.47h-.82v2.92Z"/><path class="cls-2" d="M405.55,123.2a1.1,1.1,0,0,0,1.17,1.18,2.15,2.15,0,0,0,.93-.18l.11.44a2.74,2.74,0,0,1-1.13.21,1.57,1.57,0,0,1-1.66-1.71,1.64,1.64,0,0,1,1.59-1.82,1.44,1.44,0,0,1,1.4,1.59,1.6,1.6,0,0,1,0,.29Zm1.81-.44a.87.87,0,0,0-.85-1,1,1,0,0,0-.95,1Z"/><path class="cls-2" d="M409.06,123.2a1.09,1.09,0,0,0,1.16,1.18,2.2,2.2,0,0,0,.94-.18l.11.44a2.74,2.74,0,0,1-1.13.21,1.58,1.58,0,0,1-1.67-1.71,1.64,1.64,0,0,1,1.59-1.82,1.43,1.43,0,0,1,1.4,1.59,1.85,1.85,0,0,1,0,.29Zm1.81-.44a.88.88,0,0,0-.86-1,1,1,0,0,0-.94,1Z"/><path class="cls-2" d="M415.15,119.81v4.1c0,.3,0,.64,0,.87h-.55l0-.59h0a1.27,1.27,0,0,1-1.16.67,1.54,1.54,0,0,1-1.45-1.72,1.62,1.62,0,0,1,1.52-1.82,1.12,1.12,0,0,1,1,.51h0v-2Zm-.61,3a1.22,1.22,0,0,0,0-.26.91.91,0,0,0-.89-.71c-.64,0-1,.56-1,1.31s.34,1.25,1,1.25a.92.92,0,0,0,.91-.73,1.18,1.18,0,0,0,0-.27Z"/><path class="cls-2" d="M416.15,124.78c0-.23,0-.57,0-.87v-4.1h.6v2.13h0a1.26,1.26,0,0,1,1.15-.62,1.52,1.52,0,0,1,1.43,1.73,1.61,1.61,0,0,1-1.52,1.81,1.2,1.2,0,0,1-1.13-.64h0l0,.56Zm.63-1.36a1.6,1.6,0,0,0,0,.23,1,1,0,0,0,.93.72c.64,0,1-.53,1-1.3s-.35-1.26-1-1.26a1,1,0,0,0-.94.75,1.64,1.64,0,0,0,0,.25Z"/><path class="cls-2" d="M422,124.78l-.05-.42h0a1.29,1.29,0,0,1-1,.5,1,1,0,0,1-1-1c0-.82.73-1.27,2-1.26v-.07a.7.7,0,0,0-.77-.79,1.71,1.71,0,0,0-.88.25l-.14-.4a2.1,2.1,0,0,1,1.11-.3c1,0,1.29.7,1.29,1.38V124a4,4,0,0,0,.06.81Zm-.1-1.73c-.67,0-1.43.11-1.43.77a.54.54,0,0,0,.58.58.85.85,0,0,0,.82-.56.75.75,0,0,0,0-.2Z"/><path class="cls-2" d="M426,124.66a2.35,2.35,0,0,1-1,.19,1.61,1.61,0,0,1-1.69-1.73,1.72,1.72,0,0,1,1.82-1.8,2,2,0,0,1,.85.18l-.14.47a1.45,1.45,0,0,0-.71-.16,1.18,1.18,0,0,0-1.2,1.29,1.16,1.16,0,0,0,1.18,1.26,1.66,1.66,0,0,0,.75-.17Z"/><path class="cls-2" d="M427.28,123h0l.3-.39,1-1.17h.74l-1.31,1.4,1.49,2h-.75l-1.17-1.62-.31.35v1.27h-.61v-5h.61Z"/><path class="cls-2" d="M344.66,124.78c0-.23,0-.57,0-.87v-4.1h.61v2.13h0a1.26,1.26,0,0,1,1.16-.62c.84,0,1.43.7,1.43,1.73a1.61,1.61,0,0,1-1.52,1.81,1.22,1.22,0,0,1-1.14-.64h0l0,.56Zm.64-1.36a.85.85,0,0,0,0,.23.94.94,0,0,0,.92.72c.65,0,1-.53,1-1.3s-.35-1.26-1-1.26a1,1,0,0,0-.94.75,1.71,1.71,0,0,0,0,.25Z"/><path class="cls-2" d="M348.67,119.81h.62v5h-.62Z"/><path class="cls-2" d="M352.2,124.78l-.05-.42h0a1.27,1.27,0,0,1-1,.5,1,1,0,0,1-1-1c0-.82.73-1.27,2-1.26v-.07a.7.7,0,0,0-.77-.79,1.75,1.75,0,0,0-.89.25l-.13-.4a2.1,2.1,0,0,1,1.11-.3c1,0,1.29.7,1.29,1.38V124a5,5,0,0,0,.05.81Zm-.09-1.73c-.67,0-1.43.11-1.43.77a.54.54,0,0,0,.58.58.85.85,0,0,0,.82-.56.75.75,0,0,0,0-.2Z"/><path class="cls-2" d="M353.7,122.31c0-.35,0-.64,0-.92h.55l0,.56h0a1.25,1.25,0,0,1,1.12-.63c.47,0,1.2.28,1.2,1.44v2H356v-2c0-.55-.2-1-.78-1a.86.86,0,0,0-.83.63.85.85,0,0,0,0,.29v2h-.62Z"/><path class="cls-2" d="M358.2,123h0c.08-.12.2-.27.3-.39l1-1.17h.74l-1.31,1.4,1.49,2h-.75l-1.17-1.62-.31.35v1.27h-.61v-5h.61Z"/><path class="cls-2" d="M362.27,124.15a1.58,1.58,0,0,0,.81.25c.45,0,.66-.23.66-.51s-.17-.45-.63-.62c-.61-.22-.9-.55-.9-1a1,1,0,0,1,1.17-1,1.62,1.62,0,0,1,.84.21l-.16.44a1.33,1.33,0,0,0-.69-.19c-.36,0-.57.21-.57.46s.21.41.65.57c.59.23.89.52.89,1s-.47,1-1.27,1a1.9,1.9,0,0,1-.95-.23Z"/><path class="cls-2" d="M367.54,124.66a2.35,2.35,0,0,1-1,.19,1.61,1.61,0,0,1-1.69-1.73,1.73,1.73,0,0,1,1.82-1.8,2,2,0,0,1,.86.18l-.14.47a1.5,1.5,0,0,0-.72-.16,1.18,1.18,0,0,0-1.19,1.29,1.15,1.15,0,0,0,1.17,1.26,1.74,1.74,0,0,0,.76-.17Z"/><path class="cls-2" d="M368.26,122.45c0-.4,0-.74,0-1.06h.53l0,.67h0a1,1,0,0,1,.94-.74.52.52,0,0,1,.18,0v.58a.71.71,0,0,0-.21,0,.86.86,0,0,0-.83.79,2.16,2.16,0,0,0,0,.29v1.8h-.61Z"/><path class="cls-2" d="M370.83,123.2a1.08,1.08,0,0,0,1.16,1.18,2.2,2.2,0,0,0,.94-.18l.1.44a2.7,2.7,0,0,1-1.13.21,1.57,1.57,0,0,1-1.66-1.71,1.64,1.64,0,0,1,1.59-1.82,1.43,1.43,0,0,1,1.4,1.59,1.85,1.85,0,0,1,0,.29Zm1.8-.44a.87.87,0,0,0-.85-1,1,1,0,0,0-.95,1Z"/><path class="cls-2" d="M374.33,123.2a1.1,1.1,0,0,0,1.17,1.18,2.23,2.23,0,0,0,.94-.18l.1.44a2.74,2.74,0,0,1-1.13.21,1.57,1.57,0,0,1-1.66-1.71,1.64,1.64,0,0,1,1.59-1.82,1.44,1.44,0,0,1,1.4,1.59c0,.13,0,.23,0,.29Zm1.81-.44a.87.87,0,0,0-.85-1,1,1,0,0,0-1,1Z"/><path class="cls-2" d="M377.5,122.31c0-.35,0-.64,0-.92H378l0,.56h0a1.26,1.26,0,0,1,1.13-.63c.46,0,1.19.28,1.19,1.44v2h-.61v-2c0-.55-.21-1-.79-1a.86.86,0,0,0-.82.63.84.84,0,0,0-.05.29v2h-.61Z"/><path class="cls-2" d="M241.1,124.78c0-.23,0-.57,0-.87v-4.1h.6v2.13h0a1.26,1.26,0,0,1,1.15-.62c.85,0,1.44.7,1.43,1.73a1.61,1.61,0,0,1-1.52,1.81,1.2,1.2,0,0,1-1.13-.64h0l0,.56Zm.63-1.36a1.6,1.6,0,0,0,0,.23,1,1,0,0,0,.93.72c.64,0,1-.53,1-1.3s-.35-1.26-1-1.26a1,1,0,0,0-.94.75,1.64,1.64,0,0,0,0,.25Z"/><path class="cls-2" d="M245.11,119.81h.62v5h-.62Z"/><path class="cls-2" d="M248.64,124.78l0-.42h0a1.28,1.28,0,0,1-1,.5,1,1,0,0,1-1-1c0-.82.72-1.27,2-1.26v-.07a.7.7,0,0,0-.77-.79,1.74,1.74,0,0,0-.88.25l-.14-.4a2.13,2.13,0,0,1,1.11-.3c1,0,1.29.7,1.29,1.38V124a4.87,4.87,0,0,0,.06.81Zm-.09-1.73c-.67,0-1.44.11-1.44.77a.54.54,0,0,0,.58.58.85.85,0,0,0,.82-.56.79.79,0,0,0,0-.2Z"/><path class="cls-2" d="M250.14,122.31c0-.35,0-.64,0-.92h.54l0,.56h0a1.25,1.25,0,0,1,1.12-.63c.47,0,1.2.28,1.2,1.44v2h-.61v-2c0-.55-.21-1-.79-1a.86.86,0,0,0-.82.63.84.84,0,0,0-.05.29v2h-.61Z"/><path class="cls-2" d="M254.63,123h0c.08-.12.2-.27.3-.39l1-1.17h.74l-1.31,1.4,1.5,2h-.75L255,123.16l-.32.35v1.27H254v-5h.61Z"/><path class="cls-2" d="M258.71,124.15a1.58,1.58,0,0,0,.81.25c.45,0,.66-.23.66-.51s-.18-.45-.63-.62c-.61-.22-.9-.55-.9-1a1,1,0,0,1,1.17-1,1.61,1.61,0,0,1,.83.21l-.15.44a1.36,1.36,0,0,0-.69-.19c-.37,0-.57.21-.57.46s.2.41.64.57c.59.23.89.52.89,1s-.46,1-1.27,1a1.93,1.93,0,0,1-.95-.23Z"/><path class="cls-2" d="M264,124.66a2.35,2.35,0,0,1-1,.19,1.61,1.61,0,0,1-1.69-1.73,1.72,1.72,0,0,1,1.82-1.8,2,2,0,0,1,.85.18l-.14.47a1.45,1.45,0,0,0-.71-.16,1.18,1.18,0,0,0-1.2,1.29,1.16,1.16,0,0,0,1.18,1.26,1.66,1.66,0,0,0,.75-.17Z"/><path class="cls-2" d="M264.7,122.45c0-.4,0-.74,0-1.06h.54l0,.67h0a1,1,0,0,1,.94-.74.44.44,0,0,1,.17,0v.58a.65.65,0,0,0-.21,0,.86.86,0,0,0-.82.79,1.23,1.23,0,0,0,0,.29v1.8h-.61Z"/><path class="cls-2" d="M267.26,123.2a1.09,1.09,0,0,0,1.16,1.18,2.16,2.16,0,0,0,.94-.18l.11.44a2.74,2.74,0,0,1-1.13.21,1.58,1.58,0,0,1-1.67-1.71,1.64,1.64,0,0,1,1.59-1.82,1.43,1.43,0,0,1,1.4,1.59,1.85,1.85,0,0,1,0,.29Zm1.81-.44a.88.88,0,0,0-.86-1,1,1,0,0,0-.94,1Z"/><path class="cls-2" d="M270.77,123.2a1.09,1.09,0,0,0,1.16,1.18,2.2,2.2,0,0,0,.94-.18l.11.44a2.74,2.74,0,0,1-1.13.21,1.58,1.58,0,0,1-1.67-1.71,1.64,1.64,0,0,1,1.59-1.82,1.43,1.43,0,0,1,1.4,1.59,1.85,1.85,0,0,1,0,.29Zm1.81-.44a.88.88,0,0,0-.86-1,1,1,0,0,0-.94,1Z"/><path class="cls-2" d="M273.93,122.31c0-.35,0-.64,0-.92h.54l0,.56h0a1.25,1.25,0,0,1,1.12-.63c.47,0,1.2.28,1.2,1.44v2h-.62v-2c0-.55-.2-1-.78-1a.87.87,0,0,0-.83.63.85.85,0,0,0,0,.29v2h-.62Z"/><path class="cls-2" d="M280.64,119.92a4.65,4.65,0,0,0-.88,2.87,4.7,4.7,0,0,0,.88,2.84h-.48a4.53,4.53,0,0,1-.92-2.84,4.67,4.67,0,0,1,.92-2.87Z"/><path class="cls-2" d="M281.92,120.06v4.72h-.61v-4.72Z"/><path class="cls-2" d="M283.88,120.58h-1.43v-.52h3.49v.52H284.5v4.2h-.62Z"/><path class="cls-2" d="M287.08,120.06v4.72h-.61v-4.72Z"/><path class="cls-2" d="M287.75,125.63a4.77,4.77,0,0,0,.88-2.86,4.69,4.69,0,0,0-.88-2.85h.47a4.46,4.46,0,0,1,.92,2.85,4.51,4.51,0,0,1-.92,2.86Z"/><polygon class="cls-2" points="337.51 101.75 334.01 98.24 334.01 96.93 337.04 99.96 337.04 93.88 337.98 93.88 337.98 99.96 341.01 96.93 341.01 98.24 337.51 101.75"/><path class="cls-2" d="M316.11,91.18c0-.21,0-.51,0-.77V86.83h.53v1.86h0a1.09,1.09,0,0,1,1-.54c.73,0,1.25.61,1.24,1.51a1.4,1.4,0,0,1-1.33,1.58,1.06,1.06,0,0,1-1-.55h0l0,.49Zm.55-1.19a1.38,1.38,0,0,0,0,.2.83.83,0,0,0,.81.63c.56,0,.9-.46.9-1.14s-.31-1.1-.89-1.1a.86.86,0,0,0-.82.66,1.17,1.17,0,0,0,0,.22Z"/><path class="cls-2" d="M322.09,90.37q0,.45,0,.81h-.48l0-.49h0a1.11,1.11,0,0,1-1,.55c-.47,0-1-.25-1-1.29V88.21h.54v1.64c0,.57.17,1,.66,1a.78.78,0,0,0,.71-.49.82.82,0,0,0,.05-.28V88.21h.53Z"/><path class="cls-2" d="M323.64,87.36v.85h.77v.41h-.77v1.6c0,.37.1.58.4.58a1.13,1.13,0,0,0,.32,0l0,.4a1.16,1.16,0,0,1-.48.08.74.74,0,0,1-.58-.23,1.11,1.11,0,0,1-.21-.77V88.62h-.45v-.41h.45V87.5Z"/><path class="cls-2" d="M325.67,87.36v.85h.77v.41h-.77v1.6c0,.37.1.58.4.58a1.05,1.05,0,0,0,.31,0l0,.4a1.19,1.19,0,0,1-.48.08.74.74,0,0,1-.58-.23,1.11,1.11,0,0,1-.21-.77V88.62h-.46v-.41h.46V87.5Z"/><path class="cls-2" d="M329.69,89.67a1.44,1.44,0,0,1-1.47,1.57,1.4,1.4,0,0,1-1.42-1.52,1.44,1.44,0,0,1,1.47-1.57A1.4,1.4,0,0,1,329.69,89.67Zm-2.35,0c0,.65.37,1.14.9,1.14s.9-.48.9-1.15c0-.5-.25-1.14-.89-1.14S327.34,89.14,327.34,89.7Z"/><path class="cls-2" d="M330.37,89c0-.31,0-.56,0-.81h.48l0,.49h0a1.09,1.09,0,0,1,1-.55c.41,0,1,.24,1,1.26v1.77h-.54V89.47c0-.48-.18-.88-.69-.88a.77.77,0,0,0-.72.56.6.6,0,0,0,0,.25v1.78h-.54Z"/><path class="cls-2" d="M335.07,89.18c0-.38,0-.68,0-1h.48l0,.51h0a1.16,1.16,0,0,1,1.05-.57,1.33,1.33,0,0,1,1.25,1.5c0,1.07-.64,1.59-1.34,1.59a1,1,0,0,1-.91-.46h0v1.61h-.53Zm.53.79a1.46,1.46,0,0,0,0,.22.83.83,0,0,0,.81.63c.57,0,.9-.46.9-1.14s-.32-1.1-.89-1.1a.86.86,0,0,0-.81.66.85.85,0,0,0,0,.22Z"/><path class="cls-2" d="M338.56,89.14c0-.35,0-.65,0-.93H339v.59h0a.88.88,0,0,1,.82-.65.36.36,0,0,1,.15,0v.5h-.18a.74.74,0,0,0-.72.69,1,1,0,0,0,0,.25v1.58h-.53Z"/><path class="cls-2" d="M340.8,89.79a1,1,0,0,0,1,1,2.12,2.12,0,0,0,.83-.15l.09.38a2.34,2.34,0,0,1-1,.19,1.37,1.37,0,0,1-1.45-1.5,1.43,1.43,0,0,1,1.38-1.59,1.26,1.26,0,0,1,1.23,1.39,1.38,1.38,0,0,1,0,.25Zm1.58-.38a.78.78,0,0,0-.75-.88.89.89,0,0,0-.82.88Z"/><path class="cls-2" d="M343.5,90.63a1.42,1.42,0,0,0,.71.21c.39,0,.57-.2.57-.44s-.15-.4-.55-.55-.78-.48-.78-.83a.91.91,0,0,1,1-.87,1.48,1.48,0,0,1,.73.18l-.14.39a1.16,1.16,0,0,0-.6-.17c-.32,0-.5.18-.5.41s.18.35.56.5.78.45.78.89-.4.89-1.11.89a1.72,1.72,0,0,1-.83-.2Z"/><path class="cls-2" d="M345.92,90.63a1.45,1.45,0,0,0,.71.21c.39,0,.58-.2.58-.44s-.16-.4-.55-.55c-.54-.18-.79-.48-.79-.83a.91.91,0,0,1,1-.87,1.45,1.45,0,0,1,.73.18l-.13.39a1.2,1.2,0,0,0-.61-.17c-.32,0-.49.18-.49.41s.17.35.56.5.78.45.78.89-.41.89-1.11.89a1.67,1.67,0,0,1-.83-.2Z"/><path class="cls-2" d="M350.89,86.93a4,4,0,0,0-.77,2.5,4.12,4.12,0,0,0,.77,2.49h-.42a3.93,3.93,0,0,1-.81-2.49,4,4,0,0,1,.81-2.5Z"/><path class="cls-2" d="M351.48,87.11a5,5,0,0,1,1-.09,1.68,1.68,0,0,1,1.13.3.87.87,0,0,1,.35.73,1,1,0,0,1-.7.91h0a1.06,1.06,0,0,1,.85,1,1.1,1.1,0,0,1-.35.83,2.09,2.09,0,0,1-1.43.38,5.36,5.36,0,0,1-.82,0ZM352,88.8h.48c.57,0,.9-.3.9-.7s-.37-.67-.91-.67a2.15,2.15,0,0,0-.47,0Zm0,2a2.56,2.56,0,0,0,.45,0c.55,0,1.06-.2,1.06-.8s-.49-.8-1.07-.8H352Z"/><path class="cls-2" d="M354.8,87.1a6.48,6.48,0,0,1,1-.08,1.71,1.71,0,0,1,1.16.34,1.15,1.15,0,0,1,.36.87,1.22,1.22,0,0,1-.32.88,1.7,1.7,0,0,1-1.26.45,1.85,1.85,0,0,1-.43,0v1.66h-.53Zm.53,2a1.83,1.83,0,0,0,.44,0c.64,0,1-.31,1-.88s-.39-.81-1-.81a1.85,1.85,0,0,0-.5,0Z"/><path class="cls-2" d="M357.71,91.92a4.12,4.12,0,0,0,.78-2.51,4.07,4.07,0,0,0-.78-2.48h.42a3.89,3.89,0,0,1,.8,2.49,4,4,0,0,1-.8,2.5Z"/><polygon class="cls-2" points="288.12 101.75 284.62 98.24 284.62 96.93 287.65 99.96 287.65 93.88 288.59 93.88 288.59 99.96 291.63 96.93 291.63 98.24 288.12 101.75"/><path class="cls-2" d="M269.89,90.63a1.45,1.45,0,0,0,.71.21c.4,0,.58-.2.58-.44s-.15-.4-.55-.55-.78-.48-.78-.83a.91.91,0,0,1,1-.87,1.48,1.48,0,0,1,.73.18l-.14.39a1.2,1.2,0,0,0-.61-.17c-.31,0-.49.18-.49.41s.18.35.56.5.78.45.78.89-.4.89-1.11.89a1.72,1.72,0,0,1-.83-.2Z"/><path class="cls-2" d="M273,87.36v.85h.77v.41H273v1.6c0,.37.11.58.41.58a1.11,1.11,0,0,0,.31,0l0,.4a1.14,1.14,0,0,1-.47.08.75.75,0,0,1-.59-.23,1.11,1.11,0,0,1-.2-.77V88.62h-.46v-.41h.46V87.5Z"/><path class="cls-2" d="M275,87.38a.31.31,0,0,1-.34.33.32.32,0,0,1-.33-.33.33.33,0,0,1,.34-.33A.31.31,0,0,1,275,87.38Zm-.6,3.8v-3H275v3Z"/><path class="cls-2" d="M275.85,89c0-.31,0-.56,0-.81h.47l0,.48h0a1,1,0,0,1,.93-.54.87.87,0,0,1,.84.59h0a1.39,1.39,0,0,1,.33-.38,1,1,0,0,1,.66-.21c.39,0,1,.25,1,1.28v1.75h-.52V89.5c0-.57-.21-.91-.65-.91a.68.68,0,0,0-.63.49.72.72,0,0,0,0,.27v1.83h-.52V89.4c0-.47-.21-.81-.62-.81a.79.79,0,0,0-.71.8v1.79h-.53Z"/><path class="cls-2" d="M283.44,90.37q0,.45,0,.81H283l0-.49h0a1.12,1.12,0,0,1-1,.55c-.47,0-1-.25-1-1.29V88.21h.53v1.64c0,.57.17,1,.67,1a.76.76,0,0,0,.7-.49.64.64,0,0,0,0-.28V88.21h.54Z"/><path class="cls-2" d="M284.34,86.83h.54v4.35h-.54Z"/><path class="cls-2" d="M288.26,90.37q0,.45,0,.81h-.48l0-.49h0a1.12,1.12,0,0,1-1,.55c-.47,0-1-.25-1-1.29V88.21h.54v1.64c0,.57.17,1,.66,1a.78.78,0,0,0,.71-.49.82.82,0,0,0,.05-.28V88.21h.53Z"/><path class="cls-2" d="M289.09,90.63a1.45,1.45,0,0,0,.71.21c.39,0,.57-.2.57-.44s-.15-.4-.55-.55S289,89.37,289,89a.91.91,0,0,1,1-.87,1.48,1.48,0,0,1,.73.18l-.14.39a1.16,1.16,0,0,0-.6-.17c-.32,0-.5.18-.5.41s.18.35.57.5.77.45.77.89-.4.89-1.11.89A1.72,1.72,0,0,1,289,91Z"/><path class="cls-2" d="M295.57,89.67a1.44,1.44,0,0,1-1.48,1.57,1.4,1.4,0,0,1-1.42-1.52,1.45,1.45,0,0,1,1.47-1.57A1.41,1.41,0,0,1,295.57,89.67Zm-2.35,0c0,.65.37,1.14.9,1.14s.9-.48.9-1.15c0-.5-.26-1.14-.89-1.14S293.22,89.14,293.22,89.7Z"/><path class="cls-2" d="M296.25,89c0-.31,0-.56,0-.81h.48l0,.49h0a1.09,1.09,0,0,1,1-.55c.41,0,1,.24,1,1.26v1.77h-.54V89.47c0-.48-.18-.88-.68-.88a.79.79,0,0,0-.73.56.85.85,0,0,0,0,.25v1.78h-.54Z"/><path class="cls-2" d="M299.57,90.63a1.49,1.49,0,0,0,.71.21c.4,0,.58-.2.58-.44s-.15-.4-.55-.55-.78-.48-.78-.83a.91.91,0,0,1,1-.87,1.48,1.48,0,0,1,.73.18l-.14.39a1.19,1.19,0,0,0-.6-.17c-.32,0-.5.18-.5.41s.18.35.56.5.78.45.78.89-.4.89-1.11.89a1.72,1.72,0,0,1-.83-.2Z"/><path class="cls-2" d="M302.37,89.79a1,1,0,0,0,1,1,2,2,0,0,0,.82-.15l.09.38a2.29,2.29,0,0,1-1,.19,1.38,1.38,0,0,1-1.46-1.5,1.44,1.44,0,0,1,1.39-1.59,1.25,1.25,0,0,1,1.22,1.39c0,.11,0,.2,0,.25Zm1.58-.38a.77.77,0,0,0-.74-.88.89.89,0,0,0-.83.88Z"/><path class="cls-2" d="M305.79,87.36v.85h.77v.41h-.77v1.6c0,.37.11.58.41.58a1.11,1.11,0,0,0,.31,0l0,.4a1.14,1.14,0,0,1-.47.08.75.75,0,0,1-.59-.23,1.11,1.11,0,0,1-.2-.77V88.62h-.46v-.41h.46V87.5Z"/><rect class="cls-6" x="293.42" y="116.9" width="12.15" height="7.34" rx="1.5"/><rect class="cls-6" x="322.15" y="116.9" width="12.15" height="7.34" rx="1.5"/><rect class="cls-6" x="307.78" y="116.9" width="12.15" height="7.34" rx="1.5"/><path class="cls-2" d="M296.33,120.28c0-.26,0-.48,0-.68h.35V120h0a.65.65,0,0,1,.6-.48l.11,0v.37l-.13,0a.55.55,0,0,0-.53.51.9.9,0,0,0,0,.18v1.16h-.39Z"/><path class="cls-2" d="M298,120.75a.69.69,0,0,0,.74.76,1.32,1.32,0,0,0,.6-.12l.06.29a1.8,1.8,0,0,1-.72.13,1,1,0,0,1-1.06-1.09,1.05,1.05,0,0,1,1-1.17.92.92,0,0,1,.9,1,.74.74,0,0,1,0,.18Zm1.15-.28a.56.56,0,0,0-.55-.64.66.66,0,0,0-.6.64Z"/><path class="cls-2" d="M301.85,118.59v2.62c0,.19,0,.41,0,.56h-.35l0-.38h0a.81.81,0,0,1-.74.42,1,1,0,0,1-.92-1.1,1,1,0,0,1,1-1.16.73.73,0,0,1,.65.33h0v-1.29Zm-.39,1.89a.88.88,0,0,0,0-.16.58.58,0,0,0-.57-.46c-.4,0-.65.36-.65.84s.22.8.64.8a.59.59,0,0,0,.58-.47,1,1,0,0,0,0-.17Z"/><path class="cls-2" d="M324.26,121.77c0-.15,0-.37,0-.56v-2.62h.39V120h0a.81.81,0,0,1,.74-.4c.53,0,.91.45.91,1.11a1,1,0,0,1-1,1.15.8.8,0,0,1-.73-.4h0l0,.36Zm.41-.87a.59.59,0,0,0,0,.14.6.6,0,0,0,.59.46c.41,0,.66-.33.66-.83s-.23-.8-.65-.8a.62.62,0,0,0-.6.48.7.7,0,0,0,0,.16Z"/><path class="cls-2" d="M326.82,118.59h.39v3.18h-.39Z"/><path class="cls-2" d="M329.69,121.17c0,.23,0,.43,0,.6h-.35l0-.36h0a.79.79,0,0,1-.71.4c-.34,0-.75-.18-.75-.94V119.6h.39v1.2c0,.41.13.69.49.69a.58.58,0,0,0,.52-.36.64.64,0,0,0,0-.2V119.6h.4Z"/><path class="cls-2" d="M330.56,120.75a.69.69,0,0,0,.74.76,1.32,1.32,0,0,0,.6-.12l.06.29a1.8,1.8,0,0,1-.72.13,1,1,0,0,1-1.06-1.09,1.05,1.05,0,0,1,1-1.17.92.92,0,0,1,.9,1,.74.74,0,0,1,0,.18Zm1.15-.28a.57.57,0,0,0-.55-.64.66.66,0,0,0-.6.64Z"/><path class="cls-2" d="M310.37,119.6c0,.16,0,.33,0,.6v1.25a1.25,1.25,0,0,1-.31,1,1.13,1.13,0,0,1-.79.26,1.37,1.37,0,0,1-.72-.18l.1-.3a1.22,1.22,0,0,0,.64.17c.4,0,.69-.21.69-.75v-.25h0a.75.75,0,0,1-.68.37,1,1,0,0,1-.92-1.06,1,1,0,0,1,1-1.15.7.7,0,0,1,.67.38h0l0-.33Zm-.41.86a.9.9,0,0,0,0-.18.57.57,0,0,0-.55-.42c-.38,0-.65.32-.65.82s.22.78.64.78a.59.59,0,0,0,.55-.41.71.71,0,0,0,0-.21Z"/><path class="cls-2" d="M311,120.28c0-.26,0-.48,0-.68h.34V120h0a.66.66,0,0,1,.6-.48l.11,0v.37l-.13,0a.56.56,0,0,0-.53.51.9.9,0,0,0,0,.18v1.16H311Z"/><path class="cls-2" d="M312.61,120.75a.7.7,0,0,0,.74.76,1.32,1.32,0,0,0,.6-.12l.07.29a1.84,1.84,0,0,1-.72.13,1,1,0,0,1-1.07-1.09,1.06,1.06,0,0,1,1-1.17.91.91,0,0,1,.89,1c0,.08,0,.14,0,.18Zm1.15-.28a.56.56,0,0,0-.54-.64.67.67,0,0,0-.61.64Z"/><path class="cls-2" d="M314.85,120.75a.7.7,0,0,0,.74.76,1.32,1.32,0,0,0,.6-.12l.07.29a1.84,1.84,0,0,1-.72.13,1,1,0,0,1-1.07-1.09,1.06,1.06,0,0,1,1-1.17.92.92,0,0,1,.89,1c0,.08,0,.14,0,.18Zm1.15-.28a.56.56,0,0,0-.55-.64.66.66,0,0,0-.6.64Z"/><path class="cls-2" d="M316.86,120.19c0-.23,0-.41,0-.59h.34l0,.36h0a.77.77,0,0,1,.71-.41c.3,0,.77.18.77.92v1.3h-.4v-1.25c0-.35-.13-.64-.5-.64a.56.56,0,0,0-.53.4,1,1,0,0,0,0,.18v1.31h-.4Z"/><path class="cls-2" d="M317.68,139.15a5.88,5.88,0,0,1-4.74-.08v-2.2a30.76,30.76,0,0,1-1.91-4.73l1.23-2.22.09-3.57v-.75a3.65,3.65,0,0,1,.29-1.67,1,1,0,0,1,.89-.56.86.86,0,0,1,.8.51,3.46,3.46,0,0,1,.26,1.52v.6l.06,3.3h.6a1.34,1.34,0,0,1,1.41.85H317a1.19,1.19,0,0,1,1.33,1.15l.24,0a.84.84,0,0,1,.84.58,7.36,7.36,0,0,1,.22,2.18c0,.28,0,.54,0,.77s0,.44-.07.63a5.81,5.81,0,0,1-1.82,2.19Zm-.5-.4v-1.39a6.45,6.45,0,0,0,1.89-2.06c0-.23,0-.46.05-.69s0-.47,0-.69a5.32,5.32,0,0,0-.18-1.7.67.67,0,0,0-.67-.46h-.46v-.2c0-.58-.36-.86-1.07-.86h-.51v-.19c0-.43-.36-.64-1.07-.64h-1.07V126.1a6.12,6.12,0,0,0-.16-1.65c-.1-.37-.25-.55-.45-.55s-.37.15-.48.45a4.21,4.21,0,0,0-.16,1.36v.41l-.21,6.45-.42,0,0-1.58-.64,1.27a48.23,48.23,0,0,0,1.84,4.59l0,1.9a4.89,4.89,0,0,0,1.83.36,5.39,5.39,0,0,0,1.93-.34"/><rect class="cls-3" x="312.94" y="124.57" width="1.02" height="4.89"/><path class="cls-5" d="M7.33,5.41c0-.94-.11-2.07-.1-2.91h0c-.23.79-.51,1.63-.85,2.56L5.16,8.33H4.5L3.41,5.12c-.32-1-.59-1.82-.78-2.62h0c0,.84-.07,2-.13,3L2.3,8.37H1.47l.47-6.74H3.05L4.2,4.89c.28.83.51,1.57.68,2.27h0c.17-.68.41-1.42.71-2.27l1.2-3.26H7.93l.42,6.74H7.5Z"/><path class="cls-5" d="M13.74,7.05c0,.5,0,.94,0,1.32H13L13,7.58h0a1.82,1.82,0,0,1-1.6.9c-.76,0-1.67-.42-1.67-2.12V3.53h.88V6.21c0,.92.28,1.54,1.08,1.54A1.27,1.27,0,0,0,12.78,7a1.29,1.29,0,0,0,.08-.45v-3h.88Z"/><path class="cls-5" d="M15.2,1.27h.88v7.1H15.2Z"/><path class="cls-5" d="M18.62,2.14V3.53h1.26V4.2H18.62V6.81c0,.6.17.94.66.94a2,2,0,0,0,.51-.06l0,.66a2.15,2.15,0,0,1-.78.12,1.22,1.22,0,0,1-.95-.37,1.79,1.79,0,0,1-.34-1.26V4.2H17V3.53h.75V2.37Z"/><path class="cls-5" d="M21.85,2.17a.55.55,0,0,1-1.09,0,.54.54,0,0,1,.55-.55A.52.52,0,0,1,21.85,2.17Zm-1,6.2V3.53h.88V8.37Z"/><path class="cls-5" d="M25.25,5.34V6H22.78V5.34Z"/><path class="cls-5" d="M26.16,7.47a2.31,2.31,0,0,0,1.16.35c.64,0,.94-.32.94-.72s-.25-.65-.9-.89c-.87-.31-1.28-.79-1.28-1.37a1.49,1.49,0,0,1,1.67-1.42,2.42,2.42,0,0,1,1.19.3l-.22.64a1.88,1.88,0,0,0-1-.28c-.52,0-.81.3-.81.66s.29.58.92.82c.84.32,1.27.74,1.27,1.46s-.66,1.45-1.81,1.45a2.76,2.76,0,0,1-1.36-.33Z"/><path class="cls-5" d="M34.62,5.91a2.37,2.37,0,0,1-2.41,2.57A2.3,2.3,0,0,1,29.89,6a2.36,2.36,0,0,1,2.4-2.57A2.29,2.29,0,0,1,34.62,5.91ZM30.78,6c0,1.06.61,1.86,1.47,1.86S33.72,7,33.72,5.94c0-.82-.41-1.86-1.45-1.86S30.78,5,30.78,6Z"/><path class="cls-5" d="M39.78,7.05c0,.5,0,.94,0,1.32H39l0-.79h0a1.82,1.82,0,0,1-1.6.9c-.76,0-1.67-.42-1.67-2.12V3.53h.88V6.21c0,.92.28,1.54,1.08,1.54A1.27,1.27,0,0,0,38.82,7a1.29,1.29,0,0,0,.08-.45v-3h.88Z"/><path class="cls-5" d="M41.24,5c0-.57,0-1.06,0-1.51H42l0,1h0a1.45,1.45,0,0,1,1.34-1.06,1,1,0,0,1,.25,0v.83a1.32,1.32,0,0,0-.3,0,1.23,1.23,0,0,0-1.18,1.13,2.48,2.48,0,0,0,0,.41V8.37h-.87Z"/><path class="cls-5" d="M47.86,8.19a3.24,3.24,0,0,1-1.39.28A2.3,2.3,0,0,1,44.06,6a2.46,2.46,0,0,1,2.6-2.57,2.94,2.94,0,0,1,1.22.25l-.2.68a2,2,0,0,0-1-.23A1.67,1.67,0,0,0,45,6a1.66,1.66,0,0,0,1.68,1.81,2.5,2.5,0,0,0,1.08-.24Z"/><path class="cls-5" d="M49.33,6.11A1.55,1.55,0,0,0,51,7.79a3.18,3.18,0,0,0,1.34-.25l.15.63a3.92,3.92,0,0,1-1.61.3A2.25,2.25,0,0,1,48.49,6a2.35,2.35,0,0,1,2.27-2.61,2.05,2.05,0,0,1,2,2.28,3.32,3.32,0,0,1,0,.41Zm2.58-.63a1.25,1.25,0,0,0-1.22-1.43,1.46,1.46,0,0,0-1.35,1.43Z"/><path class="cls-5" d="M56.87,1.63V8.37H56V1.63Z"/><path class="cls-5" d="M58.45,4.84c0-.5,0-.91,0-1.31h.78l.05.8h0a1.78,1.78,0,0,1,1.6-.91c.67,0,1.71.4,1.71,2.06V8.37h-.88V5.58c0-.78-.29-1.43-1.12-1.43a1.25,1.25,0,0,0-1.18.9,1.27,1.27,0,0,0-.06.41V8.37h-.88Z"/><path class="cls-5" d="M65,2.14V3.53h1.26V4.2H65V6.81c0,.6.17.94.66.94a2,2,0,0,0,.51-.06l0,.66a2.15,2.15,0,0,1-.78.12,1.22,1.22,0,0,1-.95-.37,1.79,1.79,0,0,1-.34-1.26V4.2h-.75V3.53h.75V2.37Z"/><path class="cls-5" d="M67.71,6.11a1.55,1.55,0,0,0,1.66,1.68,3.18,3.18,0,0,0,1.34-.25l.15.63a3.92,3.92,0,0,1-1.61.3A2.25,2.25,0,0,1,66.87,6a2.35,2.35,0,0,1,2.27-2.61,2.05,2.05,0,0,1,2,2.28,3.32,3.32,0,0,1,0,.41Zm2.58-.63a1.25,1.25,0,0,0-1.22-1.43,1.46,1.46,0,0,0-1.35,1.43Z"/><path class="cls-5" d="M72.23,5c0-.57,0-1.06,0-1.51H73l0,1h0a1.45,1.45,0,0,1,1.34-1.06,1,1,0,0,1,.25,0v.83a1.32,1.32,0,0,0-.3,0,1.23,1.23,0,0,0-1.18,1.13,2.48,2.48,0,0,0,0,.41V8.37h-.87Z"/><path class="cls-5" d="M75.89,8.37V4.2h-.68V3.53h.68V3.3a2.28,2.28,0,0,1,.56-1.69,1.68,1.68,0,0,1,1.18-.45,2,2,0,0,1,.75.14L78.26,2a1.31,1.31,0,0,0-.56-.11c-.75,0-.94.66-.94,1.4v.26h1.17V4.2H76.76V8.37Z"/><path class="cls-5" d="M79.09,6.11a1.55,1.55,0,0,0,1.66,1.68,3.18,3.18,0,0,0,1.34-.25l.15.63a3.92,3.92,0,0,1-1.61.3A2.25,2.25,0,0,1,78.25,6a2.35,2.35,0,0,1,2.27-2.61,2.05,2.05,0,0,1,2,2.28,3.32,3.32,0,0,1,0,.41Zm2.58-.63a1.25,1.25,0,0,0-1.22-1.43A1.46,1.46,0,0,0,79.1,5.48Z"/><path class="cls-5" d="M83.61,5c0-.57,0-1.06,0-1.51h.77l0,1h0a1.45,1.45,0,0,1,1.34-1.06,1,1,0,0,1,.25,0v.83a1.32,1.32,0,0,0-.3,0,1.23,1.23,0,0,0-1.18,1.13,2.48,2.48,0,0,0,0,.41V8.37h-.87Z"/><path class="cls-5" d="M87.27,6.11a1.55,1.55,0,0,0,1.66,1.68,3.18,3.18,0,0,0,1.34-.25l.15.63a3.92,3.92,0,0,1-1.61.3A2.25,2.25,0,0,1,86.43,6,2.35,2.35,0,0,1,88.7,3.42a2.05,2.05,0,0,1,2,2.28,3.32,3.32,0,0,1,0,.41Zm2.58-.63a1.25,1.25,0,0,0-1.22-1.43,1.46,1.46,0,0,0-1.35,1.43Z"/><path class="cls-5" d="M91.79,4.84c0-.5,0-.91,0-1.31h.78l0,.8h0a1.78,1.78,0,0,1,1.6-.91c.67,0,1.71.4,1.71,2.06V8.37H95V5.58c0-.78-.29-1.43-1.12-1.43a1.25,1.25,0,0,0-1.18.9,1.27,1.27,0,0,0-.06.41V8.37h-.88Z"/><path class="cls-5" d="M100.79,8.19a3.24,3.24,0,0,1-1.39.28A2.3,2.3,0,0,1,97,6a2.46,2.46,0,0,1,2.6-2.57,2.94,2.94,0,0,1,1.22.25l-.2.68a2,2,0,0,0-1-.23A1.67,1.67,0,0,0,97.88,6a1.66,1.66,0,0,0,1.68,1.81,2.5,2.5,0,0,0,1.08-.24Z"/><path class="cls-5" d="M102.26,6.11a1.55,1.55,0,0,0,1.66,1.68,3.18,3.18,0,0,0,1.34-.25l.15.63a3.92,3.92,0,0,1-1.61.3A2.25,2.25,0,0,1,101.42,6a2.35,2.35,0,0,1,2.27-2.61,2.05,2.05,0,0,1,2,2.28,3.32,3.32,0,0,1,0,.41Zm2.58-.63a1.25,1.25,0,0,0-1.22-1.43,1.46,1.46,0,0,0-1.35,1.43Z"/><path class="cls-5" d="M109.81,2.37h-2V1.63h5v.74h-2.06v6h-.88Z"/><path class="cls-5" d="M115.52,8.37l-.07-.61h0a1.8,1.8,0,0,1-1.48.72,1.38,1.38,0,0,1-1.48-1.39c0-1.17,1-1.81,2.91-1.8v-.1a1,1,0,0,0-1.1-1.12,2.41,2.41,0,0,0-1.26.36l-.2-.58a3,3,0,0,1,1.59-.43c1.48,0,1.84,1,1.84,2V7.21a6.81,6.81,0,0,0,.08,1.16Zm-.13-2.47c-1,0-2,.15-2,1.09a.78.78,0,0,0,.83.84A1.2,1.2,0,0,0,115.34,7a.92.92,0,0,0,0-.28Z"/><path class="cls-5" d="M117.54,7.47a2.31,2.31,0,0,0,1.16.35c.64,0,.94-.32.94-.72s-.25-.65-.9-.89c-.87-.31-1.28-.79-1.28-1.37a1.49,1.49,0,0,1,1.67-1.42,2.42,2.42,0,0,1,1.19.3l-.22.64a1.88,1.88,0,0,0-1-.28c-.52,0-.81.3-.81.66s.29.58.92.82c.84.32,1.27.74,1.27,1.46s-.66,1.45-1.81,1.45a2.76,2.76,0,0,1-1.36-.33Z"/><path class="cls-5" d="M122.49,5.75h0c.12-.17.29-.38.43-.55l1.42-1.67h1.06l-1.87,2,2.13,2.85h-1.07l-1.67-2.32-.45.5V8.37h-.87V1.27h.87Z"/><path class="cls-5" d="M130.34,1.43a6.59,6.59,0,0,0-1.26,4.09,6.74,6.74,0,0,0,1.26,4.06h-.69a6.46,6.46,0,0,1-1.31-4.06,6.6,6.6,0,0,1,1.31-4.09Z"/><path class="cls-5" d="M137,5.41c0-.94-.11-2.07-.1-2.91h0c-.23.79-.51,1.63-.85,2.56l-1.19,3.27h-.66l-1.09-3.21c-.32-1-.59-1.82-.78-2.62h0c0,.84-.07,2-.13,3L132,8.37h-.83l.47-6.74h1.11l1.15,3.26c.28.83.51,1.57.68,2.27h0c.17-.68.41-1.42.71-2.27l1.2-3.26h1.11L138,8.37h-.85Z"/><path class="cls-5" d="M139.22,7.31a3.08,3.08,0,0,0,1.56.44c.89,0,1.41-.47,1.41-1.15s-.36-1-1.27-1.34c-1.1-.39-1.78-1-1.78-1.91a1.94,1.94,0,0,1,2.18-1.83,3.06,3.06,0,0,1,1.49.33l-.24.71a2.68,2.68,0,0,0-1.28-.32c-.92,0-1.27.55-1.27,1,0,.63.41.94,1.34,1.3,1.14.44,1.72,1,1.72,2s-.77,1.94-2.36,1.94A3.48,3.48,0,0,1,139,8Z"/><path class="cls-5" d="M145.14,1.63V8.37h-.87V1.63Z"/><path class="cls-5" d="M147.94,2.37h-2.05V1.63h5v.74h-2.06v6h-.88Z"/><path class="cls-5" d="M151.66,9.58a6.77,6.77,0,0,0,1.26-4.09,6.63,6.63,0,0,0-1.26-4.06h.68a6.37,6.37,0,0,1,1.31,4.07,6.49,6.49,0,0,1-1.31,4.08Z"/><path class="cls-5" d="M244.31,8.15a4.32,4.32,0,0,1-1.78.32,3.15,3.15,0,0,1-3.33-3.41,3.35,3.35,0,0,1,3.52-3.54,3.61,3.61,0,0,1,1.6.3l-.21.71a3.17,3.17,0,0,0-1.36-.28A2.51,2.51,0,0,0,240.12,5a2.45,2.45,0,0,0,2.59,2.71,3.48,3.48,0,0,0,1.42-.28Z"/><path class="cls-5" d="M249.65,5.91a2.37,2.37,0,0,1-2.41,2.57A2.3,2.3,0,0,1,244.92,6a2.36,2.36,0,0,1,2.4-2.57A2.29,2.29,0,0,1,249.65,5.91Zm-3.84,0c0,1.06.61,1.86,1.47,1.86s1.47-.79,1.47-1.88c0-.82-.41-1.86-1.45-1.86S245.81,5,245.81,6Z"/><path class="cls-5" d="M250.76,1.27h.88v7.1h-.88Z"/><path class="cls-5" d="M257.5,5.91a2.37,2.37,0,0,1-2.41,2.57A2.3,2.3,0,0,1,252.77,6a2.36,2.36,0,0,1,2.4-2.57A2.29,2.29,0,0,1,257.5,5.91Zm-3.84,0c0,1.06.61,1.86,1.47,1.86S256.6,7,256.6,5.94c0-.82-.41-1.86-1.45-1.86S253.66,5,253.66,6Z"/><path class="cls-5" d="M258.61,5c0-.57,0-1.06,0-1.51h.77l0,1h0a1.45,1.45,0,0,1,1.34-1.06,1,1,0,0,1,.25,0v.83a1.32,1.32,0,0,0-.3,0,1.23,1.23,0,0,0-1.18,1.13,2.48,2.48,0,0,0,0,.41V8.37h-.87Z"/><path class="cls-5" d="M263.88,5.34V6h-2.47V5.34Z"/><path class="cls-5" d="M265.22,3.53,265.86,6c.14.54.27,1,.36,1.54h0c.11-.49.27-1,.43-1.53l.79-2.47h.74L269,6c.18.58.32,1.09.43,1.58h0A14.55,14.55,0,0,1,269.79,6l.69-2.43h.87l-1.56,4.84H269l-.74-2.31a16.13,16.13,0,0,1-.43-1.59h0a14.32,14.32,0,0,1-.44,1.6l-.78,2.3h-.8l-1.46-4.84Z"/><path class="cls-5" d="M276.52,5.91a2.37,2.37,0,0,1-2.41,2.57A2.3,2.3,0,0,1,271.79,6a2.36,2.36,0,0,1,2.4-2.57A2.29,2.29,0,0,1,276.52,5.91Zm-3.84,0c0,1.06.61,1.86,1.47,1.86s1.47-.79,1.47-1.88c0-.82-.41-1.86-1.45-1.86S272.68,5,272.68,6Z"/><path class="cls-5" d="M277.63,5c0-.57,0-1.06,0-1.51h.77l0,1h0a1.45,1.45,0,0,1,1.34-1.06,1,1,0,0,1,.25,0v.83a1.32,1.32,0,0,0-.3,0,1.23,1.23,0,0,0-1.18,1.13,2.48,2.48,0,0,0,0,.41V8.37h-.87Z"/><path class="cls-5" d="M285,1.27V7.12c0,.43,0,.92,0,1.25h-.79l0-.84h0a1.79,1.79,0,0,1-1.65,1A2.21,2.21,0,0,1,280.46,6a2.32,2.32,0,0,1,2.17-2.6,1.62,1.62,0,0,1,1.46.74h0V1.27Zm-.88,4.23a1.55,1.55,0,0,0,0-.37,1.29,1.29,0,0,0-1.27-1c-.91,0-1.45.8-1.45,1.87s.48,1.79,1.43,1.79a1.32,1.32,0,0,0,1.29-1,1.53,1.53,0,0,0,0-.38Z"/><path class="cls-5" d="M288.48,7.31a3.08,3.08,0,0,0,1.56.44c.89,0,1.41-.47,1.41-1.15s-.36-1-1.27-1.34c-1.1-.39-1.78-1-1.78-1.91a1.94,1.94,0,0,1,2.18-1.83,3.06,3.06,0,0,1,1.49.33l-.24.71a2.68,2.68,0,0,0-1.28-.32c-.92,0-1.27.55-1.27,1,0,.63.41.94,1.34,1.3,1.14.44,1.72,1,1.72,2s-.77,1.94-2.36,1.94A3.48,3.48,0,0,1,288.26,8Z"/><path class="cls-5" d="M294.53,2.14V3.53h1.26V4.2h-1.26V6.81c0,.6.17.94.66.94a2,2,0,0,0,.51-.06l0,.66a2.15,2.15,0,0,1-.78.12A1.22,1.22,0,0,1,294,8.1a1.79,1.79,0,0,1-.34-1.26V4.2h-.75V3.53h.75V2.37Z"/><path class="cls-5" d="M296.78,5c0-.57,0-1.06,0-1.51h.77l0,1h0a1.45,1.45,0,0,1,1.34-1.06,1,1,0,0,1,.25,0v.83a1.32,1.32,0,0,0-.3,0,1.23,1.23,0,0,0-1.18,1.13,2.48,2.48,0,0,0,0,.41V8.37h-.87Z"/><path class="cls-5" d="M304.33,5.91a2.37,2.37,0,0,1-2.41,2.57A2.3,2.3,0,0,1,299.6,6,2.36,2.36,0,0,1,302,3.42,2.29,2.29,0,0,1,304.33,5.91Zm-3.84,0c0,1.06.61,1.86,1.47,1.86s1.47-.79,1.47-1.88c0-.82-.41-1.86-1.45-1.86S300.49,5,300.49,6Z"/><path class="cls-5" d="M309.82,5.91a2.37,2.37,0,0,1-2.41,2.57A2.3,2.3,0,0,1,305.09,6a2.36,2.36,0,0,1,2.4-2.57A2.29,2.29,0,0,1,309.82,5.91ZM306,6c0,1.06.61,1.86,1.47,1.86s1.47-.79,1.47-1.88c0-.82-.41-1.86-1.45-1.86S306,5,306,6Z"/><path class="cls-5" d="M310.93,5.11c0-.62,0-1.12,0-1.58h.79l0,.83h0a1.9,1.9,0,0,1,1.72-.94,2.19,2.19,0,0,1,2.05,2.46c0,1.74-1.06,2.6-2.2,2.6a1.7,1.7,0,0,1-1.49-.76h0v2.63h-.87Zm.87,1.29a2,2,0,0,0,0,.36,1.36,1.36,0,0,0,1.32,1c.93,0,1.47-.76,1.47-1.87s-.51-1.8-1.44-1.8a1.4,1.4,0,0,0-1.33,1.09,1.43,1.43,0,0,0-.06.36Z"/><path class="cls-5" d="M319.65,2.37h-2V1.63h5v.74h-2.06v6h-.88Z"/><path class="cls-5" d="M325.36,8.37l-.07-.61h0a1.8,1.8,0,0,1-1.48.72,1.38,1.38,0,0,1-1.48-1.39c0-1.17,1-1.81,2.91-1.8v-.1a1,1,0,0,0-1.1-1.12,2.41,2.41,0,0,0-1.26.36l-.2-.58a3,3,0,0,1,1.59-.43c1.48,0,1.84,1,1.84,2V7.21a6.81,6.81,0,0,0,.08,1.16Zm-.13-2.47c-1,0-2.05.15-2.05,1.09a.78.78,0,0,0,.83.84A1.2,1.2,0,0,0,325.18,7a.92.92,0,0,0,.05-.28Z"/><path class="cls-5" d="M327.38,7.47a2.31,2.31,0,0,0,1.16.35c.64,0,.94-.32.94-.72s-.25-.65-.9-.89c-.87-.31-1.28-.79-1.28-1.37A1.49,1.49,0,0,1,329,3.42a2.42,2.42,0,0,1,1.19.3l-.22.64a1.88,1.88,0,0,0-1-.28c-.52,0-.81.3-.81.66s.29.58.92.82c.84.32,1.27.74,1.27,1.46s-.66,1.45-1.81,1.45a2.76,2.76,0,0,1-1.36-.33Z"/><path class="cls-5" d="M332.33,5.75h0c.12-.17.29-.38.43-.55l1.42-1.67h1.06l-1.87,2,2.13,2.85h-1.07l-1.67-2.32-.45.5V8.37h-.87V1.27h.87Z"/></svg>