<?xml version="1.0" encoding="UTF-8"?><svg id="a" xmlns="http://www.w3.org/2000/svg" viewBox="0 0 462.67 162.39"><defs><style>.b{stroke:#262626;}.b,.c{stroke-linecap:square;stroke-miterlimit:10;}.b,.c,.d,.e{stroke-width:.75px;}.b,.c,.d,.e,.f,.g{fill:none;}.c{stroke:#000;}.h{fill:#010101;}.i{fill:#d9d9d9;}.d{stroke:#333;}.d,.e,.f,.g{stroke-linejoin:bevel;}.e{stroke:#4d4d4d;stroke-dasharray:0 0 1 1;}.f{stroke:#d9b466;}.f,.g{stroke-width:2px;}.g{stroke:#5bb4ac;}</style></defs><polygon class="i" points="53.17 138.36 88.16 138.36 88.16 86.61 53.17 138.36"/><polygon class="i" points="53.17 138.36 88.16 86.61 53.17 86.61 53.17 138.36"/><path class="f" d="M43.53,136.96l.36,.11,.36,.28,.36-.34,.36,.02,.36,.44,.36-.38,.36,.41,.36-1.2,.36-.27,.36-1.15,.36-.48,.36-.64,.36-.48,.36-.59,.36,1.1,.36,.05,.36,.37,.36,.21,.36-.79,.36-.49,.36,.83,.36-1.01,.36-.64,.36-.12,.36,.11,.36,1.46,.36-1.79,.36-1.61,.36,1.56,.36-.82,.36,.73,.36-1.78,.36,.17,.36-1.7,.36-1.67,.36,.72,.36-3.21,.36,.41,.36,.39,.36,.83,.36-2.42,.36,1.17,.36,.5,.36-1.12,.36-.96,.36-1.94,.36-1.35,.36-2.67,.36-.32m0,0l.36-3.96,.36-1.74,.36-1.97,.36-2.1,.36,.43,.36-2.09,.36-.77,.36-.52,.36-1.94,.36,.78,.36-1.49,.36,.51,.36-.35,.36-4.22,.36,.11,.36-1.73,.36-1.99,.36-.74,.36,3.65,.36-2.64,.36,6.82,.36-4.3,.36-.9,.36,4.66,.36,.88,.36-4.58,.36,2.63,.36-2.97,.36,1.17,.36,.87,.36-.37,.36-.81,.36,.29,.36,1.04,.36,1.92,.36-1.14,.36-5.61,.36,1.35,.36,1.65,.36-3.5,.36-.63,.36-.08,.36-1.19,.36,1.87,.36,2.19,.36,3.53,.36,1.11,.36,2.4,.36,1.9m0,0l.36,3.02,.36-1.96,.36,1.1,.36,3.58,.36-.06,.36,2.1,.36-2.76,.36,5.8,.36,1.63,.36,1.88,.36,1.54,.36,2.88,.36,3.34,.36,.38,.36-1.36,.36,.57,.36,2.93,.36-.76,.36,1.9,.36-.07,.36,.5,.36,.2,.36-.7,.36-.75,.36,2.11,.36,.4,.36,1.47,.36,1.84,.36-.34,.36,.16,.36,1.1,.36-1.91,.36,1.86,.36,1.17,.36-.34,.36,.1,.36,.26,.36-.36,.36,.13,.36,.08,.36-.46,.36,.45,.36-.03,.36-1.02,.36,.11,.36-.66,.36-.57,.36,.74,.36,.3m0,0l.36,.41,.36-.3,.36-.08,.36,.3,.36-.53,.36-2.16,.36,.8,.36,.95,.36-1,.36-.39,.36-.03,.36-1.81,.36,.55,.36,.57,.36-1.04,.36,.84,.36,.95,.36,.92,.36-.13,.36,.23,.36-.41,.36-.91,.36,.56,.36-.59,.36,.08,.36,.49,.36-.47,.36-1.9,.36,.6,.36,.86,.36-3.48,.36,.46,.36,1.89,.36,.05,.36-.13,.36-1.94,.36,.96,.36-.34,.36,.1,.36,.92,.36-.88,.36-.85,.36,.03,.36,.76,.36-.12,.36-.08,.36-2.5,.36,1.96,.36-1.21m0,0l.36,2.43,.36-.4,.36-1.42,.36-.41,.36-.77,.36,.92,.36,1.62,.36,1.31,.36-.25,.36-.02,.36-.5,.36-1.4,.36-1.97,.36,.07,.36-.8,.36,1.87h.36l.36-3.66,.36-.57,.36,.02,.36,.39,.36-.1,.36-.98,.36-.9,.36,.82,.36,.9,.36-1.58,.36-.25,.36-1.41,.36,1.5,.36,5.14,.36,.14,.36,1.76,.36,.47,.36-.06,.36,1.28,.36-.47,.36,1.1,.36,.71,.36-.13,.36-.31,.36,1.57,.36-1.33,.36-1.66,.36,.96,.36-.04h.36l.36-.76,.36,.57m0,0l.36-.05,.36-.2,.36,1.35,.36,.43,.36,.93"/><line class="e" x1="61.38" y1="138.36" x2="61.38" y2="86.61"/><path class="b" d="M43.53,138.36h89.25m-89.25,0v-1.5m17.85,1.5v-1.5m35.7,1.5v-1.5m35.7,1.5v-1.5"/><path class="b" d="M43.53,138.36v-51.75m0,51.75h1.5m-1.5-15.27h1.5m-1.5-15.26h1.5m-1.5-15.27h1.5"/><polygon class="i" points="61.74 66.21 103.87 66.21 103.87 14.46 61.74 66.21"/><polygon class="i" points="61.74 66.21 103.87 14.46 61.74 14.46 61.74 66.21"/><path class="g" d="M43.53,65.35l.36-1.57,.36,.33,.36,.64,.36,.7,.36-.75,.36,.3,.36,.21,.36-.29,.36-2.06,.36,.94,.36-.39,.36,1.23,.36-.14,.36-.62,.36,.27,.36,.6,.36-1.81,.36,.59,.36-1.84,.36-.11,.36-2.16,.36,1.28,.36,.93,.36-3.14,.36,.89,.36,1.37,.36-1.56,.36,.92,.36,2.42,.36-.62,.36,.95h.36l.36,.38,.36,1.99,.36,.54,.36,.31,.36,.13h.36l.36-.42,.36-.44,.36-.67,.36-.76,.36,1.31,.36-.03,.36-1.28,.36-.69,.36-1.65,.36,.92,.36-.8m0,0l.36-1.76,.36-3.82,.36-2.67,.36-2.39,.36,.18,.36-1.93,.36-5.12,.36,.63,.36-4.13,.36-.21,.36,4.26,.36-1.44,.36-2.08,.36,1.48,.36,3.66,.36-1.87,.36-.6,.36-2.23,.36-2.71,.36-2.8,.36-3.85,.36-4.38,.36-.48,.36,.62,.36,6.88,.36,1.25,.36-3.36,.36-1.32,.36,.81,.36,2.08,.36-.62,.36-6.99,.36-1.87,.36,2.4,.36-4.1,.36-.45,.36,.38,.36-3.98,.36,2.69,.36,9.48,.36-6.62,.36-.13,.36,.99,.36,2.49,.36,7.49,.36-.74,.36,.35,.36,1.41,.36,2.37m0,0l.36,4.48,.36-.71,.36,5.05,.36,1.66,.36-2.16,.36-3.4,.36,2.24,.36-3.06,.36,.29,.36,1.86,.36,1.12,.36,1.38,.36,.61,.36-.41,.36,.46,.36,.83,.36-.34,.36,.11,.36-1.01,.36,1.79,.36-1.79,.36,.44,.36-2.77,.36,3.53,.36-1.52,.36-4.06,.36-1.36,.36-2.35,.36,5.31,.36,2.49,.36-1.12,.36,1.25,.36-.94,.36,1.72,.36-.88,.36-.67,.36,3.59,.36,2.65,.36-4,.36,1.49,.36-3.26,.36,3.72,.36-.89,.36,.3,.36-4.49,.36,2.72,.36-.76,.36-1.27,.36-1.34m0,0l.36,2.98,.36-2.06,.36,.38,.36,1.3,.36,.78,.36-1.39,.36-.24,.36-1.48,.36,1.32,.36,.34,.36,.03,.36,1.6,.36-.91,.36,3.93,.36-1.12,.36,1.09,.36,1.01,.36,3.34,.36-.4,.36-.79,.36-1.39,.36,1.52,.36,2.9,.36,.23,.36,1.08,.36,1.46,.36-.55,.36-1.15,.36,.11,.36-.04,.36,.38,.36-.53,.36,.37,.36,2.14,.36-.06,.36,.46,.36,.68,.36-.34,.36,.19,.36-.8,.36-1.22,.36-.62,.36-2.77,.36-.09,.36-2.91,.36-.99,.36,1.63,.36-4.67,.36-.52m0,0l.36,2.73,.36,3,.36,.5,.36-1.28,.36,1.72,.36-.29,.36-.38,.36,2.4,.36-1.29h.36l.36-.81,.36,3.07,.36-1.19,.36-.48,.36,.7,.36,.31,.36,.83,.36-.05,.36,2.74,.36-.93,.36,1.51,.36-.59,.36,.1,.36,.35,.36-1.25,.36,1.05,.36,.4,.36,.46,.36-.57,.36,1.08,.36-.28,.36-.77,.36-1.01,.36-4.29,.36,2.52,.36-.98,.36,.92,.36,1.19,.36,1.25,.36,.58,.36-.05,.36,1.68,.36,.34,.36-.47,.36,.61,.36-.06,.36-.89,.36,.08,.36,.94m0,0l.36-.84,.36-.41,.36,.04,.36-.64,.36,1.09"/><line class="e" x1="61.38" y1="66.21" x2="61.38" y2="14.46"/><path class="c" d="M43.53,66.21h89.25m-89.25,0v-1.5m17.85,1.5v-1.5m35.7,1.5v-1.5m35.7,1.5v-1.5"/><path class="c" d="M43.53,66.21V14.46m0,51.75h1.5m-1.5-29.87h1.5"/><path class="h" d="M39.08,120.47h-2.23l-.23,1.5c.14-.02,.26-.04,.48-.04,.45,0,.9,.1,1.26,.32,.46,.26,.84,.77,.84,1.5,0,1.14-.91,2-2.18,2-.64,0-1.18-.18-1.46-.36l.2-.6c.24,.14,.72,.32,1.25,.32,.75,0,1.39-.49,1.39-1.27,0-.76-.51-1.3-1.68-1.3-.33,0-.59,.04-.81,.06l.38-2.81h2.8v.67Z"/><g><path class="h" d="M32.95,105.45h-.02l-1.02,.55-.15-.6,1.28-.68h.67v5.85h-.77v-5.11Z"/><path class="h" d="M39.74,107.58c0,1.99-.74,3.09-2.03,3.09-1.14,0-1.92-1.07-1.94-3.01,0-1.96,.85-3.04,2.03-3.04s1.94,1.1,1.94,2.96Zm-3.18,.09c0,1.52,.47,2.39,1.19,2.39,.81,0,1.2-.95,1.2-2.44s-.37-2.39-1.19-2.39c-.69,0-1.2,.85-1.2,2.44Z"/></g><g><path class="h" d="M32.95,90.35h-.02l-1.02,.55-.15-.6,1.28-.68h.67v5.85h-.77v-5.11Z"/><path class="h" d="M39.34,90.28h-2.23l-.23,1.5c.14-.02,.26-.04,.48-.04,.45,0,.9,.1,1.26,.32,.46,.26,.84,.77,.84,1.5,0,1.14-.91,2-2.18,2-.64,0-1.18-.18-1.46-.36l.2-.6c.24,.14,.72,.32,1.25,.32,.75,0,1.39-.49,1.39-1.27,0-.76-.51-1.3-1.68-1.3-.33,0-.59,.04-.81,.06l.38-2.81h2.8v.67Z"/></g><g><path class="h" d="M37.33,144.77v.59h-2.22v-.59h2.22Z"/><path class="h" d="M41.89,144.51c0,1.99-.74,3.09-2.03,3.09-1.14,0-1.92-1.07-1.94-3.01,0-1.96,.85-3.04,2.03-3.04s1.94,1.1,1.94,2.96Zm-3.18,.09c0,1.52,.47,2.39,1.19,2.39,.81,0,1.2-.95,1.2-2.44s-.37-2.39-1.19-2.39c-.69,0-1.2,.85-1.2,2.44Z"/><path class="h" d="M42.68,147.03c0-.33,.23-.57,.54-.57s.53,.23,.53,.57-.21,.57-.54,.57c-.32,0-.53-.24-.53-.57Z"/><path class="h" d="M47.98,142.31h-2.23l-.23,1.5c.14-.02,.26-.04,.48-.04,.45,0,.9,.1,1.26,.32,.46,.26,.84,.77,.84,1.5,0,1.14-.91,2-2.18,2-.64,0-1.18-.18-1.46-.36l.2-.6c.24,.14,.72,.32,1.25,.32,.75,0,1.39-.49,1.39-1.27,0-.76-.51-1.3-1.68-1.3-.33,0-.59,.04-.81,.06l.38-2.81h2.8v.67Z"/></g><path class="h" d="M63.42,144.51c0,1.99-.74,3.09-2.03,3.09-1.14,0-1.92-1.07-1.94-3.01,0-1.96,.85-3.04,2.03-3.04s1.94,1.1,1.94,2.96Zm-3.18,.09c0,1.52,.47,2.39,1.19,2.39,.81,0,1.2-.95,1.2-2.44s-.37-2.39-1.19-2.39c-.69,0-1.2,.85-1.2,2.44Z"/><path class="h" d="M96.5,142.38h-.02l-1.02,.55-.15-.6,1.28-.68h.67v5.85h-.77v-5.11Z"/><path class="h" d="M131.22,147.5v-.49l.62-.6c1.49-1.42,2.17-2.18,2.18-3.06,0-.59-.29-1.14-1.16-1.14-.53,0-.97,.27-1.24,.5l-.25-.56c.4-.34,.98-.59,1.66-.59,1.26,0,1.79,.86,1.79,1.7,0,1.08-.78,1.95-2.02,3.14l-.47,.43v.02h2.63v.66h-3.74Z"/><path class="h" d="M39.48,64.22c0,1.99-.74,3.09-2.03,3.09-1.14,0-1.92-1.07-1.94-3.01,0-1.96,.85-3.04,2.03-3.04s1.94,1.1,1.94,2.96Zm-3.18,.09c0,1.52,.47,2.39,1.19,2.39,.81,0,1.2-.95,1.2-2.44s-.37-2.39-1.19-2.39c-.69,0-1.2,.85-1.2,2.44Z"/><path class="h" d="M39.09,34.1h-2.23l-.23,1.5c.14-.02,.26-.04,.48-.04,.45,0,.9,.1,1.26,.32,.46,.26,.84,.77,.84,1.5,0,1.14-.91,2-2.18,2-.64,0-1.18-.18-1.46-.36l.2-.6c.24,.14,.72,.32,1.25,.32,.75,0,1.39-.49,1.39-1.27,0-.76-.51-1.3-1.68-1.3-.33,0-.59,.04-.81,.06l.38-2.81h2.8v.67Z"/><g><path class="h" d="M69.38,79.4c0-.56-.02-1.01-.04-1.42h.71l.04,.75h.02c.32-.53,.84-.85,1.55-.85,1.05,0,1.85,.89,1.85,2.21,0,1.57-.95,2.34-1.98,2.34-.58,0-1.08-.25-1.34-.68h-.02v2.37h-.78v-4.72Zm.78,1.16c0,.12,.02,.23,.04,.32,.14,.55,.62,.93,1.19,.93,.84,0,1.32-.68,1.32-1.68,0-.87-.46-1.62-1.3-1.62-.54,0-1.04,.39-1.2,.98-.03,.1-.05,.22-.05,.32v.75Z"/><path class="h" d="M74.5,79.34c0-.51,0-.95-.04-1.36h.69l.03,.86h.04c.2-.59,.68-.95,1.21-.95,.09,0,.15,0,.22,.03v.75c-.08-.02-.16-.03-.27-.03-.56,0-.95,.42-1.06,1.02-.02,.11-.04,.23-.04,.37v2.32h-.78v-3Z"/><path class="h" d="M77.79,80.3c.02,1.07,.7,1.51,1.49,1.51,.57,0,.91-.1,1.21-.23l.13,.57c-.28,.13-.76,.27-1.45,.27-1.34,0-2.14-.88-2.14-2.2s.77-2.35,2.04-2.35c1.42,0,1.8,1.25,1.8,2.05,0,.16-.02,.29-.03,.37h-3.06Zm2.32-.57c0-.5-.21-1.29-1.1-1.29-.8,0-1.15,.74-1.22,1.29h2.31Z"/><path class="h" d="M83.95,79.61v.59h-2.22v-.59h2.22Z"/><path class="h" d="M84.8,81.38c.35,.22,.86,.4,1.4,.4,.8,0,1.27-.42,1.27-1.04,0-.57-.32-.89-1.14-1.21-.99-.35-1.6-.86-1.6-1.72,0-.95,.78-1.65,1.96-1.65,.62,0,1.07,.14,1.34,.3l-.22,.64c-.2-.11-.6-.29-1.15-.29-.83,0-1.14,.5-1.14,.91,0,.57,.37,.85,1.21,1.17,1.03,.4,1.55,.89,1.55,1.78,0,.94-.69,1.75-2.12,1.75-.59,0-1.22-.17-1.55-.39l.2-.66Z"/><path class="h" d="M94.45,79.67c-.04-.85-.1-1.86-.09-2.62h-.03c-.21,.71-.46,1.47-.77,2.3l-1.07,2.94h-.59l-.98-2.89c-.29-.86-.53-1.64-.7-2.36h-.02c-.02,.76-.06,1.77-.12,2.68l-.16,2.6h-.75l.42-6.07h1l1.04,2.94c.25,.75,.46,1.41,.61,2.04h.03c.15-.61,.37-1.28,.64-2.04l1.08-2.94h1l.38,6.07h-.77l-.15-2.67Z"/><path class="h" d="M97.47,80.43l-.63,1.91h-.81l2.06-6.07h.95l2.07,6.07h-.84l-.65-1.91h-2.15Zm1.99-.61l-.59-1.75c-.14-.4-.23-.76-.32-1.11h-.02c-.09,.36-.19,.73-.31,1.1l-.59,1.76h1.83Z"/></g><g><path class="h" d="M74.09,3.41v5.27c0,.39,0,.83,.04,1.13h-.71l-.04-.76h-.02c-.24,.49-.77,.86-1.49,.86-1.05,0-1.86-.89-1.86-2.21,0-1.45,.89-2.34,1.95-2.34,.67,0,1.12,.32,1.31,.67h.02V3.41h.79Zm-.79,3.81c0-.1,0-.23-.04-.33-.12-.5-.55-.92-1.14-.92-.82,0-1.31,.72-1.31,1.68,0,.88,.43,1.61,1.29,1.61,.53,0,1.02-.35,1.16-.95,.03-.11,.04-.22,.04-.34v-.76Z"/><path class="h" d="M76.41,7.9l-.63,1.91h-.81l2.06-6.07h.95l2.07,6.07h-.84l-.65-1.91h-2.15Zm1.99-.61l-.59-1.75c-.14-.4-.23-.76-.32-1.11h-.02c-.09,.36-.19,.73-.31,1.1l-.59,1.76h1.83Z"/><path class="h" d="M85.04,9.61c-.29,.14-.86,.29-1.6,.29-1.71,0-3-1.08-3-3.07s1.29-3.19,3.17-3.19c.76,0,1.23,.16,1.44,.27l-.19,.64c-.3-.14-.72-.25-1.22-.25-1.42,0-2.37,.91-2.37,2.5,0,1.49,.86,2.44,2.33,2.44,.48,0,.96-.1,1.28-.25l.16,.62Z"/><path class="h" d="M90.07,9.61c-.29,.14-.86,.29-1.6,.29-1.71,0-3-1.08-3-3.07s1.29-3.19,3.17-3.19c.76,0,1.23,.16,1.44,.27l-.19,.64c-.3-.14-.72-.25-1.22-.25-1.42,0-2.37,.91-2.37,2.5,0,1.49,.86,2.44,2.33,2.44,.48,0,.96-.1,1.28-.25l.16,.62Z"/></g><g><path class="h" d="M20.69,96.75v-.78h5.41v-2.59h.66v3.38h-6.07Z"/><path class="h" d="M21.18,91.65c.27,0,.49,.19,.49,.5,0,.28-.22,.48-.49,.48s-.5-.21-.5-.5,.22-.49,.5-.49Zm5.58,.88h-4.36v-.79h4.36v.79Z"/><path class="h" d="M24.4,89.64v-.02c-.15-.11-.34-.26-.5-.39l-1.5-1.28v-.95l1.79,1.68,2.57-1.92v.96l-2.09,1.5,.45,.41h1.64v.78h-6.39v-.78h4.03Z"/><path class="h" d="M24.73,85.76c1.07-.02,1.51-.7,1.51-1.49,0-.57-.1-.91-.22-1.21l.57-.13c.13,.28,.27,.76,.27,1.45,0,1.34-.88,2.14-2.2,2.14s-2.35-.77-2.35-2.04c0-1.42,1.25-1.8,2.05-1.8,.16,0,.29,.02,.37,.03v3.06Zm-.57-2.32c-.5,0-1.29,.21-1.29,1.1,0,.8,.74,1.15,1.29,1.22v-2.31Z"/><path class="h" d="M20.37,81.7v-.79h6.39v.79h-6.39Z"/><path class="h" d="M21.18,78.69c.27,0,.49,.19,.49,.5,0,.28-.22,.48-.49,.48s-.5-.21-.5-.5,.22-.49,.5-.49Zm5.58,.88h-4.36v-.79h4.36v.79Z"/><path class="h" d="M20.37,77.47v-.79h2.72v-.02c-.23-.13-.42-.32-.56-.57-.13-.23-.22-.51-.22-.81,0-.59,.36-1.52,1.86-1.52h2.59v.79h-2.5c-.7,0-1.3,.26-1.3,1.01,0,.51,.36,.92,.79,1.06,.11,.04,.22,.05,.38,.05h2.63v.79h-6.39Z"/><path class="h" d="M24.55,68.53c1.61,0,2.31,1.12,2.31,2.17,0,1.18-.86,2.09-2.24,2.09-1.46,0-2.31-.95-2.31-2.16s.91-2.1,2.24-2.1Zm.04,3.46c.95,0,1.67-.55,1.67-1.32s-.71-1.32-1.69-1.32c-.74,0-1.67,.37-1.67,1.31s.86,1.34,1.69,1.34Z"/><path class="h" d="M24.55,63.59c1.61,0,2.31,1.12,2.31,2.17,0,1.18-.86,2.09-2.24,2.09-1.46,0-2.31-.95-2.31-2.16s.91-2.1,2.24-2.1Zm.04,3.46c.95,0,1.67-.55,1.67-1.32s-.71-1.32-1.69-1.32c-.74,0-1.67,.37-1.67,1.31s.86,1.34,1.69,1.34Z"/><path class="h" d="M20.37,58.83h5.27c.39,0,.83,0,1.12-.04v.71l-.76,.04v.02c.49,.24,.85,.77,.85,1.49,0,1.05-.89,1.86-2.21,1.86-1.45,0-2.34-.89-2.34-1.95,0-.67,.31-1.12,.67-1.31v-.02h-2.6v-.79Zm3.81,.79c-.1,0-.23,0-.33,.04-.5,.12-.92,.55-.92,1.14,0,.82,.72,1.3,1.68,1.3,.88,0,1.61-.43,1.61-1.29,0-.53-.35-1.02-.95-1.16-.11-.03-.22-.04-.34-.04h-.76Z"/><path class="h" d="M20.78,55.58c-.08-.4-.13-.96-.13-1.5,0-.84,.15-1.38,.5-1.76,.27-.31,.68-.48,1.15-.48,.8,0,1.33,.5,1.55,1.14h.03c.16-.47,.59-.75,1.22-.89,.85-.2,1.43-.34,1.67-.47v.81c-.17,.1-.69,.23-1.45,.41-.84,.18-1.15,.5-1.18,1.21v.74h2.63v.78h-5.99Zm2.76-.78v-.8c0-.84-.46-1.37-1.15-1.37-.78,0-1.13,.57-1.13,1.4,0,.38,.04,.65,.07,.77h2.21Z"/><path class="h" d="M26.76,48.24l-.55,.06v.03c.34,.24,.65,.71,.65,1.33,0,.88-.62,1.33-1.25,1.33-1.05,0-1.63-.94-1.62-2.62h-.09c-.36,0-1.01,.1-1.01,.99,0,.41,.13,.83,.32,1.13l-.52,.18c-.23-.36-.39-.88-.39-1.43,0-1.33,.91-1.66,1.78-1.66h1.63c.38,0,.75-.02,1.04-.07v.72Zm-2.22,.12c-.02,.86,.13,1.85,.98,1.85,.51,0,.76-.34,.76-.75,0-.57-.36-.93-.73-1.05-.08-.03-.17-.04-.25-.04h-.76Z"/><path class="h" d="M21.15,45.4h1.25v-1.13h.6v1.13h2.35c.54,0,.85-.15,.85-.59,0-.21-.03-.36-.05-.46l.59-.04c.06,.15,.11,.4,.11,.7,0,.37-.12,.67-.33,.86-.23,.23-.62,.31-1.13,.31h-2.38v.67h-.6v-.67h-1.04l-.21-.77Z"/><path class="h" d="M21.18,42.49c.27,0,.49,.19,.49,.5,0,.28-.22,.48-.49,.48s-.5-.21-.5-.5,.22-.49,.5-.49Zm5.58,.88h-4.36v-.79h4.36v.79Z"/><path class="h" d="M24.55,37.33c1.61,0,2.31,1.12,2.31,2.17,0,1.18-.86,2.09-2.24,2.09-1.46,0-2.31-.96-2.31-2.16s.91-2.1,2.24-2.1Zm.04,3.46c.95,0,1.67-.55,1.67-1.32s-.71-1.32-1.69-1.32c-.74,0-1.67,.37-1.67,1.31s.86,1.34,1.69,1.34Z"/></g><g><path class="h" d="M46.17,155.59h-1.64v-.59h3.99v.59h-1.65v4.8h-.7v-4.8Z"/><path class="h" d="M49.79,155.43c0,.24-.17,.43-.45,.43-.25,0-.42-.19-.42-.43s.18-.44,.44-.44,.43,.19,.43,.44Zm-.78,4.96v-3.87h.7v3.87h-.7Z"/><path class="h" d="M50.87,157.57c0-.4,0-.73-.03-1.05h.62l.03,.62h.02c.22-.37,.58-.71,1.22-.71,.53,0,.93,.32,1.1,.78h.02c.12-.22,.27-.38,.43-.5,.23-.18,.49-.27,.86-.27,.51,0,1.27,.34,1.27,1.68v2.28h-.69v-2.19c0-.74-.27-1.19-.84-1.19-.4,0-.71,.3-.83,.64-.03,.1-.06,.22-.06,.35v2.39h-.69v-2.32c0-.62-.27-1.06-.81-1.06-.44,0-.76,.35-.87,.7-.04,.1-.06,.22-.06,.34v2.33h-.69v-2.82Z"/><path class="h" d="M57.94,158.58c.02,.95,.62,1.34,1.33,1.34,.5,0,.81-.09,1.07-.2l.12,.5c-.25,.11-.67,.24-1.29,.24-1.19,0-1.9-.78-1.9-1.95s.69-2.09,1.81-2.09c1.26,0,1.6,1.11,1.6,1.82,0,.14-.02,.26-.02,.33h-2.72Zm2.06-.5c0-.45-.18-1.14-.98-1.14-.71,0-1.02,.66-1.08,1.14h2.05Z"/><path class="h" d="M63.32,160.39v-3.33h-.54v-.54h.54v-.18c0-.54,.12-1.04,.45-1.35,.26-.26,.62-.36,.94-.36,.25,0,.46,.06,.6,.11l-.1,.54c-.1-.05-.25-.09-.45-.09-.6,0-.75,.53-.75,1.12v.21h.94v.54h-.94v3.33h-.7Z"/><path class="h" d="M65.59,157.73c0-.46,0-.85-.03-1.21h.62l.02,.76h.03c.18-.52,.6-.85,1.07-.85,.08,0,.14,0,.2,.02v.66c-.07-.02-.14-.02-.24-.02-.5,0-.85,.38-.94,.9-.02,.1-.03,.21-.03,.33v2.06h-.7v-2.66Z"/><path class="h" d="M71.62,158.42c0,1.43-.99,2.05-1.93,2.05-1.05,0-1.85-.77-1.85-1.99,0-1.29,.85-2.05,1.92-2.05s1.86,.81,1.86,1.99Zm-3.07,.04c0,.85,.49,1.49,1.18,1.49s1.18-.63,1.18-1.5c0-.66-.33-1.49-1.16-1.49s-1.19,.77-1.19,1.5Z"/><path class="h" d="M72.51,157.57c0-.4,0-.73-.03-1.05h.62l.03,.62h.02c.22-.37,.58-.71,1.22-.71,.53,0,.93,.32,1.1,.78h.02c.12-.22,.27-.38,.43-.5,.23-.18,.49-.27,.86-.27,.51,0,1.27,.34,1.27,1.68v2.28h-.69v-2.19c0-.74-.27-1.19-.84-1.19-.4,0-.71,.3-.83,.64-.03,.1-.06,.22-.06,.35v2.39h-.69v-2.32c0-.62-.27-1.06-.81-1.06-.44,0-.76,.35-.87,.7-.04,.1-.06,.22-.06,.34v2.33h-.69v-2.82Z"/><path class="h" d="M80.85,160.39c.02-.26,.03-.66,.03-1v-4.68h.7v2.43h.02c.25-.43,.7-.71,1.32-.71,.96,0,1.64,.8,1.63,1.98,0,1.38-.87,2.07-1.73,2.07-.56,0-1.01-.22-1.3-.73h-.02l-.03,.64h-.61Zm.73-1.55c0,.09,.02,.18,.03,.26,.14,.49,.54,.82,1.06,.82,.74,0,1.18-.6,1.18-1.49,0-.78-.4-1.44-1.15-1.44-.48,0-.93,.33-1.07,.86-.02,.08-.04,.18-.04,.29v.7Z"/><path class="h" d="M88.67,159.33c0,.4,0,.75,.03,1.06h-.62l-.04-.63h-.02c-.18,.31-.59,.72-1.28,.72-.61,0-1.34-.34-1.34-1.7v-2.26h.7v2.14c0,.74,.22,1.23,.86,1.23,.47,0,.8-.33,.93-.64,.04-.1,.06-.23,.06-.36v-2.38h.7v2.81Z"/><path class="h" d="M90.69,155.41v1.11h1.01v.54h-1.01v2.09c0,.48,.14,.75,.53,.75,.18,0,.32-.02,.41-.05l.03,.53c-.14,.06-.35,.1-.62,.1-.33,0-.59-.1-.76-.3-.2-.21-.27-.55-.27-1.01v-2.11h-.6v-.54h.6v-.93l.69-.18Z"/><path class="h" d="M93.34,155.41v1.11h1.01v.54h-1.01v2.09c0,.48,.14,.75,.53,.75,.18,0,.32-.02,.41-.05l.03,.53c-.14,.06-.35,.1-.62,.1-.33,0-.59-.1-.76-.3-.2-.21-.27-.55-.27-1.01v-2.11h-.6v-.54h.6v-.93l.69-.18Z"/><path class="h" d="M98.59,158.42c0,1.43-.99,2.05-1.93,2.05-1.05,0-1.85-.77-1.85-1.99,0-1.29,.85-2.05,1.92-2.05s1.86,.81,1.86,1.99Zm-3.07,.04c0,.85,.49,1.49,1.18,1.49s1.18-.63,1.18-1.5c0-.66-.33-1.49-1.16-1.49s-1.19,.77-1.19,1.5Z"/><path class="h" d="M99.48,157.57c0-.4,0-.73-.03-1.05h.62l.04,.64h.02c.19-.37,.64-.73,1.28-.73,.54,0,1.37,.32,1.37,1.65v2.31h-.7v-2.23c0-.62-.23-1.14-.9-1.14-.46,0-.82,.33-.94,.72-.03,.09-.05,.21-.05,.33v2.33h-.7v-2.82Z"/><path class="h" d="M105.62,157.78c0-.5-.02-.9-.03-1.26h.63l.03,.66h.02c.29-.47,.74-.75,1.38-.75,.94,0,1.64,.79,1.64,1.97,0,1.39-.85,2.08-1.76,2.08-.51,0-.96-.22-1.19-.61h-.02v2.1h-.7v-4.19Zm.7,1.03c0,.1,.02,.2,.03,.29,.13,.49,.55,.82,1.06,.82,.74,0,1.18-.61,1.18-1.5,0-.78-.41-1.44-1.15-1.44-.48,0-.93,.34-1.06,.87-.02,.09-.05,.19-.05,.29v.66Z"/><path class="h" d="M110.17,157.73c0-.46,0-.85-.03-1.21h.62l.02,.76h.03c.18-.52,.6-.85,1.07-.85,.08,0,.14,0,.2,.02v.66c-.07-.02-.14-.02-.24-.02-.5,0-.85,.38-.94,.9-.02,.1-.03,.21-.03,.33v2.06h-.7v-2.66Z"/><path class="h" d="M113.1,158.58c.02,.95,.62,1.34,1.33,1.34,.5,0,.81-.09,1.07-.2l.12,.5c-.25,.11-.67,.24-1.29,.24-1.19,0-1.9-.78-1.9-1.95s.69-2.09,1.81-2.09c1.26,0,1.6,1.11,1.6,1.82,0,.14-.02,.26-.02,.33h-2.72Zm2.06-.5c0-.45-.18-1.14-.98-1.14-.71,0-1.02,.66-1.08,1.14h2.05Z"/><path class="h" d="M116.62,159.67c.21,.14,.58,.28,.93,.28,.51,0,.75-.26,.75-.58s-.2-.52-.72-.71c-.7-.25-1.02-.63-1.02-1.1,0-.62,.5-1.14,1.33-1.14,.39,0,.74,.11,.95,.24l-.18,.51c-.15-.1-.43-.22-.79-.22-.42,0-.65,.24-.65,.53,0,.32,.23,.46,.74,.66,.67,.26,1.02,.59,1.02,1.17,0,.68-.53,1.16-1.45,1.16-.42,0-.82-.1-1.09-.26l.18-.54Z"/><path class="h" d="M119.79,159.67c.21,.14,.58,.28,.93,.28,.51,0,.75-.26,.75-.58s-.2-.52-.72-.71c-.7-.25-1.02-.63-1.02-1.1,0-.62,.5-1.14,1.33-1.14,.39,0,.74,.11,.95,.24l-.18,.51c-.15-.1-.43-.22-.79-.22-.42,0-.65,.24-.65,.53,0,.32,.23,.46,.74,.66,.67,.26,1.02,.59,1.02,1.17,0,.68-.53,1.16-1.45,1.16-.42,0-.82-.1-1.09-.26l.18-.54Z"/><path class="h" d="M124.82,161.28v-6.37h1.46v.44h-.92v5.49h.92v.44h-1.46Z"/><path class="h" d="M126.92,159.67c.21,.14,.58,.28,.93,.28,.51,0,.75-.26,.75-.58s-.2-.52-.72-.71c-.7-.25-1.02-.63-1.02-1.1,0-.62,.5-1.14,1.34-1.14,.39,0,.74,.11,.95,.24l-.18,.51c-.15-.1-.43-.22-.79-.22-.42,0-.65,.24-.65,.53,0,.32,.23,.46,.74,.66,.67,.26,1.02,.59,1.02,1.17,0,.68-.53,1.16-1.45,1.16-.42,0-.82-.1-1.09-.26l.18-.54Z"/><path class="h" d="M131.22,154.9v6.38h-1.46v-.44h.92v-5.5h-.92v-.44h1.46Z"/></g><g><path class="h" d="M207.2,133.32h-1.64v-.59h3.99v.59h-1.65v4.8h-.7v-4.8Z"/><path class="h" d="M210.81,133.16c0,.24-.17,.43-.45,.43-.25,0-.42-.19-.42-.43s.18-.44,.44-.44,.43,.19,.43,.44Zm-.78,4.96v-3.87h.7v3.87h-.7Z"/><path class="h" d="M211.9,135.3c0-.4,0-.73-.03-1.05h.62l.03,.62h.02c.22-.37,.58-.71,1.22-.71,.53,0,.93,.32,1.1,.78h.02c.12-.22,.27-.38,.43-.5,.23-.18,.49-.27,.86-.27,.51,0,1.27,.34,1.27,1.68v2.28h-.69v-2.19c0-.74-.27-1.19-.84-1.19-.4,0-.71,.3-.83,.64-.03,.1-.06,.22-.06,.35v2.39h-.69v-2.32c0-.62-.27-1.06-.81-1.06-.44,0-.76,.35-.87,.7-.04,.1-.06,.22-.06,.34v2.33h-.69v-2.82Z"/><path class="h" d="M218.96,136.31c.02,.95,.62,1.34,1.33,1.34,.5,0,.81-.09,1.07-.2l.12,.5c-.25,.11-.67,.24-1.29,.24-1.19,0-1.9-.78-1.9-1.95s.69-2.09,1.81-2.09c1.26,0,1.6,1.11,1.6,1.82,0,.14-.02,.26-.02,.33h-2.72Zm2.06-.5c0-.45-.18-1.14-.98-1.14-.71,0-1.02,.66-1.08,1.14h2.05Z"/><path class="h" d="M224.35,138.12v-3.33h-.54v-.54h.54v-.18c0-.54,.12-1.04,.45-1.35,.26-.26,.62-.36,.94-.36,.25,0,.46,.06,.6,.11l-.1,.54c-.1-.05-.25-.09-.45-.09-.6,0-.75,.53-.75,1.12v.21h.94v.54h-.94v3.33h-.7Z"/><path class="h" d="M226.61,135.46c0-.46,0-.85-.03-1.21h.62l.02,.76h.03c.18-.52,.6-.85,1.07-.85,.08,0,.14,0,.2,.02v.66c-.07-.02-.14-.02-.24-.02-.5,0-.85,.38-.94,.9-.02,.1-.03,.21-.03,.33v2.06h-.7v-2.66Z"/><path class="h" d="M232.65,136.15c0,1.43-.99,2.05-1.93,2.05-1.05,0-1.85-.77-1.85-1.99,0-1.29,.85-2.05,1.92-2.05s1.86,.81,1.86,1.99Zm-3.07,.04c0,.85,.49,1.49,1.18,1.49s1.18-.63,1.18-1.5c0-.66-.33-1.49-1.16-1.49s-1.19,.77-1.19,1.5Z"/><path class="h" d="M233.54,135.3c0-.4,0-.73-.03-1.05h.62l.03,.62h.02c.22-.37,.58-.71,1.22-.71,.53,0,.93,.32,1.1,.78h.02c.12-.22,.27-.38,.43-.5,.23-.18,.49-.27,.86-.27,.51,0,1.27,.34,1.27,1.68v2.28h-.69v-2.19c0-.74-.27-1.19-.84-1.19-.4,0-.71,.3-.83,.64-.03,.1-.06,.22-.06,.35v2.39h-.69v-2.32c0-.62-.27-1.06-.81-1.06-.44,0-.76,.35-.87,.7-.04,.1-.06,.22-.06,.34v2.33h-.69v-2.82Z"/><path class="h" d="M241.88,138.12c.02-.26,.03-.66,.03-1v-4.68h.7v2.43h.02c.25-.43,.7-.71,1.32-.71,.96,0,1.64,.8,1.63,1.98,0,1.38-.87,2.07-1.73,2.07-.56,0-1.01-.22-1.3-.73h-.02l-.03,.64h-.61Zm.73-1.55c0,.09,.02,.18,.03,.26,.14,.49,.54,.82,1.06,.82,.74,0,1.18-.6,1.18-1.49,0-.78-.4-1.44-1.15-1.44-.48,0-.93,.33-1.07,.86-.02,.08-.04,.18-.04,.29v.7Z"/><path class="h" d="M249.7,137.07c0,.4,0,.75,.03,1.06h-.62l-.04-.63h-.02c-.18,.31-.59,.72-1.28,.72-.61,0-1.34-.34-1.34-1.7v-2.26h.7v2.14c0,.74,.22,1.23,.86,1.23,.47,0,.8-.33,.93-.64,.04-.1,.06-.23,.06-.36v-2.38h.7v2.81Z"/><path class="h" d="M251.72,133.14v1.11h1.01v.54h-1.01v2.09c0,.48,.14,.75,.53,.75,.18,0,.32-.02,.41-.05l.03,.53c-.14,.06-.35,.1-.62,.1-.33,0-.59-.1-.76-.3-.2-.21-.27-.55-.27-1.01v-2.11h-.6v-.54h.6v-.93l.69-.18Z"/><path class="h" d="M254.36,133.14v1.11h1.01v.54h-1.01v2.09c0,.48,.14,.75,.53,.75,.18,0,.32-.02,.41-.05l.03,.53c-.14,.06-.35,.1-.62,.1-.33,0-.59-.1-.76-.3-.2-.21-.27-.55-.27-1.01v-2.11h-.6v-.54h.6v-.93l.69-.18Z"/><path class="h" d="M259.62,136.15c0,1.43-.99,2.05-1.93,2.05-1.05,0-1.85-.77-1.85-1.99,0-1.29,.85-2.05,1.92-2.05s1.86,.81,1.86,1.99Zm-3.07,.04c0,.85,.49,1.49,1.18,1.49s1.18-.63,1.18-1.5c0-.66-.33-1.49-1.16-1.49s-1.19,.77-1.19,1.5Z"/><path class="h" d="M260.51,135.3c0-.4,0-.73-.03-1.05h.62l.04,.64h.02c.19-.37,.64-.73,1.28-.73,.54,0,1.37,.32,1.37,1.65v2.31h-.7v-2.23c0-.62-.23-1.14-.9-1.14-.46,0-.82,.33-.94,.72-.03,.09-.05,.21-.05,.33v2.33h-.7v-2.82Z"/><path class="h" d="M266.64,135.51c0-.5-.02-.9-.03-1.26h.63l.03,.66h.02c.29-.47,.74-.75,1.38-.75,.94,0,1.64,.79,1.64,1.97,0,1.39-.85,2.08-1.76,2.08-.51,0-.96-.22-1.19-.61h-.02v2.1h-.7v-4.19Zm.7,1.03c0,.1,.02,.2,.03,.29,.13,.49,.55,.82,1.06,.82,.74,0,1.17-.61,1.17-1.5,0-.78-.41-1.44-1.15-1.44-.48,0-.93,.34-1.06,.87-.02,.09-.05,.19-.05,.29v.66Z"/><path class="h" d="M271.2,135.46c0-.46,0-.85-.03-1.21h.62l.02,.76h.03c.18-.52,.6-.85,1.07-.85,.08,0,.14,0,.2,.02v.66c-.07-.02-.14-.02-.24-.02-.5,0-.85,.38-.94,.9-.02,.1-.03,.21-.03,.33v2.06h-.7v-2.66Z"/><path class="h" d="M274.12,136.31c.02,.95,.62,1.34,1.33,1.34,.5,0,.81-.09,1.07-.2l.12,.5c-.25,.11-.67,.24-1.29,.24-1.19,0-1.9-.78-1.9-1.95s.69-2.09,1.82-2.09c1.26,0,1.6,1.11,1.6,1.82,0,.14-.02,.26-.02,.33h-2.72Zm2.06-.5c0-.45-.18-1.14-.97-1.14-.71,0-1.02,.66-1.08,1.14h2.05Z"/><path class="h" d="M277.64,137.4c.21,.14,.58,.28,.93,.28,.51,0,.75-.26,.75-.58s-.2-.52-.72-.71c-.7-.25-1.02-.63-1.02-1.1,0-.62,.5-1.14,1.33-1.14,.39,0,.74,.11,.95,.24l-.18,.51c-.15-.1-.43-.22-.79-.22-.42,0-.65,.24-.65,.53,0,.32,.23,.46,.74,.66,.67,.26,1.02,.59,1.02,1.17,0,.68-.53,1.16-1.45,1.16-.42,0-.82-.1-1.09-.26l.18-.54Z"/><path class="h" d="M280.81,137.4c.21,.14,.58,.28,.93,.28,.51,0,.75-.26,.75-.58s-.2-.52-.72-.71c-.7-.25-1.02-.63-1.02-1.1,0-.62,.5-1.14,1.33-1.14,.39,0,.74,.11,.95,.24l-.18,.51c-.15-.1-.43-.22-.79-.22-.42,0-.65,.24-.65,.53,0,.32,.23,.46,.74,.66,.67,.26,1.02,.59,1.02,1.17,0,.68-.53,1.16-1.45,1.16-.42,0-.82-.1-1.09-.26l.18-.54Z"/><path class="h" d="M285.84,139.02v-6.37h1.46v.44h-.92v5.49h.92v.44h-1.46Z"/><path class="h" d="M287.95,137.4c.21,.14,.58,.28,.93,.28,.51,0,.75-.26,.75-.58s-.2-.52-.72-.71c-.7-.25-1.02-.63-1.02-1.1,0-.62,.5-1.14,1.33-1.14,.39,0,.74,.11,.95,.24l-.18,.51c-.15-.1-.43-.22-.79-.22-.42,0-.65,.24-.65,.53,0,.32,.23,.46,.74,.66,.67,.26,1.01,.59,1.01,1.17,0,.68-.53,1.16-1.45,1.16-.42,0-.82-.1-1.09-.26l.18-.54Z"/><path class="h" d="M292.24,132.64v6.38h-1.46v-.44h.92v-5.5h-.92v-.44h1.46Z"/></g><polygon class="i" points="224.03 115.65 253.66 115.65 253.66 63.9 224.03 115.65"/><polygon class="i" points="224.03 115.65 253.66 63.9 224.03 63.9 224.03 115.65"/><path class="g" d="M208.68,113.83l.36,.05,.36-1.16,.36,.48,.36-.65,.36,.39,.36-.47,.36,.24,.36-1,.36-.67,.36,.13,.36,1.63,.36-.13,.36-.43,.36-1.12,.36-.57,.36,.24,.36,.58,.36-.06,.36,.22,.36-.02,.36-1.2,.36-1.74,.36,1.29,.36,.16,.36-.62,.36,.48,.36-.12,.36-1.67,.36,1.15,.36-1.06,.36,1.05,.36,.75,.36-1.43,.36,.71,.36,.99,.36-1.38,.36-.55,.36-1.56,.36,.09,.36,1.35,.36-.52,.36,.31,.36-2.81,.36-1.19,.36-2.74,.36-1.95,.36,1.7,.36-.4,.36,1.27m0,0l.36,.15,.36-3.48,.36-.12,.36-.09,.36-2.72,.36,.34,.36-3.51,.36-3.09,.36,2.58,.36-1.7,.36,3.21,.36-1.06,.36-3.4,.36-.56,.36,.49,.36-6.81,.36,.41,.36-1.5,.36,1.1,.36,5.68,.36-1.9,.36-1.2,.36,3.75,.36,.95,.36,2.08,.36-.44,.36-1.05,.36,.05,.36,.02,.36-.69,.36-2.7,.36-3.93,.36-.08,.36-2.95,.36,2.5,.36-1.73,.36-1.32,.36,2.81,.36-.83,.36,.72,.36,1.9,.36-1.91,.36-3.69,.36-.32,.36-3.11,.36-3.05,.36-1.83,.36,3.03,.36,2.52m0,0l.36-6.79,.36,.38,.36,1.57,.36-1.52,.36,3.18,.36,2.1,.36,7.75,.36,3.37,.36-2.02,.36,1.06,.36-2.38,.36-1.12,.36,2.07,.36,2.91,.36,2.07,.36,.11,.36,.41,.36,3.46,.36,2.76,.36,1.09,.36-1.02,.36,.07,.36,.05,.36,2.92,.36,.8,.36,3,.36,1.58,.36,2.92,.36,.85,.36,.56,.36-1.1,.36,.42,.36,.61,.36-.86,.36,.86,.36,.44,.36-.58,.36,.22,.36-.89,.36-.78,.36,.16,.36,2.5,.36,.06,.36-.02,.36,1.22,.36-1.86,.36,1.16,.36-1.02,.36,1.45m0,0l.36-.3,.36,1.27,.36,.07,.36-1.03,.36,.92,.36,.54,.36,.88,.36,.39,.36-.1,.36,.63,.36,.09,.36,1.33,.36,.3,.36-.32,.36-.45,.36,.62,.36,.2,.36,.3,.36-.04,.36-.14,.36-.67,.36,.22,.36-.94,.36-.24,.36,.06,.36-.25,.36,1.04,.36-.19,.36,.28,.36,.51,.36-.55,.36,.27,.36-.31,.36,.51,.36-.32,.36,.78,.36,.06h.36l.36-.85,.36-.16,.36,.02,.36,.12,.36-.18,.36,.07,.36-.59,.36,.16,.36,.27,.36,.05,.36,.58m0,0l.36,.42,.36,.33,.36-.63,.36-.3,.36-.3,.36,.25,.36-.17,.36,.18,.36-.12,.36-.31,.36-.4,.36-.17,.36-1.39,.36,.32,.36-.86,.36-.66,.36,.95,.36-.24,.36-.46,.36-1.15,.36-.23,.36-.03,.36-1.35,.36,.34,.36,.6,.36-.34,.36,.45,.36,.92,.36-1.3,.36-.48,.36-.73,.36,1.06,.36,.57,.36,1.4,.36-1.05,.36-3.21,.36-.44,.36-2.48,.36,2.17,.36-2.24,.36-.76,.36-.25,.36,.11,.36,2.32,.36-.29,.36,1.91,.36-1.42,.36-2.71,.36,.65m0,0l.36-.34,.36-1.51,.36,2.85,.36,1.89,.36-1.05"/><line class="d" x1="226.53" y1="115.65" x2="226.53" y2="63.9"/><path class="c" d="M208.68,115.65h89.25m-89.25,0v-1.5m17.85,1.5v-1.5m35.7,1.5v-1.5m35.7,1.5v-1.5"/><path class="c" d="M208.68,115.65V63.9m0,51.75h1.5m-1.5-16.97h1.5m-1.5-16.97h1.5m-1.5-16.97h1.5"/><g><path class="h" d="M202.17,122.88v.59h-2.22v-.59h2.22Z"/><path class="h" d="M206.73,122.62c0,1.99-.74,3.09-2.03,3.09-1.14,0-1.92-1.07-1.94-3.01,0-1.96,.85-3.04,2.03-3.04s1.94,1.1,1.94,2.96Zm-3.18,.09c0,1.52,.47,2.39,1.19,2.39,.81,0,1.2-.95,1.2-2.44s-.37-2.39-1.19-2.39c-.69,0-1.2,.85-1.2,2.44Z"/><path class="h" d="M207.52,125.14c0-.33,.23-.57,.54-.57s.53,.23,.53,.57-.21,.57-.54,.57c-.32,0-.53-.24-.53-.57Z"/><path class="h" d="M212.81,120.42h-2.23l-.23,1.5c.14-.02,.26-.04,.48-.04,.45,0,.9,.1,1.26,.32,.46,.26,.84,.77,.84,1.5,0,1.14-.91,2-2.18,2-.64,0-1.18-.18-1.46-.36l.2-.6c.24,.14,.72,.32,1.25,.32,.75,0,1.39-.49,1.39-1.27,0-.76-.51-1.3-1.68-1.3-.33,0-.59,.04-.81,.06l.38-2.81h2.8v.67Z"/></g><path class="h" d="M228.26,122.62c0,1.99-.74,3.09-2.03,3.09-1.14,0-1.92-1.07-1.94-3.01,0-1.96,.85-3.04,2.03-3.04s1.94,1.1,1.94,2.96Zm-3.18,.09c0,1.52,.47,2.39,1.19,2.39,.81,0,1.2-.95,1.2-2.44s-.37-2.39-1.19-2.39c-.69,0-1.2,.85-1.2,2.44Z"/><path class="h" d="M261.34,120.49h-.02l-1.02,.55-.15-.6,1.28-.68h.67v5.85h-.77v-5.11Z"/><path class="h" d="M296.05,125.61v-.49l.62-.6c1.49-1.42,2.17-2.18,2.18-3.06,0-.59-.29-1.14-1.16-1.14-.53,0-.97,.27-1.24,.5l-.25-.56c.41-.34,.98-.59,1.66-.59,1.26,0,1.79,.86,1.79,1.7,0,1.08-.78,1.95-2.02,3.14l-.47,.43v.02h2.63v.66h-3.74Z"/><path class="h" d="M204.27,113.43c0,1.99-.74,3.09-2.03,3.09-1.14,0-1.92-1.07-1.94-3.01,0-1.96,.85-3.04,2.03-3.04s1.94,1.1,1.94,2.96Zm-3.18,.09c0,1.52,.47,2.39,1.19,2.39,.81,0,1.2-.95,1.2-2.44s-.37-2.39-1.19-2.39c-.69,0-1.2,.85-1.2,2.44Z"/><path class="h" d="M203.87,95.47h-2.23l-.23,1.5c.14-.02,.26-.04,.48-.04,.45,0,.9,.1,1.26,.32,.46,.26,.84,.77,.84,1.5,0,1.14-.91,2-2.18,2-.64,0-1.18-.18-1.46-.36l.2-.6c.24,.14,.72,.32,1.25,.32,.75,0,1.39-.49,1.39-1.27,0-.76-.51-1.3-1.68-1.3-.33,0-.59,.04-.81,.06l.38-2.81h2.8v.67Z"/><g><path class="h" d="M197.48,79.77h-.02l-1.02,.55-.15-.6,1.28-.68h.67v5.85h-.77v-5.11Z"/><path class="h" d="M204.27,81.9c0,1.99-.74,3.09-2.03,3.09-1.14,0-1.92-1.07-1.94-3.01,0-1.96,.85-3.04,2.03-3.04s1.94,1.1,1.94,2.96Zm-3.18,.09c0,1.52,.47,2.39,1.19,2.39,.81,0,1.2-.95,1.2-2.44s-.37-2.39-1.19-2.39c-.69,0-1.2,.85-1.2,2.44Z"/></g><g><path class="h" d="M197.48,64.01h-.02l-1.02,.55-.15-.6,1.28-.68h.67v5.85h-.77v-5.11Z"/><path class="h" d="M203.87,63.94h-2.23l-.23,1.5c.14-.02,.26-.04,.48-.04,.45,0,.9,.1,1.26,.32,.46,.26,.84,.77,.84,1.5,0,1.14-.91,2-2.18,2-.64,0-1.18-.18-1.46-.36l.2-.6c.24,.14,.72,.32,1.25,.32,.75,0,1.39-.49,1.39-1.27,0-.76-.51-1.3-1.68-1.3-.33,0-.59,.04-.81,.06l.38-2.81h2.8v.67Z"/></g><g><path class="h" d="M182.59,121.05v-.78h5.41v-2.59h.66v3.38h-6.07Z"/><path class="h" d="M183.07,115.95c.27,0,.49,.19,.49,.5,0,.28-.22,.48-.49,.48s-.5-.21-.5-.5,.22-.49,.5-.49Zm5.58,.88h-4.36v-.79h4.36v.79Z"/><path class="h" d="M186.3,113.94v-.02c-.15-.11-.34-.26-.5-.39l-1.5-1.28v-.95l1.79,1.68,2.57-1.92v.96l-2.09,1.5,.45,.41h1.64v.78h-6.39v-.78h4.03Z"/><path class="h" d="M186.62,110.06c1.07-.02,1.51-.7,1.51-1.49,0-.57-.1-.91-.22-1.21l.57-.13c.13,.28,.27,.76,.27,1.45,0,1.34-.88,2.14-2.2,2.14s-2.35-.77-2.35-2.04c0-1.42,1.25-1.8,2.05-1.8,.16,0,.29,.02,.37,.03v3.06Zm-.57-2.32c-.5,0-1.29,.21-1.29,1.1,0,.8,.74,1.15,1.29,1.22v-2.31Z"/><path class="h" d="M182.26,106v-.79h6.39v.79h-6.39Z"/><path class="h" d="M183.07,102.99c.27,0,.49,.19,.49,.5,0,.28-.22,.48-.49,.48s-.5-.21-.5-.5,.22-.49,.5-.49Zm5.58,.88h-4.36v-.79h4.36v.79Z"/><path class="h" d="M182.26,101.77v-.79h2.72v-.02c-.23-.13-.42-.32-.56-.57-.13-.23-.22-.51-.22-.81,0-.59,.36-1.52,1.86-1.52h2.59v.79h-2.5c-.7,0-1.3,.26-1.3,1.01,0,.51,.36,.92,.79,1.06,.11,.04,.22,.05,.38,.05h2.63v.79h-6.39Z"/><path class="h" d="M186.44,92.83c1.61,0,2.31,1.12,2.31,2.17,0,1.18-.86,2.09-2.24,2.09-1.46,0-2.31-.95-2.31-2.16s.91-2.1,2.24-2.1Zm.04,3.46c.95,0,1.67-.55,1.67-1.32s-.71-1.32-1.69-1.32c-.74,0-1.67,.37-1.67,1.31s.86,1.34,1.69,1.34Z"/><path class="h" d="M186.44,87.89c1.61,0,2.31,1.12,2.31,2.17,0,1.18-.86,2.09-2.24,2.09-1.46,0-2.31-.96-2.31-2.16s.91-2.1,2.24-2.1Zm.04,3.46c.95,0,1.67-.55,1.67-1.32s-.71-1.32-1.69-1.32c-.74,0-1.67,.37-1.67,1.31s.86,1.34,1.69,1.34Z"/><path class="h" d="M182.26,83.13h5.27c.39,0,.83,0,1.12-.04v.71l-.76,.04v.02c.49,.24,.85,.77,.85,1.49,0,1.05-.89,1.86-2.21,1.86-1.45,0-2.34-.89-2.34-1.95,0-.67,.31-1.12,.67-1.31v-.02h-2.6v-.79Zm3.81,.79c-.1,0-.23,0-.33,.04-.5,.12-.92,.55-.92,1.14,0,.82,.72,1.31,1.68,1.31,.88,0,1.61-.43,1.61-1.29,0-.53-.35-1.02-.95-1.16-.11-.03-.22-.04-.34-.04h-.76Z"/><path class="h" d="M185.66,79.91c-.51,0-.95,0-1.36,.04v-.69l.86-.03v-.04c-.58-.2-.95-.68-.95-1.21,0-.09,0-.15,.03-.22h.75c-.02,.08-.03,.16-.03,.27,0,.56,.42,.95,1.02,1.06,.11,.02,.23,.04,.37,.04h2.32v.78h-3Z"/><path class="h" d="M188.65,74.59l-.55,.06v.03c.34,.24,.65,.71,.65,1.33,0,.88-.62,1.33-1.25,1.33-1.05,0-1.63-.94-1.62-2.62h-.09c-.36,0-1.01,.1-1.01,.99,0,.41,.13,.83,.32,1.13l-.52,.18c-.23-.36-.39-.88-.39-1.43,0-1.33,.91-1.66,1.78-1.66h1.63c.38,0,.75-.02,1.04-.07v.72Zm-2.22,.12c-.02,.86,.13,1.85,.98,1.85,.51,0,.76-.34,.76-.75,0-.57-.36-.93-.73-1.05-.08-.03-.17-.04-.25-.04h-.76Z"/><path class="h" d="M183.05,71.75h1.25v-1.13h.6v1.13h2.35c.54,0,.85-.15,.85-.59,0-.21-.03-.36-.05-.46l.59-.04c.06,.15,.11,.4,.11,.7,0,.37-.12,.67-.33,.86-.23,.23-.62,.31-1.13,.31h-2.38v.67h-.6v-.67h-1.04l-.21-.77Z"/><path class="h" d="M183.07,68.84c.27,0,.49,.19,.49,.5,0,.28-.22,.48-.49,.48s-.5-.21-.5-.5,.22-.49,.5-.49Zm5.58,.88h-4.36v-.79h4.36v.79Z"/><path class="h" d="M186.44,63.68c1.61,0,2.31,1.12,2.31,2.17,0,1.18-.86,2.09-2.24,2.09-1.46,0-2.31-.95-2.31-2.16s.91-2.1,2.24-2.1Zm.04,3.46c.95,0,1.67-.55,1.67-1.32s-.71-1.32-1.69-1.32c-.74,0-1.67,.37-1.67,1.31s.86,1.34,1.69,1.34Z"/></g><g><polygon class="i" points="376.93 114.88 425.72 114.88 425.72 63.13 376.93 114.88"/><polygon class="i" points="376.93 114.88 425.72 63.13 376.93 63.13 376.93 114.88"/><path class="g" d="M366.81,112.8l.59,.47,.6-1.35,.59,.55,.59,.18,.6-.82,.59-.74,.59-1.08,.6-1.82,.59-2.99,.59,2.77,.6,.59,.59-1,.59-.34,.6,2.02,.59-.94,.59-.04,.6-2.3,.59-1.2,.59,.48,.6,.4,.59,.97,.59-1.01,.6,2.31,.59-1.6,.59-3.14,.6,2.77,.59-.97,.59-1.86,.6-.04,.59,.53,.59,3.9,.6-3.08,.59,.22,.59-.05,.6-4.07,.59-.13,.59,2.15,.6,.82,.59-1.7,.59-2.01,.6-1.74,.59,.38,.59,.84,.6,.71,.59-4.1,.59,.51,.6,1.25,.59-5.96,.59,4.45m0,0l.6,.19,.59-2.26,.59,2.22,.6-2.88,.59-4.83,.59-3.78h.6l.59,5.17,.59,6.05,.6,1.1,.59-1.51,.59-6.57,.6-3.74,.59-4.24,.59-2.04,.6-4.1,.59,2.82,.59,2.08,.6,2.06,.59,1.93,.59,3.21,.6,1.8,.59-2.88,.59-10.68,.6-6.27,.59-1,.59,1.72,.6,7.31,.59,3.32,.59,2.4,.6,4.01,.59-4.65,.59,3.49,.6-3.87,.59-3.53,.59,5.23,.6-2.17,.59-.44,.59-.43,.6,4.98,.59,6.5,.59,3.5,.6,2,.59-1.38,.59-.1,.6,5.96,.59,2.94,.59-1.65,.6,3.14m0,0l.59,1.31,.59,1.72,.6,1.1,.59,.88,.59,2.46,.6,1.12,.59,.15h1.79l.59,.02,.6-.08,.59,.07,.59-.06,.6-.52,.59,.38,.59-.36,.6,.33,.59,.08,.59,.12,.6,.04h1.19l.6-.38,.59-1.52,.59-.81,.6,.26,.59,.95,.59,.85,.6,.25,.59,.35,.59-.09,.6-.78,.59,.55,.59-.64,.6-.5,.59-2.08,.59-.34,.6,1.16,.59-.54,.59,.1,.6,.8,.59,.74,.59,.66,.6,.24,.59-.38,.59,.98,.6,.12,.59-.06m0,0l.59,.1,.6-.15h.59"/><path class="c" d="M366.81,114.88h89.25m-89.25,0v-.89m29.75,.89v-.89m59.5,.89v-.89"/><path class="c" d="M366.81,114.88V63.13m0,51.75h1.5m-1.5-12.88h1.5m-1.5-12.88h1.5m-1.5-12.88h1.5"/><g><path class="h" d="M364.67,122.88v.59h-2.22v-.59h2.22Z"/><path class="h" d="M369.23,122.62c0,1.99-.74,3.09-2.03,3.09-1.14,0-1.92-1.07-1.94-3.01,0-1.96,.85-3.04,2.03-3.04s1.94,1.1,1.94,2.96Zm-3.18,.09c0,1.52,.47,2.39,1.19,2.39,.81,0,1.2-.95,1.2-2.44s-.37-2.39-1.19-2.39c-.69,0-1.2,.85-1.2,2.44Z"/><path class="h" d="M370.02,125.14c0-.33,.23-.57,.54-.57s.53,.23,.53,.57-.21,.57-.54,.57c-.32,0-.53-.24-.53-.57Z"/><path class="h" d="M375.32,120.42h-2.23l-.23,1.5c.14-.02,.26-.04,.48-.04,.45,0,.9,.1,1.26,.32,.46,.26,.84,.77,.84,1.5,0,1.14-.91,2-2.18,2-.64,0-1.18-.18-1.46-.36l.2-.6c.24,.14,.72,.32,1.25,.32,.75,0,1.39-.49,1.39-1.27,0-.76-.51-1.3-1.68-1.3-.33,0-.59,.04-.81,.06l.38-2.81h2.8v.67Z"/></g><path class="h" d="M397.76,122.62c0,1.99-.74,3.09-2.03,3.09-1.14,0-1.92-1.07-1.94-3.01,0-1.96,.85-3.04,2.03-3.04s1.94,1.1,1.94,2.96Zm-3.18,.09c0,1.52,.47,2.39,1.19,2.39,.81,0,1.2-.95,1.2-2.44s-.37-2.39-1.19-2.39c-.69,0-1.2,.85-1.2,2.44Z"/><path class="h" d="M455.84,120.49h-.02l-1.02,.55-.15-.6,1.28-.68h.67v5.85h-.77v-5.11Z"/><line class="d" x1="396.56" y1="114.88" x2="396.56" y2="63.13"/><path class="h" d="M363.15,115.03c0,1.99-.74,3.09-2.03,3.09-1.14,0-1.92-1.07-1.94-3.01,0-1.96,.85-3.04,2.03-3.04s1.94,1.1,1.94,2.96Zm-3.18,.09c0,1.52,.47,2.39,1.19,2.39,.81,0,1.2-.95,1.2-2.44s-.37-2.38-1.19-2.38c-.69,0-1.2,.85-1.2,2.44Z"/><path class="h" d="M362.75,99.07h-2.23l-.22,1.5c.13-.02,.26-.04,.48-.04,.45,0,.9,.1,1.26,.32,.46,.26,.84,.76,.84,1.5,0,1.14-.91,2-2.18,2-.64,0-1.18-.18-1.46-.36l.2-.6c.24,.14,.72,.32,1.25,.32,.75,0,1.39-.49,1.39-1.27,0-.76-.51-1.3-1.68-1.3-.33,0-.59,.04-.81,.06l.38-2.81h2.8v.67Z"/><g><path class="h" d="M356.36,86.37h-.02l-1.02,.55-.15-.6,1.28-.68h.67v5.85h-.76v-5.11Z"/><path class="h" d="M363.15,88.5c0,1.99-.74,3.09-2.03,3.09-1.14,0-1.92-1.07-1.94-3.01,0-1.96,.85-3.04,2.03-3.04s1.94,1.1,1.94,2.96Zm-3.18,.09c0,1.52,.47,2.39,1.19,2.39,.81,0,1.2-.95,1.2-2.44s-.37-2.39-1.19-2.39c-.69,0-1.2,.85-1.2,2.44Z"/></g><g><path class="h" d="M356.36,72.61h-.02l-1.02,.55-.15-.6,1.28-.68h.67v5.85h-.76v-5.11Z"/><path class="h" d="M362.75,72.53h-2.23l-.22,1.5c.13-.02,.26-.04,.48-.04,.45,0,.9,.1,1.26,.32,.46,.26,.84,.76,.84,1.5,0,1.14-.91,2-2.18,2-.64,0-1.18-.18-1.46-.36l.2-.6c.24,.14,.72,.32,1.25,.32,.75,0,1.39-.49,1.39-1.27,0-.76-.51-1.3-1.68-1.3-.33,0-.59,.04-.81,.06l.38-2.81h2.8v.67Z"/></g></g><g><path class="h" d="M366.74,133.32h-1.64v-.59h3.99v.59h-1.65v4.8h-.7v-4.8Z"/><path class="h" d="M370.35,133.16c0,.24-.17,.43-.45,.43-.25,0-.42-.19-.42-.43s.18-.44,.44-.44,.43,.19,.43,.44Zm-.78,4.96v-3.87h.7v3.87h-.7Z"/><path class="h" d="M371.44,135.3c0-.4,0-.73-.03-1.05h.62l.03,.62h.02c.22-.37,.58-.71,1.22-.71,.53,0,.93,.32,1.1,.78h.02c.12-.22,.27-.38,.43-.5,.23-.18,.49-.27,.86-.27,.51,0,1.27,.34,1.27,1.68v2.28h-.69v-2.19c0-.74-.27-1.19-.84-1.19-.4,0-.71,.3-.83,.64-.03,.1-.06,.22-.06,.35v2.39h-.69v-2.32c0-.62-.27-1.06-.81-1.06-.44,0-.76,.35-.87,.7-.04,.1-.06,.22-.06,.34v2.33h-.69v-2.82Z"/><path class="h" d="M378.5,136.31c.02,.95,.62,1.34,1.33,1.34,.5,0,.81-.09,1.07-.2l.12,.5c-.25,.11-.67,.24-1.29,.24-1.19,0-1.9-.78-1.9-1.95s.69-2.09,1.81-2.09c1.26,0,1.6,1.11,1.6,1.82,0,.14-.02,.26-.02,.33h-2.72Zm2.06-.5c0-.45-.18-1.14-.98-1.14-.71,0-1.02,.66-1.08,1.14h2.05Z"/><path class="h" d="M383.89,138.12v-3.33h-.54v-.54h.54v-.18c0-.54,.12-1.04,.45-1.35,.26-.26,.62-.36,.94-.36,.25,0,.46,.06,.6,.11l-.1,.54c-.1-.05-.25-.09-.45-.09-.6,0-.75,.53-.75,1.12v.21h.94v.54h-.94v3.33h-.7Z"/><path class="h" d="M386.15,135.46c0-.46,0-.85-.03-1.21h.62l.02,.76h.03c.18-.52,.6-.85,1.07-.85,.08,0,.14,0,.2,.02v.66c-.07-.02-.14-.02-.24-.02-.5,0-.85,.38-.94,.9-.02,.1-.03,.21-.03,.33v2.06h-.7v-2.66Z"/><path class="h" d="M392.19,136.15c0,1.43-.99,2.05-1.93,2.05-1.05,0-1.85-.77-1.85-1.99,0-1.29,.85-2.05,1.92-2.05s1.86,.81,1.86,1.99Zm-3.07,.04c0,.85,.49,1.49,1.17,1.49s1.18-.63,1.18-1.5c0-.66-.33-1.49-1.16-1.49s-1.19,.77-1.19,1.5Z"/><path class="h" d="M393.08,135.3c0-.4,0-.73-.03-1.05h.62l.03,.62h.02c.22-.37,.58-.71,1.22-.71,.53,0,.93,.32,1.1,.78h.02c.12-.22,.27-.38,.43-.5,.23-.18,.49-.27,.86-.27,.51,0,1.27,.34,1.27,1.68v2.28h-.69v-2.19c0-.74-.27-1.19-.84-1.19-.4,0-.71,.3-.83,.64-.03,.1-.06,.22-.06,.35v2.39h-.69v-2.32c0-.62-.27-1.06-.81-1.06-.44,0-.76,.35-.87,.7-.04,.1-.06,.22-.06,.34v2.33h-.69v-2.82Z"/><path class="h" d="M401.35,137.4c.21,.14,.58,.28,.93,.28,.51,0,.75-.26,.75-.58s-.2-.52-.72-.71c-.7-.25-1.02-.63-1.02-1.1,0-.62,.5-1.14,1.33-1.14,.39,0,.74,.11,.95,.24l-.18,.51c-.15-.1-.43-.22-.79-.22-.42,0-.65,.24-.65,.53,0,.32,.23,.46,.74,.66,.67,.26,1.02,.59,1.02,1.17,0,.68-.53,1.16-1.45,1.16-.42,0-.82-.1-1.09-.26l.18-.54Z"/><path class="h" d="M405.46,133.14v1.11h1.01v.54h-1.01v2.09c0,.48,.14,.75,.53,.75,.18,0,.32-.02,.41-.05l.03,.53c-.14,.06-.35,.1-.62,.1-.33,0-.59-.1-.76-.3-.2-.21-.27-.55-.27-1.01v-2.11h-.6v-.54h.6v-.93l.69-.18Z"/><path class="h" d="M408.05,133.16c0,.24-.17,.43-.45,.43-.25,0-.42-.19-.42-.43s.18-.44,.44-.44,.43,.19,.43,.44Zm-.78,4.96v-3.87h.7v3.87h-.7Z"/><path class="h" d="M409.13,135.3c0-.4,0-.73-.03-1.05h.62l.03,.62h.02c.22-.37,.58-.71,1.22-.71,.53,0,.93,.32,1.1,.78h.02c.12-.22,.27-.38,.43-.5,.23-.18,.49-.27,.86-.27,.51,0,1.27,.34,1.27,1.68v2.28h-.69v-2.19c0-.74-.27-1.19-.84-1.19-.4,0-.71,.3-.83,.64-.03,.1-.06,.22-.06,.35v2.39h-.69v-2.32c0-.62-.27-1.06-.81-1.06-.44,0-.76,.35-.87,.7-.04,.1-.06,.22-.06,.34v2.33h-.69v-2.82Z"/><path class="h" d="M419.05,137.07c0,.4,0,.75,.03,1.06h-.62l-.04-.63h-.02c-.18,.31-.59,.72-1.28,.72-.61,0-1.34-.34-1.34-1.7v-2.26h.7v2.14c0,.74,.22,1.23,.86,1.23,.47,0,.8-.33,.93-.64,.04-.1,.06-.23,.06-.36v-2.38h.7v2.81Z"/><path class="h" d="M420.21,132.44h.7v5.68h-.7v-5.68Z"/><path class="h" d="M425.34,137.07c0,.4,0,.75,.03,1.06h-.62l-.04-.63h-.02c-.18,.31-.59,.72-1.28,.72-.61,0-1.34-.34-1.34-1.7v-2.26h.7v2.14c0,.74,.22,1.23,.86,1.23,.47,0,.8-.33,.93-.64,.04-.1,.06-.23,.06-.36v-2.38h.7v2.81Z"/><path class="h" d="M426.41,137.4c.21,.14,.58,.28,.93,.28,.51,0,.75-.26,.75-.58s-.2-.52-.72-.71c-.7-.25-1.02-.63-1.02-1.1,0-.62,.5-1.14,1.33-1.14,.39,0,.74,.11,.95,.24l-.18,.51c-.15-.1-.43-.22-.79-.22-.42,0-.65,.24-.65,.53,0,.32,.23,.46,.74,.66,.67,.26,1.02,.59,1.02,1.17,0,.68-.53,1.16-1.45,1.16-.42,0-.82-.1-1.09-.26l.18-.54Z"/><path class="h" d="M434.88,136.15c0,1.43-.99,2.05-1.93,2.05-1.05,0-1.85-.77-1.85-1.99,0-1.29,.85-2.05,1.92-2.05s1.86,.81,1.86,1.99Zm-3.07,.04c0,.85,.49,1.49,1.17,1.49s1.18-.63,1.18-1.5c0-.66-.33-1.49-1.16-1.49s-1.19,.77-1.19,1.5Z"/><path class="h" d="M435.77,135.3c0-.4,0-.73-.03-1.05h.62l.04,.64h.02c.19-.37,.64-.73,1.28-.73,.54,0,1.37,.32,1.37,1.65v2.31h-.7v-2.23c0-.62-.23-1.14-.9-1.14-.46,0-.82,.33-.94,.72-.03,.09-.05,.21-.05,.33v2.33h-.7v-2.82Z"/><path class="h" d="M440.11,137.4c.21,.14,.58,.28,.93,.28,.51,0,.75-.26,.75-.58s-.2-.52-.72-.71c-.7-.25-1.02-.63-1.02-1.1,0-.62,.5-1.14,1.34-1.14,.39,0,.74,.11,.95,.24l-.18,.51c-.15-.1-.43-.22-.79-.22-.42,0-.65,.24-.65,.53,0,.32,.23,.46,.74,.66,.67,.26,1.02,.59,1.02,1.17,0,.68-.53,1.16-1.45,1.16-.42,0-.82-.1-1.09-.26l.18-.54Z"/><path class="h" d="M443.77,136.31c.02,.95,.62,1.34,1.33,1.34,.5,0,.81-.09,1.07-.2l.12,.5c-.25,.11-.67,.24-1.29,.24-1.19,0-1.9-.78-1.9-1.95s.69-2.09,1.82-2.09c1.26,0,1.6,1.11,1.6,1.82,0,.14-.02,.26-.02,.33h-2.72Zm2.06-.5c0-.45-.18-1.14-.98-1.14-.71,0-1.02,.66-1.08,1.14h2.06Z"/><path class="h" d="M448.23,133.14v1.11h1.01v.54h-1.01v2.09c0,.48,.14,.75,.53,.75,.18,0,.32-.02,.41-.05l.03,.53c-.14,.06-.35,.1-.62,.1-.33,0-.59-.1-.76-.3-.2-.21-.27-.55-.27-1.01v-2.11h-.6v-.54h.6v-.93l.69-.18Z"/><path class="h" d="M451.8,139.02v-6.37h1.46v.44h-.92v5.49h.92v.44h-1.46Z"/><path class="h" d="M453.9,137.4c.21,.14,.58,.28,.93,.28,.51,0,.75-.26,.75-.58s-.2-.52-.72-.71c-.7-.25-1.02-.63-1.02-1.1,0-.62,.5-1.14,1.33-1.14,.39,0,.74,.11,.95,.24l-.18,.51c-.15-.1-.43-.22-.79-.22-.42,0-.65,.24-.65,.53,0,.32,.23,.46,.74,.66,.67,.26,1.02,.59,1.02,1.17,0,.68-.53,1.16-1.45,1.16-.42,0-.82-.1-1.09-.26l.18-.54Z"/><path class="h" d="M458.2,132.64v6.38h-1.46v-.44h.92v-5.5h-.92v-.44h1.46Z"/></g><g><path class="h" d="M340.5,120v-.78h5.41v-2.59h.66v3.38h-6.07Z"/><path class="h" d="M340.98,114.9c.27,0,.49,.19,.49,.5,0,.28-.22,.48-.49,.48s-.5-.21-.5-.5,.22-.49,.5-.49Zm5.58,.88h-4.36v-.79h4.36v.79Z"/><path class="h" d="M344.21,112.89v-.02c-.15-.11-.34-.26-.5-.39l-1.5-1.28v-.95l1.79,1.68,2.57-1.92v.96l-2.09,1.5,.45,.41h1.64v.78h-6.39v-.78h4.03Z"/><path class="h" d="M344.53,109.01c1.07-.02,1.51-.7,1.51-1.49,0-.57-.1-.91-.22-1.21l.57-.13c.13,.28,.27,.76,.27,1.45,0,1.34-.88,2.14-2.2,2.14s-2.35-.77-2.35-2.04c0-1.42,1.25-1.8,2.05-1.8,.16,0,.29,.02,.37,.03v3.06Zm-.57-2.32c-.5,0-1.29,.21-1.29,1.1,0,.8,.74,1.15,1.29,1.22v-2.31Z"/><path class="h" d="M340.17,104.94v-.79h6.39v.79h-6.39Z"/><path class="h" d="M340.98,101.94c.27,0,.49,.19,.49,.5,0,.28-.22,.48-.49,.48s-.5-.21-.5-.5,.22-.49,.5-.49Zm5.58,.88h-4.36v-.79h4.36v.79Z"/><path class="h" d="M340.17,100.71v-.79h2.72v-.02c-.23-.13-.42-.32-.56-.57-.13-.23-.22-.51-.22-.81,0-.59,.36-1.52,1.86-1.52h2.59v.79h-2.5c-.7,0-1.3,.26-1.3,1.01,0,.51,.36,.92,.79,1.06,.11,.04,.22,.05,.38,.05h2.63v.79h-6.39Z"/><path class="h" d="M344.35,91.78c1.61,0,2.31,1.12,2.31,2.17,0,1.18-.86,2.09-2.24,2.09-1.46,0-2.31-.95-2.31-2.16s.91-2.1,2.24-2.1Zm.04,3.46c.95,0,1.67-.55,1.67-1.32s-.71-1.32-1.69-1.32c-.74,0-1.67,.37-1.67,1.31s.86,1.34,1.69,1.34Z"/><path class="h" d="M344.35,86.83c1.61,0,2.31,1.12,2.31,2.17,0,1.18-.86,2.09-2.24,2.09-1.46,0-2.31-.96-2.31-2.16s.91-2.1,2.24-2.1Zm.04,3.46c.95,0,1.67-.55,1.67-1.32s-.71-1.32-1.69-1.32c-.74,0-1.67,.37-1.67,1.31s.86,1.34,1.69,1.34Z"/><path class="h" d="M340.17,82.07h5.27c.39,0,.83,0,1.12-.04v.71l-.76,.04v.02c.49,.24,.85,.77,.85,1.49,0,1.05-.89,1.86-2.21,1.86-1.45,0-2.34-.89-2.34-1.95,0-.67,.31-1.12,.67-1.31v-.02h-2.6v-.79Zm3.81,.79c-.1,0-.23,0-.33,.04-.5,.12-.92,.55-.92,1.14,0,.82,.72,1.31,1.68,1.31,.88,0,1.61-.43,1.61-1.29,0-.53-.35-1.02-.95-1.16-.11-.03-.22-.04-.34-.04h-.76Z"/><path class="h" d="M343.57,78.85c-.51,0-.95,0-1.36,.04v-.69l.86-.03v-.04c-.58-.2-.95-.68-.95-1.21,0-.09,0-.15,.03-.22h.75c-.02,.08-.03,.16-.03,.27,0,.56,.42,.95,1.02,1.06,.11,.02,.23,.04,.37,.04h2.32v.78h-3Z"/><path class="h" d="M346.56,73.54l-.55,.06v.03c.34,.24,.65,.71,.65,1.33,0,.88-.62,1.33-1.25,1.33-1.05,0-1.63-.94-1.62-2.62h-.09c-.36,0-1.01,.1-1.01,.99,0,.41,.13,.83,.32,1.13l-.52,.18c-.23-.36-.39-.88-.39-1.43,0-1.33,.91-1.66,1.78-1.66h1.63c.38,0,.75-.02,1.04-.07v.72Zm-2.22,.12c-.02,.86,.13,1.85,.98,1.85,.51,0,.76-.34,.76-.75,0-.57-.36-.93-.73-1.05-.08-.03-.17-.04-.25-.04h-.76Z"/><path class="h" d="M340.96,70.7h1.25v-1.13h.6v1.13h2.35c.54,0,.85-.15,.85-.59,0-.21-.03-.36-.05-.46l.59-.04c.06,.15,.11,.4,.11,.7,0,.37-.12,.67-.33,.86-.23,.23-.62,.31-1.13,.31h-2.38v.67h-.6v-.67h-1.04l-.21-.77Z"/><path class="h" d="M340.98,67.79c.27,0,.49,.19,.49,.5,0,.28-.22,.48-.49,.48s-.5-.21-.5-.5,.22-.49,.5-.49Zm5.58,.88h-4.36v-.79h4.36v.79Z"/><path class="h" d="M344.35,62.62c1.61,0,2.31,1.12,2.31,2.17,0,1.18-.86,2.09-2.24,2.09-1.46,0-2.31-.95-2.31-2.16s.91-2.1,2.24-2.1Zm.04,3.46c.95,0,1.67-.55,1.67-1.32s-.71-1.32-1.69-1.32c-.74,0-1.67,.37-1.67,1.31s.86,1.34,1.69,1.34Z"/></g><path class="h" d="M177.12,47.8v-11.45h2.2v4.12c.68-.77,1.48-1.16,2.41-1.16,1.01,0,1.85,.37,2.51,1.1,.66,.73,.99,1.78,.99,3.15s-.34,2.51-1.01,3.27c-.67,.77-1.49,1.15-2.46,1.15-.47,0-.94-.12-1.4-.36s-.86-.59-1.19-1.05v1.22h-2.04Zm2.18-4.33c0,.86,.14,1.5,.41,1.91,.38,.58,.89,.88,1.52,.88,.48,0,.9-.21,1.24-.62,.34-.41,.51-1.07,.51-1.96,0-.95-.17-1.63-.52-2.05-.34-.42-.78-.63-1.32-.63s-.96,.2-1.31,.61c-.35,.41-.52,1.03-.52,1.86Z"/><path class="h" d="M330.58,40.47l-2.16,.39c-.07-.43-.24-.76-.5-.98s-.59-.33-1-.33c-.55,0-.98,.19-1.31,.57-.33,.38-.49,1.01-.49,1.89,0,.98,.17,1.68,.5,2.09s.77,.61,1.33,.61c.42,0,.76-.12,1.02-.36,.27-.24,.45-.64,.56-1.22l2.16,.37c-.22,.99-.65,1.74-1.29,2.24-.64,.51-1.49,.76-2.55,.76-1.21,0-2.18-.38-2.9-1.15s-1.08-1.82-1.08-3.18,.36-2.44,1.09-3.2c.72-.76,1.7-1.14,2.94-1.14,1.01,0,1.81,.22,2.41,.65,.6,.44,1.02,1.1,1.29,1.99Z"/><g><path class="h" d="M361.65,48.56v4.68c0,.34,0,.74,.03,1h-.63l-.03-.67h-.02c-.22,.43-.69,.76-1.32,.76-.94,0-1.66-.79-1.66-1.97,0-1.29,.79-2.08,1.74-2.08,.59,0,.99,.28,1.17,.59h.02v-2.31h.7Zm-.7,3.38c0-.09,0-.21-.03-.3-.1-.45-.49-.82-1.02-.82-.73,0-1.16,.64-1.16,1.5,0,.78,.38,1.43,1.14,1.43,.47,0,.9-.31,1.03-.84,.02-.1,.03-.19,.03-.3v-.67Z"/><path class="h" d="M363.71,52.54l-.56,1.7h-.72l1.83-5.39h.84l1.84,5.39h-.74l-.58-1.7h-1.91Zm1.77-.54l-.53-1.55c-.12-.35-.2-.67-.28-.98h-.02c-.08,.32-.17,.65-.27,.98l-.53,1.56h1.62Z"/><path class="h" d="M371.38,54.06c-.26,.13-.77,.26-1.42,.26-1.52,0-2.66-.96-2.66-2.73s1.14-2.83,2.81-2.83c.67,0,1.09,.14,1.28,.24l-.17,.57c-.26-.13-.64-.22-1.09-.22-1.26,0-2.1,.81-2.1,2.22,0,1.32,.76,2.17,2.07,2.17,.42,0,.86-.09,1.14-.22l.14,.55Z"/><path class="h" d="M375.86,54.06c-.26,.13-.77,.26-1.42,.26-1.52,0-2.66-.96-2.66-2.73s1.14-2.83,2.81-2.83c.67,0,1.09,.14,1.28,.24l-.17,.57c-.26-.13-.64-.22-1.09-.22-1.26,0-2.1,.81-2.1,2.22,0,1.32,.76,2.17,2.07,2.17,.42,0,.86-.09,1.14-.22l.14,.55Z"/><path class="h" d="M378.79,52.43c.02,.95,.62,1.34,1.33,1.34,.5,0,.81-.09,1.07-.2l.12,.5c-.25,.11-.67,.24-1.29,.24-1.19,0-1.9-.78-1.9-1.95s.69-2.09,1.81-2.09c1.26,0,1.6,1.11,1.6,1.82,0,.14-.02,.26-.02,.33h-2.72Zm2.06-.5c0-.45-.18-1.14-.98-1.14-.71,0-1.02,.66-1.08,1.14h2.05Z"/><path class="h" d="M382.41,51.58c0-.46,0-.85-.03-1.21h.62l.02,.76h.03c.18-.52,.6-.85,1.07-.85,.08,0,.14,0,.2,.02v.66c-.07-.02-.14-.02-.24-.02-.5,0-.85,.38-.94,.9-.02,.1-.03,.21-.03,.33v2.06h-.7v-2.66Z"/><path class="h" d="M385.06,51.58c0-.46,0-.85-.03-1.21h.62l.02,.76h.03c.18-.52,.6-.85,1.07-.85,.08,0,.14,0,.2,.02v.66c-.07-.02-.14-.02-.24-.02-.5,0-.85,.38-.94,.9-.02,.1-.03,.21-.03,.33v2.06h-.7v-2.66Z"/><path class="h" d="M391.1,52.27c0,1.43-.99,2.05-1.93,2.05-1.05,0-1.86-.77-1.86-1.99,0-1.29,.85-2.05,1.92-2.05s1.86,.81,1.86,1.99Zm-3.07,.04c0,.85,.49,1.49,1.18,1.49s1.17-.63,1.17-1.5c0-.66-.33-1.49-1.16-1.49s-1.19,.77-1.19,1.5Z"/><path class="h" d="M391.99,51.58c0-.46,0-.85-.03-1.21h.62l.02,.76h.03c.18-.52,.6-.85,1.07-.85,.08,0,.14,0,.2,.02v.66c-.07-.02-.14-.02-.24-.02-.5,0-.85,.38-.94,.9-.02,.1-.03,.21-.03,.33v2.06h-.7v-2.66Z"/><path class="h" d="M396.19,51.81v.52h-1.98v-.52h1.98Z"/><path class="h" d="M397.8,49.28c0,.24-.17,.43-.45,.43-.25,0-.42-.19-.42-.43s.18-.44,.44-.44,.43,.19,.43,.44Zm-.78,4.96v-3.87h.7v3.87h-.7Z"/><path class="h" d="M398.89,51.42c0-.4,0-.73-.03-1.05h.62l.04,.64h.02c.19-.37,.64-.73,1.28-.73,.54,0,1.37,.32,1.37,1.65v2.31h-.7v-2.23c0-.62-.23-1.14-.9-1.14-.46,0-.82,.33-.94,.72-.03,.09-.05,.21-.05,.33v2.33h-.7v-2.82Z"/><path class="h" d="M404.15,49.26v1.11h1.01v.54h-1.01v2.09c0,.48,.14,.75,.53,.75,.18,0,.32-.02,.41-.05l.03,.53c-.14,.06-.35,.1-.62,.1-.33,0-.59-.1-.76-.3-.2-.21-.27-.55-.27-1.01v-2.11h-.6v-.54h.6v-.93l.69-.18Z"/><path class="h" d="M406.29,52.43c.02,.95,.62,1.34,1.33,1.34,.5,0,.81-.09,1.07-.2l.12,.5c-.25,.11-.67,.24-1.29,.24-1.19,0-1.9-.78-1.9-1.95s.69-2.09,1.82-2.09c1.26,0,1.6,1.11,1.6,1.82,0,.14-.02,.26-.02,.33h-2.72Zm2.06-.5c0-.45-.18-1.14-.98-1.14-.71,0-1.02,.66-1.08,1.14h2.06Z"/><path class="h" d="M413.24,50.37c-.02,.28-.03,.59-.03,1.06v2.25c0,.89-.18,1.43-.55,1.77-.38,.35-.92,.46-1.41,.46s-.98-.11-1.29-.32l.18-.54c.26,.16,.66,.3,1.14,.3,.72,0,1.25-.38,1.25-1.35v-.43h-.02c-.22,.36-.63,.65-1.23,.65-.96,0-1.65-.82-1.65-1.89,0-1.31,.86-2.05,1.74-2.05,.67,0,1.04,.35,1.21,.67h.02l.03-.58h.62Zm-.73,1.53c0-.12,0-.22-.04-.32-.13-.41-.47-.74-.98-.74-.67,0-1.15,.57-1.15,1.46,0,.76,.38,1.39,1.14,1.39,.43,0,.82-.27,.98-.72,.04-.12,.06-.26,.06-.38v-.7Z"/><path class="h" d="M414.33,51.58c0-.46,0-.85-.03-1.21h.62l.02,.76h.03c.18-.52,.6-.85,1.07-.85,.08,0,.14,0,.2,.02v.66c-.07-.02-.14-.02-.24-.02-.5,0-.85,.38-.94,.9-.02,.1-.03,.21-.03,.33v2.06h-.7v-2.66Z"/><path class="h" d="M419.05,54.24l-.06-.49h-.02c-.22,.3-.63,.58-1.18,.58-.78,0-1.18-.55-1.18-1.11,0-.94,.83-1.45,2.33-1.44v-.08c0-.32-.09-.9-.88-.9-.36,0-.74,.11-1.01,.29l-.16-.46c.32-.21,.78-.34,1.27-.34,1.18,0,1.47,.81,1.47,1.58v1.45c0,.34,.02,.66,.06,.93h-.64Zm-.1-1.97c-.77-.02-1.64,.12-1.64,.87,0,.46,.3,.67,.66,.67,.5,0,.82-.32,.94-.65,.02-.07,.04-.15,.04-.22v-.67Z"/><path class="h" d="M421.58,49.26v1.11h1.01v.54h-1.01v2.09c0,.48,.14,.75,.53,.75,.18,0,.32-.02,.41-.05l.03,.53c-.14,.06-.35,.1-.62,.1-.33,0-.59-.1-.76-.3-.2-.21-.27-.55-.27-1.01v-2.11h-.6v-.54h.6v-.93l.69-.18Z"/><path class="h" d="M424.16,49.28c0,.24-.17,.43-.45,.43-.25,0-.42-.19-.42-.43s.18-.44,.44-.44,.43,.19,.43,.44Zm-.78,4.96v-3.87h.7v3.87h-.7Z"/><path class="h" d="M425.25,51.42c0-.4,0-.73-.03-1.05h.62l.04,.64h.02c.19-.37,.64-.73,1.28-.73,.54,0,1.37,.32,1.37,1.65v2.31h-.7v-2.23c0-.62-.23-1.14-.9-1.14-.46,0-.82,.33-.94,.72-.03,.09-.05,.21-.05,.33v2.33h-.7v-2.82Z"/><path class="h" d="M433.02,50.37c-.02,.28-.03,.59-.03,1.06v2.25c0,.89-.18,1.43-.55,1.77-.38,.35-.92,.46-1.41,.46-.46,0-.97-.11-1.29-.32l.18-.54c.26,.16,.66,.3,1.14,.3,.72,0,1.25-.38,1.25-1.35v-.43h-.02c-.22,.36-.63,.65-1.23,.65-.96,0-1.65-.82-1.65-1.89,0-1.31,.86-2.05,1.74-2.05,.67,0,1.04,.35,1.21,.67h.02l.03-.58h.62Zm-.73,1.53c0-.12,0-.22-.04-.32-.13-.41-.47-.74-.98-.74-.67,0-1.15,.57-1.15,1.46,0,.76,.38,1.39,1.14,1.39,.43,0,.82-.27,.98-.72,.04-.12,.06-.26,.06-.38v-.7Z"/><path class="h" d="M435.86,51.42c0-.4,0-.73-.03-1.05h.62l.04,.64h.02c.19-.37,.64-.73,1.28-.73,.54,0,1.37,.32,1.37,1.65v2.31h-.7v-2.23c0-.62-.23-1.14-.9-1.14-.46,0-.82,.33-.94,.72-.03,.09-.05,.21-.05,.33v2.33h-.7v-2.82Z"/><path class="h" d="M440.69,52.43c.02,.95,.62,1.34,1.33,1.34,.5,0,.81-.09,1.07-.2l.12,.5c-.25,.11-.67,.24-1.29,.24-1.19,0-1.9-.78-1.9-1.95s.69-2.09,1.82-2.09c1.26,0,1.6,1.11,1.6,1.82,0,.14-.02,.26-.02,.33h-2.72Zm2.06-.5c0-.45-.18-1.14-.98-1.14-.71,0-1.02,.66-1.08,1.14h2.05Z"/><path class="h" d="M447.54,53.18c0,.4,0,.75,.03,1.06h-.62l-.04-.63h-.02c-.18,.31-.59,.72-1.28,.72-.61,0-1.33-.34-1.33-1.7v-2.26h.7v2.14c0,.74,.22,1.23,.86,1.23,.47,0,.8-.33,.93-.64,.04-.1,.06-.23,.06-.36v-2.38h.7v2.81Z"/><path class="h" d="M448.71,51.58c0-.46,0-.85-.03-1.21h.62l.02,.76h.03c.18-.52,.6-.85,1.07-.85,.08,0,.14,0,.2,.02v.66c-.07-.02-.14-.02-.24-.02-.5,0-.85,.38-.94,.9-.02,.1-.03,.21-.03,.33v2.06h-.7v-2.66Z"/><path class="h" d="M454.75,52.27c0,1.43-.99,2.05-1.93,2.05-1.05,0-1.86-.77-1.86-1.99,0-1.29,.85-2.05,1.92-2.05s1.86,.81,1.86,1.99Zm-3.07,.04c0,.85,.49,1.49,1.17,1.49s1.18-.63,1.18-1.5c0-.66-.33-1.49-1.16-1.49s-1.19,.77-1.19,1.5Z"/><path class="h" d="M455.64,51.42c0-.4,0-.73-.03-1.05h.62l.04,.64h.02c.19-.37,.64-.73,1.28-.73,.54,0,1.37,.32,1.37,1.65v2.31h-.7v-2.23c0-.62-.23-1.14-.9-1.14-.46,0-.82,.33-.94,.72-.03,.09-.05,.21-.05,.33v2.33h-.7v-2.82Z"/><path class="h" d="M459.99,53.52c.21,.14,.58,.28,.93,.28,.51,0,.75-.26,.75-.58s-.2-.52-.72-.71c-.7-.25-1.02-.63-1.02-1.1,0-.62,.5-1.14,1.33-1.14,.39,0,.74,.11,.95,.24l-.18,.51c-.15-.1-.43-.22-.79-.22-.42,0-.65,.24-.65,.53,0,.32,.23,.46,.74,.66,.67,.26,1.02,.59,1.02,1.17,0,.68-.53,1.16-1.45,1.16-.42,0-.82-.1-1.09-.26l.18-.54Z"/></g><g><path class="h" d="M222.9,48.56v4.68c0,.34,0,.74,.03,1h-.63l-.03-.67h-.02c-.22,.43-.69,.76-1.32,.76-.94,0-1.66-.79-1.66-1.97,0-1.29,.79-2.08,1.74-2.08,.59,0,.99,.28,1.17,.59h.02v-2.31h.7Zm-.7,3.38c0-.09,0-.21-.03-.3-.1-.45-.49-.82-1.02-.82-.73,0-1.16,.64-1.16,1.5,0,.78,.38,1.43,1.14,1.43,.47,0,.9-.31,1.03-.84,.02-.1,.03-.19,.03-.3v-.67Z"/><path class="h" d="M224.97,52.54l-.56,1.7h-.72l1.83-5.39h.84l1.84,5.39h-.74l-.58-1.7h-1.91Zm1.77-.54l-.53-1.55c-.12-.35-.2-.67-.28-.98h-.02c-.08,.32-.17,.65-.27,.98l-.53,1.56h1.62Z"/><path class="h" d="M232.64,54.06c-.26,.13-.77,.26-1.42,.26-1.52,0-2.66-.96-2.66-2.73s1.14-2.83,2.81-2.83c.67,0,1.1,.14,1.28,.24l-.17,.57c-.26-.13-.64-.22-1.09-.22-1.26,0-2.1,.81-2.1,2.22,0,1.32,.76,2.17,2.07,2.17,.42,0,.86-.09,1.14-.22l.14,.55Z"/><path class="h" d="M237.11,54.06c-.26,.13-.77,.26-1.42,.26-1.52,0-2.66-.96-2.66-2.73s1.14-2.83,2.81-2.83c.67,0,1.1,.14,1.28,.24l-.17,.57c-.26-.13-.64-.22-1.09-.22-1.26,0-2.1,.81-2.1,2.22,0,1.32,.76,2.17,2.07,2.17,.42,0,.86-.09,1.14-.22l.14,.55Z"/><path class="h" d="M240.05,52.43c.02,.95,.62,1.34,1.33,1.34,.5,0,.81-.09,1.07-.2l.12,.5c-.25,.11-.67,.24-1.29,.24-1.19,0-1.9-.78-1.9-1.95s.69-2.09,1.81-2.09c1.26,0,1.6,1.11,1.6,1.82,0,.14-.02,.26-.02,.33h-2.72Zm2.06-.5c0-.45-.18-1.14-.98-1.14-.71,0-1.02,.66-1.08,1.14h2.05Z"/><path class="h" d="M243.66,51.58c0-.46,0-.85-.03-1.21h.62l.02,.76h.03c.18-.52,.6-.85,1.07-.85,.08,0,.14,0,.2,.02v.66c-.07-.02-.14-.02-.24-.02-.5,0-.85,.38-.94,.9-.02,.1-.03,.21-.03,.33v2.06h-.7v-2.66Z"/><path class="h" d="M246.31,51.58c0-.46,0-.85-.03-1.21h.62l.02,.76h.03c.18-.52,.6-.85,1.07-.85,.08,0,.14,0,.2,.02v.66c-.07-.02-.14-.02-.24-.02-.5,0-.85,.38-.94,.9-.02,.1-.03,.21-.03,.33v2.06h-.7v-2.66Z"/><path class="h" d="M252.35,52.27c0,1.43-.99,2.05-1.93,2.05-1.05,0-1.85-.77-1.85-1.99,0-1.29,.85-2.05,1.92-2.05s1.86,.81,1.86,1.99Zm-3.07,.04c0,.85,.49,1.49,1.18,1.49s1.18-.63,1.18-1.5c0-.66-.33-1.49-1.16-1.49s-1.19,.77-1.19,1.5Z"/><path class="h" d="M253.24,51.58c0-.46,0-.85-.03-1.21h.62l.02,.76h.03c.18-.52,.6-.85,1.07-.85,.08,0,.14,0,.2,.02v.66c-.07-.02-.14-.02-.24-.02-.5,0-.85,.38-.94,.9-.02,.1-.03,.21-.03,.33v2.06h-.7v-2.66Z"/><path class="h" d="M257.55,51.42c0-.4,0-.73-.03-1.05h.62l.04,.64h.02c.19-.37,.64-.73,1.28-.73,.54,0,1.37,.32,1.37,1.65v2.31h-.7v-2.23c0-.62-.23-1.14-.9-1.14-.46,0-.82,.33-.94,.72-.03,.09-.05,.21-.05,.33v2.33h-.7v-2.82Z"/><path class="h" d="M262.38,52.43c.02,.95,.62,1.34,1.33,1.34,.5,0,.81-.09,1.07-.2l.12,.5c-.25,.11-.67,.24-1.29,.24-1.19,0-1.9-.78-1.9-1.95s.69-2.09,1.82-2.09c1.26,0,1.6,1.11,1.6,1.82,0,.14-.02,.26-.02,.33h-2.72Zm2.06-.5c0-.45-.18-1.14-.97-1.14-.71,0-1.02,.66-1.08,1.14h2.05Z"/><path class="h" d="M269.24,53.18c0,.4,0,.75,.03,1.06h-.62l-.04-.63h-.02c-.18,.31-.59,.72-1.28,.72-.61,0-1.34-.34-1.34-1.7v-2.26h.7v2.14c0,.74,.22,1.23,.86,1.23,.47,0,.8-.33,.93-.64,.04-.1,.06-.23,.06-.36v-2.38h.7v2.81Z"/><path class="h" d="M270.41,51.58c0-.46,0-.85-.03-1.21h.62l.02,.76h.03c.18-.52,.6-.85,1.07-.85,.08,0,.14,0,.2,.02v.66c-.07-.02-.14-.02-.24-.02-.5,0-.85,.38-.94,.9-.02,.1-.03,.21-.03,.33v2.06h-.7v-2.66Z"/><path class="h" d="M276.45,52.27c0,1.43-.99,2.05-1.93,2.05-1.05,0-1.85-.77-1.85-1.99,0-1.29,.85-2.05,1.92-2.05s1.86,.81,1.86,1.99Zm-3.07,.04c0,.85,.49,1.49,1.17,1.49s1.18-.63,1.18-1.5c0-.66-.33-1.49-1.16-1.49s-1.19,.77-1.19,1.5Z"/><path class="h" d="M277.33,51.42c0-.4,0-.73-.03-1.05h.62l.04,.64h.02c.19-.37,.64-.73,1.28-.73,.54,0,1.37,.32,1.37,1.65v2.31h-.7v-2.23c0-.62-.23-1.14-.9-1.14-.46,0-.82,.33-.94,.72-.03,.09-.05,.21-.05,.33v2.33h-.7v-2.82Z"/><path class="h" d="M281.68,53.52c.21,.14,.58,.28,.93,.28,.51,0,.75-.26,.75-.58s-.2-.52-.72-.71c-.7-.25-1.02-.63-1.02-1.1,0-.62,.5-1.14,1.33-1.14,.39,0,.74,.11,.95,.24l-.18,.51c-.15-.1-.43-.22-.79-.22-.42,0-.65,.24-.65,.53,0,.32,.23,.46,.74,.66,.67,.26,1.01,.59,1.01,1.17,0,.68-.53,1.16-1.45,1.16-.42,0-.82-.1-1.09-.26l.18-.54Z"/></g><path class="h" d="M2.22,2.72L.23,2.36C.45,1.56,.84,.96,1.38,.58c.55-.39,1.36-.58,2.44-.58,.98,0,1.71,.12,2.19,.35,.48,.23,.82,.53,1.01,.88,.2,.36,.29,1.01,.29,1.96l-.02,2.56c0,.73,.04,1.27,.11,1.61,.07,.35,.2,.72,.39,1.11h-2.17c-.06-.15-.13-.36-.21-.65-.04-.13-.06-.22-.08-.26-.38,.36-.78,.64-1.2,.82-.43,.18-.88,.27-1.37,.27-.85,0-1.53-.23-2.02-.7-.49-.46-.74-1.05-.74-1.76,0-.47,.11-.89,.34-1.25,.22-.37,.54-.65,.94-.84,.4-.2,.99-.37,1.75-.51,1.03-.19,1.74-.37,2.13-.54v-.22c0-.42-.1-.72-.31-.9-.21-.18-.6-.27-1.18-.27-.39,0-.7,.08-.91,.23-.22,.15-.4,.42-.53,.81Zm2.94,1.78c-.28,.09-.73,.21-1.34,.34-.61,.13-1.01,.26-1.2,.38-.29,.2-.43,.46-.43,.77s.11,.57,.34,.8c.23,.22,.52,.34,.88,.34,.4,0,.77-.13,1.13-.39,.27-.2,.44-.44,.52-.73,.06-.19,.09-.54,.09-1.07v-.44Z"/></svg>