<?xml version="1.0" encoding="UTF-8"?><svg id="a" xmlns="http://www.w3.org/2000/svg" viewBox="0 0 505.15 173.95"><defs><style>.b,.c{stroke-width:.7px;}.b,.c,.d,.e,.f,.g,.h,.i,.j,.k,.l,.m,.n,.o,.p,.q,.r,.s,.t,.u{fill:none;}.b,.c,.d,.e,.f,.h,.i,.j,.p,.s,.t{stroke-linecap:square;}.b,.c,.f,.p{stroke:#000;}.b,.t{stroke-linejoin:round;}.c,.d,.e,.f,.h,.i,.j,.p,.s,.u{stroke-miterlimit:10;}.d,.e,.f,.g,.m,.n,.o{stroke-width:.75px;}.d,.g,.o,.s{stroke:gray;}.e{stroke:#262626;}.g{stroke-dasharray:0 0 2 2;}.g,.k,.l,.m,.n,.o,.q,.r{stroke-linejoin:bevel;}.v{fill:#010101;}.w{fill:#231f20;}.x{fill:#85d0cc;}.h,.n,.r{stroke:#d9b466;}.h,.q,.r,.t{stroke-width:2px;}.i,.j{stroke-width:2px;}.i,.k{stroke:#3ea1da;}.j{stroke:#ed2224;}.k,.l,.p,.s{stroke-width:1.5px;}.l{stroke:#df3027;}.m,.q{stroke:#5bb4ac;}.o{stroke-dasharray:0 0 1 1;}.t{stroke:#cc3432;}.u{stroke:#231f20;stroke-width:.5px;}</style></defs><g><g><line class="t" x1="137.86" y1="21.69" x2="127.86" y2="21.69"/><g><path class="v" d="M143.63,21.53h-1.83v1.7h2.04v.51h-2.65v-4.72h2.55v.51h-1.94v1.49h1.83v.5Z"/><path class="v" d="M144.61,21.41c0-.4,0-.74-.03-1.06h.54l.02,.67h.03c.15-.46,.52-.74,.94-.74,.07,0,.12,0,.17,.02v.58c-.06-.01-.13-.02-.21-.02-.43,0-.74,.33-.83,.79-.01,.08-.03,.18-.03,.29v1.81h-.61v-2.33Z"/><path class="v" d="M146.93,21.41c0-.4,0-.74-.03-1.06h.54l.02,.67h.03c.15-.46,.52-.74,.94-.74,.07,0,.12,0,.17,.02v.58c-.06-.01-.13-.02-.21-.02-.43,0-.74,.33-.83,.79-.01,.08-.03,.18-.03,.29v1.81h-.61v-2.33Z"/><path class="v" d="M152.22,22.02c0,1.25-.87,1.8-1.69,1.8-.92,0-1.62-.67-1.62-1.74,0-1.13,.74-1.8,1.68-1.8s1.63,.71,1.63,1.74Zm-2.69,.04c0,.74,.43,1.3,1.03,1.3s1.03-.55,1.03-1.32c0-.57-.29-1.3-1.02-1.3s-1.04,.67-1.04,1.32Z"/><path class="v" d="M152.99,21.41c0-.4,0-.74-.03-1.06h.54l.02,.67h.03c.15-.46,.52-.74,.94-.74,.07,0,.12,0,.17,.02v.58c-.06-.01-.13-.02-.21-.02-.43,0-.74,.33-.83,.79-.01,.08-.03,.18-.03,.29v1.81h-.61v-2.33Z"/></g><line class="i" x1="137.86" y1="30.62" x2="127.86" y2="30.62"/><g><path class="v" d="M144.6,32.52c-.22,.11-.67,.22-1.25,.22-1.33,0-2.33-.84-2.33-2.39s1-2.48,2.47-2.48c.59,0,.96,.13,1.12,.21l-.15,.5c-.23-.11-.56-.2-.95-.2-1.11,0-1.84,.71-1.84,1.95,0,1.16,.67,1.9,1.81,1.9,.37,0,.75-.08,.99-.2l.13,.48Z"/><path class="v" d="M148.33,30.95c0,1.25-.87,1.8-1.69,1.8-.92,0-1.62-.67-1.62-1.74,0-1.13,.74-1.8,1.68-1.8s1.63,.71,1.63,1.74Zm-2.69,.04c0,.74,.43,1.3,1.03,1.3s1.03-.55,1.03-1.32c0-.57-.29-1.3-1.02-1.3s-1.04,.67-1.04,1.32Z"/><path class="v" d="M149.1,30.34c0-.4,0-.74-.03-1.06h.54l.02,.67h.03c.15-.46,.52-.74,.94-.74,.07,0,.12,0,.17,.02v.58c-.06-.01-.13-.02-.21-.02-.43,0-.74,.33-.83,.79-.01,.08-.03,.18-.03,.29v1.81h-.61v-2.33Z"/><path class="v" d="M151.42,30.34c0-.4,0-.74-.03-1.06h.54l.02,.67h.03c.15-.46,.52-.74,.94-.74,.07,0,.12,0,.17,.02v.58c-.06-.01-.13-.02-.21-.02-.43,0-.74,.33-.83,.79-.01,.08-.03,.18-.03,.29v1.81h-.61v-2.33Z"/><path class="v" d="M153.98,31.09c.01,.83,.55,1.18,1.16,1.18,.44,0,.71-.08,.94-.18l.1,.44c-.22,.1-.59,.21-1.13,.21-1.04,0-1.67-.69-1.67-1.71s.6-1.83,1.59-1.83c1.11,0,1.4,.97,1.4,1.6,0,.13-.01,.22-.02,.29h-2.38Zm1.81-.44c0-.39-.16-1-.85-1-.62,0-.9,.57-.95,1h1.8Z"/><path class="v" d="M159.56,32.55c-.16,.08-.52,.2-.97,.2-1.02,0-1.69-.69-1.69-1.73s.71-1.8,1.82-1.8c.36,0,.69,.09,.85,.18l-.14,.48c-.15-.08-.38-.16-.71-.16-.78,0-1.2,.57-1.2,1.28,0,.78,.5,1.27,1.18,1.27,.35,0,.58-.09,.76-.17l.1,.46Z"/><path class="v" d="M161.11,28.31v.97h.88v.47h-.88v1.83c0,.42,.12,.66,.46,.66,.16,0,.28-.02,.36-.04l.03,.46c-.12,.05-.31,.08-.55,.08-.29,0-.52-.09-.67-.26-.18-.18-.24-.48-.24-.88v-1.85h-.53v-.47h.53v-.81l.6-.16Z"/></g></g><g><path class="v" d="M18.76,108.91l1.91,.63v.81l-6.07-2.06v-.95l6.07-2.07v.84l-1.91,.65v2.15Zm-.61-1.99l-1.75,.59c-.4,.14-.76,.23-1.11,.32v.02c.36,.09,.73,.19,1.1,.31l1.76,.59v-1.83Z"/><path class="v" d="M17.49,104.44c-.45,0-.82,0-1.18,.04v-.69l.7-.04v-.03c-.41-.24-.8-.65-.8-1.37,0-.59,.36-1.04,.87-1.23v-.02c-.24-.14-.43-.31-.57-.49-.2-.26-.31-.55-.31-.96,0-.58,.38-1.43,1.89-1.43h2.57v.77h-2.47c-.84,0-1.34,.31-1.34,.95,0,.45,.33,.8,.72,.94,.11,.04,.25,.06,.4,.06h2.69v.77h-2.61c-.69,0-1.2,.31-1.2,.91,0,.5,.4,.85,.79,.98,.12,.05,.25,.06,.39,.06h2.63v.77h-3.18Z"/><path class="v" d="M17.73,96.93c-.56,0-1.01,.02-1.42,.04v-.71l.75-.04v-.02c-.53-.32-.85-.84-.85-1.55,0-1.05,.89-1.85,2.21-1.85,1.57,0,2.34,.95,2.34,1.98,0,.58-.25,1.08-.68,1.34v.02h2.37v.78h-4.72Zm1.16-.78c.12,0,.22-.02,.32-.04,.55-.14,.93-.62,.93-1.19,0-.84-.68-1.32-1.68-1.32-.87,0-1.62,.46-1.62,1.3,0,.54,.39,1.04,.98,1.2,.1,.03,.22,.05,.32,.05h.75Z"/><path class="v" d="M14.28,91.81v-.79h6.39v.79h-6.39Z"/><path class="v" d="M15.09,88.8c.27,0,.49,.19,.49,.5,0,.28-.22,.48-.49,.48s-.5-.21-.5-.5,.22-.49,.5-.49Zm5.58,.88h-4.36v-.79h4.36v.79Z"/><path class="v" d="M15.06,86.63h1.25v-1.13h.6v1.13h2.35c.54,0,.85-.15,.85-.59,0-.21-.03-.36-.05-.46l.59-.04c.06,.15,.11,.4,.11,.7,0,.37-.12,.67-.33,.85-.23,.23-.62,.31-1.13,.31h-2.38v.68h-.6v-.68h-1.04l-.21-.77Z"/><path class="v" d="M19.48,80.95c.45,0,.85,0,1.19-.04v.7l-.71,.04v.02c.35,.21,.81,.67,.81,1.44,0,.68-.38,1.5-1.91,1.5h-2.55v-.79h2.41c.83,0,1.39-.25,1.39-.97,0-.53-.37-.9-.72-1.04-.12-.04-.26-.07-.41-.07h-2.67v-.79h3.17Z"/><path class="v" d="M14.28,75.88h5.27c.39,0,.83,0,1.12-.04v.71l-.76,.04v.02c.49,.24,.85,.77,.85,1.49,0,1.05-.89,1.86-2.21,1.86-1.45,0-2.34-.89-2.34-1.95,0-.67,.31-1.12,.67-1.31v-.02h-2.6v-.79Zm3.81,.79c-.1,0-.23,0-.33,.04-.5,.12-.92,.55-.92,1.14,0,.82,.72,1.31,1.68,1.31,.88,0,1.61-.43,1.61-1.29,0-.53-.35-1.02-.95-1.16-.11-.03-.22-.04-.34-.04h-.76Z"/><path class="v" d="M18.63,74.12c1.07-.02,1.51-.7,1.51-1.49,0-.57-.1-.91-.22-1.21l.57-.13c.13,.28,.27,.76,.27,1.45,0,1.34-.88,2.14-2.2,2.14s-2.35-.77-2.35-2.04c0-1.42,1.25-1.8,2.05-1.8,.16,0,.29,.02,.37,.03v3.06Zm-.57-2.32c-.5,0-1.29,.21-1.29,1.1,0,.8,.74,1.15,1.29,1.22v-2.31Z"/><path class="v" d="M21.68,68.07h-7.17v-1.65h.5v1.04h6.18v-1.04h.5v1.65Z"/><path class="v" d="M19.99,62.65c.34,.18,.76,.6,.76,1.25,0,.4-.14,.77-.48,.95h.54c.48,0,1.28,0,1.64-.1v.71c-.27,.09-.91,.13-1.6,.13h-4.54v-.78h2.58c.67,0,1.23-.29,1.23-.98,0-.52-.38-.9-.73-1.04-.12-.05-.26-.07-.41-.07h-2.67v-.78h3.16c.48,0,.67-.1,.68-.41l.58,.06c.03,.09,.04,.14,.04,.27,0,.39-.22,.7-.77,.77v.03Z"/><path class="v" d="M20.67,59.26l-6.07,1.98v-.85l2.99-.95c.82-.26,1.56-.49,2.27-.65v-.02c-.7-.17-1.47-.42-2.26-.69l-3-1.03v-.84l6.07,2.17v.86Z"/><path class="v" d="M14.49,53.94h7.18v1.65h-.5v-1.04h-6.19v1.04h-.5v-1.65Z"/></g><g><path class="v" d="M36.38,143.95v.59h-2.22v-.59h2.22Z"/><path class="v" d="M40.94,143.68c0,1.99-.74,3.09-2.03,3.09-1.14,0-1.92-1.07-1.94-3.01,0-1.96,.85-3.04,2.03-3.04s1.94,1.1,1.94,2.96Zm-3.18,.09c0,1.52,.47,2.39,1.19,2.39,.81,0,1.2-.95,1.2-2.44s-.37-2.39-1.19-2.39c-.69,0-1.2,.85-1.2,2.44Z"/><path class="v" d="M41.73,146.2c0-.33,.23-.57,.54-.57s.53,.23,.53,.57-.21,.57-.54,.57c-.31,0-.53-.24-.53-.57Z"/><path class="v" d="M43.53,146.67v-.49l.62-.6c1.49-1.42,2.17-2.18,2.18-3.06,0-.59-.29-1.14-1.16-1.14-.53,0-.97,.27-1.24,.5l-.25-.56c.41-.34,.98-.59,1.66-.59,1.26,0,1.79,.86,1.79,1.7,0,1.08-.78,1.95-2.02,3.14l-.47,.43v.02h2.63v.66h-3.74Z"/></g><path class="v" d="M70.46,143.68c0,1.99-.74,3.09-2.03,3.09-1.14,0-1.92-1.07-1.94-3.01,0-1.96,.85-3.04,2.03-3.04s1.94,1.1,1.94,2.96Zm-3.18,.09c0,1.52,.47,2.39,1.19,2.39,.81,0,1.2-.95,1.2-2.44s-.37-2.39-1.19-2.39c-.69,0-1.2,.85-1.2,2.44Z"/><g><path class="v" d="M119.48,143.68c0,1.99-.74,3.09-2.03,3.09-1.14,0-1.92-1.07-1.94-3.01,0-1.96,.85-3.04,2.03-3.04s1.94,1.1,1.94,2.96Zm-3.18,.09c0,1.52,.47,2.39,1.19,2.39,.81,0,1.2-.95,1.2-2.44s-.37-2.39-1.19-2.39c-.69,0-1.2,.85-1.2,2.44Z"/><path class="v" d="M120.27,146.2c0-.33,.23-.57,.54-.57s.53,.23,.53,.57-.21,.57-.54,.57c-.31,0-.53-.24-.53-.57Z"/><path class="v" d="M124.52,146.67v-1.59h-2.72v-.52l2.61-3.74h.85v3.64h.82v.62h-.82v1.59h-.75Zm0-2.21v-1.95c0-.31,0-.61,.03-.92h-.03c-.18,.34-.32,.59-.49,.86l-1.43,1.99v.02h1.92Z"/></g><g><path class="v" d="M172.86,143.68c0,1.99-.74,3.09-2.03,3.09-1.14,0-1.92-1.07-1.94-3.01,0-1.96,.85-3.04,2.03-3.04s1.94,1.1,1.94,2.96Zm-3.18,.09c0,1.52,.47,2.39,1.19,2.39,.81,0,1.2-.95,1.2-2.44s-.37-2.39-1.19-2.39c-.69,0-1.2,.85-1.2,2.44Z"/><path class="v" d="M173.65,146.2c0-.33,.23-.57,.54-.57s.53,.23,.53,.57-.21,.57-.54,.57c-.31,0-.53-.24-.53-.57Z"/><path class="v" d="M175.38,145.19c0-.74,.44-1.26,1.16-1.57v-.03c-.66-.31-.94-.81-.94-1.31,0-.93,.78-1.56,1.81-1.56,1.13,0,1.7,.71,1.7,1.44,0,.5-.24,1.03-.96,1.37v.03c.73,.29,1.18,.8,1.18,1.51,0,1.02-.87,1.7-1.99,1.7-1.22,0-1.96-.73-1.96-1.58Zm3.15-.04c0-.71-.5-1.05-1.29-1.28-.68,.2-1.05,.65-1.05,1.21-.03,.59,.42,1.12,1.17,1.12s1.17-.44,1.17-1.04Zm-2.18-2.93c0,.58,.44,.9,1.12,1.08,.5-.17,.89-.53,.89-1.06,0-.47-.28-.95-.99-.95-.66,0-1.02,.43-1.02,.94Z"/></g><g><path class="v" d="M29.16,129.47v.59h-2.22v-.59h2.22Z"/><path class="v" d="M30.02,131.29c.23,.14,.75,.37,1.3,.37,1.02,0,1.33-.65,1.32-1.13,0-.82-.75-1.17-1.51-1.17h-.44v-.59h.44c.58,0,1.31-.3,1.31-.99,0-.47-.3-.88-1.03-.88-.47,0-.92,.21-1.17,.39l-.21-.58c.31-.23,.9-.45,1.53-.45,1.15,0,1.67,.68,1.67,1.4,0,.6-.36,1.12-1.08,1.38v.02c.72,.14,1.31,.68,1.31,1.5,0,.94-.73,1.76-2.13,1.76-.66,0-1.23-.21-1.52-.4l.22-.61Z"/><path class="v" d="M38.34,129.21c0,1.99-.74,3.09-2.03,3.09-1.14,0-1.92-1.07-1.94-3.01,0-1.96,.85-3.04,2.03-3.04s1.94,1.1,1.94,2.96Zm-3.18,.09c0,1.52,.47,2.39,1.19,2.39,.81,0,1.2-.95,1.2-2.44s-.37-2.39-1.19-2.39c-.69,0-1.2,.85-1.2,2.44Z"/></g><path class="v" d="M38.34,86.78c0,1.99-.74,3.09-2.03,3.09-1.14,0-1.92-1.07-1.94-3.01,0-1.96,.85-3.04,2.03-3.04s1.94,1.1,1.94,2.96Zm-3.18,.09c0,1.52,.47,2.39,1.19,2.39,.81,0,1.2-.95,1.2-2.44s-.37-2.39-1.19-2.39c-.69,0-1.2,.85-1.2,2.44Z"/><g><path class="v" d="M30.03,45.89c.23,.14,.75,.37,1.3,.37,1.02,0,1.33-.65,1.32-1.13,0-.82-.75-1.17-1.51-1.17h-.44v-.59h.44c.58,0,1.31-.3,1.31-.99,0-.47-.3-.88-1.03-.88-.47,0-.92,.21-1.17,.39l-.21-.58c.31-.23,.9-.45,1.53-.45,1.15,0,1.67,.68,1.67,1.4,0,.6-.36,1.12-1.08,1.38v.02c.72,.14,1.31,.68,1.31,1.5,0,.94-.73,1.76-2.13,1.76-.66,0-1.23-.21-1.52-.4l.22-.61Z"/><path class="v" d="M38.34,43.81c0,1.99-.74,3.09-2.03,3.09-1.14,0-1.92-1.07-1.94-3.01,0-1.96,.85-3.04,2.03-3.04s1.94,1.1,1.94,2.96Zm-3.18,.09c0,1.52,.47,2.39,1.19,2.39,.81,0,1.2-.95,1.2-2.44s-.37-2.39-1.19-2.39c-.69,0-1.2,.85-1.2,2.44Z"/></g><g><path class="v" d="M61.08,154.62h-1.85v-.67h4.49v.67h-1.85v5.4h-.79v-5.4Z"/><path class="v" d="M65.14,154.44c0,.27-.19,.49-.5,.49-.28,0-.48-.22-.48-.49s.21-.5,.5-.5,.49,.22,.49,.5Zm-.88,5.58v-4.36h.79v4.36h-.79Z"/><path class="v" d="M66.37,156.84c0-.45,0-.82-.04-1.18h.69l.04,.7h.03c.24-.41,.65-.8,1.37-.8,.59,0,1.04,.36,1.23,.87h.02c.14-.24,.31-.43,.49-.57,.26-.2,.55-.31,.96-.31,.58,0,1.43,.38,1.43,1.89v2.57h-.77v-2.47c0-.84-.31-1.34-.95-1.34-.45,0-.8,.33-.94,.72-.04,.11-.06,.25-.06,.4v2.69h-.77v-2.61c0-.69-.31-1.2-.91-1.2-.5,0-.85,.4-.98,.79-.05,.12-.06,.25-.06,.39v2.63h-.77v-3.18Z"/><path class="v" d="M74.32,157.98c.02,1.07,.7,1.51,1.49,1.51,.57,0,.91-.1,1.21-.23l.13,.57c-.28,.13-.76,.27-1.45,.27-1.34,0-2.14-.88-2.14-2.2s.77-2.35,2.04-2.35c1.42,0,1.8,1.25,1.8,2.05,0,.16-.02,.29-.03,.37h-3.06Zm2.32-.57c0-.5-.21-1.29-1.1-1.29-.8,0-1.15,.74-1.22,1.29h2.31Z"/><path class="v" d="M80.37,160.02v-3.75h-.61v-.6h.61v-.21c0-.61,.13-1.17,.5-1.52,.3-.29,.69-.4,1.06-.4,.28,0,.52,.06,.68,.13l-.11,.61c-.12-.05-.28-.1-.5-.1-.68,0-.85,.59-.85,1.26v.23h1.05v.6h-1.05v3.75h-.78Z"/><path class="v" d="M82.92,157.02c0-.51,0-.95-.04-1.36h.69l.03,.86h.04c.2-.59,.68-.95,1.21-.95,.09,0,.15,0,.22,.03v.75c-.08-.02-.16-.03-.27-.03-.56,0-.95,.42-1.06,1.02-.02,.11-.04,.23-.04,.37v2.32h-.78v-3Z"/><path class="v" d="M89.72,157.8c0,1.61-1.12,2.31-2.17,2.31-1.18,0-2.09-.86-2.09-2.24,0-1.46,.95-2.31,2.16-2.31s2.1,.91,2.1,2.24Zm-3.46,.05c0,.95,.55,1.67,1.32,1.67s1.32-.71,1.32-1.69c0-.74-.37-1.67-1.31-1.67s-1.34,.86-1.34,1.69Z"/><path class="v" d="M90.71,156.84c0-.45,0-.82-.04-1.18h.69l.04,.7h.03c.24-.41,.65-.8,1.37-.8,.59,0,1.04,.36,1.23,.87h.02c.14-.24,.31-.43,.49-.57,.26-.2,.55-.31,.96-.31,.58,0,1.43,.38,1.43,1.89v2.57h-.77v-2.47c0-.84-.31-1.34-.95-1.34-.45,0-.8,.33-.94,.72-.04,.11-.06,.25-.06,.4v2.69h-.77v-2.61c0-.69-.31-1.2-.91-1.2-.5,0-.85,.4-.98,.79-.05,.12-.06,.25-.06,.39v2.63h-.77v-3.18Z"/><path class="v" d="M100.09,160.02c.02-.3,.04-.74,.04-1.13v-5.27h.78v2.74h.02c.28-.49,.78-.8,1.49-.8,1.08,0,1.85,.9,1.84,2.22,0,1.56-.98,2.33-1.95,2.33-.63,0-1.13-.24-1.46-.82h-.03l-.04,.72h-.68Zm.82-1.75c0,.1,.02,.2,.04,.29,.15,.55,.61,.93,1.19,.93,.83,0,1.32-.68,1.32-1.67,0-.87-.45-1.62-1.3-1.62-.54,0-1.04,.37-1.21,.97-.02,.09-.04,.2-.04,.32v.78Z"/><path class="v" d="M108.89,158.83c0,.45,0,.85,.04,1.19h-.7l-.04-.71h-.02c-.21,.35-.67,.81-1.44,.81-.68,0-1.5-.38-1.5-1.91v-2.55h.79v2.41c0,.83,.25,1.39,.97,1.39,.53,0,.9-.37,1.04-.72,.04-.12,.07-.26,.07-.41v-2.67h.79v3.17Z"/><path class="v" d="M111.16,154.41v1.25h1.13v.6h-1.13v2.35c0,.54,.15,.85,.59,.85,.21,0,.36-.03,.46-.05l.04,.59c-.15,.06-.4,.11-.7,.11-.37,0-.67-.12-.85-.33-.23-.23-.31-.62-.31-1.13v-2.38h-.68v-.6h.68v-1.04l.77-.21Z"/><path class="v" d="M114.14,154.41v1.25h1.13v.6h-1.13v2.35c0,.54,.15,.85,.59,.85,.21,0,.36-.03,.46-.05l.04,.59c-.15,.06-.4,.11-.7,.11-.37,0-.67-.12-.85-.33-.23-.23-.31-.62-.31-1.13v-2.38h-.68v-.6h.68v-1.04l.77-.21Z"/><path class="v" d="M120.05,157.8c0,1.61-1.12,2.31-2.17,2.31-1.18,0-2.09-.86-2.09-2.24,0-1.46,.95-2.31,2.16-2.31s2.1,.91,2.1,2.24Zm-3.46,.05c0,.95,.55,1.67,1.32,1.67s1.32-.71,1.32-1.69c0-.74-.37-1.67-1.31-1.67s-1.34,.86-1.34,1.69Z"/><path class="v" d="M121.05,156.84c0-.45,0-.82-.04-1.18h.7l.04,.72h.02c.22-.41,.72-.82,1.44-.82,.6,0,1.54,.36,1.54,1.85v2.6h-.79v-2.51c0-.7-.26-1.29-1.01-1.29-.52,0-.93,.37-1.06,.81-.04,.1-.05,.23-.05,.37v2.62h-.79v-3.18Z"/><path class="v" d="M127.95,157.08c0-.56-.02-1.01-.04-1.42h.71l.04,.75h.02c.32-.53,.84-.85,1.55-.85,1.05,0,1.85,.89,1.85,2.21,0,1.57-.95,2.34-1.98,2.34-.58,0-1.08-.25-1.34-.68h-.02v2.37h-.78v-4.72Zm.78,1.16c0,.12,.02,.23,.04,.32,.14,.55,.62,.93,1.19,.93,.84,0,1.32-.68,1.32-1.68,0-.87-.46-1.62-1.3-1.62-.54,0-1.04,.39-1.2,.98-.03,.1-.05,.22-.05,.32v.75Z"/><path class="v" d="M133.08,157.02c0-.51,0-.95-.04-1.36h.69l.03,.86h.04c.2-.59,.68-.95,1.21-.95,.09,0,.15,0,.23,.03v.75c-.08-.02-.16-.03-.27-.03-.56,0-.95,.42-1.06,1.02-.02,.11-.04,.23-.04,.37v2.32h-.78v-3Z"/><path class="v" d="M136.37,157.98c.02,1.07,.7,1.51,1.49,1.51,.57,0,.91-.1,1.21-.23l.13,.57c-.28,.13-.76,.27-1.45,.27-1.34,0-2.14-.88-2.14-2.2s.77-2.35,2.04-2.35c1.42,0,1.8,1.25,1.8,2.05,0,.16-.02,.29-.03,.37h-3.06Zm2.32-.57c0-.5-.21-1.29-1.1-1.29-.8,0-1.15,.74-1.22,1.29h2.31Z"/><path class="v" d="M140.33,159.21c.23,.15,.65,.31,1.04,.31,.58,0,.85-.29,.85-.65s-.23-.58-.81-.8c-.78-.28-1.15-.71-1.15-1.23,0-.7,.57-1.28,1.5-1.28,.44,0,.83,.13,1.07,.27l-.2,.58c-.17-.11-.49-.25-.89-.25-.47,0-.73,.27-.73,.59,0,.36,.26,.52,.83,.74,.76,.29,1.14,.67,1.14,1.31,0,.77-.59,1.31-1.63,1.31-.48,0-.92-.12-1.22-.3l.2-.6Z"/><path class="v" d="M143.89,159.21c.23,.15,.65,.31,1.04,.31,.58,0,.85-.29,.85-.65s-.23-.58-.81-.8c-.78-.28-1.15-.71-1.15-1.23,0-.7,.57-1.28,1.5-1.28,.44,0,.83,.13,1.07,.27l-.2,.58c-.17-.11-.49-.25-.89-.25-.47,0-.73,.27-.73,.59,0,.36,.26,.52,.83,.74,.76,.29,1.14,.67,1.14,1.31,0,.77-.59,1.31-1.63,1.31-.48,0-.92-.12-1.22-.3l.2-.6Z"/><path class="v" d="M149.55,161.03v-7.18h1.65v.5h-1.04v6.19h1.04v.5h-1.65Z"/><path class="v" d="M151.92,159.21c.23,.15,.65,.31,1.04,.31,.58,0,.85-.29,.85-.65s-.23-.58-.81-.8c-.78-.28-1.15-.71-1.15-1.23,0-.7,.57-1.28,1.5-1.28,.44,0,.83,.13,1.07,.27l-.2,.58c-.17-.11-.49-.25-.89-.25-.47,0-.73,.27-.73,.59,0,.36,.26,.52,.83,.74,.76,.29,1.14,.67,1.14,1.31,0,.77-.59,1.31-1.63,1.31-.48,0-.92-.12-1.22-.3l.2-.6Z"/><path class="v" d="M156.75,153.84v7.18h-1.65v-.5h1.04v-6.19h-1.04v-.5h1.65Z"/></g><g><path class="v" d="M46.43,18.44c.01-.23,.03-.57,.03-.88v-4.1h.61v2.13h.01c.22-.38,.61-.62,1.16-.62,.84,0,1.44,.7,1.43,1.73,0,1.21-.76,1.81-1.52,1.81-.49,0-.88-.19-1.13-.64h-.02l-.03,.56h-.53Zm.64-1.36c0,.08,.01,.15,.03,.22,.12,.43,.48,.72,.92,.72,.64,0,1.03-.53,1.03-1.3,0-.68-.35-1.26-1.01-1.26-.42,0-.81,.29-.94,.76-.01,.07-.04,.15-.04,.25v.61Z"/><path class="v" d="M53.28,17.51c0,.35,0,.66,.03,.92h-.55l-.04-.55h-.01c-.16,.27-.52,.63-1.12,.63-.53,0-1.17-.29-1.17-1.48v-1.98h.62v1.88c0,.64,.2,1.08,.76,1.08,.41,0,.7-.29,.81-.56,.04-.09,.06-.2,.06-.31v-2.08h.62v2.47Z"/><path class="v" d="M55.04,14.07v.97h.88v.47h-.88v1.83c0,.42,.12,.66,.46,.66,.16,0,.28-.02,.36-.04l.03,.46c-.12,.05-.31,.08-.55,.08-.29,0-.52-.09-.67-.26-.18-.18-.24-.48-.24-.88v-1.85h-.53v-.47h.53v-.81l.6-.16Z"/><path class="v" d="M57.36,14.07v.97h.88v.47h-.88v1.83c0,.42,.12,.66,.46,.66,.16,0,.28-.02,.36-.04l.03,.46c-.12,.05-.31,.08-.55,.08-.29,0-.52-.09-.67-.26-.18-.18-.24-.48-.24-.88v-1.85h-.53v-.47h.53v-.81l.6-.16Z"/><path class="v" d="M61.96,16.71c0,1.25-.87,1.8-1.69,1.8-.92,0-1.62-.67-1.62-1.74,0-1.13,.74-1.8,1.68-1.8s1.63,.71,1.63,1.74Zm-2.69,.04c0,.74,.43,1.3,1.03,1.3s1.03-.55,1.03-1.32c0-.57-.29-1.3-1.02-1.3s-1.04,.67-1.04,1.32Z"/><path class="v" d="M62.73,15.97c0-.35,0-.64-.03-.92h.55l.03,.56h.01c.17-.32,.56-.64,1.12-.64,.47,0,1.2,.28,1.2,1.44v2.02h-.62v-1.95c0-.55-.2-1-.78-1-.41,0-.72,.29-.83,.63-.03,.08-.04,.18-.04,.29v2.04h-.62v-2.47Z"/><path class="v" d="M68.1,16.15c0-.43-.01-.78-.03-1.11h.55l.03,.58h.01c.25-.41,.65-.66,1.2-.66,.82,0,1.44,.69,1.44,1.72,0,1.22-.74,1.82-1.54,1.82-.45,0-.84-.2-1.04-.53h-.01v1.84h-.61v-3.67Zm.61,.9c0,.09,.01,.18,.03,.25,.11,.43,.48,.72,.92,.72,.65,0,1.03-.53,1.03-1.31,0-.68-.36-1.26-1.01-1.26-.42,0-.81,.3-.93,.76-.02,.08-.04,.17-.04,.25v.58Z"/><path class="v" d="M72.08,16.11c0-.4,0-.74-.03-1.06h.54l.02,.67h.03c.15-.46,.52-.74,.94-.74,.07,0,.12,0,.17,.02v.58c-.06-.01-.13-.02-.21-.02-.43,0-.74,.33-.83,.79-.01,.08-.03,.18-.03,.29v1.81h-.61v-2.33Z"/><path class="v" d="M74.65,16.85c.01,.83,.55,1.18,1.16,1.18,.44,0,.71-.08,.94-.18l.1,.44c-.22,.1-.59,.21-1.13,.21-1.04,0-1.67-.69-1.67-1.71s.6-1.83,1.59-1.83c1.11,0,1.4,.97,1.4,1.6,0,.13-.01,.22-.02,.29h-2.38Zm1.81-.44c0-.39-.16-1-.85-1-.62,0-.9,.57-.95,1h1.8Z"/><path class="v" d="M77.73,17.81c.18,.12,.5,.25,.81,.25,.45,0,.66-.22,.66-.5s-.17-.46-.63-.62c-.61-.22-.9-.55-.9-.96,0-.55,.44-.99,1.17-.99,.34,0,.64,.1,.83,.21l-.15,.45c-.13-.08-.38-.2-.69-.2-.36,0-.57,.21-.57,.46,0,.28,.2,.41,.64,.57,.59,.22,.89,.52,.89,1.02,0,.6-.46,1.02-1.27,1.02-.37,0-.71-.09-.95-.23l.15-.47Z"/><path class="v" d="M80.5,17.81c.18,.12,.5,.25,.81,.25,.45,0,.66-.22,.66-.5s-.17-.46-.63-.62c-.61-.22-.9-.55-.9-.96,0-.55,.44-.99,1.17-.99,.34,0,.64,.1,.83,.21l-.15,.45c-.13-.08-.38-.2-.69-.2-.36,0-.57,.21-.57,.46,0,.28,.2,.41,.64,.57,.59,.22,.89,.52,.89,1.02,0,.6-.46,1.02-1.27,1.02-.37,0-.71-.09-.95-.23l.15-.47Z"/></g><path class="v" d="M65.78,27.25l-3.25-3.25v-1.22l2.82,2.82v-5.64h.87v5.64l2.82-2.82v1.22l-3.25,3.25Z"/><g><path class="v" d="M156.72,126.58c0,1.25-.46,1.94-1.28,1.94-.72,0-1.21-.67-1.22-1.89,0-1.23,.53-1.91,1.28-1.91s1.22,.69,1.22,1.86Zm-2,.06c0,.96,.29,1.5,.75,1.5,.51,0,.75-.59,.75-1.53s-.23-1.5-.75-1.5c-.44,0-.75,.53-.75,1.53Z"/><g><path class="v" d="M170.67,125.24h-.01l-.64,.34-.1-.38,.8-.43h.42v3.68h-.48v-3.21Z"/><path class="v" d="M174.93,126.58c0,1.25-.46,1.94-1.28,1.94-.72,0-1.21-.67-1.22-1.89,0-1.23,.53-1.91,1.28-1.91s1.22,.69,1.22,1.86Zm-2,.06c0,.96,.29,1.5,.75,1.5,.51,0,.75-.59,.75-1.53s-.23-1.5-.75-1.5c-.44,0-.75,.53-.75,1.53Z"/><path class="v" d="M177.83,126.58c0,1.25-.46,1.94-1.28,1.94-.72,0-1.21-.67-1.22-1.89,0-1.23,.53-1.91,1.28-1.91s1.22,.69,1.22,1.86Zm-2,.06c0,.96,.29,1.5,.75,1.5,.51,0,.75-.59,.75-1.53s-.23-1.5-.75-1.5c-.44,0-.75,.53-.75,1.53Z"/></g><g><path class="v" d="M150.37,119.95c0,1.25-.46,1.94-1.28,1.94-.72,0-1.21-.67-1.22-1.89,0-1.23,.53-1.91,1.28-1.91s1.22,.69,1.22,1.86Zm-2,.06c0,.96,.29,1.5,.75,1.5,.51,0,.75-.59,.75-1.53s-.23-1.5-.75-1.5c-.44,0-.75,.53-.75,1.53Z"/><path class="v" d="M150.87,121.54c0-.21,.14-.36,.34-.36s.33,.15,.33,.36-.13,.36-.34,.36c-.2,0-.33-.15-.33-.36Z"/><path class="v" d="M153.08,118.62h-.01l-.64,.34-.1-.38,.8-.43h.42v3.68h-.48v-3.21Z"/></g><g><path class="v" d="M150.37,108.61c0,1.25-.46,1.94-1.28,1.94-.72,0-1.21-.67-1.22-1.89,0-1.23,.53-1.91,1.28-1.91s1.22,.69,1.22,1.86Zm-2,.06c0,.96,.29,1.5,.75,1.5,.51,0,.75-.59,.75-1.53s-.23-1.5-.75-1.5c-.44,0-.75,.53-.75,1.53Z"/><path class="v" d="M150.87,110.2c0-.21,.14-.36,.34-.36s.33,.15,.33,.36-.13,.36-.34,.36c-.2,0-.33-.15-.33-.36Z"/><path class="v" d="M154.19,107.23h-1.4l-.14,.95c.08-.01,.16-.02,.3-.02,.28,0,.57,.06,.79,.2,.29,.16,.53,.48,.53,.95,0,.72-.57,1.26-1.37,1.26-.4,0-.74-.11-.92-.23l.12-.38c.15,.09,.45,.2,.79,.2,.47,0,.87-.31,.87-.8,0-.48-.32-.82-1.06-.82-.21,0-.37,.02-.51,.04l.24-1.77h1.76v.42Z"/></g><g><path class="v" d="M150.37,98.15c0,1.25-.46,1.94-1.28,1.94-.72,0-1.21-.67-1.22-1.89,0-1.23,.53-1.91,1.28-1.91s1.22,.69,1.22,1.86Zm-2,.06c0,.96,.29,1.5,.75,1.5,.51,0,.75-.59,.75-1.53s-.23-1.5-.75-1.5c-.44,0-.75,.53-.75,1.53Z"/><path class="v" d="M150.87,99.74c0-.21,.14-.36,.34-.36s.33,.15,.33,.36-.13,.36-.34,.36c-.2,0-.33-.15-.33-.36Z"/><path class="v" d="M152.29,99.68c.11,.01,.23,0,.4-.02,.29-.04,.56-.16,.77-.36,.24-.22,.42-.54,.49-.98h-.02c-.2,.25-.5,.4-.87,.4-.66,0-1.09-.5-1.09-1.13,0-.7,.5-1.31,1.26-1.31s1.22,.61,1.22,1.55c0,.81-.27,1.38-.63,1.73-.28,.28-.67,.45-1.07,.49-.18,.03-.34,.03-.46,.03v-.41Zm.18-2.12c0,.46,.28,.78,.71,.78,.33,0,.59-.16,.72-.38,.03-.05,.05-.1,.05-.18,0-.63-.23-1.11-.75-1.11-.42,0-.72,.37-.72,.89Z"/></g><g><path class="v" d="M156.26,130.14c0,.17-.12,.31-.32,.31-.18,0-.3-.14-.3-.31s.13-.31,.31-.31,.31,.14,.31,.31Zm-.56,3.51v-2.74h.5v2.74h-.5Z"/><path class="v" d="M159.02,131.86h-1.48v1.38h1.65v.41h-2.15v-3.82h2.06v.41h-1.57v1.21h1.48v.41Z"/><path class="v" d="M159.82,129.89c.25-.05,.61-.08,.95-.08,.53,0,.87,.1,1.1,.31,.19,.17,.3,.43,.3,.72,0,.5-.32,.84-.72,.97v.02c.29,.1,.47,.37,.56,.77,.12,.53,.21,.9,.29,1.05h-.51c-.06-.11-.15-.44-.25-.91-.11-.53-.32-.72-.76-.74h-.46v1.65h-.49v-3.76Zm.49,1.74h.5c.53,0,.86-.29,.86-.72,0-.49-.36-.71-.88-.71-.24,0-.41,.02-.49,.04v1.39Z"/><path class="v" d="M162.87,133.65v-3.82h.54l1.22,1.93c.28,.45,.5,.85,.69,1.24h.01c-.05-.51-.06-.98-.06-1.57v-1.6h.46v3.82h-.5l-1.21-1.94c-.27-.42-.52-.86-.71-1.27h-.02c.03,.49,.04,.95,.04,1.58v1.63h-.46Z"/><path class="v" d="M167.77,129.63h.5v4.02h-.5v-4.02Z"/><path class="v" d="M170.62,133.65l-.04-.34h-.02c-.15,.21-.45,.41-.84,.41-.56,0-.84-.39-.84-.79,0-.66,.59-1.02,1.65-1.02v-.06c0-.23-.06-.63-.62-.63-.25,0-.52,.08-.71,.2l-.11-.33c.23-.15,.55-.24,.9-.24,.84,0,1.04,.57,1.04,1.12v1.02c0,.24,.01,.47,.05,.66h-.45Zm-.07-1.4c-.54-.01-1.16,.08-1.16,.62,0,.32,.22,.48,.47,.48,.36,0,.58-.23,.66-.46,.02-.05,.03-.11,.03-.16v-.48Z"/><path class="v" d="M172.41,130.13v.79h.71v.38h-.71v1.48c0,.34,.1,.53,.37,.53,.13,0,.23-.02,.29-.03l.02,.37c-.1,.04-.25,.07-.44,.07-.23,0-.42-.07-.54-.21-.14-.15-.19-.39-.19-.71v-1.49h-.42v-.38h.42v-.66l.49-.13Z"/><path class="v" d="M173.92,132.37c.01,.67,.44,.95,.94,.95,.36,0,.57-.06,.76-.14l.08,.36c-.18,.08-.48,.17-.91,.17-.84,0-1.35-.55-1.35-1.38s.49-1.48,1.28-1.48c.89,0,1.13,.79,1.13,1.29,0,.1-.01,.18-.02,.23h-1.92Zm1.46-.36c0-.32-.13-.81-.69-.81-.5,0-.72,.46-.76,.81h1.46Z"/><path class="v" d="M176.48,131.65c0-.28,0-.52-.02-.74h.44l.03,.45h.01c.14-.26,.45-.51,.91-.51,.38,0,.97,.23,.97,1.17v1.64h-.5v-1.58c0-.44-.16-.81-.63-.81-.33,0-.58,.23-.67,.51-.02,.06-.03,.15-.03,.23v1.65h-.5v-2Z"/><path class="v" d="M181.57,133.55c-.13,.07-.42,.16-.79,.16-.83,0-1.36-.56-1.36-1.4s.58-1.45,1.47-1.45c.29,0,.55,.07,.69,.14l-.11,.38c-.12-.07-.31-.13-.58-.13-.63,0-.97,.46-.97,1.04,0,.63,.41,1.02,.95,1.02,.28,0,.47-.07,.61-.14l.08,.37Z"/><path class="v" d="M182.43,130.91l.6,1.62c.06,.18,.13,.4,.18,.56h.01c.05-.16,.11-.37,.18-.57l.54-1.61h.53l-.75,1.95c-.36,.94-.6,1.42-.94,1.72-.24,.21-.49,.3-.61,.32l-.12-.42c.12-.04,.29-.12,.44-.24,.14-.11,.31-.3,.42-.55,.02-.05,.04-.09,.04-.12s-.01-.07-.03-.13l-1.01-2.52h.54Z"/><path class="v" d="M186.16,134.29v-4.51h1.04v.31h-.65v3.89h.65v.31h-1.04Z"/><path class="v" d="M187.72,131.65c0-.28,0-.52-.02-.74h.44l.02,.44h.02c.15-.26,.41-.5,.86-.5,.37,0,.66,.23,.78,.55h.01c.08-.15,.19-.27,.31-.36,.16-.12,.34-.19,.61-.19,.36,0,.9,.24,.9,1.19v1.61h-.49v-1.55c0-.53-.19-.84-.59-.84-.28,0-.5,.21-.59,.45-.02,.07-.04,.16-.04,.25v1.69h-.49v-1.64c0-.44-.19-.75-.57-.75-.31,0-.54,.25-.62,.5-.03,.07-.04,.16-.04,.24v1.65h-.49v-2Z"/><path class="v" d="M192.36,133.14c.15,.1,.41,.2,.66,.2,.36,0,.53-.18,.53-.41s-.14-.37-.51-.5c-.49-.18-.72-.45-.72-.78,0-.44,.36-.8,.95-.8,.28,0,.52,.08,.67,.17l-.12,.36c-.11-.07-.31-.16-.56-.16-.29,0-.46,.17-.46,.37,0,.23,.16,.33,.52,.46,.48,.18,.72,.42,.72,.83,0,.48-.37,.82-1.03,.82-.3,0-.58-.07-.77-.19l.12-.38Z"/><path class="v" d="M195.4,129.77v4.52h-1.04v-.31h.65v-3.9h-.65v-.31h1.04Z"/></g><g><path class="v" d="M140.93,118.85c-.04-.24-.07-.55-.07-.95,0-.49,.11-.84,.32-1.07,.18-.21,.46-.33,.8-.33s.62,.1,.81,.29c.28,.26,.42,.69,.42,1.17,0,.15,0,.28-.03,.4h1.53v.49h-3.77Zm1.84-.49c.03-.11,.04-.24,.04-.41,0-.59-.29-.96-.82-.96s-.75,.36-.75,.9c0,.21,.02,.38,.04,.46h1.48Z"/><path class="v" d="M140.77,114.78c.55,.41,1.29,.71,2.32,.71s1.73-.31,2.3-.71v.39c-.47,.36-1.19,.74-2.3,.74-1.12,0-1.84-.38-2.32-.74v-.39Z"/><path class="v" d="M141.96,114.02l.59-.39c.15-.1,.29-.19,.45-.28v-.02c-.16-.09-.31-.18-.45-.27l-.58-.38v-.54l1.32,.93,1.42-.96v.57l-.62,.4c-.16,.11-.31,.2-.48,.29h0c.16,.1,.31,.2,.48,.3l.62,.4v.55l-1.4-.97-1.34,.93v-.55Z"/><path class="v" d="M143.04,110.48h-.33l-1.09-2.63h.37l.88,2.16h.01l.87-2.16h.38l-1.09,2.63Zm1.65-.01h-.33v-2.62h.33v2.62Z"/><path class="v" d="M144.7,103.76l-.84,.49c-.32,.2-.53,.32-.75,.44h0c.22,.12,.42,.23,.76,.42l.84,.46v.57l-1.93-1.17-1.89,1.12v-.57l.89-.5c.25-.14,.44-.25,.65-.35v-.02c-.23-.11-.4-.2-.65-.35l-.89-.52v-.57l1.86,1.16,1.96-1.19v.57Z"/><path class="v" d="M145.38,102.94c-.56-.4-1.3-.71-2.32-.71s-1.74,.31-2.3,.71v-.38c.46-.36,1.19-.74,2.3-.74s1.83,.38,2.31,.74v.38Z"/></g><g><path class="e" d="M155.77,122.73v-27.88m0,27.88h.67m-.67-2.79h.67m-.67-2.79h.67m-.67-2.79h.67m-.67-2.79h.67m-.67-2.79h.67m-.67-2.79h.67m-.67-2.79h.67m-.67-2.79h.67m-.67-2.79h.67m-.67-2.79h.67"/><path class="o" d="M155.76,108.79h35.17m-21.45,13.94v-13.94"/><polyline class="h" points="159.99 122.73 159.99 120.87 162.45 120.87 162.45 119.01 162.8 119.01 162.8 117.15 166.32 117.15 166.32 115.3 166.67 115.3 166.67 113.44 167.37 113.44 167.37 111.58 168.78 111.58 168.78 109.72 169.48 109.72 169.48 107.86 169.83 107.86 169.83 106 170.18 106 170.18 104.14 171.24 104.14 171.24 100.43 177.22 100.43 177.22 98.57 180.38 98.57 180.38 96.71 184.95 96.71 184.95 94.85"/><path class="e" d="M155.77,122.73h35.16m-35.16,0v-.67m17.58,.67v-.67m17.58,.67v-.67"/></g><g><path class="v" d="M186.72,128.46v-.31l.39-.38c.94-.89,1.36-1.37,1.37-1.92,0-.37-.18-.72-.73-.72-.33,0-.61,.17-.78,.31l-.16-.35c.25-.21,.62-.37,1.04-.37,.79,0,1.13,.54,1.13,1.07,0,.68-.49,1.23-1.27,1.98l-.29,.27h1.65v.42h-2.35Z"/><path class="v" d="M192.07,126.58c0,1.25-.46,1.94-1.28,1.94-.72,0-1.21-.67-1.22-1.89,0-1.23,.53-1.91,1.28-1.91s1.22,.69,1.22,1.86Zm-2,.06c0,.96,.29,1.5,.75,1.5,.51,0,.75-.59,.75-1.53s-.23-1.5-.75-1.5c-.44,0-.75,.53-.75,1.53Z"/><path class="v" d="M194.97,126.58c0,1.25-.46,1.94-1.28,1.94-.72,0-1.21-.67-1.22-1.89,0-1.23,.53-1.91,1.28-1.91s1.22,.69,1.22,1.86Zm-2,.06c0,.96,.29,1.5,.75,1.5,.51,0,.75-.59,.75-1.53s-.23-1.5-.75-1.5c-.44,0-.75,.53-.75,1.53Z"/></g></g><g><path class="v" d="M95.3,124.69c0,.27-.19,.48-.5,.48-.28,0-.48-.21-.48-.48s.21-.49,.5-.49,.49,.21,.49,.49Zm-.88,5.52v-4.31h.79v4.31h-.79Z"/><path class="v" d="M99.69,127.4h-2.36v2.17h2.63v.65h-3.41v-6.01h3.28v.65h-2.49v1.9h2.36v.64Z"/><path class="v" d="M100.98,124.29c.4-.08,.96-.12,1.5-.12,.84,0,1.38,.15,1.76,.49,.31,.27,.48,.68,.48,1.14,0,.79-.5,1.32-1.14,1.53v.03c.47,.16,.75,.59,.89,1.21,.2,.84,.34,1.42,.47,1.65h-.81c-.1-.17-.23-.69-.41-1.43-.18-.83-.5-1.14-1.22-1.17h-.74v2.6h-.78v-5.93Zm.78,2.74h.8c.84,0,1.37-.45,1.37-1.14,0-.77-.57-1.11-1.4-1.12-.38,0-.65,.04-.77,.07v2.19Z"/><path class="v" d="M105.82,130.21v-6.01h.86l1.94,3.04c.45,.7,.8,1.34,1.09,1.95h.02c-.07-.81-.09-1.54-.09-2.48v-2.51h.74v6.01h-.79l-1.93-3.05c-.42-.67-.83-1.35-1.13-2h-.03c.04,.77,.06,1.49,.06,2.49v2.57h-.74Z"/></g><path class="c" d="M41.97,137.31H174.72m-132.75,0v-1.33m26.55,1.33v-2m26.55,2v-2m26.55,2v-2m26.55,2v-2m26.55,2v-2m-132.75,2V30.06m0,99.5h2m-2-14.22h2m-2-14.22h2m-2-14.22h2m-2-14.22h2m-2-14.22h2m-2-14.22h2"/><line class="s" x1="68.54" y1="137.31" x2="68.54" y2="30.04"/><line class="d" x1="81.81" y1="137.31" x2="81.81" y2="30.04"/><polyline class="l" points="41.97 96.69 41.99 96.83 42.25 95.57 42.52 95.75 42.78 96.72 43.05 97.34 43.31 96 43.58 93.31 43.84 92.07 44.11 90.38 44.38 92.73 44.64 94.73 44.91 93.15 45.17 91.62 45.44 89.35 45.7 87.87 45.97 89.22 46.23 93.87 46.5 93.22 46.77 91.61 47.03 92.13 47.3 91.78 47.56 91.3 47.83 92.91 48.09 93.04 48.36 92.55 48.62 92.98 48.89 91.38 49.15 91.38 49.42 94.76 49.69 95.37 49.95 95.28 50.22 97.34 50.48 95.28 50.75 94.48 51.01 93.99 51.28 94.21 51.54 95.07 51.81 96.21 52.08 96.29 52.34 95.04 52.61 95.23 52.87 95.59 53.14 95.77 53.4 93.67 53.67 93.71 53.93 95.22 54.2 95.82 54.46 95.41 54.73 94.03"/><polyline class="l" points="54.73 94.03 55 96.41 55.26 94.47 55.53 92.2 55.79 90.57 56.06 89.9 56.32 91.98 56.59 90.55 56.85 90.63 57.12 92.85 57.39 92.31 57.65 89.01 57.92 86.27 58.18 86.63 58.45 86.46 58.71 85.33 58.98 82.43 59.24 82.72 59.51 81.42 59.77 81.04 60.04 81.85 60.31 83.64 60.57 87.59 60.84 85.04 61.1 83.47 61.37 84.56 61.63 84.04 61.9 80.01 62.16 81.28 62.43 81.08 62.7 79.05 62.96 77.84 63.23 75.94 63.49 74.48 63.76 73.91 64.02 75.47 64.29 76.72 64.55 77.42 64.82 79.29 65.08 80.41 65.35 80.25 65.62 80.21 65.88 79.84 66.15 79.03 66.41 79.36 66.68 80.66 66.94 80.33 67.21 81.07 67.47 82.61 67.74 82.75"/><polyline class="l" points="67.74 82.75 68.01 83.36 68.27 82.67 68.54 79.8 68.8 80.18 69.07 81.73 69.33 83.16 69.6 84.32 69.86 86.31 70.13 87.75 70.39 87.52 70.66 87.65 70.93 87.91 71.19 90.01 71.46 94.92 71.72 95.45 71.99 94.43 72.25 95.51 72.52 99.54 72.78 103.77 73.05 105.6 73.32 106.04 73.58 107.5 73.85 107.53 74.11 109.63 74.38 111.33 74.64 110.56 74.91 109.15 75.17 111.35 75.44 112 75.7 113.25 75.97 119.54 76.24 124.72 76.5 128.89 76.77 128.88 77.03 128.56 77.3 126.11 77.56 123.99 77.83 123.33 78.09 120.19 78.36 120.6 78.63 120.8 78.89 120.9 79.16 119.68 79.42 117.82 79.69 117.77 79.95 116.54 80.22 118.1 80.48 118.29 80.75 113.6"/><polyline class="l" points="80.75 113.6 81.01 113.39 81.28 112.54 81.55 112.68 81.81 111 82.08 107.98 82.34 105.96 82.61 101.24 82.87 97.62 83.14 97.28 83.4 94.78 83.67 91.51 83.94 86.57 84.2 83.33 84.47 80.34 84.73 79.38 85 81.5 85.26 81.63 85.53 81.22 85.79 78.47 86.06 77.95 86.32 79.68 86.59 79.67 86.86 78.95 87.12 76.82 87.39 74.83 87.65 75.2 87.92 75.97 88.18 73.9 88.45 72.73 88.71 73.57 88.98 73.09 89.25 72.29 89.51 69.7 89.78 65.05 90.04 63 90.31 61.65 90.57 60.51 90.84 59.4 91.1 57.34 91.37 57.46 91.63 56.1 91.9 54.57 92.17 55.69 92.43 60.05 92.7 62.74 92.96 63.85 93.23 65.53 93.49 66.68 93.76 65.75"/><polyline class="l" points="93.76 65.75 94.02 66.5 94.29 68.06 94.56 70.15 94.82 72.32 95.09 71.51 95.35 69.24 95.62 67.28 95.88 66.62 96.15 65.17 96.41 65.89 96.68 66.66 96.94 65.93 97.21 65.91 97.48 65.76 97.74 66.2 98.01 66.42 98.27 63.64 98.54 61.5 98.8 61.08 99.07 60.73 99.33 57.96 99.6 53.78 99.87 50.26 100.13 44.32 100.4 44.56 100.66 42.69 100.93 42.48 101.19 42.92 101.46 40.06 101.72 39.52 101.99 41.42 102.25 45.13 102.52 47.57 102.79 48.42 103.05 47.74 103.32 47.48 103.58 48.43 103.85 47.9 104.11 46.47 104.38 45.76 104.64 49.11 104.91 49.98 105.18 52.37 105.44 52.23 105.71 51.55 105.97 52.54 106.24 52.68 106.5 49.56 106.77 46.59"/><polyline class="l" points="106.77 46.59 107.03 47.59 107.3 49.79 107.56 53.25 107.83 56.87 108.1 61.06 108.36 63.02 108.63 63.61 108.89 62.8 109.16 62.33 109.42 61.84 109.69 63.79 109.95 65.9 110.22 66.74 110.49 67.3 110.75 66.36 111.02 65.56 111.28 64.99 111.55 61.69 111.81 61.78 112.08 63.97 112.34 66.98 112.61 66.72 112.87 63.71 113.14 62.07 113.41 58.89 113.67 59.21 113.94 58.3 114.2 58.62 114.47 58.87 114.73 58.48 115 55.7 115.26 55.4 115.53 58.19 115.8 59.29 116.06 60.62 116.33 60.08 116.59 58.77 116.86 58.16 117.12 57.83 117.39 56.81 117.65 56.41 117.92 57.52 118.18 59.77 118.45 58.51 118.72 55.67 118.98 53.73 119.25 52.98 119.51 54.49 119.78 56.69"/><polyline class="l" points="119.78 56.69 120.04 55.6 120.31 52.35 120.57 49.43 120.84 47.85 121.11 45.88 121.37 45.56 121.64 46.32 121.9 46.76 122.17 48.32 122.43 48.61 122.7 46.92 122.96 48.42 123.23 47.75 123.49 46.78 123.76 46.11 124.03 46.07 124.29 47.76 124.56 49.98 124.82 51.64 125.09 54.04 125.35 54.27 125.62 54.92 125.88 55.88 126.15 55.17 126.42 53.65 126.68 51.47 126.95 54.24 127.21 55.57 127.48 55.25 127.74 55.68 128.01 53.51 128.27 50.64 128.54 47.31 128.8 45.56 129.07 45.71 129.34 46.83 129.6 49.55 129.87 50.27 130.13 51.15 130.4 51.77 130.66 51.98 130.93 50.04 131.19 48.73 131.46 50.79 131.73 51.21 131.99 52.17 132.26 50.2 132.52 49.36 132.79 49.63"/><polyline class="l" points="132.79 49.63 133.05 48.29 133.32 50.23 133.58 52.3 133.85 53.86 134.11 54.85 134.38 55.79 134.65 58.3 134.91 58.13 135.18 57.41 135.44 58.15 135.71 57.94 135.97 58.43 136.24 57.35 136.5 56.95 136.77 54.65 137.04 51.68 137.3 54.43 137.57 56 137.83 57.32 138.1 57.71 138.36 56.72 138.63 57.75 138.89 59.76 139.16 63.09 139.42 64.62 139.69 65.33 139.96 64.95 140.22 64.58 140.49 64.63 140.75 63.16 141.02 63.08 141.28 64.58 141.55 67 141.81 67.14 142.08 64.32 142.35 65.16 142.61 66.18 142.88 67.28 143.14 68.82 143.41 70.33 143.67 69.82 143.94 67.07 144.2 65.18 144.47 64.23 144.73 64.42 145 64.31 145.27 63.88 145.53 66.25 145.8 68.24"/><polyline class="l" points="145.8 68.24 146.06 69.22 146.33 71.38 146.59 69.64 146.86 66.98 147.12 63.39 147.39 64.03 147.66 63.13 147.92 67.29 148.19 72.63 148.45 73.99 148.72 77.35 148.98 77.84 149.25 76.47 149.51 72.82 149.78 70.97 150.04 71.08 150.31 69.79 150.58 69.74 150.84 69.7 151.11 68.88 151.37 67.97 151.64 68.54 151.9 71.1 152.17 71.14 152.43 70 152.7 68.89 152.97 66.35 153.23 65.15 153.5 68.25 153.76 68.82 154.03 68 154.29 67.96 154.56 68.5 154.82 71.01 155.09 71.93 155.35 72.98 155.62 73.42 155.89 72.19 156.15 71.54 156.42 69.6 156.68 71.01 156.95 69.85 157.21 66.7 157.48 67.05 157.74 66.26 158.01 65.47 158.28 66.2 158.54 65.53 158.81 64.46"/><polyline class="l" points="158.81 64.46 159.07 60.37 159.34 58.47 159.6 59.39 159.87 60.13 160.13 62.4 160.4 65.26 160.66 67.88 160.93 67.44 161.2 68.33 161.46 67.89 161.73 68.67 161.99 70.22 162.26 69.11 162.52 67.67 162.79 67.08 163.05 67 163.32 69.31 163.59 73.48 163.85 77.14 164.12 79.24 164.38 79.99 164.65 77.98 164.91 79.35 165.18 76.09 165.44 64.15 165.71 67.18 165.97 70.07 166.24 71.37 166.51 73.36 166.77 73.61 167.04 73.04 167.3 72.71 167.57 72.57 167.83 71.79 168.1 70.75 168.36 68.44 168.63 68.21 168.9 68.93 169.16 68.01 169.43 67.73 169.69 67.56 169.96 68.24 170.22 69.12 170.49 70.6 170.75 69.87 171.02 70.42 171.28 69.2 171.55 68.1 171.82 69.27"/><polyline class="l" points="171.82 69.27 172.08 69.14 172.35 67.77 172.61 68.95 172.88 66.92 173.14 64.6 173.41 64.52 173.67 63.4 173.94 63.33 174.21 61.33 174.47 59.26 174.74 58.38 174.75 58.42"/><polyline class="k" points="41.97 95.04 41.99 95.01 42.25 94.94 42.52 95.76 42.78 95.84 43.05 96.02 43.31 96.17 43.58 95.71 43.84 96.04 44.11 96.39 44.38 95.95 44.64 95.49 44.91 95.21 45.17 95.22 45.44 95.51 45.7 95.39 45.97 95.62 46.23 95.52 46.5 95.42 46.77 95.37 47.03 95.19 47.3 95.1 47.56 94.84 47.83 94.66 48.09 94.45 48.36 94.45 48.62 94.47 48.89 94.23 49.15 93.53 49.42 93.06 49.69 92.88 49.95 92.55 50.22 92.3 50.48 91.61 50.75 91.42 51.01 91.44 51.28 91.38 51.54 91.15 51.81 91.1 52.08 90.84 52.34 90.6 52.61 89.82 52.87 88.77 53.14 87.87 53.4 87.53 53.67 87.11 53.93 86.45 54.2 86.21 54.46 85.68 54.73 85.46"/><polyline class="k" points="54.73 85.46 55 85.79 55.26 85.88 55.53 85.63 55.79 85.78 56.06 85.19 56.32 85.14 56.59 85.03 56.85 84.94 57.12 84.76 57.39 84.24 57.65 84.05 57.92 82.92 58.18 81.95 58.45 81.33 58.71 80.68 58.98 80.27 59.24 79.42 59.51 79.04 59.77 78.94 60.04 78.42 60.31 77.87 60.57 77.39 60.84 76.72 61.1 76.16 61.37 76.09 61.63 76.27 61.9 76.05 62.16 75.91 62.43 75.33 62.7 75.24 62.96 74.99 63.23 74.55 63.49 74.58 63.76 74.83 64.02 75.12 64.29 75.42 64.55 75.48 64.82 74.93 65.08 74.76 65.35 74.74 65.62 74.04 65.88 73.87 66.15 74.03 66.41 74.3 66.68 74.53 66.94 73.75 67.21 72.8 67.47 71.97 67.74 71.74"/><polyline class="k" points="67.74 71.74 68.01 71.47 68.27 70.89 68.54 70.1 68.8 70.05 69.07 69.81 69.33 69.7 69.6 69.11 69.86 68.14 70.13 67.51 70.39 66.77 70.66 66.29 70.93 65.68 71.19 65.19 71.46 64.44 71.72 64.28 71.99 64.12 72.25 63.61 72.52 63.59 72.78 63.81 73.05 63.76 73.32 63.85 73.58 63.58 73.85 62.51 74.11 61.15 74.38 59.85 74.64 58.95 74.91 58.79 75.17 58.44 75.44 57.76 75.7 56.84 75.97 56.49 76.24 56.15 76.5 56.05 76.77 56.05 77.03 56.15 77.3 55.75 77.56 55.99 77.83 56.13 78.09 55.85 78.36 55.92 78.63 55.53 78.89 55.36 79.16 55.34 79.42 55.41 79.69 55.39 79.95 55.66 80.22 56.27 80.48 56.84 80.75 56.88"/><polyline class="k" points="80.75 56.88 81.01 56.67 81.28 56.77 81.55 57.14 81.81 57.21 82.08 57.93 82.34 57.91 82.61 58.48 82.87 58.81 83.14 59.61 83.4 60.32 83.67 60.79 83.94 61.47 84.2 62 84.47 62.83 84.73 63.1 85 63.22 85.26 63.47 85.53 63.93 85.79 63.99 86.06 64.28 86.32 64.47 86.59 64.9 86.86 65.9 87.12 66.61 87.39 67.78 87.65 68.42 87.92 69.04 88.18 70.35 88.45 70.74 88.71 71.63 88.98 71.77 89.25 72.16 89.51 72.53 89.78 72.48 90.04 72.74 90.31 72.97 90.57 73.27 90.84 73.61 91.1 74.02 91.37 74.1 91.63 74.19 91.9 74.78 92.17 74.47 92.43 74.92 92.7 75.19 92.96 75.61 93.23 76.16 93.49 76.29 93.76 76.81"/><polyline class="k" points="93.76 76.81 94.02 77.2 94.29 77.68 94.56 77.8 94.82 78.29 95.09 78.81 95.35 79.5 95.62 80.31 95.88 81.16 96.15 81.58 96.41 82.33 96.68 83 96.94 83.28 97.21 83.57 97.48 83.66 97.74 83.87 98.01 83.95 98.27 84.63 98.54 85.38 98.8 86.07 99.07 86.3 99.33 86.83 99.6 87.25 99.87 87 100.13 86.74 100.4 86.42 100.66 86.77 100.93 87.53 101.19 88.17 101.46 88.61 101.72 88.72 101.99 88.8 102.25 88.35 102.52 88.18 102.79 88.17 103.05 88.41 103.32 88.38 103.58 88.63 103.85 88.27 104.11 88.14 104.38 88.2 104.64 87.47 104.91 87.03 105.18 86.97 105.44 86.36 105.71 85.93 105.97 86.31 106.24 86.69 106.5 86.94 106.77 87.24"/><polyline class="k" points="106.77 87.24 107.03 87.43 107.3 87.66 107.56 87.78 107.83 87.81 108.1 88.13 108.36 88.1 108.63 88.41 108.89 88.6 109.16 88.58 109.42 88.75 109.69 88.55 109.95 89.09 110.22 89.19 110.49 89.59 110.75 90.15 111.02 90.32 111.28 90.41 111.55 89.95 111.81 89.96 112.08 89.86 112.34 90.23 112.61 90.13 112.87 89.69 113.14 89.22 113.41 88.99 113.67 88.91 113.94 88.86 114.2 88.97 114.47 89.06 114.73 89.54 115 89.64 115.26 89.47 115.53 89.11 115.8 88.96 116.06 89.31 116.33 89.66 116.59 89.99 116.86 90.49 117.12 90.8 117.39 91 117.65 91.59 117.92 92.09 118.18 92.65 118.45 92.73 118.72 92.61 118.98 93.32 119.25 94.27 119.51 94.44 119.78 95.27"/><polyline class="k" points="119.78 95.27 120.04 95.2 120.31 95.11 120.57 95.47 120.84 95.52 121.11 95.6 121.37 95.62 121.64 95.4 121.9 95.3 122.17 95.22 122.43 95.32 122.7 95 122.96 95.48 123.23 95.28 123.49 95.94 123.76 96.64 124.03 96.67 124.29 97.21 124.56 97.27 124.82 97.34 125.09 97.21 125.35 97.06 125.62 96.52 125.88 96.43 126.15 97.08 126.42 97.73 126.68 97.98 126.95 97.85 127.21 98.47 127.48 98.12 127.74 98.21 128.01 98.75 128.27 99.26 128.54 99.44 128.8 99.74 129.07 100.01 129.34 99.79 129.6 99.72 129.87 99.98 130.13 100.1 130.4 99.72 130.66 99.42 130.93 98.87 131.19 98.68 131.46 98.81 131.73 99.12 131.99 98.6 132.26 98.3 132.52 98.91 132.79 99.17"/><polyline class="k" points="132.79 99.17 133.05 99.63 133.32 99.65 133.58 99.77 133.85 99.63 134.11 100.12 134.38 99.74 134.65 99.45 134.91 99.5 135.18 99.39 135.44 99 135.71 99.03 135.97 99.68 136.24 100.01 136.5 100.01 136.77 100.19 137.04 100.23 137.3 99.81 137.57 99.71 137.83 99.7 138.1 99.65 138.36 99.49 138.63 99.27 138.89 98.8 139.16 98.42 139.42 98.25 139.69 98.25 139.96 97.85 140.22 97.52 140.49 96.94 140.75 97.11 141.02 97.18 141.28 97.13 141.55 96.79 141.81 95.77 142.08 95.16 142.35 95.23 142.61 94.75 142.88 94.31 143.14 93.77 143.41 93.6 143.67 93.11 143.94 92.4 144.2 92.44 144.47 92.36 144.73 92.58 145 92.69 145.27 92.77 145.53 92.88 145.8 92.92"/><polyline class="k" points="145.8 92.92 146.06 93.48 146.33 93.25 146.59 93.18 146.86 93.1 147.12 93.15 147.39 92.99 147.66 92.54 147.92 93.24 148.19 93.26 148.45 93.88 148.72 94.4 148.98 93.77 149.25 93.28 149.51 92.95 149.78 92.46 150.04 92.09 150.31 91.83 150.58 91.67 150.84 91.66 151.11 91.94 151.37 92.53 151.64 93.09 151.9 92.79 152.17 93.32 152.43 93.72 152.7 93.29 152.97 93.17 153.23 92.77 153.5 92.85 153.76 92.06 154.03 91.33 154.29 90.83 154.56 90.82 154.82 90.98 155.09 91.53 155.35 91.55 155.62 91.35 155.89 90.82 156.15 90.19 156.42 89.59 156.68 89.25 156.95 89.19 157.21 89.36 157.48 89.53 157.74 89.9 158.01 91.12 158.28 91.46 158.54 91.33 158.81 91.06"/><polyline class="k" points="158.81 91.06 159.07 90.96 159.34 90.86 159.6 90.41 159.87 90.83 160.13 91.03 160.4 91.21 160.66 91.57 160.93 91.37 161.2 91.12 161.46 90.16 161.73 89.76 161.99 88.82 162.26 88.58 162.52 88.66 162.79 88.55 163.05 89.02 163.32 89.25 163.59 89.58 163.85 89.63 164.12 89.23 164.38 88.97 164.65 88.63 164.91 89.05 165.18 89.53 165.44 90.25 165.71 91.09 165.97 91.14 166.24 91.12 166.51 90.66 166.77 90.83 167.04 90.63 167.3 90.8 167.57 90.53 167.83 90.85 168.1 90.18 168.36 89.95 168.63 89.97 168.9 89.83 169.16 90.17 169.43 90.03 169.69 90.15 169.96 89.83 170.22 89.56 170.49 89.58 170.75 89.2 171.02 88.95 171.28 88.72 171.55 88.4 171.82 87.81"/><polyline class="k" points="171.82 87.81 172.08 86.89 172.35 86.36 172.61 85.48 172.88 84.6 173.14 84.41 173.41 84.37 173.67 84.22 173.94 84.26 174.21 84.36 174.47 84.95 174.74 85.65 174.75 85.65"/><g><path class="v" d="M56.87,48.09c-.29,.14-.86,.29-1.6,.29-1.71,0-3-1.08-3-3.07s1.29-3.19,3.17-3.19c.76,0,1.23,.16,1.44,.27l-.19,.64c-.3-.14-.72-.25-1.22-.25-1.42,0-2.37,.91-2.37,2.5,0,1.49,.86,2.44,2.33,2.44,.48,0,.96-.1,1.28-.25l.16,.62Z"/><path class="v" d="M57.85,42.29c.38-.06,.87-.12,1.5-.12,.77,0,1.34,.18,1.7,.5,.33,.29,.53,.73,.53,1.27s-.16,.98-.47,1.3c-.41,.44-1.09,.67-1.85,.67-.23,0-.45,0-.63-.05v2.43h-.78v-6Zm.78,2.93c.17,.04,.39,.06,.65,.06,.95,0,1.52-.46,1.52-1.3s-.57-1.19-1.43-1.19c-.34,0-.6,.03-.74,.06v2.36Z"/></g><g><line class="u" x1="61.43" y1="48.49" x2="71.73" y2="58.79"/><path class="w" d="M71.59,58.65c0-.74,.55-1.65,1.05-2.17-.17,1.19-.11,2.44,.35,3.57-1.12-.48-2.37-.48-3.57-.35,.59-.5,1.38-1.03,2.17-1.05Z"/></g><g><line class="u" x1="91.98" y1="126.87" x2="79.31" y2="126.87"/><path class="w" d="M79.51,126.87c.52,.52,.77,1.56,.79,2.27-.72-.96-1.65-1.8-2.77-2.27,1.13-.45,2.02-1.34,2.77-2.27-.06,.77-.25,1.7-.79,2.27Z"/></g></g><g><g><path class="v" d="M227.26,109.99c.18,.36,.36,1.08,.36,1.99,0,2.13-1.34,3.73-3.82,3.73s-3.96-1.6-3.96-3.94c0-.94,.2-1.53,.34-1.79l.8,.24c-.18,.37-.31,.9-.31,1.52,0,1.77,1.13,2.95,3.11,2.95,1.85,0,3.04-1.06,3.04-2.9,0-.59-.12-1.2-.31-1.59l.77-.2Z"/><path class="v" d="M220.05,108.77c-.09-.59-.16-1.3-.16-2.07,0-1.4,.33-2.4,.94-3.06,.62-.67,1.49-1.06,2.71-1.06s2.24,.38,2.93,1.09c.71,.71,1.09,1.87,1.09,3.34,0,.69-.03,1.28-.09,1.77h-7.43Zm6.67-.97c.04-.25,.06-.6,.06-.99,0-2.08-1.16-3.21-3.2-3.21-1.78-.01-2.91,1-2.91,3.06,0,.5,.04,.88,.1,1.14h5.96Z"/><path class="v" d="M219.95,101.31v-4.07h.82v3.09h2.51v-2.86h.81v2.86h3.42v.97h-7.55Z"/><path class="v" d="M220.04,86.37c-.08-.47-.15-1.09-.15-1.87,0-.96,.22-1.67,.63-2.12,.36-.41,.91-.66,1.58-.66s1.22,.2,1.61,.58c.55,.52,.83,1.36,.83,2.31,0,.29-.01,.56-.07,.78h3.02v.97h-7.46Zm3.64-.97c.06-.21,.08-.48,.08-.81,0-1.18-.57-1.89-1.61-1.89s-1.48,.71-1.48,1.78c0,.43,.03,.75,.08,.92h2.93Z"/><path class="v" d="M219.73,78.31c1.1,.82,2.55,1.41,4.58,1.41s3.43-.62,4.55-1.41v.77c-.93,.71-2.36,1.47-4.55,1.47-2.21-.01-3.64-.76-4.58-1.47v-.77Z"/><path class="v" d="M222.08,76.81l1.17-.77c.3-.2,.58-.37,.88-.55v-.03c-.32-.18-.6-.36-.9-.54l-1.15-.76v-1.06l2.62,1.85,2.8-1.9v1.12l-1.22,.8c-.31,.21-.62,.39-.94,.58v.02c.32,.18,.62,.37,.94,.57l1.22,.78v1.09l-2.77-1.93-2.65,1.84v-1.1Z"/><path class="v" d="M224.23,69.79h-.66l-2.15-5.2h.74l1.74,4.28h.02l1.72-4.28h.75l-2.16,5.2Zm3.27-.02h-.65v-5.17h.65v5.17Z"/><path class="v" d="M227.5,56.49l-1.67,.96c-.64,.39-1.05,.64-1.49,.87v.02c.44,.21,.84,.43,1.5,.82l1.66,.91v1.12l-3.82-2.31-3.73,2.22v-1.13l1.77-1c.49-.28,.87-.49,1.28-.69v-.03c-.45-.21-.79-.4-1.28-.68l-1.77-1.03v-1.12l3.67,2.3,3.88-2.35v1.13Z"/><path class="v" d="M228.86,54.86c-1.11-.79-2.56-1.41-4.58-1.41s-3.44,.6-4.55,1.41v-.76c.92-.72,2.35-1.47,4.56-1.47s3.62,.75,4.57,1.47v.76Z"/></g><g><path class="v" d="M270.7,152.06c.01,.34-.23,.6-.63,.6-.35,0-.59-.27-.59-.6s.26-.62,.62-.62,.6,.27,.6,.62Zm-1.1,6.94v-5.42h.99v5.42h-.99Z"/><path class="v" d="M276.17,155.46h-2.93v2.72h3.27v.82h-4.25v-7.55h4.08v.82h-3.1v2.39h2.93v.81Z"/><path class="v" d="M277.77,151.55c.49-.1,1.2-.16,1.87-.16,1.04,0,1.71,.19,2.18,.62,.38,.34,.59,.85,.59,1.43,0,1-.63,1.66-1.42,1.93v.03c.58,.2,.93,.74,1.11,1.52,.25,1.05,.43,1.78,.58,2.07h-1.01c-.12-.21-.29-.86-.5-1.8-.22-1.04-.63-1.43-1.51-1.47h-.92v3.27h-.97v-7.45Zm.97,3.44h1c1.04,0,1.7-.57,1.7-1.43,0-.97-.71-1.4-1.74-1.41-.47,0-.81,.04-.96,.09v2.75Z"/><path class="v" d="M283.79,159v-7.55h1.06l2.42,3.82c.56,.88,1,1.68,1.35,2.45h.02c-.09-1.02-.11-1.94-.11-3.11v-3.16h.92v7.55h-.99l-2.4-3.83c-.53-.84-1.03-1.7-1.41-2.52h-.03c.06,.96,.08,1.87,.08,3.12v3.23h-.92Z"/><path class="v" d="M293.5,151.05h.99v7.95h-.99v-7.95Z"/><path class="v" d="M299.14,159l-.08-.68h-.03c-.3,.43-.88,.81-1.66,.81-1.1,0-1.66-.77-1.66-1.56,0-1.31,1.17-2.03,3.26-2.02v-.11c0-.45-.12-1.25-1.23-1.25-.5,0-1.03,.16-1.41,.4l-.22-.65c.45-.29,1.1-.48,1.78-.48,1.66,0,2.06,1.13,2.06,2.22v2.03c0,.47,.02,.93,.09,1.3h-.9Zm-.15-2.77c-1.08-.02-2.3,.17-2.3,1.22,0,.64,.42,.94,.93,.94,.71,0,1.15-.45,1.31-.91,.03-.1,.06-.21,.06-.31v-.94Z"/><path class="v" d="M302.68,152.02v1.56h1.41v.75h-1.41v2.92c0,.67,.19,1.05,.74,1.05,.26,0,.45-.03,.57-.07l.04,.74c-.19,.08-.49,.13-.87,.13-.46,0-.83-.15-1.06-.41-.28-.29-.38-.77-.38-1.41v-2.96h-.84v-.75h.84v-1.3l.96-.26Z"/><path class="v" d="M305.68,156.47c.02,1.33,.87,1.88,1.86,1.88,.71,0,1.13-.12,1.5-.28l.17,.71c-.35,.16-.94,.34-1.8,.34-1.67,0-2.67-1.1-2.67-2.73s.96-2.92,2.54-2.92c1.77,0,2.24,1.56,2.24,2.55,0,.2-.02,.36-.03,.46h-3.81Zm2.89-.71c.01-.63-.26-1.6-1.37-1.6-1,0-1.43,.92-1.51,1.6h2.88Z"/><path class="v" d="M310.74,155.05c0-.56-.01-1.02-.04-1.47h.87l.06,.9h.02c.27-.52,.9-1.02,1.79-1.02,.75,0,1.92,.45,1.92,2.31v3.24h-.99v-3.12c0-.87-.33-1.6-1.25-1.6-.65,0-1.15,.46-1.32,1.01-.04,.12-.07,.29-.07,.46v3.26h-.99v-3.95Z"/><path class="v" d="M320.82,158.8c-.26,.13-.83,.31-1.56,.31-1.64,0-2.7-1.11-2.7-2.77s1.14-2.88,2.91-2.88c.58,0,1.1,.15,1.37,.28l-.22,.76c-.23-.13-.6-.26-1.14-.26-1.24,0-1.92,.92-1.92,2.05,0,1.25,.81,2.03,1.88,2.03,.56,0,.93-.15,1.21-.27l.17,.74Z"/><path class="v" d="M322.53,153.58l1.19,3.2c.12,.36,.26,.78,.35,1.11h.02c.1-.32,.21-.74,.35-1.13l1.08-3.18h1.04l-1.48,3.86c-.71,1.86-1.19,2.81-1.86,3.39-.48,.43-.96,.59-1.21,.64l-.25-.83c.25-.08,.57-.24,.86-.48,.27-.21,.6-.59,.83-1.1,.04-.1,.08-.18,.08-.24s-.02-.13-.07-.26l-2-5h1.08Z"/><path class="v" d="M329.92,160.26v-8.93h2.05v.62h-1.29v7.69h1.29v.62h-2.05Z"/><path class="v" d="M333,155.05c0-.56-.01-1.02-.04-1.47h.86l.04,.87h.03c.3-.52,.81-1,1.7-1,.74,0,1.3,.45,1.53,1.09h.02c.17-.3,.38-.54,.6-.71,.33-.25,.68-.38,1.2-.38,.72,0,1.78,.47,1.78,2.35v3.19h-.96v-3.07c0-1.04-.38-1.67-1.18-1.67-.56,0-1,.41-1.17,.9-.04,.13-.08,.31-.08,.49v3.35h-.96v-3.25c0-.86-.38-1.49-1.13-1.49-.62,0-1.06,.49-1.22,.99-.06,.15-.08,.31-.08,.48v3.27h-.96v-3.95Z"/><path class="v" d="M342.2,157.99c.29,.19,.81,.39,1.3,.39,.72,0,1.05-.36,1.05-.81,0-.47-.28-.73-1.01-1-.97-.35-1.43-.88-1.43-1.53,0-.87,.71-1.59,1.87-1.59,.55,0,1.03,.16,1.33,.34l-.25,.72c-.21-.13-.61-.31-1.11-.31-.58,0-.91,.34-.91,.74,0,.45,.33,.65,1.03,.92,.94,.36,1.42,.83,1.42,1.63,0,.95-.74,1.62-2.03,1.62-.59,0-1.14-.15-1.52-.37l.25-.75Z"/><path class="v" d="M348.21,151.32v8.94h-2.05v-.62h1.29v-7.71h-1.29v-.62h2.05Z"/></g><g><g><path class="v" d="M348.48,69.78v5.23c0,.38,0,.82,.04,1.12h-.71l-.04-.75h-.02c-.24,.48-.77,.85-1.48,.85-1.05,0-1.85-.88-1.85-2.2,0-1.44,.88-2.33,1.94-2.33,.66,0,1.11,.31,1.31,.66h.02v-2.58h.79Zm-.79,3.78c0-.1,0-.23-.04-.33-.12-.5-.54-.91-1.14-.91-.81,0-1.3,.72-1.3,1.67,0,.88,.43,1.6,1.28,1.6,.53,0,1.01-.35,1.15-.94,.03-.11,.04-.21,.04-.34v-.75Z"/><path class="v" d="M350.8,74.23l-.63,1.9h-.8l2.05-6.03h.94l2.06,6.03h-.83l-.64-1.9h-2.14Zm1.98-.61l-.59-1.73c-.13-.39-.22-.75-.31-1.1h-.02c-.09,.36-.19,.72-.3,1.09l-.59,1.74h1.81Z"/><path class="v" d="M359.51,75.93c-.29,.14-.86,.29-1.59,.29-1.7,0-2.98-1.07-2.98-3.05s1.28-3.17,3.15-3.17c.75,0,1.22,.16,1.43,.27l-.19,.63c-.29-.14-.71-.25-1.22-.25-1.41,0-2.35,.9-2.35,2.49,0,1.48,.85,2.42,2.32,2.42,.47,0,.96-.1,1.27-.25l.16,.62Z"/><path class="v" d="M364.7,75.93c-.29,.14-.86,.29-1.59,.29-1.7,0-2.98-1.07-2.98-3.05s1.28-3.17,3.15-3.17c.75,0,1.22,.16,1.43,.27l-.19,.63c-.29-.14-.71-.25-1.22-.25-1.41,0-2.35,.9-2.35,2.49,0,1.48,.85,2.42,2.32,2.42,.47,0,.96-.1,1.27-.25l.16,.62Z"/></g><line class="q" x1="331.38" y1="73.23" x2="342.38" y2="73.23"/></g><g><g><path class="v" d="M271.78,73.22c0-.55-.02-1-.04-1.41h.71l.04,.74h.02c.32-.53,.83-.84,1.54-.84,1.05,0,1.83,.89,1.83,2.2,0,1.56-.95,2.32-1.97,2.32-.57,0-1.07-.25-1.33-.68h-.02v2.35h-.78v-4.69Zm.78,1.15c0,.12,.02,.22,.04,.32,.14,.55,.62,.92,1.18,.92,.83,0,1.31-.68,1.31-1.67,0-.87-.46-1.61-1.29-1.61-.54,0-1.04,.38-1.19,.97-.03,.1-.05,.21-.05,.32v.74Z"/><path class="v" d="M276.88,73.15c0-.51,0-.95-.04-1.35h.69l.03,.85h.04c.2-.58,.67-.95,1.2-.95,.09,0,.15,0,.22,.03v.74c-.08-.02-.16-.03-.27-.03-.55,0-.95,.42-1.06,1.01-.02,.11-.04,.23-.04,.37v2.31h-.78v-2.98Z"/><path class="v" d="M280.24,74.11c.02,1.06,.7,1.5,1.48,1.5,.56,0,.9-.1,1.2-.22l.13,.56c-.28,.12-.75,.27-1.44,.27-1.33,0-2.13-.88-2.13-2.18s.77-2.33,2.03-2.33c1.41,0,1.79,1.24,1.79,2.04,0,.16-.02,.29-.03,.37h-3.04Zm2.31-.56c0-.5-.21-1.28-1.09-1.28-.8,0-1.14,.73-1.21,1.28h2.3Z"/><path class="v" d="M286.11,73.42v.58h-2.21v-.58h2.21Z"/><path class="v" d="M286.95,75.18c.35,.21,.86,.39,1.4,.39,.8,0,1.26-.42,1.26-1.03,0-.56-.32-.89-1.14-1.2-.98-.35-1.59-.86-1.59-1.71,0-.94,.78-1.64,1.95-1.64,.62,0,1.06,.14,1.33,.29l-.21,.63c-.2-.11-.6-.29-1.14-.29-.82,0-1.14,.49-1.14,.9,0,.56,.37,.84,1.2,1.16,1.02,.39,1.54,.89,1.54,1.77,0,.93-.69,1.73-2.11,1.73-.58,0-1.22-.17-1.54-.38l.2-.65Z"/><path class="v" d="M296.55,73.48c-.04-.84-.1-1.85-.09-2.6h-.03c-.21,.71-.46,1.46-.76,2.29l-1.06,2.92h-.59l-.97-2.87c-.29-.85-.53-1.63-.7-2.34h-.02c-.02,.75-.06,1.76-.12,2.66l-.16,2.58h-.74l.42-6.03h.99l1.03,2.92c.25,.74,.46,1.4,.61,2.03h.03c.15-.61,.37-1.27,.63-2.03l1.07-2.92h.99l.38,6.03h-.76l-.15-2.65Z"/><path class="v" d="M299.64,74.24l-.63,1.9h-.8l2.05-6.03h.94l2.06,6.03h-.83l-.64-1.9h-2.14Zm1.98-.61l-.59-1.73c-.13-.39-.22-.75-.31-1.1h-.02c-.09,.36-.19,.72-.3,1.09l-.59,1.74h1.81Z"/></g><line class="r" x1="258.42" y1="72.04" x2="269.42" y2="72.04"/></g><g><path class="v" d="M251.84,140.28v.57h-2.17v-.57h2.17Z"/><path class="v" d="M254.18,137.95h-.02l-.99,.54-.15-.59,1.25-.67h.66v5.72h-.75v-5Z"/><path class="v" d="M260.82,140.03c0,1.95-.72,3.02-1.99,3.02-1.12,0-1.88-1.05-1.89-2.94,0-1.92,.83-2.98,1.99-2.98s1.89,1.07,1.89,2.9Zm-3.11,.09c0,1.49,.46,2.33,1.16,2.33,.79,0,1.17-.92,1.17-2.39s-.36-2.33-1.16-2.33c-.68,0-1.17,.83-1.17,2.39Z"/><path class="v" d="M265.33,140.03c0,1.95-.72,3.02-1.99,3.02-1.12,0-1.88-1.05-1.89-2.94,0-1.92,.83-2.98,1.99-2.98s1.89,1.07,1.89,2.9Zm-3.11,.09c0,1.49,.46,2.33,1.16,2.33,.79,0,1.17-.92,1.17-2.39s-.36-2.33-1.16-2.33c-.68,0-1.17,.83-1.17,2.39Z"/></g><path class="v" d="M283.91,140.03c0,1.95-.72,3.02-1.99,3.02-1.12,0-1.88-1.05-1.89-2.94,0-1.92,.83-2.98,1.99-2.98s1.89,1.07,1.89,2.9Zm-3.11,.09c0,1.49,.46,2.33,1.16,2.33,.79,0,1.17-.92,1.17-2.39s-.36-2.33-1.16-2.33c-.68,0-1.17,.83-1.17,2.39Z"/><g><path class="v" d="M300.23,137.95h-.02l-1,.54-.15-.59,1.25-.67h.66v5.72h-.75v-5Z"/><path class="v" d="M306.87,140.03c0,1.95-.72,3.02-1.99,3.02-1.12,0-1.88-1.05-1.89-2.94,0-1.92,.83-2.98,1.99-2.98s1.89,1.07,1.89,2.9Zm-3.11,.09c0,1.49,.46,2.33,1.16,2.33,.79,0,1.17-.92,1.17-2.39s-.36-2.33-1.16-2.33c-.68,0-1.17,.83-1.17,2.39Z"/><path class="v" d="M311.38,140.03c0,1.95-.72,3.02-1.99,3.02-1.12,0-1.88-1.05-1.89-2.94,0-1.92,.83-2.98,1.99-2.98s1.89,1.07,1.89,2.9Zm-3.11,.09c0,1.49,.46,2.33,1.16,2.33,.79,0,1.17-.92,1.17-2.39s-.36-2.33-1.16-2.33c-.68,0-1.17,.83-1.17,2.39Z"/></g><g><path class="v" d="M321.15,142.95v-.48l.61-.59c1.46-1.39,2.12-2.13,2.13-2.99,0-.58-.28-1.12-1.14-1.12-.52,0-.95,.26-1.22,.48l-.25-.55c.4-.33,.96-.58,1.62-.58,1.23,0,1.75,.85,1.75,1.66,0,1.06-.77,1.91-1.97,3.07l-.46,.42v.02h2.57v.64h-3.65Z"/><path class="v" d="M329.47,140.03c0,1.95-.72,3.02-1.99,3.02-1.12,0-1.88-1.05-1.89-2.94,0-1.92,.83-2.98,1.99-2.98s1.89,1.07,1.89,2.9Zm-3.11,.09c0,1.49,.46,2.33,1.16,2.33,.79,0,1.17-.92,1.17-2.39s-.36-2.33-1.16-2.33c-.68,0-1.17,.83-1.17,2.39Z"/><path class="v" d="M333.99,140.03c0,1.95-.72,3.02-1.99,3.02-1.12,0-1.88-1.05-1.89-2.94,0-1.92,.83-2.98,1.99-2.98s1.89,1.07,1.89,2.9Zm-3.11,.09c0,1.49,.46,2.33,1.16,2.33,.79,0,1.17-.92,1.17-2.39s-.36-2.33-1.16-2.33c-.68,0-1.17,.83-1.17,2.39Z"/></g><g><path class="v" d="M345.04,142.06c.22,.14,.73,.36,1.27,.36,1,0,1.3-.63,1.29-1.11,0-.8-.73-1.14-1.48-1.14h-.43v-.58h.43c.56,0,1.28-.29,1.28-.97,0-.46-.29-.86-1-.86-.46,0-.9,.2-1.14,.38l-.2-.56c.3-.22,.88-.44,1.5-.44,1.13,0,1.64,.67,1.64,1.36,0,.59-.35,1.09-1.06,1.35v.02c.7,.14,1.28,.67,1.28,1.47,0,.92-.71,1.72-2.09,1.72-.64,0-1.21-.2-1.49-.39l.21-.6Z"/><path class="v" d="M353.17,140.03c0,1.95-.72,3.02-1.99,3.02-1.12,0-1.88-1.05-1.89-2.94,0-1.92,.83-2.98,1.99-2.98s1.89,1.07,1.89,2.9Zm-3.11,.09c0,1.49,.46,2.33,1.16,2.33,.79,0,1.17-.92,1.17-2.39s-.36-2.33-1.16-2.33c-.68,0-1.17,.83-1.17,2.39Z"/><path class="v" d="M357.69,140.03c0,1.95-.72,3.02-1.99,3.02-1.12,0-1.88-1.05-1.89-2.94,0-1.92,.83-2.98,1.99-2.98s1.89,1.07,1.89,2.9Zm-3.11,.09c0,1.49,.46,2.33,1.16,2.33,.79,0,1.17-.92,1.17-2.39s-.36-2.33-1.16-2.33c-.68,0-1.17,.83-1.17,2.39Z"/></g><path class="b" d="M251.57,132.83V41.22m0,91.6h2.2m-2.2-9.16h2.2m-2.2-9.16h2.2m-2.2-9.16h2.2m-2.2-9.16h2.2m-2.2-9.16h2.2m-2.2-9.16h2.2m-2.2-9.16h2.2m-2.2-9.16h2.2m-2.2-9.16h2.2m-2.2-9.16h2.2"/><path class="v" d="M246.97,132.66c0,1.95-.72,3.02-1.99,3.02-1.12,0-1.88-1.05-1.89-2.94,0-1.92,.83-2.98,1.99-2.98s1.89,1.07,1.89,2.9Zm-3.11,.09c0,1.49,.46,2.33,1.16,2.33,.79,0,1.17-.92,1.17-2.39s-.36-2.33-1.16-2.33c-.68,0-1.17,.83-1.17,2.39Z"/><g><path class="v" d="M241.02,114.33c0,1.95-.72,3.02-1.99,3.02-1.12,0-1.88-1.05-1.89-2.94,0-1.92,.83-2.98,1.99-2.98s1.89,1.07,1.89,2.9Zm-3.11,.09c0,1.49,.46,2.33,1.16,2.33,.79,0,1.17-.92,1.17-2.39s-.36-2.33-1.16-2.33c-.68,0-1.17,.83-1.17,2.39Z"/><path class="v" d="M241.8,116.8c0-.33,.22-.55,.53-.55s.52,.23,.52,.55-.2,.55-.53,.55c-.31,0-.52-.24-.52-.55Z"/><path class="v" d="M243.56,117.26v-.48l.61-.59c1.46-1.39,2.12-2.13,2.13-2.99,0-.58-.28-1.12-1.14-1.12-.52,0-.95,.26-1.21,.48l-.25-.55c.4-.33,.96-.58,1.62-.58,1.23,0,1.75,.85,1.75,1.66,0,1.06-.77,1.91-1.97,3.07l-.46,.42v.02h2.57v.64h-3.65Z"/></g><g><path class="v" d="M241.02,96.02c0,1.95-.72,3.02-1.99,3.02-1.12,0-1.88-1.05-1.89-2.94,0-1.92,.83-2.98,1.99-2.98s1.89,1.07,1.89,2.9Zm-3.11,.09c0,1.49,.46,2.33,1.16,2.33,.79,0,1.17-.92,1.17-2.39s-.36-2.33-1.16-2.33c-.68,0-1.17,.83-1.17,2.39Z"/><path class="v" d="M241.8,98.48c0-.33,.22-.55,.53-.55s.52,.23,.52,.55-.2,.55-.53,.55c-.31,0-.52-.24-.52-.55Z"/><path class="v" d="M245.95,98.94v-1.56h-2.66v-.51l2.55-3.65h.84v3.56h.8v.61h-.8v1.56h-.73Zm0-2.17v-1.91c0-.3,0-.6,.03-.9h-.03c-.18,.33-.32,.58-.48,.85l-1.4,1.95v.02h1.88Z"/></g><g><path class="v" d="M241.02,77.7c0,1.95-.72,3.02-1.99,3.02-1.12,0-1.88-1.05-1.89-2.94,0-1.92,.83-2.98,1.99-2.98s1.89,1.07,1.89,2.9Zm-3.11,.09c0,1.49,.46,2.33,1.16,2.33,.79,0,1.17-.92,1.17-2.39s-.36-2.33-1.16-2.33c-.68,0-1.17,.83-1.17,2.39Z"/><path class="v" d="M241.8,80.16c0-.33,.22-.55,.53-.55s.52,.23,.52,.55-.2,.55-.53,.55c-.31,0-.52-.24-.52-.55Z"/><path class="v" d="M246.82,75.44c-.16,0-.36,0-.58,.04-1.21,.2-1.86,1.09-1.99,2.03h.03c.27-.36,.75-.66,1.38-.66,1.01,0,1.73,.73,1.73,1.85,0,1.05-.71,2.02-1.9,2.02s-2.02-.95-2.02-2.44c0-1.13,.41-2.02,.97-2.58,.48-.47,1.11-.76,1.83-.85,.23-.04,.42-.04,.56-.04v.63Zm-.22,3.3c0-.82-.47-1.31-1.18-1.31-.47,0-.9,.29-1.11,.7-.05,.09-.09,.2-.09,.34,.02,.94,.45,1.64,1.26,1.64,.67,0,1.12-.55,1.12-1.37Z"/></g><g><path class="v" d="M241.02,59.37c0,1.95-.72,3.02-1.99,3.02-1.12,0-1.88-1.05-1.89-2.94,0-1.92,.83-2.98,1.99-2.98s1.89,1.07,1.89,2.9Zm-3.11,.09c0,1.49,.46,2.33,1.16,2.33,.79,0,1.17-.92,1.17-2.39s-.36-2.33-1.16-2.33c-.68,0-1.17,.83-1.17,2.39Z"/><path class="v" d="M241.8,61.83c0-.33,.22-.55,.53-.55s.52,.23,.52,.55-.2,.55-.53,.55c-.31,0-.52-.24-.52-.55Z"/><path class="v" d="M243.49,60.84c0-.72,.43-1.23,1.14-1.53v-.03c-.64-.3-.92-.79-.92-1.29,0-.91,.77-1.52,1.77-1.52,1.11,0,1.66,.7,1.66,1.41,0,.48-.24,1-.94,1.34v.03c.71,.28,1.15,.78,1.15,1.48,0,1-.85,1.66-1.95,1.66-1.2,0-1.92-.71-1.92-1.55Zm3.08-.04c0-.7-.48-1.03-1.26-1.25-.67,.19-1.03,.63-1.03,1.18-.03,.58,.41,1.09,1.14,1.09s1.14-.43,1.14-1.02Zm-2.13-2.86c0,.57,.43,.88,1.09,1.06,.49-.17,.87-.52,.87-1.04,0-.46-.27-.93-.97-.93-.64,0-.99,.42-.99,.92Z"/></g><path class="v" d="M244.84,38.97h-.02l-.99,.54-.15-.59,1.25-.67h.66v5.72h-.75v-5Z"/><path class="g" d="M251.56,87.02h115.56m-55.74,45.8v-45.8m-9.05,45.8v-45.8"/><path class="m" d="M254.33,132.83v-.07h1.36v-.07h.45v-.07h2.72v-.07h.45v-.07h.91v-.07h1.81v-.07h2.72v-.07h.45v-.13h1.36v-.07h.45v-.13h.45v-.07h.45v-.07h.45v-.07h.45v-.2h.45v-.07h2.26v-.07h.91v-.13h.45v-.13h.45v-.07h.91v-.2h.45v-.13h.45v-.13h.91v-.07h.45v-.07m0,0h.45v-.13h.91v-.13h.45v-.33h.45v-.13h.45v-.2h.45v-.2h.45v-.26h.45v-.07h.45v-.4h.45v-.2h.45v-.26h.45v-.2h.45v-.33h.45v-.13h.45v-.33h.45v-.6h.45v-.33h.45v-.27h.45v-.33h.45v-.66h.45v-.27h.45v-.53h.45v-.33h.45v-.53h.45m0,0v-.26h.45v-.33h.45v-.53h.45v-.4h.45v-.2h.45v-.46h.45v-.33h.45v-.53h.45v-.66h.45v-.53h.45v-.27h.45v-.53h.45v-.53h.45v-.46h.45v-.8h.45v-.6h.45v-.8h.45v-.53h.45v-.66h.45v-.4h.45v-.73h.45v-.4h.45v-.8h.45v-.86h.45v-.53m0,0h.45v-.53h.45v-.6h.45v-1.06h.45v-.86h.45v-.86h.45v-.6h.45v-1.06h.45v-1.06h.45v-.93h.45v-1.13h.45v-1.06h.45v-.46h.45v-.93h.45v-.86h.45v-.86h.45v-.66h.45v-.73h.45v-1h.45v-.73h.45v-1h.45v-.86h.45v-1.13h.45v-.86h.45v-1.13h.45m0,0v-.66h.45v-1.13h.45v-.73h.45v-.66h.45v-1h.45v-.53h.45v-1h.45v-.73h.45v-1.26h.45v-1.06h.45v-1h.45v-.46h.45v-1h.45v-.86h.45v-.53h.45v-1.13h.45v-.33h.45v-.86h.45v-.8h.45v-.66h.45v-.73h.45v-.46h.45v-.46h.45v-.8h.45v-.4m0,0h.45v-.8h.45v-1.13h.45v-1.13h.45v-.93h.45v-.93h.45v-.93h.45v-.73h.45v-.8h.45v-.73h.45v-.66h.45v-.4h.45v-.46h.45v-.66h.45v-.93h.45v-.53h.45v-.73h.45v-.6h.45v-.53h.45v-.6h.45v-.2h.45v-.46h.45v-.6h.45v-.66h.45v-.4h.45m0,0v-.86h.45v-.27h.45v-.2h.45v-.33h.45v-.4h.45v-.73h.45v-.33h.45v-.33h.45v-.33h.45v-.4h.45v-.13h.45v-.4h.45v-.2h.45v-.33h.45v-.4h.45v-.27h.45v-.4h.45v-.27h.45v-.33h.45v-.33h.45v-.27h.45v-.2h.45v-.13h.45v-.2h.45v-.07m0,0h.45v-.13h.91v-.2h.45v-.33h.45v-.27h.45v-.13h.45v-.2h.45v-.13h.45v-.07h.91v-.13h.45v-.13h.45v-.13h.45v-.33h.91v-.2h.45v-.13h.45v-.2h.45v-.2h.45v-.2h.45v-.13h.91v-.33h.45v-.13h1.36v-.07h1.36v-.07h.9v-.2h.91v-.07h.45m0,0v-.06"/><path class="n" d="M259.31,132.83v-.07h1.36v-.07h.91v-.07h2.26v-.07h.45v-.2h.45v-.13h.45v-.07h.45v-.07h.45v-.07h.45v-.13h.45v-.07h.45v-.13h.45v-.13h.45v-.07h.45v-.33h.45v-.13h.45v-.13h.45v-.07h.45v-.27h.45v-.33h.91v-.2h.91v-.2h.45v-.33h.45v-.07h.45v-.46m0,0h.45v-.27h.45v-.2h.45v-.6h.45v-.2h.45v-.13h.45v-.2h.45v-.4h.45v-.27h.45v-.26h.45v-.73h.45v-.33h.45v-.2h.45v-.27h.45v-.27h.45v-.46h.45v-.66h.45v-.73h.45v-.46h.45v-.6h.45v-.66h.45v-.6h.45v-1h.45v-.2h.45v-.4h.45m0,0v-.66h.45v-.6h.45v-.8h.45v-.66h.45v-.8h.45v-.46h.45v-.73h.45v-.6h.45v-.73h.45v-.93h.45v-.93h.45v-.66h.45v-.73h.45v-.86h.45v-.66h.45v-1.06h.45v-1.06h.45v-.93h.45v-.8h.45v-.66h.45v-.8h.45v-.46h.45v-.93h.45v-.86h.45v-1.06m0,0h.45v-1.39h.45v-.8h.45v-.99h.45v-1.19h.45v-1.46h.45v-.66h.45v-.73h.45v-1.06h.45v-1h.45v-.6h.45v-.73h.45v-.99h.45v-.86h.45v-1h.45v-.93h.45v-1.06h.45v-1.13h.45v-.86h.45v-1.13h.45v-.93h.45v-.73h.45v-.33h.45v-.46h.45v-.99h.45m0,0v-1.26h.45v-.99h.45v-1.19h.45v-.6h.45v-.86h.45v-.53h.45v-.46h.45v-.6h.45v-.93h.45v-.66h.45v-.66h.45v-.73h.45v-.53h.45v-.86h.45v-.53h.45v-.46h.45v-.53h.45v-.6h.45v-.93h.45v-.73h.45v-.66h.45v-.8h.45v-.4h.45v-.33h.45v-.4m0,0h.45v-.66h.45v-.4h.45v-.8h.45v-.4h.45v-.53h.45v-.4h.45v-1.06h.45v-.53h.45v-.53h.45v-.6h.45v-.6h.45v-.2h.45v-.53h.45v-.46h.45v-.53h.45v-.66h.45v-.33h.45v-.26h.45v-.33h.45v-.33h.45v-.13h.45v-.27h.45v-.4h.45v-.13h.45m0,0v-.4h.45v-.33h.45v-.27h.45v-.2h.45v-.13h.45v-.33h.45v-.2h.45v-.27h.45v-.07h.45v-.07h.45v-.4h.45v-.2h.45v-.27h.45v-.27h.45v-.27h.45v-.26h.45v-.2h.45v-.4h.45v-.13h.45v-.2h.45v-.2h.45v-.2h.45v-.26h.91v-.13h.45v-.07m0,0h.45v-.13h.45v-.13h.45v-.07h.45v-.2h.91v-.2h2.26v-.2h.91v-.2h.9v-.13h.45v-.07h.45v-.27h.45v-.07h1.81v-.13h.91v-.07h2.26v-.07h2.26v-.07h1.36v-.13h1.36v-.06"/><path class="b" d="M251.57,132.83h115.54m-107.8,0v-2.2m11.32,2.2v-2.2m11.32,2.2v-2.2m11.32,2.2v-2.2m11.32,2.2v-2.2m11.32,2.2v-2.2m11.32,2.2v-2.2m11.32,2.2v-2.2m11.32,2.2v-2.2m11.32,2.2v-2.2"/></g><g><g><g><rect class="x" x="443.62" y="64.33" width="5.46" height="14.06"/><rect class="x" x="449.08" y="67.14" width="5.46" height="11.25"/><rect class="x" x="454.54" y="61.52" width="5.46" height="16.88"/><rect class="x" x="459.99" y="50.27" width="5.46" height="28.12"/><rect class="x" x="465.45" y="53.08" width="5.46" height="25.31"/><rect class="x" x="470.91" y="33.39" width="5.46" height="45"/><rect class="x" x="476.36" y="50.27" width="5.46" height="28.12"/><rect class="x" x="481.82" y="64.33" width="5.46" height="14.06"/><rect class="x" x="487.27" y="50.27" width="5.46" height="28.12"/><rect class="x" x="492.73" y="69.95" width="5.46" height="8.44"/><path class="f" d="M443.62,78.39v-14.06h5.46v14.06m0,0v-11.25h5.46v11.25m0,0v-16.88h5.46v16.88m0,0v-28.12h5.46v28.12m0,0v-25.31h5.46v25.31m0,0V33.39h5.46v45m0,0v-28.12h5.46v28.12m0,0v-14.06h5.46v14.06m0,0v-28.12h5.46v28.12m0,0v-8.44h5.46v8.44"/><line class="j" x1="471.75" y1="78.39" x2="471.75" y2="28.89"/><line class="p" x1="461.81" y1="78.39" x2="461.81" y2="28.89"/></g><line class="c" x1="425.44" y1="78.39" x2="498.19" y2="78.39"/><line class="c" x1="425.44" y1="78.39" x2="425.44" y2="77.66"/><line class="c" x1="434.53" y1="78.39" x2="434.53" y2="76.89"/><line class="c" x1="443.62" y1="78.39" x2="443.62" y2="76.89"/><line class="c" x1="452.72" y1="78.39" x2="452.72" y2="76.89"/><line class="c" x1="461.81" y1="78.39" x2="461.81" y2="76.89"/><line class="c" x1="470.91" y1="78.39" x2="470.91" y2="76.89"/><line class="c" x1="480" y1="78.39" x2="480" y2="76.89"/><line class="c" x1="489.09" y1="78.39" x2="489.09" y2="76.89"/><line class="c" x1="498.19" y1="78.39" x2="498.19" y2="76.89"/><line class="c" x1="425.44" y1="78.39" x2="425.44" y2="28.89"/><line class="c" x1="425.44" y1="78.39" x2="426.16" y2="78.39"/><line class="c" x1="425.44" y1="64.33" x2="426.94" y2="64.33"/><line class="c" x1="425.44" y1="50.27" x2="426.94" y2="50.27"/><line class="c" x1="425.44" y1="36.2" x2="426.94" y2="36.2"/></g><g><g><g><rect class="x" x="450.9" y="143.26" width="4.73" height="3"/><rect class="x" x="455.63" y="134.26" width="4.73" height="12"/><rect class="x" x="460.36" y="137.26" width="4.73" height="9"/><rect class="x" x="493.46" y="143.26" width="4.73" height="3"/><rect class="x" x="465.09" y="125.26" width="4.73" height="21"/><rect class="x" x="469.81" y="107.26" width="4.73" height="39"/><rect class="x" x="474.54" y="104.26" width="4.73" height="42"/><rect class="x" x="479.27" y="122.26" width="4.73" height="24"/><rect class="x" x="484" y="101.26" width="4.73" height="45"/><rect class="x" x="488.73" y="113.26" width="4.73" height="33"/><path class="f" d="M450.9,146.26v-3h4.73v3m0,0v-12h4.73v12m0,0v-9h4.73v9m0,0v-21h4.73v21m0,0v-39h4.73v39m0,0v-42h4.73v42m0,0v-24h4.73v24m0,0v-45h4.73v45m0,0v-33h4.73v33m0,0v-3h4.73v3"/><line class="j" x1="477.97" y1="146.26" x2="477.97" y2="96.76"/><line class="p" x1="461.81" y1="146.26" x2="461.81" y2="96.76"/></g><line class="c" x1="425.44" y1="146.26" x2="498.19" y2="146.26"/><line class="c" x1="425.44" y1="146.26" x2="425.44" y2="145.53"/><line class="c" x1="434.53" y1="146.26" x2="434.53" y2="144.76"/><line class="c" x1="443.62" y1="146.26" x2="443.62" y2="144.76"/><line class="c" x1="452.72" y1="146.26" x2="452.72" y2="144.76"/><line class="c" x1="461.81" y1="146.26" x2="461.81" y2="144.76"/><line class="c" x1="470.91" y1="146.26" x2="470.91" y2="144.76"/><line class="c" x1="480" y1="146.26" x2="480" y2="144.76"/><line class="c" x1="489.09" y1="146.26" x2="489.09" y2="144.76"/><line class="c" x1="498.19" y1="146.26" x2="498.19" y2="144.76"/><line class="c" x1="425.44" y1="146.26" x2="425.44" y2="96.76"/><line class="c" x1="425.44" y1="146.26" x2="426.16" y2="146.26"/><line class="c" x1="425.44" y1="131.26" x2="426.94" y2="131.26"/><line class="c" x1="425.44" y1="116.26" x2="426.94" y2="116.26"/><line class="c" x1="425.44" y1="101.26" x2="426.94" y2="101.26"/></g><g><path class="v" d="M439.51,154.84v.59h-2.22v-.59h2.22Z"/><path class="v" d="M444.07,154.58c0,1.99-.74,3.09-2.03,3.09-1.14,0-1.92-1.07-1.94-3.01,0-1.96,.85-3.04,2.03-3.04s1.94,1.1,1.94,2.96Zm-3.18,.09c0,1.52,.47,2.39,1.19,2.39,.81,0,1.2-.95,1.2-2.44s-.37-2.39-1.19-2.39c-.69,0-1.2,.85-1.2,2.44Z"/><path class="v" d="M444.87,157.1c0-.33,.23-.57,.54-.57s.53,.23,.53,.57-.21,.57-.54,.57c-.32,0-.53-.24-.53-.57Z"/><path class="v" d="M450.16,152.39h-2.23l-.23,1.5c.14-.02,.26-.04,.48-.04,.45,0,.9,.1,1.26,.32,.46,.26,.84,.77,.84,1.5,0,1.14-.91,2-2.18,2-.64,0-1.18-.18-1.46-.36l.2-.6c.24,.14,.72,.32,1.25,.32,.75,0,1.39-.49,1.39-1.27,0-.76-.51-1.3-1.68-1.3-.33,0-.59,.04-.81,.06l.38-2.81h2.8v.67Z"/></g><g><path class="v" d="M478.26,154.58c0,1.99-.74,3.09-2.03,3.09-1.14,0-1.92-1.07-1.94-3.01,0-1.96,.85-3.04,2.03-3.04s1.94,1.1,1.94,2.96Zm-3.18,.09c0,1.52,.47,2.39,1.19,2.39,.81,0,1.2-.95,1.2-2.44s-.37-2.39-1.19-2.39c-.69,0-1.2,.85-1.2,2.44Z"/><path class="v" d="M479.05,157.1c0-.33,.22-.57,.54-.57s.53,.23,.53,.57-.21,.57-.54,.57c-.32,0-.53-.24-.53-.57Z"/><path class="v" d="M484.34,152.39h-2.23l-.23,1.5c.14-.02,.26-.04,.48-.04,.45,0,.9,.1,1.26,.32,.46,.26,.84,.77,.84,1.5,0,1.14-.91,2-2.18,2-.64,0-1.18-.18-1.46-.36l.2-.6c.24,.14,.72,.32,1.25,.32,.75,0,1.39-.49,1.39-1.27,0-.76-.51-1.3-1.68-1.3-.33,0-.59,.04-.81,.06l.38-2.81h2.8v.67Z"/></g><path class="v" d="M497.11,152.46h-.02l-1.02,.55-.15-.6,1.28-.68h.67v5.85h-.76v-5.11Z"/><g><path class="v" d="M424.97,154.84v.59h-2.22v-.59h2.22Z"/><path class="v" d="M427.36,152.46h-.02l-1.02,.55-.15-.6,1.28-.68h.67v5.85h-.76v-5.11Z"/></g><path class="v" d="M463.72,154.58c0,1.99-.74,3.09-2.04,3.09-1.14,0-1.92-1.07-1.94-3.01,0-1.96,.85-3.04,2.04-3.04s1.94,1.1,1.94,2.96Zm-3.18,.09c0,1.52,.47,2.39,1.19,2.39,.81,0,1.2-.95,1.2-2.44s-.37-2.39-1.19-2.39c-.69,0-1.2,.85-1.2,2.44Z"/></g><g><path class="v" d="M423.4,171.5c-.29,.14-.86,.29-1.6,.29-1.71,0-3-1.08-3-3.07s1.29-3.19,3.17-3.19c.76,0,1.23,.16,1.44,.27l-.19,.64c-.3-.14-.72-.25-1.22-.25-1.42,0-2.37,.91-2.37,2.5,0,1.49,.86,2.44,2.33,2.44,.48,0,.96-.1,1.28-.25l.16,.62Z"/><path class="v" d="M428.2,169.48c0,1.61-1.12,2.31-2.17,2.31-1.18,0-2.09-.86-2.09-2.24,0-1.46,.95-2.31,2.16-2.31s2.1,.91,2.1,2.24Zm-3.46,.05c0,.95,.55,1.67,1.32,1.67s1.32-.71,1.32-1.69c0-.74-.37-1.67-1.3-1.67s-1.34,.86-1.34,1.69Z"/><path class="v" d="M429.2,168.7c0-.51,0-.95-.04-1.36h.69l.03,.86h.04c.2-.59,.68-.95,1.21-.95,.09,0,.15,0,.22,.03v.75c-.08-.02-.16-.03-.27-.03-.56,0-.95,.42-1.06,1.02-.02,.11-.04,.23-.04,.37v2.32h-.78v-3Z"/><path class="v" d="M432.18,168.7c0-.51,0-.95-.04-1.36h.69l.03,.86h.04c.2-.59,.67-.95,1.21-.95,.09,0,.15,0,.22,.03v.75c-.08-.02-.16-.03-.27-.03-.56,0-.95,.42-1.06,1.02-.02,.11-.04,.23-.04,.37v2.32h-.78v-3Z"/><path class="v" d="M435.47,169.66c.02,1.07,.7,1.51,1.5,1.51,.57,0,.91-.1,1.21-.23l.13,.57c-.28,.13-.76,.27-1.45,.27-1.34,0-2.14-.88-2.14-2.2s.77-2.35,2.04-2.35c1.42,0,1.8,1.25,1.8,2.05,0,.16-.02,.29-.03,.37h-3.06Zm2.32-.57c0-.5-.21-1.29-1.1-1.29-.8,0-1.15,.74-1.21,1.29h2.31Z"/><path class="v" d="M439.54,165.3h.79v6.39h-.79v-6.39Z"/><path class="v" d="M444.07,171.7l-.06-.55h-.03c-.24,.34-.71,.65-1.33,.65-.88,0-1.33-.62-1.33-1.25,0-1.05,.94-1.63,2.62-1.62v-.09c0-.36-.1-1.01-.99-1.01-.41,0-.83,.13-1.13,.32l-.18-.52c.36-.23,.88-.39,1.43-.39,1.33,0,1.66,.91,1.66,1.78v1.63c0,.38,.02,.75,.07,1.04h-.72Zm-.12-2.22c-.86-.02-1.84,.13-1.84,.98,0,.51,.34,.76,.75,.76,.57,0,.93-.36,1.05-.73,.03-.08,.04-.17,.04-.25v-.76Z"/><path class="v" d="M446.92,166.09v1.25h1.13v.6h-1.13v2.35c0,.54,.15,.85,.59,.85,.21,0,.36-.03,.46-.05l.04,.59c-.15,.06-.4,.11-.7,.11-.37,0-.67-.12-.85-.33-.23-.23-.31-.62-.31-1.13v-2.38h-.67v-.6h.67v-1.04l.77-.21Z"/><path class="v" d="M449.82,166.11c0,.27-.19,.49-.5,.49-.28,0-.48-.22-.48-.49s.21-.5,.5-.5,.49,.22,.49,.5Zm-.88,5.58v-4.36h.79v4.36h-.79Z"/><path class="v" d="M454.99,169.48c0,1.61-1.12,2.31-2.17,2.31-1.18,0-2.09-.86-2.09-2.24,0-1.46,.95-2.31,2.16-2.31s2.1,.91,2.1,2.24Zm-3.46,.05c0,.95,.55,1.67,1.32,1.67s1.32-.71,1.32-1.69c0-.74-.37-1.67-1.31-1.67s-1.34,.86-1.34,1.69Z"/><path class="v" d="M455.99,168.52c0-.45,0-.82-.04-1.18h.7l.04,.72h.02c.22-.41,.72-.82,1.44-.82,.6,0,1.54,.36,1.54,1.85v2.6h-.79v-2.51c0-.7-.26-1.29-1.01-1.29-.52,0-.93,.37-1.06,.81-.04,.1-.05,.23-.05,.37v2.62h-.79v-3.18Z"/><path class="v" d="M466,171.53c-.21,.11-.67,.25-1.25,.25-1.31,0-2.17-.89-2.17-2.22s.92-2.31,2.34-2.31c.47,0,.88,.12,1.1,.23l-.18,.61c-.19-.11-.49-.21-.92-.21-1,0-1.54,.74-1.54,1.65,0,1.01,.65,1.63,1.51,1.63,.45,0,.75-.12,.97-.22l.13,.59Z"/><path class="v" d="M470.81,169.48c0,1.61-1.12,2.31-2.17,2.31-1.18,0-2.09-.86-2.09-2.24,0-1.46,.95-2.31,2.16-2.31s2.1,.91,2.1,2.24Zm-3.46,.05c0,.95,.55,1.67,1.32,1.67s1.32-.71,1.32-1.69c0-.74-.37-1.67-1.3-1.67s-1.34,.86-1.34,1.69Z"/><path class="v" d="M472.25,169.66c.02,1.07,.7,1.51,1.5,1.51,.57,0,.91-.1,1.21-.23l.13,.57c-.28,.13-.76,.27-1.45,.27-1.34,0-2.14-.88-2.14-2.2s.77-2.35,2.04-2.35c1.42,0,1.8,1.25,1.8,2.05,0,.16-.02,.29-.03,.37h-3.06Zm2.32-.57c0-.5-.21-1.29-1.1-1.29-.8,0-1.15,.74-1.21,1.29h2.31Z"/><path class="v" d="M481.78,166.08c-.2-.13-.52-.23-.88-.23-.84,0-1.09,.58-1.09,1.28v.22h2.54v4.36h-.79v-3.75h-1.74v3.75h-.79v-3.75h-1.84v3.75h-.78v-3.75h-.61v-.6h.61v-.16c0-.55,.14-1.08,.52-1.45,.25-.26,.63-.42,1.12-.42,.3,0,.6,.11,.77,.19l-.22,.58c-.13-.07-.34-.15-.55-.15-.25,0-.43,.09-.57,.23-.22,.23-.29,.63-.29,1.01v.17h1.84v-.23c0-1.15,.68-1.9,1.91-1.9,.4,0,.85,.12,1.08,.28l-.23,.59Z"/><path class="v" d="M486.76,171.53c-.21,.11-.67,.25-1.25,.25-1.31,0-2.17-.89-2.17-2.22s.92-2.31,2.34-2.31c.47,0,.88,.12,1.1,.23l-.18,.61c-.19-.11-.49-.21-.92-.21-1,0-1.54,.74-1.54,1.65,0,1.01,.65,1.63,1.51,1.63,.45,0,.75-.12,.97-.22l.13,.59Z"/><path class="v" d="M488.57,166.11c0,.27-.19,.49-.5,.49-.28,0-.48-.22-.48-.49s.21-.5,.5-.5,.49,.22,.49,.5Zm-.88,5.58v-4.36h.79v4.36h-.79Z"/><path class="v" d="M490.23,169.66c.02,1.07,.7,1.51,1.49,1.51,.57,0,.91-.1,1.21-.23l.13,.57c-.28,.13-.76,.27-1.45,.27-1.34,0-2.14-.88-2.14-2.2s.77-2.35,2.04-2.35c1.42,0,1.8,1.25,1.8,2.05,0,.16-.02,.29-.03,.37h-3.06Zm2.32-.57c0-.5-.21-1.29-1.1-1.29-.8,0-1.15,.74-1.22,1.29h2.31Z"/><path class="v" d="M494.3,168.52c0-.45,0-.82-.04-1.18h.7l.04,.72h.02c.22-.41,.72-.82,1.44-.82,.6,0,1.54,.36,1.54,1.85v2.6h-.79v-2.51c0-.7-.26-1.29-1.01-1.29-.52,0-.93,.37-1.06,.81-.04,.1-.05,.23-.05,.37v2.62h-.79v-3.18Z"/><path class="v" d="M500.21,166.09v1.25h1.13v.6h-1.13v2.35c0,.54,.15,.85,.59,.85,.21,0,.36-.03,.46-.05l.04,.59c-.15,.06-.4,.11-.7,.11-.37,0-.67-.12-.86-.33-.22-.23-.31-.62-.31-1.13v-2.38h-.68v-.6h.68v-1.04l.77-.21Z"/><path class="v" d="M502.13,170.89c.23,.15,.65,.31,1.04,.31,.58,0,.85-.29,.85-.65s-.22-.58-.81-.8c-.78-.28-1.15-.71-1.15-1.23,0-.7,.57-1.28,1.5-1.28,.44,0,.83,.13,1.07,.27l-.2,.58c-.17-.11-.49-.25-.89-.25-.47,0-.73,.27-.73,.59,0,.36,.26,.52,.83,.74,.76,.29,1.14,.67,1.14,1.31,0,.77-.59,1.31-1.63,1.31-.48,0-.92-.12-1.22-.3l.2-.6Z"/></g><g><path class="v" d="M440.1,18.5c0,.27-.19,.49-.5,.49-.28,0-.48-.22-.48-.49s.21-.5,.5-.5,.49,.22,.49,.5Zm-.88,5.58v-4.36h.79v4.36h-.79Z"/><path class="v" d="M444.5,21.24h-2.36v2.19h2.63v.66h-3.41v-6.07h3.28v.66h-2.49v1.92h2.36v.65Z"/><path class="v" d="M445.78,18.1c.4-.08,.96-.13,1.5-.13,.84,0,1.38,.15,1.76,.5,.31,.27,.48,.68,.48,1.15,0,.8-.5,1.33-1.14,1.55v.03c.47,.16,.75,.59,.89,1.22,.2,.85,.34,1.43,.47,1.67h-.81c-.1-.17-.23-.69-.41-1.45-.18-.84-.5-1.15-1.22-1.18h-.74v2.63h-.78v-5.99Zm.78,2.76h.8c.84,0,1.37-.46,1.37-1.15,0-.78-.57-1.12-1.4-1.13-.38,0-.65,.04-.77,.07v2.21Z"/><path class="v" d="M450.63,24.09v-6.07h.86l1.94,3.07c.45,.71,.8,1.35,1.09,1.97h.02c-.07-.82-.09-1.56-.09-2.5v-2.54h.74v6.07h-.79l-1.93-3.08c-.42-.67-.83-1.37-1.13-2.03h-.03c.04,.77,.06,1.5,.06,2.51v2.59h-.74Z"/><path class="v" d="M458.43,17.69h.79v6.39h-.79v-6.39Z"/><path class="v" d="M462.96,24.09l-.06-.55h-.03c-.24,.34-.71,.65-1.33,.65-.88,0-1.33-.62-1.33-1.25,0-1.05,.94-1.63,2.62-1.62v-.09c0-.36-.1-1.01-.99-1.01-.41,0-.83,.13-1.13,.32l-.18-.52c.36-.23,.88-.39,1.43-.39,1.33,0,1.66,.91,1.66,1.78v1.63c0,.38,.02,.75,.07,1.04h-.72Zm-.12-2.22c-.86-.02-1.84,.13-1.84,.98,0,.51,.34,.76,.75,.76,.57,0,.93-.36,1.05-.73,.03-.08,.04-.17,.04-.25v-.76Z"/><path class="v" d="M465.81,18.48v1.25h1.13v.6h-1.13v2.35c0,.54,.15,.85,.59,.85,.21,0,.36-.03,.46-.05l.04,.59c-.15,.06-.4,.11-.7,.11-.37,0-.67-.12-.85-.33-.23-.23-.31-.62-.31-1.13v-2.38h-.67v-.6h.67v-1.04l.77-.21Z"/><path class="v" d="M468.22,22.05c.02,1.07,.7,1.51,1.49,1.51,.57,0,.91-.1,1.21-.23l.13,.57c-.28,.13-.76,.27-1.45,.27-1.34,0-2.14-.88-2.14-2.2s.77-2.35,2.04-2.35c1.42,0,1.8,1.25,1.8,2.05,0,.16-.02,.29-.03,.37h-3.06Zm2.32-.57c0-.5-.21-1.29-1.1-1.29-.8,0-1.15,.74-1.22,1.29h2.31Z"/><path class="v" d="M472.29,20.91c0-.45,0-.82-.04-1.18h.7l.04,.72h.02c.22-.41,.72-.82,1.44-.82,.6,0,1.54,.36,1.54,1.85v2.6h-.79v-2.51c0-.7-.26-1.29-1.01-1.29-.52,0-.93,.37-1.06,.81-.04,.1-.05,.23-.05,.37v2.62h-.79v-3.18Z"/><path class="v" d="M480.39,23.92c-.21,.11-.67,.25-1.25,.25-1.31,0-2.17-.89-2.17-2.22s.92-2.31,2.34-2.31c.47,0,.88,.12,1.1,.23l-.18,.61c-.19-.11-.49-.21-.92-.21-1,0-1.54,.74-1.54,1.65,0,1.01,.65,1.63,1.51,1.63,.45,0,.75-.12,.97-.22l.14,.59Z"/><path class="v" d="M481.77,19.73l.95,2.57c.1,.29,.21,.63,.28,.89h.02c.08-.26,.17-.59,.28-.91l.86-2.56h.84l-1.19,3.11c-.57,1.49-.95,2.26-1.49,2.73-.39,.34-.77,.48-.97,.51l-.2-.67c.2-.06,.46-.19,.69-.39,.22-.17,.49-.48,.67-.88,.04-.08,.06-.14,.06-.19s-.02-.11-.05-.21l-1.61-4.02h.86Z"/></g><g><path class="v" d="M434.39,87.72c0,.27-.19,.49-.5,.49-.28,0-.48-.22-.48-.49s.21-.5,.5-.5,.49,.22,.49,.5Zm-.88,5.58v-4.36h.79v4.36h-.79Z"/><path class="v" d="M438.78,90.46h-2.36v2.19h2.63v.66h-3.41v-6.07h3.28v.66h-2.49v1.92h2.36v.65Z"/><path class="v" d="M440.07,87.32c.4-.08,.96-.13,1.5-.13,.84,0,1.38,.15,1.76,.5,.31,.27,.48,.68,.48,1.15,0,.8-.5,1.33-1.14,1.55v.03c.47,.16,.75,.59,.89,1.22,.2,.85,.34,1.43,.47,1.67h-.81c-.1-.17-.23-.69-.41-1.45-.18-.84-.5-1.15-1.21-1.18h-.74v2.63h-.78v-5.99Zm.78,2.76h.8c.84,0,1.37-.46,1.37-1.15,0-.78-.57-1.12-1.4-1.13-.38,0-.65,.04-.77,.07v2.21Z"/><path class="v" d="M444.91,93.31v-6.07h.86l1.94,3.07c.45,.71,.8,1.35,1.09,1.97h.02c-.07-.82-.09-1.56-.09-2.5v-2.54h.74v6.07h-.79l-1.93-3.08c-.42-.67-.83-1.37-1.13-2.03h-.03c.04,.77,.06,1.5,.06,2.51v2.59h-.74Z"/><path class="v" d="M455.13,93.31l-.06-.55h-.03c-.24,.34-.71,.65-1.33,.65-.88,0-1.33-.62-1.33-1.25,0-1.05,.94-1.63,2.62-1.62v-.09c0-.36-.1-1.01-.99-1.01-.41,0-.83,.13-1.13,.32l-.18-.52c.36-.23,.88-.39,1.43-.39,1.33,0,1.66,.91,1.66,1.78v1.63c0,.38,.02,.75,.07,1.04h-.72Zm-.12-2.22c-.86-.02-1.85,.13-1.85,.98,0,.51,.34,.76,.75,.76,.57,0,.93-.36,1.05-.73,.03-.08,.04-.17,.04-.25v-.76Z"/><path class="v" d="M457.05,90.13c0-.45,0-.82-.04-1.18h.69l.04,.7h.03c.24-.41,.65-.8,1.37-.8,.59,0,1.04,.36,1.23,.87h.02c.14-.24,.31-.43,.49-.57,.26-.2,.55-.31,.96-.31,.58,0,1.43,.38,1.43,1.89v2.57h-.77v-2.47c0-.84-.31-1.34-.95-1.34-.45,0-.8,.33-.94,.72-.04,.11-.06,.25-.06,.4v2.69h-.77v-2.61c0-.69-.31-1.2-.91-1.2-.5,0-.85,.4-.98,.79-.05,.12-.06,.25-.06,.39v2.63h-.77v-3.18Z"/><path class="v" d="M464.56,90.37c0-.56-.02-1.01-.04-1.42h.71l.04,.75h.02c.32-.53,.84-.85,1.55-.85,1.05,0,1.85,.89,1.85,2.21,0,1.57-.95,2.34-1.98,2.34-.58,0-1.08-.25-1.34-.68h-.02v2.37h-.78v-4.72Zm.78,1.16c0,.12,.02,.23,.04,.32,.14,.55,.62,.93,1.19,.93,.84,0,1.32-.68,1.32-1.68,0-.87-.46-1.62-1.3-1.62-.54,0-1.04,.39-1.2,.98-.03,.1-.05,.22-.05,.32v.75Z"/><path class="v" d="M469.68,86.91h.79v6.39h-.79v-6.39Z"/><path class="v" d="M472.68,87.72c0,.27-.19,.49-.5,.49-.28,0-.48-.22-.48-.49s.21-.5,.5-.5,.49,.22,.49,.5Zm-.88,5.58v-4.36h.79v4.36h-.79Z"/><path class="v" d="M474.86,87.7v1.25h1.13v.6h-1.13v2.35c0,.54,.15,.85,.59,.85,.21,0,.36-.03,.46-.05l.04,.59c-.15,.06-.4,.11-.7,.11-.37,0-.67-.12-.85-.33-.23-.23-.31-.62-.31-1.13v-2.38h-.67v-.6h.67v-1.04l.77-.21Z"/><path class="v" d="M480.53,92.12c0,.45,0,.85,.04,1.19h-.7l-.04-.71h-.02c-.21,.35-.67,.81-1.44,.81-.68,0-1.5-.38-1.5-1.91v-2.55h.79v2.41c0,.83,.25,1.39,.97,1.39,.53,0,.9-.37,1.04-.72,.04-.12,.07-.26,.07-.41v-2.67h.79v3.17Z"/><path class="v" d="M485.61,86.91v5.27c0,.39,0,.83,.04,1.13h-.71l-.04-.76h-.02c-.24,.49-.77,.86-1.49,.86-1.05,0-1.86-.89-1.86-2.21,0-1.45,.89-2.34,1.95-2.34,.67,0,1.12,.32,1.31,.67h.02v-2.6h.79Zm-.79,3.81c0-.1,0-.23-.04-.33-.12-.5-.55-.92-1.14-.92-.82,0-1.31,.72-1.31,1.68,0,.88,.43,1.61,1.29,1.61,.53,0,1.02-.35,1.16-.95,.03-.11,.04-.22,.04-.34v-.76Z"/><path class="v" d="M487.36,91.27c.02,1.07,.7,1.51,1.5,1.51,.57,0,.91-.1,1.21-.23l.13,.57c-.28,.13-.76,.27-1.45,.27-1.34,0-2.14-.88-2.14-2.2s.77-2.35,2.04-2.35c1.42,0,1.8,1.25,1.8,2.05,0,.16-.02,.29-.03,.37h-3.06Zm2.32-.57c0-.5-.21-1.29-1.1-1.29-.8,0-1.15,.74-1.21,1.29h2.31Z"/></g><g><path class="v" d="M401.64,139.58h-6.07v-.86l3.07-1.94c.71-.45,1.35-.8,1.97-1.09v-.02c-.82,.07-1.56,.09-2.5,.09h-2.54v-.74h6.07v.79l-3.08,1.93c-.67,.42-1.37,.83-2.03,1.13v.03c.77-.04,1.5-.06,2.51-.06h2.59v.74Z"/><path class="v" d="M400.45,130.03c.45,0,.85,0,1.19-.04v.7l-.71,.04v.02c.35,.21,.81,.67,.81,1.44,0,.68-.38,1.5-1.91,1.5h-2.55v-.79h2.41c.83,0,1.39-.25,1.39-.97,0-.53-.37-.9-.72-1.04-.12-.04-.26-.07-.41-.07h-2.67v-.79h3.17Z"/><path class="v" d="M398.46,128.72c-.45,0-.82,0-1.18,.04v-.69l.7-.04v-.03c-.41-.24-.8-.65-.8-1.37,0-.59,.36-1.04,.87-1.23v-.02c-.24-.14-.43-.31-.57-.49-.2-.26-.31-.55-.31-.96,0-.58,.38-1.43,1.89-1.43h2.57v.77h-2.47c-.84,0-1.34,.31-1.34,.95,0,.45,.33,.8,.72,.94,.11,.04,.25,.06,.4,.06h2.69v.77h-2.61c-.69,0-1.2,.31-1.2,.91,0,.5,.4,.85,.79,.98,.12,.05,.25,.06,.39,.06h2.63v.77h-3.18Z"/><path class="v" d="M401.64,121.25c-.3-.02-.74-.04-1.12-.04h-5.27v-.78h2.74v-.02c-.49-.28-.8-.78-.8-1.49,0-1.08,.9-1.85,2.22-1.84,1.56,0,2.33,.98,2.33,1.95,0,.63-.24,1.13-.82,1.46v.03l.72,.04v.68Zm-1.75-.82c.1,0,.2-.02,.29-.04,.55-.15,.93-.61,.93-1.19,0-.83-.67-1.32-1.67-1.32-.87,0-1.62,.45-1.62,1.3,0,.54,.37,1.04,.97,1.21,.09,.02,.2,.04,.32,.04h.78Z"/><path class="v" d="M399.6,115.65c1.07-.02,1.51-.7,1.51-1.49,0-.57-.1-.91-.22-1.21l.57-.13c.13,.28,.27,.76,.27,1.45,0,1.34-.88,2.14-2.2,2.14s-2.35-.77-2.35-2.04c0-1.42,1.25-1.8,2.05-1.8,.16,0,.29,.02,.37,.03v3.06Zm-.57-2.32c-.5,0-1.29,.21-1.29,1.1,0,.8,.74,1.15,1.29,1.22v-2.31Z"/><path class="v" d="M398.64,111.59c-.51,0-.95,0-1.36,.04v-.69l.86-.03v-.04c-.58-.2-.95-.68-.95-1.21,0-.09,0-.15,.03-.22h.75c-.02,.08-.03,.16-.03,.27,0,.56,.42,.95,1.02,1.06,.11,.02,.23,.04,.37,.04h2.32v.78h-3Z"/><path class="v" d="M399.42,102.79c1.61,0,2.31,1.12,2.31,2.17,0,1.18-.86,2.09-2.24,2.09-1.46,0-2.31-.95-2.31-2.16s.91-2.1,2.24-2.1Zm.04,3.46c.95,0,1.67-.55,1.67-1.32s-.71-1.32-1.69-1.32c-.74,0-1.67,.37-1.67,1.31s.86,1.34,1.69,1.34Z"/><path class="v" d="M401.64,101.71h-3.75v.61h-.6v-.61h-.21c-.61,0-1.17-.13-1.52-.5-.29-.3-.41-.69-.41-1.06,0-.28,.06-.52,.13-.68l.61,.11c-.05,.12-.1,.28-.1,.5,0,.68,.59,.85,1.26,.85h.23v-1.05h.6v1.05h3.75v.78Z"/><path class="v" d="M399.6,96.82c1.07-.02,1.51-.7,1.51-1.49,0-.57-.1-.91-.22-1.21l.57-.13c.13,.28,.27,.76,.27,1.45,0,1.34-.88,2.14-2.2,2.14s-2.35-.77-2.35-2.04c0-1.42,1.25-1.8,2.05-1.8,.16,0,.29,.02,.37,.03v3.06Zm-.57-2.32c-.5,0-1.29,.21-1.29,1.1,0,.8,.74,1.15,1.29,1.22v-2.31Z"/><path class="v" d="M395.24,92.75v-.79h6.39v.79h-6.39Z"/><path class="v" d="M399.6,90.18c1.07-.02,1.51-.7,1.51-1.49,0-.57-.1-.91-.22-1.21l.57-.13c.13,.28,.27,.76,.27,1.45,0,1.34-.88,2.14-2.2,2.14s-2.35-.77-2.35-2.04c0-1.42,1.25-1.8,2.05-1.8,.16,0,.29,.02,.37,.03v3.06Zm-.57-2.32c-.5,0-1.29,.21-1.29,1.1,0,.8,.74,1.15,1.29,1.22v-2.31Z"/><path class="v" d="M401.47,83.01c.11,.21,.25,.67,.25,1.25,0,1.31-.89,2.17-2.22,2.17s-2.31-.92-2.31-2.34c0-.47,.12-.88,.22-1.1l.61,.18c-.11,.19-.21,.49-.21,.92,0,1,.74,1.54,1.65,1.54,1.01,0,1.63-.65,1.63-1.51,0-.45-.12-.75-.22-.97l.59-.14Z"/><path class="v" d="M396.03,81.01h1.25v-1.13h.6v1.13h2.35c.54,0,.85-.15,.85-.59,0-.21-.03-.36-.05-.46l.59-.04c.06,.15,.11,.4,.11,.7,0,.37-.12,.67-.33,.85-.23,.23-.62,.31-1.13,.31h-2.38v.68h-.6v-.68h-1.04l-.21-.77Z"/><path class="v" d="M398.64,78.99c-.51,0-.95,0-1.36,.04v-.69l.86-.03v-.04c-.58-.2-.95-.68-.95-1.21,0-.09,0-.15,.03-.23h.75c-.02,.08-.03,.16-.03,.27,0,.56,.42,.95,1.02,1.06,.11,.02,.23,.04,.37,.04h2.32v.78h-3Z"/><path class="v" d="M399.42,72.19c1.61,0,2.31,1.12,2.31,2.17,0,1.18-.86,2.09-2.24,2.09-1.46,0-2.31-.95-2.31-2.16s.91-2.1,2.24-2.1Zm.04,3.46c.95,0,1.67-.55,1.67-1.32s-.71-1.32-1.69-1.32c-.74,0-1.67,.37-1.67,1.31s.86,1.34,1.69,1.34Z"/><path class="v" d="M395.24,67.43h5.27c.39,0,.83,0,1.12-.04v.71l-.76,.04v.02c.49,.24,.85,.77,.85,1.49,0,1.05-.89,1.86-2.21,1.86-1.45,0-2.34-.89-2.34-1.95,0-.67,.31-1.12,.67-1.31v-.02h-2.6v-.79Zm3.81,.79c-.1,0-.23,0-.33,.04-.5,.12-.92,.55-.92,1.14,0,.82,.72,1.31,1.68,1.31,.88,0,1.61-.43,1.61-1.29,0-.53-.35-1.02-.95-1.16-.11-.03-.22-.04-.34-.04h-.76Z"/><path class="v" d="M399.6,65.68c1.07-.02,1.51-.7,1.51-1.49,0-.57-.1-.91-.22-1.21l.57-.13c.13,.28,.27,.76,.27,1.45,0,1.34-.88,2.14-2.2,2.14s-2.35-.77-2.35-2.04c0-1.42,1.25-1.8,2.05-1.8,.16,0,.29,.02,.37,.03v3.06Zm-.57-2.32c-.5,0-1.29,.21-1.29,1.1,0,.8,.74,1.15,1.29,1.22v-2.31Z"/><path class="v" d="M400.82,61.72c.15-.23,.32-.65,.32-1.04,0-.58-.29-.85-.65-.85s-.58,.23-.8,.81c-.28,.78-.71,1.15-1.23,1.15-.7,0-1.28-.57-1.28-1.5,0-.44,.13-.83,.27-1.07l.58,.2c-.11,.17-.25,.49-.25,.89,0,.47,.27,.73,.59,.73,.36,0,.52-.26,.74-.83,.29-.76,.67-1.14,1.31-1.14,.77,0,1.31,.59,1.31,1.63,0,.48-.12,.92-.3,1.22l-.6-.2Z"/><path class="v" d="M398.7,56.14c-.56,0-1.01,.02-1.42,.04v-.71l.75-.04v-.02c-.53-.32-.85-.84-.85-1.55,0-1.05,.89-1.85,2.21-1.85,1.57,0,2.34,.95,2.34,1.98,0,.58-.25,1.08-.68,1.34v.02h2.37v.78h-4.72Zm1.16-.78c.12,0,.22-.02,.32-.04,.55-.14,.93-.62,.93-1.19,0-.84-.68-1.32-1.68-1.32-.87,0-1.62,.46-1.62,1.3,0,.54,.39,1.04,.98,1.2,.1,.03,.22,.05,.32,.05h.75Z"/><path class="v" d="M401.64,48.6l-.55,.06v.03c.34,.24,.65,.71,.65,1.33,0,.88-.62,1.33-1.25,1.33-1.05,0-1.63-.94-1.62-2.62h-.09c-.36,0-1.01,.1-1.01,.99,0,.41,.13,.83,.32,1.13l-.52,.18c-.23-.36-.39-.88-.39-1.43,0-1.33,.91-1.66,1.78-1.66h1.63c.38,0,.75-.02,1.04-.07v.72Zm-2.22,.12c-.02,.86,.13,1.85,.98,1.85,.51,0,.76-.34,.76-.75,0-.57-.36-.93-.73-1.05-.08-.03-.17-.04-.25-.04h-.76Z"/><path class="v" d="M396.05,45.8c.27,0,.49,.19,.49,.5,0,.28-.22,.48-.49,.48s-.5-.21-.5-.5,.22-.49,.5-.49Zm5.58,.88h-4.36v-.79h4.36v.79Z"/><path class="v" d="M398.64,44.57c-.51,0-.95,0-1.36,.04v-.69l.86-.03v-.04c-.58-.2-.95-.68-.95-1.21,0-.09,0-.15,.03-.22h.75c-.02,.08-.03,.16-.03,.27,0,.56,.42,.95,1.02,1.06,.11,.02,.23,.04,.37,.04h2.32v.78h-3Z"/><path class="v" d="M400.82,41.74c.15-.23,.32-.65,.32-1.04,0-.58-.29-.85-.65-.85s-.58,.22-.8,.81c-.28,.78-.71,1.15-1.23,1.15-.7,0-1.28-.57-1.28-1.5,0-.44,.13-.83,.27-1.07l.58,.2c-.11,.17-.25,.49-.25,.89,0,.47,.27,.73,.59,.73,.36,0,.52-.26,.74-.83,.29-.76,.67-1.14,1.31-1.14,.77,0,1.31,.59,1.31,1.63,0,.48-.12,.92-.3,1.22l-.6-.2Z"/></g><path class="v" d="M421.45,63.9h-2.42l-.24,1.63c.15-.02,.28-.04,.52-.04,.49,0,.98,.11,1.37,.34,.5,.28,.91,.83,.91,1.63,0,1.24-.99,2.16-2.36,2.16-.69,0-1.28-.2-1.58-.39l.21-.65c.26,.16,.78,.35,1.36,.35,.81,0,1.5-.53,1.5-1.38,0-.82-.56-1.4-1.82-1.4-.36,0-.64,.04-.88,.07l.41-3.04h3.03v.72Z"/><g><path class="v" d="M414.53,48.29h-.02l-1.1,.59-.17-.65,1.38-.74h.73v6.34h-.83v-5.54Z"/><path class="v" d="M421.88,50.59c0,2.15-.8,3.34-2.2,3.34-1.24,0-2.08-1.16-2.1-3.26,0-2.13,.92-3.3,2.2-3.3s2.1,1.19,2.1,3.21Zm-3.44,.1c0,1.65,.51,2.58,1.29,2.58,.88,0,1.3-1.02,1.3-2.64s-.4-2.58-1.29-2.58c-.75,0-1.3,.92-1.3,2.64Z"/></g><g><path class="v" d="M414.53,32.61h-.02l-1.1,.59-.17-.65,1.38-.74h.73v6.34h-.83v-5.54Z"/><path class="v" d="M421.45,32.53h-2.42l-.24,1.63c.15-.02,.28-.04,.52-.04,.49,0,.98,.11,1.37,.34,.5,.28,.91,.83,.91,1.63,0,1.24-.99,2.16-2.36,2.16-.69,0-1.28-.2-1.58-.39l.21-.65c.26,.16,.78,.35,1.36,.35,.81,0,1.5-.53,1.5-1.38,0-.82-.56-1.4-1.82-1.4-.36,0-.64,.04-.88,.07l.41-3.04h3.03v.72Z"/></g><path class="v" d="M422.7,128.86h-2.42l-.24,1.63c.15-.02,.28-.04,.52-.04,.49,0,.97,.11,1.37,.34,.5,.28,.91,.83,.91,1.63,0,1.24-.98,2.16-2.36,2.16-.69,0-1.28-.2-1.58-.39l.21-.65c.26,.16,.78,.35,1.36,.35,.81,0,1.5-.53,1.5-1.38,0-.82-.56-1.4-1.82-1.4-.36,0-.64,.04-.88,.07l.41-3.04h3.03v.72Z"/><g><path class="v" d="M415.78,113.25h-.02l-1.1,.59-.17-.65,1.38-.74h.73v6.34h-.83v-5.54Z"/><path class="v" d="M423.13,115.55c0,2.15-.8,3.34-2.2,3.34-1.24,0-2.08-1.16-2.1-3.26,0-2.13,.92-3.3,2.2-3.3s2.1,1.19,2.1,3.21Zm-3.44,.1c0,1.65,.51,2.58,1.29,2.58,.88,0,1.3-1.02,1.3-2.64s-.4-2.58-1.29-2.58c-.75,0-1.3,.92-1.3,2.64Z"/></g><g><path class="v" d="M415.78,97.57h-.02l-1.1,.59-.17-.65,1.38-.74h.73v6.34h-.83v-5.54Z"/><path class="v" d="M422.7,97.49h-2.42l-.24,1.63c.15-.02,.28-.04,.52-.04,.49,0,.97,.11,1.37,.34,.5,.28,.91,.83,.91,1.63,0,1.24-.98,2.16-2.36,2.16-.69,0-1.28-.2-1.58-.39l.21-.65c.26,.16,.78,.35,1.36,.35,.81,0,1.5-.53,1.5-1.38,0-.82-.56-1.4-1.82-1.4-.36,0-.64,.04-.88,.07l.41-3.04h3.03v.72Z"/></g></g><path class="v" d="M2.22,4.2L.23,3.84c.22-.8,.61-1.4,1.16-1.78,.55-.39,1.36-.58,2.44-.58,.98,0,1.71,.12,2.19,.35,.48,.23,.82,.53,1.01,.88,.2,.36,.29,1.01,.29,1.96l-.02,2.56c0,.73,.04,1.27,.11,1.61,.07,.35,.2,.72,.39,1.11h-2.17c-.06-.15-.13-.36-.21-.65-.04-.13-.06-.22-.08-.26-.38,.36-.78,.64-1.2,.82-.43,.18-.88,.27-1.37,.27-.85,0-1.53-.23-2.02-.7-.49-.46-.74-1.05-.74-1.76,0-.47,.11-.89,.34-1.25,.22-.37,.54-.65,.94-.84,.4-.2,.99-.37,1.75-.51,1.03-.19,1.74-.37,2.13-.54v-.22c0-.42-.1-.72-.31-.9-.21-.18-.6-.27-1.18-.27-.39,0-.7,.08-.91,.23-.22,.15-.4,.42-.53,.81Zm2.94,1.78c-.28,.09-.73,.21-1.34,.34-.61,.13-1.01,.26-1.2,.38-.29,.2-.43,.46-.43,.77s.11,.57,.34,.8c.23,.22,.52,.34,.88,.34,.4,0,.77-.13,1.13-.39,.27-.2,.44-.44,.52-.73,.06-.19,.09-.54,.09-1.07v-.44Z"/><path class="v" d="M390.73,8.46l-2.16,.39c-.07-.43-.24-.76-.5-.98s-.59-.33-1-.33c-.55,0-.98,.19-1.31,.57-.33,.38-.49,1.01-.49,1.89,0,.98,.17,1.68,.5,2.09s.77,.61,1.33,.61c.42,0,.76-.12,1.02-.36,.27-.24,.45-.64,.56-1.22l2.16,.37c-.22,.99-.65,1.74-1.29,2.24-.64,.51-1.49,.76-2.55,.76-1.21,0-2.18-.38-2.9-1.15s-1.08-1.82-1.08-3.18,.36-2.44,1.09-3.2c.72-.76,1.7-1.14,2.94-1.14,1.01,0,1.81,.22,2.41,.65,.6,.44,1.02,1.1,1.29,1.99Z"/><path class="v" d="M191.35,11.45V0h2.2V4.12c.68-.77,1.48-1.16,2.41-1.16,1.01,0,1.85,.37,2.51,1.1,.66,.73,.99,1.78,.99,3.15s-.34,2.51-1.01,3.27c-.67,.77-1.49,1.15-2.46,1.15-.47,0-.94-.12-1.4-.36s-.86-.59-1.19-1.05v1.22h-2.04Zm2.18-4.33c0,.86,.14,1.5,.41,1.91,.38,.58,.89,.88,1.52,.88,.48,0,.9-.21,1.24-.62,.34-.41,.51-1.07,.51-1.96,0-.95-.17-1.63-.52-2.05-.34-.42-.78-.63-1.32-.63s-.96,.2-1.31,.61c-.35,.41-.52,1.03-.52,1.86Z"/></svg>